<svg xmlns="http://www.w3.org/2000/svg" width="88" height="78" viewBox="0 0 88 78" fill="none">
  <path opacity="0.11" d="M60.1268 76.0324H24.2244C16.7004 76.0324 9.60353 72.5272 5.01827 66.5464C-0.012805 59.984 -1.36413 51.3045 1.43294 43.5171L7.97581 25.3007C10.6771 17.7798 16.8968 12.0733 24.6079 10.0407L43.1458 5.15444C51.963 2.83036 61.3349 5.66629 67.3973 12.4929L81.7799 28.6884C88.4505 36.1999 89.8133 47.0564 85.207 55.9907L81.6458 62.8979C77.4866 70.9654 69.1851 76.0324 60.1268 76.0324Z" fill="#2A94F4"/>
  <path opacity="0.2" d="M14.1206 73.2959C14.1206 75.6993 27.1294 77.6493 43.178 77.6493C59.2243 77.6493 72.2331 75.6993 72.2331 73.2959C72.2331 70.8912 59.2243 68.9414 43.178 68.9414C27.1294 68.9414 14.1206 70.8912 14.1206 73.2959Z" fill="#2A94F4"/>
  <path d="M33.0933 14.73L33.4409 13.1296C33.4409 13.1296 35.1049 12.7057 35.2269 10.9459C35.3488 9.18585 31.9751 8.48815 31.5181 9.47223C31.3317 9.87341 31.1716 10.7382 31.0474 11.6219C30.8667 12.9059 30.7617 14.2299 30.7617 14.2299L33.0933 14.73Z" fill="#FCD2B1"/>
  <path d="M29.3973 13.0592C29.3973 13.0592 30.7756 12.4216 31.9867 12.9776C32.4618 13.1956 33.5656 14.1832 33.5656 14.1832C33.5656 14.1832 32.8535 26.65 32.5733 27.6748C32.6479 27.7004 32.7188 27.727 32.7948 27.756C35.7262 28.9291 40.0611 31.5568 41.9721 32.6552C42.8948 33.1859 42.5299 34.1264 43.1006 34.979C43.4889 35.5607 43.7766 36.2001 43.943 36.8885C44.2034 37.9741 44.1474 39.0994 43.2019 39.7835C42.8481 40.0408 42.4314 40.1747 42.0148 40.1903C41.5472 40.2098 41.0851 40.0832 40.6925 39.8278C38.0525 38.0864 30.7045 33.4573 29.2977 32.1438C29.0516 31.9128 28.8527 31.6685 28.7 31.4193C28.6402 31.3396 28.5866 31.2535 28.5292 31.1564C27.1171 28.6221 29.3973 13.0592 29.3973 13.0592Z" fill="#FFBE55"/>
  <path d="M46.0344 73.2891C46.0344 73.2891 51.6916 73.5339 55.9627 69.6984C59.3801 66.6294 61.9095 61.4983 62.6309 59.2536C63.3523 57.0088 63.662 52.5281 62.5817 51.7797C61.5013 51.0313 41.9395 69.6984 41.9395 69.6984L46.0344 73.2891Z" fill="#0B4870"/>
  <path d="M20.7275 61.1575C20.7275 61.1575 23.0844 58.4836 29.4479 58.4922C34.4029 58.4989 50.6595 62.9644 50.6595 62.9644L43.589 70.5432L20.7275 61.1575Z" fill="#0E538C"/>
  <path d="M50.3034 71.9607L47.0038 70.543L45.877 72.6696L47.3706 73.9107H49.8909L50.3034 71.9607Z" fill="#FCD2B1"/>
  <path d="M47.3706 73.9124C47.3706 73.9124 48.4769 74.0503 49.3018 73.0654C50.1267 72.0805 49.6554 71.667 50.1856 71.6078C50.7159 71.5488 53.0139 72.6121 55.3118 72.3758C57.6097 72.1396 58.3168 71.788 58.4346 72.6431C58.5525 73.4983 58.2506 76.6746 55.4814 76.5564C52.712 76.4383 47.3706 73.9124 47.3706 73.9124Z" fill="#0E538C"/>
  <path d="M29.448 62.2562C33.049 64.4564 47.9197 69.4595 47.9197 69.4595C47.9197 69.4595 48.4745 73.2958 45.2595 74.4398C45.2595 74.4398 27.3269 69.3672 23.0846 67.4161C18.8422 65.4651 20.1385 62.0529 20.7277 61.1598C21.3169 60.2666 24.9701 59.52 29.448 62.2562Z" fill="#0B4870"/>
  <path d="M54.3931 51.7961C53.8114 53.3094 53.6722 54.9609 54.0245 56.5475C54.7223 59.6969 53.9282 59.9082 53.9282 59.9082C53.9282 59.9082 50.1499 62.5377 46.4615 62.9311C43.1586 63.2834 37.3601 61.6761 37.4204 58.8671C37.4204 58.8671 39.9448 54.6561 39.6213 47.5866C39.2872 40.3341 41.0084 38.6702 42.5933 36.6117C44.9374 33.5672 35.6938 31.5222 52.9627 33.6376C56.7354 34.0997 58.4854 35.1375 58.4554 37.8821C58.4455 38.7943 57.6937 40.26 57.4527 41.6192C56.8418 45.0731 55.3833 49.2193 54.3931 51.7961Z" fill="#FFBE55"/>
  <path d="M52.4546 48.1725C51.0406 51.9534 46.8292 54.4636 42.8406 53.9043C41.3521 53.6944 39.9174 53.1017 38.7164 52.1948C37.2575 51.0942 36.166 49.5234 35.6037 47.7834C35.3728 47.0728 35.2309 46.3342 35.1877 45.5867C35.1015 44.0862 35.3944 42.6857 35.9666 41.4473C37.0131 39.174 38.9993 37.443 41.3117 36.6261C43.7417 35.7687 46.5319 35.9209 48.9699 37.5169C51.0002 38.8463 52.3612 41.0663 52.8139 43.4477V43.4486C53.114 45.0229 53.0169 46.6674 52.4546 48.1725Z" fill="#1282D6"/>
  <path d="M43.4901 47.1854C43.1451 47.3755 42.7274 47.4349 42.4328 47.6952C41.5713 48.4563 42.4786 50.0577 41.7851 50.9736C41.4348 51.4374 40.7368 51.55 40.2085 51.3069C39.6812 51.0637 39.3272 50.5287 39.197 49.9613C39.0523 49.3317 39.1017 48.5608 38.5825 48.178C38.3121 47.9789 37.9582 47.9492 37.624 47.9276C37.1227 47.8943 36.6206 47.8618 36.1193 47.8285C35.9495 47.8168 35.7752 47.8051 35.6037 47.7834C35.3728 47.0729 35.2309 46.3343 35.1877 45.5868C35.1015 44.0863 35.3944 42.6857 35.9666 41.4474C36.2316 41.297 36.5289 41.2159 36.8326 41.2456C37.3635 41.2969 37.81 41.6626 38.3229 41.8076C39.2707 42.0751 40.4529 41.6077 41.177 42.276C41.7025 42.7614 41.6738 43.5801 41.7061 44.2952C41.7394 45.0112 42.0142 45.8741 42.7177 46.0011C43.112 46.0731 43.6106 45.9056 43.8612 46.22C44.1073 46.5271 43.8342 46.9954 43.4901 47.1854ZM52.8139 43.4477V43.4486C52.7054 43.7217 52.559 43.9782 52.3791 44.2105C52.0207 44.6707 51.3604 45.0382 50.878 44.7131C50.1818 44.2447 50.6246 42.9 49.8907 42.4929C49.0921 42.0489 48.2144 43.3783 47.3394 43.1162C46.5004 42.864 46.5687 41.4527 45.7611 41.1123C45.2041 40.8772 44.6094 41.2996 44.1252 41.6608C43.6401 42.022 42.9385 42.3408 42.4777 41.9499C42.0887 41.6203 42.1561 41.0024 42.333 40.5242C42.51 40.046 42.7678 39.5497 42.6492 39.0534C42.4696 38.3058 41.529 37.95 41.317 37.2115C41.2613 37.0179 41.2649 36.8188 41.3116 36.6261C43.7416 35.7687 46.5318 35.9209 48.9699 37.5169C51.0002 38.8463 52.3611 41.0663 52.8139 43.4477ZM47.9954 50.1624C48.4008 49.6268 49.1368 49.5001 49.7267 49.1803C50.2475 48.898 50.6952 48.3866 50.7021 47.7931C50.7089 47.1995 50.11 46.6177 49.5468 46.8007C49.2334 46.9026 49.0178 47.1917 48.7247 47.3424C48.2351 47.5943 47.6481 47.4186 47.1113 47.2974C46.5744 47.1763 45.9149 47.1571 45.58 47.5949C45.0334 48.3098 45.4495 49.3629 44.8589 50.1857C44.3285 50.9248 43.6152 51.5372 44.4066 52.4175C44.9993 53.0769 46.1555 53.1367 46.8484 52.6248C47.6947 51.9996 47.4166 50.9271 47.9954 50.1624Z" fill="#9DDA9C"/>
  <path d="M50.311 30.428C50.2118 30.1253 49.8476 30.0038 49.5813 30.1775C48.6579 30.7796 47.8111 31.2011 46.4617 31.2011C46.1836 31.2011 46.0622 31.1558 45.9732 31.0922C45.7614 30.9407 45.468 30.9684 45.3044 31.1713C45.26 31.2263 45.2459 31.2687 45.3264 31.2859C45.8036 31.3879 46.15 31.7918 46.1777 32.2771L46.2841 34.2652C46.2875 34.3295 46.3036 34.3924 46.3313 34.4506L46.8618 35.5618C46.9891 35.8284 47.321 35.9222 47.5685 35.7616L48.5173 35.1457L50.34 33.9613C50.4129 33.9139 50.4718 33.848 50.5108 33.7703C50.5498 33.6926 50.5675 33.6058 50.562 33.519L50.3818 30.6676C50.3778 30.6104 50.3636 30.5543 50.3397 30.5022C50.3288 30.478 50.3192 30.4532 50.311 30.428Z" fill="#FCD2B1"/>
  <path d="M42.1279 24.1893C42.077 24.1852 42.1052 24.4757 41.6999 24.946C41.2945 25.4165 41.262 26.3657 41.2743 26.335C41.2865 26.3043 40.4908 24.1269 40.7189 23.5934C40.9469 23.06 41.4159 22.9249 41.5353 23.0989C41.6547 23.2729 42.1279 24.1893 42.1279 24.1893Z" fill="#0B4870"/>
  <path d="M51.1941 26.9055C51.2436 27.4151 51.2556 27.8726 51.2045 28.2054C51.1982 28.2532 51.1881 28.3004 51.1743 28.3465C51.164 28.3908 51.154 28.4392 51.1347 28.4883C50.6638 29.9654 48.4029 32.0715 46.839 32.2614C46.6324 32.2797 46.4296 32.2858 46.235 32.2793C44.063 32.2265 42.821 30.7509 42.114 29.1726C42.09 29.1155 42.0664 29.0623 42.0428 29.0089C41.4214 27.5417 41.2406 26.0275 41.194 25.4978C41.183 25.3723 41.1814 25.3012 41.1814 25.3012C41.0641 24.7224 41.1851 24.2689 41.2537 24.0809C41.2763 24.0155 41.2922 23.9826 41.2922 23.9826C41.2922 23.9826 41.3201 23.9761 41.3663 23.9641C41.9718 23.7998 46.0905 22.6918 46.1798 22.6838C46.269 22.6759 50.3934 22.8682 50.3934 22.8682C50.3934 22.8682 51.0184 25.1812 51.1941 26.9055Z" fill="#FFE3CA"/>
  <path d="M39.4761 22.0183C39.4761 22.0183 39.6097 25.1743 44.7816 23.912C48.1106 23.0995 48.8838 24.9252 49.0122 26.3295C49.0536 26.7825 49.5692 27.0168 49.9368 26.7502C50.1888 26.5674 50.7257 26.2999 50.9893 26.8465C51.681 28.2814 50.4108 29.8534 50.393 29.8916C50.393 29.8916 51.4027 30.6011 51.8639 27.6596C51.9288 27.2455 52.0061 22.1824 50.9821 20.7641C49.9582 19.3458 48.7361 19.4101 48.7361 19.4101C48.7361 19.4101 47.4418 18.3166 44.3922 19.2113C43.3214 19.5254 42.4295 19.6009 41.7229 19.5666C40.4004 19.5025 39.3334 20.6385 39.4698 21.9588L39.4761 22.0183Z" fill="#0B4870"/>
  <path d="M37.4204 69.8278L40.7632 68.5156L41.8223 70.677L40.2902 71.8701L37.7711 71.79L37.4204 69.8278Z" fill="#FCD2B1"/>
  <path d="M40.2901 71.8734C40.2901 71.8734 39.1799 71.9762 38.3866 70.9656C37.5932 69.9549 38.0775 69.5566 37.5493 69.4807C37.0211 69.4048 34.6907 70.3945 32.4014 70.0854C30.1121 69.7762 29.4165 69.4024 29.2717 70.2533C29.1269 71.1042 29.3281 74.2886 32.0998 74.2585C34.8716 74.2284 40.2901 71.8734 40.2901 71.8734ZM39.6184 67.392C39.6184 67.392 48.0673 60.5031 51.6025 56.8405C55.1378 53.178 57.3768 49.6008 61.5013 51.035C65.6258 52.4691 60.4408 60.1593 56.6698 63.1667C52.8989 66.1742 43.5839 72.8066 43.5839 72.8066C43.5839 72.8066 38.5867 71.0306 39.6184 67.392Z" fill="#0E538C"/>
  <path d="M31.443 9.23115C31.4842 8.98027 31.6203 8.75501 31.8231 8.60233C32.7696 7.88878 34.3335 6.85122 34.8428 7.371C35.4146 7.95455 37.7184 9.79204 34.832 12.1268L34.1389 12.7991L31.022 11.804L31.443 9.23115Z" fill="#FFE3CA"/>
  <path d="M38.6685 46.8802C38.7501 45.0539 37.3395 43.507 35.5179 43.4253C33.6963 43.3435 32.1534 44.7577 32.0718 46.584C32.0524 47.008 32.1148 47.4319 32.2555 47.8322L32.2253 47.8309L34.4914 53.6836C34.6866 54.1878 35.3863 54.2192 35.6257 53.7346L38.4045 48.1084L38.3743 48.107C38.5501 47.7208 38.65 47.3043 38.6685 46.8802ZM35.2959 48.3928C34.3752 48.3515 33.6622 47.5696 33.7034 46.6464C33.7446 45.7233 34.5244 45.0084 35.4453 45.0498C36.366 45.0911 37.079 45.873 37.0378 46.7961C36.9966 47.7193 36.2167 48.4341 35.2959 48.3928Z" fill="#FFBE55"/>
  <path opacity="0.85" d="M35.8151 46.5242C35.2805 44.7764 33.4339 43.794 31.6905 44.3299C29.9472 44.8658 28.9673 46.7172 29.5019 48.4651C29.6256 48.8711 29.8262 49.2493 30.0928 49.5791L30.0639 49.588L34.158 54.3386C34.5107 54.7478 35.1803 54.542 35.2435 54.0049L35.9775 47.77L35.9486 47.7789C35.985 47.3559 35.9397 46.9299 35.8151 46.5242ZM33.1446 49.084C32.2634 49.3549 31.3301 48.8583 31.0599 47.9749C30.7897 47.0914 31.285 46.1556 32.1661 45.8847C33.0473 45.6138 33.9807 46.1104 34.2509 46.9938C34.5211 47.8772 34.0258 48.8131 33.1446 49.084Z" fill="#FFBE55"/>
  <path d="M36.8011 52.9922L36.2482 52.7541C35.6689 52.5047 35.1947 52.0568 34.9217 51.4871C34.6055 50.8274 33.8632 50.0977 33.8632 50.0977C32.9727 50.4484 34.6106 51.7593 33.4561 52.041C33.1927 52.1053 32.8878 52.0158 32.5586 52.0957C32.1471 52.1956 31.5602 51.0804 31.4779 51.3412C30.8895 53.2065 32.8862 54.4492 33.7016 54.5553C34.7753 54.6949 37.0297 55.3717 37.0297 55.3717L36.8011 52.9922Z" fill="#FCD2B1"/>
  <path d="M36.3322 57.0291C36.3322 57.0291 35.3098 55.9042 35.4727 54.5789C35.5366 54.0589 36.1422 52.7057 36.1422 52.7057C36.1422 52.7057 48.2115 49.6216 49.2705 49.5799C49.2722 49.5009 49.2762 49.425 49.2808 49.3437C49.511 46.1877 51.2558 42.288 51.723 40.1299C51.949 39.0876 52.3983 38.1154 53.0365 37.3124C53.4724 36.7656 53.9935 36.2976 54.5978 35.9307C55.5514 35.354 56.6383 35.0677 57.5744 35.7647C57.9258 36.0251 58.179 36.383 58.3196 36.7764C58.4794 37.2175 58.4985 37.6974 58.3742 38.1498C57.5156 41.1989 55.3329 49.6199 54.5088 51.361C54.3636 51.666 54.1913 51.9299 54.0005 52.151C53.9428 52.2323 53.877 52.3096 53.8021 52.3937C51.8189 54.5087 36.3322 57.0291 36.3322 57.0291Z" fill="#FFBE55"/>
  <path d="M32.3453 11.1464C35.4182 11.1464 37.9093 8.65116 37.9093 5.57318C37.9093 2.4952 35.4182 0 32.3453 0C29.2723 0 26.7812 2.4952 26.7812 5.57318C26.7812 8.65116 29.2723 11.1464 32.3453 11.1464Z" fill="#75C059"/>
  <path d="M28.0913 6.57764L29.6735 4.98553L31.0592 6.4119L34.887 2.55411C34.9661 2.474 35.0733 2.42799 35.1858 2.42586C35.2983 2.42372 35.4072 2.46563 35.4893 2.54268L36.4634 3.45712C36.5055 3.49661 36.5393 3.54414 36.5627 3.59691C36.5862 3.64968 36.5989 3.70662 36.6 3.76438C36.6011 3.82214 36.5907 3.87954 36.5694 3.93319C36.548 3.98685 36.5161 4.03569 36.4756 4.07681L31.4838 9.14705C31.3774 9.25429 31.2329 9.31493 31.082 9.31569C30.9311 9.31646 30.786 9.25729 30.6785 9.15113L28.0913 6.57764Z" fill="white"/>
  <path d="M35.4606 6.82422H34.4873V9.5904H35.4606V6.82422Z" fill="white"/>
  <path d="M36.3555 8.69361V7.71875H33.5938V8.69361H36.3555Z" fill="white"/>
</svg>