<svg xmlns="http://www.w3.org/2000/svg" width="66" height="57" viewBox="0 0 66 57" fill="none">
  <path d="M41.6073 22.0583C41.6073 22.0583 41.5529 30.123 37.0177 35.5997C34.0958 39.1281 24.0113 41.2406 21.5669 39.5335C15.3283 35.1768 3.48096 12.2948 3.48096 12.2948L5.62766 11.875L24.1154 29.171L41.6073 22.0583Z" fill="white"/>
  <path d="M11.1699 17.1094C12.268 18.0941 13.3581 19.0872 14.4485 20.0799L16.0807 21.5726L17.7093 23.0695L19.335 24.5692L20.9587 26.0709L22.5791 27.5765C23.1193 28.0782 23.6595 28.5798 24.1977 29.0837L24.0708 29.06L25.9149 28.3233L26.837 27.9549L27.7601 27.5891L29.6062 26.8574L31.4541 26.1297C32.6857 25.6441 33.9195 25.1637 35.1534 24.6834C36.3879 24.2049 37.6227 23.727 38.8609 23.2574C37.6417 23.7735 36.4188 24.2813 35.1959 24.7884C33.9722 25.2938 32.7484 25.799 31.5225 26.2991L29.6839 27.0498L27.8439 27.7964L26.9237 28.1697L26.0026 28.5406L24.1606 29.2824C24.1162 29.3003 24.0671 29.2896 24.0341 29.2591L24.0336 29.2586C23.4929 28.7574 22.9544 28.2539 22.4159 27.7504L20.7997 26.2405L19.1871 24.7267L17.5765 23.211L15.9686 21.6924L14.3645 20.1696C13.297 19.1523 12.2294 18.1352 11.1699 17.1094Z" fill="#838BC5"/>
  <path opacity="0.35" d="M38.473 23.7509C37.2171 24.7279 36.2753 26.0554 35.5125 27.4349C34.7191 28.8701 34.1434 30.3901 33.5459 31.9117C33.0065 33.2854 32.2079 34.6262 30.7078 35.0772C29.7964 35.351 28.8699 35.2245 27.9354 35.2393C27.4501 35.247 26.9652 35.2927 26.4942 35.413C25.9531 35.5509 25.475 35.7945 24.9819 36.0476C23.2652 36.9292 20.9911 36.6226 19.6458 35.2255C18.957 34.5101 18.4782 33.627 17.9657 32.7858C17.3653 31.8006 16.6098 30.943 15.8224 30.1025C15.0178 29.2434 14.1625 28.4247 13.4725 27.4676C12.842 26.5932 12.3256 25.6446 11.8468 24.6812C11.5997 24.1838 11.437 23.638 11.1202 23.1814C8.13829 18.8847 10.4331 16.8173 10.6926 16.638C11.0612 16.3835 5.86971 11.8281 5.86971 11.8281L3.48145 12.2953C3.48145 12.2953 15.3288 35.1771 21.5674 39.5338C24.0118 41.2409 34.0963 39.1284 37.0182 35.6C41.005 30.7859 41.5292 23.9721 41.5976 22.3942C40.4648 22.5701 39.3968 23.0324 38.473 23.7509Z" fill="#ACC3EA"/>
  <path d="M65.4339 56.5742H32.7015C32.7015 56.5742 30.7856 20.25 48.456 20.25C64.2251 20.25 65.4339 56.5742 65.4339 56.5742Z" fill="white"/>
  <path opacity="0.35" d="M57.6794 34.2611C57.3405 34.7275 56.9775 35.1853 56.5572 35.5816C56.1336 35.9813 55.6621 36.3275 55.1731 36.6434C54.209 37.2667 53.1859 37.7948 52.2121 38.403C51.3269 38.9558 50.4153 39.5452 49.3924 39.8075C48.3611 40.0721 47.3222 39.8924 46.3605 39.4661C45.3292 39.0088 44.3821 38.3452 43.5685 37.5683C42.7508 36.7874 42.0931 35.877 41.4927 34.924C40.8552 33.9117 40.3065 32.8446 39.8343 31.7467C38.9641 29.7231 38.3382 27.5842 38.0039 25.4062C37.6201 26.785 37.9634 32.0116 38.2469 33.1995C39.4703 38.3271 42.8586 42.625 45.6035 43.8004C45.9801 43.9617 45.0905 56.4323 45.4788 56.5726H51.6773C51.9456 56.41 51.5996 43.5125 51.9026 43.4203C58.0807 41.5402 58.7605 35.5782 58.7141 32.6723C58.3908 33.2159 58.0513 33.7494 57.6794 34.2611Z" fill="#ACC3EA"/>
  <path d="M50.645 1.15071C49.7071 0.363207 46.4977 -0.375906 45.8794 2.53748C45.824 2.79853 45.5482 3.37071 44.8674 3.26571C42.5061 2.90159 41.7916 5.0449 41.8285 6.91046C41.8537 8.18377 42.5003 9.36683 42.6574 10.6307C42.7647 11.4944 42.6404 12.3729 42.7287 13.2388C42.8387 14.3144 43.2857 15.3533 43.9917 16.1742C44.285 16.5153 44.6351 16.8272 45.0624 16.9709C46.1967 17.3517 47.3375 16.4495 48.1261 15.5519C49.6151 13.8574 50.8258 11.9209 51.7008 9.84442C51.8069 9.59256 51.9082 9.33901 52.0041 9.08305C52.0915 8.85055 52.1471 8.57208 52.276 8.35869C52.4637 8.04805 53.0005 8.04417 53.3137 7.92345C54.1799 7.58909 55.187 7.09724 55.4523 6.21321C56.9829 1.10885 51.1495 1.57458 50.645 1.15071Z" fill="#324177"/>
  <path d="M53.2912 6.07621C53.3084 6.07621 53.3259 6.07355 53.3431 6.0675C53.3929 6.05032 54.5665 5.6354 55.0402 4.80097C55.0832 4.72548 55.0565 4.62943 54.9805 4.58685C54.905 4.54403 54.8083 4.57064 54.7656 4.64637C54.3509 5.37677 53.2504 5.76702 53.2392 5.77089C53.1569 5.79968 53.1135 5.88919 53.1421 5.97097C53.1649 6.0358 53.2259 6.07621 53.2912 6.07621Z" fill="#5361A0"/>
  <path d="M51.6043 6.06283C51.6607 6.06283 51.7153 6.03259 51.7437 5.97937C51.7597 5.94937 52.1392 5.22815 52.4368 3.69501C52.4536 3.60961 52.3975 3.52735 52.312 3.5109C52.2263 3.49372 52.1438 3.55009 52.1273 3.63525C51.8396 5.11566 51.4689 5.82477 51.4652 5.83203C51.4244 5.90872 51.4536 6.0038 51.5305 6.04445C51.5541 6.05678 51.5793 6.06283 51.6043 6.06283Z" fill="#5361A0"/>
  <path d="M49.5865 5.84742C49.6671 5.84742 49.7358 5.78621 49.7436 5.70492C49.7475 5.66258 49.8363 4.6496 49.4855 2.96525C49.4678 2.88008 49.3847 2.82517 49.299 2.84331C49.2136 2.86097 49.159 2.9442 49.1767 3.02912C49.5168 4.66242 49.4304 5.66597 49.4294 5.67589C49.4216 5.76226 49.4853 5.83871 49.5722 5.8467C49.5768 5.84718 49.5816 5.84742 49.5865 5.84742Z" fill="#5361A0"/>
  <path d="M46.9938 6.32039C47.0062 6.32039 47.0188 6.31894 47.0312 6.31603C47.1157 6.29547 47.1679 6.21055 47.1472 6.12611C47.1305 6.0574 46.7289 4.43571 46.0144 3.77644C45.9506 3.71716 45.851 3.72103 45.7915 3.7849C45.7323 3.84853 45.7362 3.94797 45.8 4.007C46.4449 4.60216 46.837 6.18442 46.8409 6.20039C46.8583 6.27224 46.9229 6.32039 46.9938 6.32039Z" fill="#5361A0"/>
  <path d="M44.7994 7.26777C44.8342 7.26777 44.8689 7.2564 44.898 7.23317C44.966 7.17874 44.9769 7.08003 44.9223 7.01228C44.8883 6.96995 44.0798 5.97487 43.3656 5.76825C43.282 5.74333 43.1946 5.79196 43.1704 5.87543C43.1461 5.9589 43.1942 6.04599 43.2779 6.06995C43.8975 6.24922 44.6691 7.1993 44.6766 7.20898C44.7074 7.24769 44.7531 7.26777 44.7994 7.26777Z" fill="#5361A0"/>
  <path d="M43.0419 11.8381C43.2995 11.1459 44.0657 10.6802 44.8011 10.7685C44.8069 9.92269 44.8666 9.06817 45.1187 8.26059C45.7844 6.12721 52.4714 6.31374 52.7518 6.89003C52.8292 7.04947 54.0327 11.1437 54.1937 12.6266C54.3549 14.1091 54.1235 15.7337 53.1019 16.8237C52.2997 17.6796 50.9579 18.0111 49.718 17.8717C50.1113 19.1341 50.6119 20.8412 50.929 21.7884C50.1606 22.386 45.7166 21.8174 44.7457 21.7345C44.9689 20.2258 45.2978 15.3021 45.5209 13.7937C44.9766 14.2942 44.0926 14.1229 43.676 13.7917C43.0965 13.3316 42.7843 12.53 43.0419 11.8381Z" fill="#EAC8AC"/>
  <path opacity="0.1" d="M48.0479 22.0227C48.1042 21.9209 48.1591 21.8207 48.17 21.7014C48.1839 21.5512 48.1198 21.4201 48.1042 21.2737C48.0928 21.1663 48.1358 21.1353 48.2269 21.0937C48.6585 20.8963 49.2092 20.6234 49.2968 20.1003C49.3937 19.5214 48.7615 19.1442 48.3791 18.835C48.1472 18.6475 47.9897 18.4474 47.8505 18.1856C47.7274 17.9546 47.566 17.6892 47.5694 17.418C47.8054 17.4884 48.0341 17.581 48.2693 17.6548C48.5447 17.7414 48.8336 17.8034 49.1171 17.8561C49.3196 17.8939 49.5257 17.9118 49.7331 17.9188C50.124 19.1761 50.6158 20.8515 50.929 21.7871C50.5578 22.076 49.3286 22.0922 48.0479 22.0227Z" fill="#231F20"/>
  <path d="M43.9709 12.6993C44.0095 12.6993 44.0479 12.6852 44.0782 12.6572C44.1421 12.5981 44.1457 12.4987 44.0865 12.4351C43.9828 12.3238 43.9384 12.2166 43.9505 12.1073C43.9755 11.8837 44.2254 11.711 44.228 11.709C44.2999 11.6602 44.3186 11.5627 44.2698 11.4908C44.2213 11.4192 44.1229 11.4003 44.0513 11.4487C44.0362 11.4589 43.6798 11.7018 43.6371 12.07C43.6136 12.2735 43.6869 12.4682 43.8551 12.6489C43.8862 12.6826 43.9285 12.6993 43.9709 12.6993Z" fill="#324177"/>
  <path d="M51.8632 13.2854C52.2842 13.2854 52.7358 12.9196 52.7931 12.8717C52.8564 12.8187 52.8678 12.7263 52.8198 12.6595C52.3944 12.0694 51.3267 10.4054 51.4947 9.79812C51.6947 9.07498 52.7341 8.69998 52.7445 8.69611C52.8266 8.66707 52.8695 8.57732 52.8404 8.49554C52.8115 8.41353 52.7214 8.37095 52.6391 8.39949C52.5901 8.41691 51.4344 8.83207 51.1904 9.71441C50.977 10.4862 52.1176 12.2051 52.4745 12.7173C52.2856 12.8477 51.9666 13.0226 51.7671 12.9568C51.6835 12.9293 51.5949 12.9738 51.5675 13.056C51.5398 13.1385 51.5845 13.2276 51.667 13.2549C51.7306 13.2762 51.7967 13.2854 51.8632 13.2854Z" fill="#324177"/>
  <path d="M48.0575 10.0007C48.1884 10.132 48.7053 9.83227 49.036 9.50469C49.3666 9.17711 49.3863 8.9463 49.2552 8.81469C49.1241 8.68332 48.8922 8.70122 48.5616 9.02856C48.2307 9.35638 47.9264 9.86904 48.0575 10.0007Z" fill="#324177"/>
  <path opacity="0.05" d="M49.0801 11.8733C49.107 12.0777 49.4035 12.2069 49.7419 12.1624C50.0804 12.1179 50.3329 11.9161 50.3057 11.7119C50.2785 11.5077 49.9823 11.3783 49.6438 11.4228C49.3056 11.4676 49.0531 11.6691 49.0801 11.8733Z" fill="#231F20"/>
  <path opacity="0.05" d="M52.2842 11.2132C52.3111 11.4176 52.6076 11.5468 52.946 11.5023C53.2845 11.4578 53.537 11.256 53.5098 11.0518C53.4826 10.8476 53.1864 10.7182 52.8479 10.7627C52.5097 10.8074 52.2572 11.009 52.2842 11.2132Z" fill="#231F20"/>
  <path d="M48.9683 10.3925C48.9683 10.5918 49.1304 10.7537 49.3307 10.7537C49.531 10.7537 49.6932 10.5921 49.6932 10.3925C49.6932 10.1931 49.531 10.0312 49.3307 10.0312C49.1304 10.0312 48.9683 10.1931 48.9683 10.3925Z" fill="#324177"/>
  <path d="M52.465 10.5154C52.6652 10.5154 52.8275 10.3537 52.8275 10.1542C52.8275 9.95469 52.6652 9.79297 52.465 9.79297C52.2648 9.79297 52.1025 9.95469 52.1025 10.1542C52.1025 10.3537 52.2648 10.5154 52.465 10.5154Z" fill="#324177"/>
  <path d="M52.2419 14.181C51.9639 14.28 51.9047 14.5171 51.0612 14.181C50.218 13.845 49.9087 13.5798 49.7682 14.0206C49.6276 14.4612 51.286 15.8799 52.2419 15.1795C53.1975 14.4791 52.4291 14.1143 52.2419 14.181Z" fill="white"/>
  <path opacity="0.05" d="M51.607 15.9335C51.7612 15.9335 51.926 15.9013 52.1018 15.8185C52.1805 15.7813 52.214 15.6877 52.1771 15.6093C52.1397 15.5309 52.0462 15.497 51.9671 15.5343C51.5835 15.7148 51.2637 15.5662 50.9551 15.4223L50.9182 15.4053C50.8396 15.3688 50.7456 15.4027 50.7087 15.4815C50.6718 15.5602 50.706 15.6535 50.7852 15.6903L50.8213 15.7073C51.0454 15.8118 51.3064 15.9335 51.607 15.9335Z" fill="#231F20"/>
  <path d="M45.2931 23.1355L43.9141 23.4733L45.6034 21.4766L47.5956 21.9133L49.5141 21.5017L51.2406 23.4374L49.7436 23.0576L49.1036 25.3954L51.2724 56.5734H44.3885L46.212 25.2704L45.2931 23.1355Z" fill="#838BC5"/>
  <path d="M49.5142 21.5028L51.6978 24.0836C51.6978 24.0836 54.5022 22.4938 53.6799 21.6173C52.8575 20.741 50.251 19.6172 50.251 19.6172L50.6315 21.0853L49.5142 21.5028Z" fill="url(#paint0_radial_3253_4287)"/>
  <path d="M45.6031 21.4749L43.4195 24.0557C43.4195 24.0557 41.3209 22.2394 42.1432 21.3629C42.9655 20.4864 44.9959 19.3398 44.9959 19.3398L44.8158 21.1807L45.6031 21.4749Z" fill="url(#paint1_radial_3253_4287)"/>
  <path d="M35.9585 16.9279C36.7905 16.9279 37.8258 14.7539 37.8258 14.7539L47.5816 30.418C47.5816 30.418 52.1901 24.1507 54.7823 22.79C57.8831 23.55 64.3201 34.8316 50.1546 42.3157C40.1383 47.6073 37.4635 24.839 35.9585 16.9279Z" fill="white"/>
  <path d="M37.8756 14.2071C37.8756 14.2071 37.7387 14.0576 37.4017 13.7215C37.0645 13.3855 36.92 12.4976 36.6792 12.5576C36.4383 12.6176 36.2096 13.8028 36.5828 14.3261C36.9562 14.8494 37.7355 14.5487 37.8756 14.2071Z" fill="#E5B0A3"/>
  <path d="M36.9001 4.85156H1.65967V16.8312H36.9001V4.85156Z" fill="#ACC3EA"/>
  <path d="M3.43484 8.98716C3.50549 8.66636 2.90387 8.41039 2.51371 8.26982C2.89027 8.2766 3.34039 8.10991 3.19399 7.82587C2.88469 7.22539 1.06744 6.66144 0.656168 6.98515C0.244891 7.30886 0.767121 7.96039 0.767121 7.96039C0.618051 8.03297 0.435963 8.13603 0.374296 8.23184C-0.0328538 8.86329 0.594015 9.20708 0.594015 9.20708C0.0720288 9.74587 0.678504 10.2581 0.678504 10.2581C0.0844111 10.8731 0.796255 11.2945 0.796255 11.2945C0.796255 11.2945 2.24204 11.7881 2.87352 11.4131C3.505 11.0383 1.587 10.4214 1.587 10.4214C1.587 10.4214 3.11873 10.6742 3.24255 10.2551C3.4579 9.52668 1.76958 9.3312 1.76958 9.3312C1.76958 9.3312 3.28965 9.64571 3.43484 8.98716Z" fill="#EAC8AC"/>
  <path opacity="0.5" d="M2.60845 8.55469C2.60627 8.58299 2.53076 9.18638 2.53076 9.18638C2.53076 9.18638 3.10859 9.3359 3.19648 9.04146C3.28097 8.7584 2.60845 8.55469 2.60845 8.55469Z" fill="white"/>
  <path opacity="0.5" d="M2.69813 7.59766C2.694 7.61725 2.54688 8.08588 2.54688 8.08588C2.54688 8.08588 2.91469 8.0883 2.98753 7.90322C3.05308 7.73653 2.69813 7.59766 2.69813 7.59766Z" fill="white"/>
  <path opacity="0.5" d="M2.61216 9.75781C2.60633 9.78564 2.49854 10.3126 2.49854 10.3126C2.49854 10.3126 2.97609 10.4706 3.07199 10.2068C3.16255 9.95814 2.61216 9.75781 2.61216 9.75781Z" fill="white"/>
  <path opacity="0.5" d="M2.43834 10.9258C2.43397 10.9466 2.32666 11.3516 2.32666 11.3516C2.32666 11.3516 2.81029 11.4597 2.83991 11.2993C2.88822 11.0363 2.43834 10.9258 2.43834 10.9258Z" fill="white"/>
  <path d="M37.8754 14.2071C37.8754 14.2071 34.4832 13.9632 34.3662 14.5872C34.3113 14.879 35.4485 15.0614 36.3422 15.1603C35.2453 15.079 34.28 15.1313 34.371 15.4632C34.4412 15.7185 35.4121 15.8619 36.2973 15.9957C35.6821 15.9592 34.4152 15.9215 34.4113 16.1893C34.4045 16.6439 35.6626 16.738 36.5136 16.7832C36.0052 16.7907 34.6988 16.804 34.6925 17.0491C34.6869 17.2661 34.9331 17.465 36.0033 17.518C36.628 17.5487 36.602 17.667 36.8887 17.6254C37.1099 17.5935 37.3427 17.5848 37.5083 17.4713C38.3058 16.9265 38.3367 14.4696 37.8754 14.2071Z" fill="#EAC8AC"/>
  <path opacity="0.2" d="M34.7773 17.0895C34.7999 16.9766 35.1594 16.9125 35.1947 16.9337C35.1947 16.9337 35.1925 17.2296 35.1692 17.2797C35.1456 17.33 34.7547 17.2025 34.7773 17.0895Z" fill="white"/>
  <path opacity="0.2" d="M34.4843 16.2419C34.5067 16.1289 34.8665 16.0648 34.9019 16.0861C34.9019 16.0861 34.8997 16.382 34.8762 16.4321C34.8529 16.4824 34.4618 16.3549 34.4843 16.2419Z" fill="white"/>
  <path opacity="0.2" d="M34.4741 15.3903C34.4967 15.2773 34.8562 15.2132 34.8914 15.2345C34.8914 15.2345 34.8892 15.5304 34.8657 15.5805C34.8426 15.6308 34.4515 15.5033 34.4741 15.3903Z" fill="white"/>
  <path opacity="0.2" d="M34.4843 14.5542C34.5067 14.4412 34.8665 14.3771 34.9017 14.3987C34.9017 14.3987 34.8995 14.6946 34.8762 14.7446C34.8529 14.7947 34.4618 14.6672 34.4843 14.5542Z" fill="white"/>
  <path opacity="0.1" d="M36.3784 16.783L37.4678 16.6298C37.4678 16.6298 37.6885 16.9879 37.3724 17.3336C37.3724 17.3336 37.939 17.0944 37.9626 15.8443C37.9859 14.594 37.8463 14.4297 37.8463 14.4297C37.8463 14.4297 37.8366 14.8185 37.5656 15.0311C37.5052 15.0788 36.359 15.156 36.4301 15.1589C36.501 15.1618 37.5229 15.2503 37.5229 15.2503L37.5091 15.7794L36.4415 15.981L37.5171 15.9885L37.487 16.439L36.3784 16.783Z" fill="#231F20"/>
  <defs>
    <radialGradient id="paint0_radial_3253_4287" cx="0" cy="0" r="1" gradientUnits="userSpaceOnUse" gradientTransform="translate(47.9926 18.5427) rotate(180) scale(7.88247 7.85492)">
      <stop stop-color="white"/>
      <stop offset="1" stop-color="#C1E7F6"/>
    </radialGradient>
    <radialGradient id="paint1_radial_3253_4287" cx="0" cy="0" r="1" gradientUnits="userSpaceOnUse" gradientTransform="translate(47.9923 18.54) rotate(180) scale(7.88251 7.85495)">
      <stop stop-color="white"/>
      <stop offset="1" stop-color="#C1E7F6"/>
    </radialGradient>
  </defs>
</svg>