<svg xmlns="http://www.w3.org/2000/svg" width="102" height="80" viewBox="0 0 102 80" fill="none">
  <g clip-path="url(#clip0_3253_4161)">
    <path d="M101.953 66.875H0V66.9261H101.953V66.875Z" fill="#EBEBEB"/>
    <path d="M35.3208 68.1797H30.5942V68.2308H35.3208V68.1797Z" fill="#EBEBEB"/>
    <path d="M93.5466 69.2734H81.9912V69.3245H93.5466V69.2734Z" fill="#EBEBEB"/>
    <path d="M20.2663 69.2734H8.71094V69.3245H20.2663V69.2734Z" fill="#EBEBEB"/>
    <path d="M48.3262 57.7659H8.95377C8.64533 57.7653 8.34971 57.6422 8.1318 57.4235C7.91389 57.2049 7.7915 56.9085 7.7915 56.5995V1.15613C7.79419 0.848926 7.91776 0.555185 8.13538 0.338714C8.353 0.122243 8.64709 0.000526263 8.95377 0H48.3262C48.635 0 48.9311 0.122883 49.1495 0.341615C49.3678 0.560348 49.4905 0.857013 49.4905 1.16635V56.5995C49.4905 56.9089 49.3678 57.2055 49.1495 57.4243C48.9311 57.643 48.635 57.7659 48.3262 57.7659ZM8.95377 0.040853C8.65885 0.0413941 8.3762 0.159135 8.16785 0.368232C7.9595 0.577329 7.84248 0.860697 7.84248 1.15613V56.5995C7.84248 56.895 7.9595 57.1783 8.16785 57.3874C8.3762 57.5965 8.65885 57.7143 8.95377 57.7148H48.3262C48.6211 57.7137 48.9037 57.5959 49.1122 57.387C49.3208 57.178 49.4384 56.895 49.4395 56.5995V1.15613C49.4384 0.860675 49.3208 0.577624 49.1122 0.368701C48.9037 0.159778 48.6211 0.0419293 48.3262 0.040853H8.95377Z" fill="#EBEBEB"/>
    <path d="M92.4333 57.7659H53.0588C52.7504 57.7648 52.4549 57.6416 52.2367 57.4231C52.0186 57.2046 51.8956 56.9085 51.8945 56.5995V1.15613C51.8977 0.84874 52.0218 0.555001 52.2397 0.338587C52.4577 0.122172 52.752 0.000520524 53.0588 0H92.4333C92.7396 0.00106309 93.0332 0.123018 93.2504 0.339431C93.4675 0.555845 93.5908 0.849279 93.5935 1.15613V56.5995C93.5938 56.7524 93.564 56.9039 93.5058 57.0452C93.4477 57.1866 93.3623 57.3151 93.2545 57.4234C93.1468 57.5317 93.0188 57.6177 92.8779 57.6765C92.737 57.7352 92.5859 57.7656 92.4333 57.7659ZM53.0588 0.040853C52.7639 0.0419293 52.4813 0.159778 52.2728 0.368701C52.0642 0.577624 51.9466 0.860675 51.9455 1.15613V56.5995C51.9466 56.895 52.0642 57.178 52.2728 57.387C52.4813 57.5959 52.7639 57.7137 53.0588 57.7148H92.4333C92.7282 57.7137 93.0108 57.5959 93.2193 57.387C93.4279 57.178 93.5455 56.895 93.5466 56.5995V1.15613C93.5455 0.860675 93.4279 0.577624 93.2193 0.368701C93.0108 0.159778 92.7282 0.0419293 92.4333 0.040853H53.0588Z" fill="#EBEBEB"/>
    <path d="M91.8888 73.1914H87.4844V73.2425H91.8888V73.1914Z" fill="#EBEBEB"/>
    <path d="M95.4569 48.6753C95.0307 47.4497 91.6683 49.1165 90.3123 51.1449C89.4049 52.4951 88.8503 53.9392 88.5934 55.8756C88.624 53.6614 88.6586 51.2899 88.6933 49.0491C88.9686 48.4915 89.5966 47.2005 90.0513 46.1894C91.5602 42.7823 95.149 41.5159 96.3888 39.3629C98.02 36.5441 98.0037 32.3179 96.6212 30.7941C95.4284 29.4602 91.4379 38.4233 90.9893 39.4242C89.7684 42.1046 88.9988 44.969 88.7117 47.9012C88.7422 45.7952 88.7749 43.8629 88.8014 42.3636C88.885 37.5 88.991 35.9354 89.0379 35.4554C89.2051 35.2184 89.4009 34.9447 89.513 34.7976C90.4754 33.5557 92.6124 32.0768 93.6809 30.2711C95.2408 27.6341 94.9879 24.4782 93.895 23.3119C92.7511 22.0863 90.7283 24.9868 89.6557 27.8629C88.5832 30.7389 89.044 33.4944 88.7402 35.8843C88.677 36.3602 88.6117 38.1312 88.5506 40.6028C88.2243 37.9474 87.5759 36.1662 86.3749 34.5076C84.8945 32.4649 83.6181 29.9831 82.4007 30.3038C81.1834 30.6245 81.8379 33.9132 82.8085 36.2275C83.667 38.2824 87.9062 40.3311 88.5179 41.9836C88.4466 45.3295 88.3793 49.5761 88.3324 53.5184C88 51.4758 88.2284 51.3042 86.8602 48.1871C86.0446 46.3304 82.7127 44.0406 82.3171 45.3172C81.9216 46.5939 82.521 48.994 83.7812 50.6955C84.8007 52.0579 87.0437 52.0559 87.5718 52.9016C87.6921 53.1058 88.0938 53.8493 88.3242 54.2885C88.2692 59.1071 88.2447 63.3619 88.2733 64.8142L88.4914 64.8285C88.4812 64.4547 88.5077 62.0015 88.5506 58.7558C89.097 57.0318 92.7816 56.0227 93.9194 54.2272C95.1123 52.3378 95.9667 50.146 95.4569 48.6753Z" fill="#E6E6E6"/>
    <path d="M91.9925 66.9868H84.9251C84.7391 66.9846 84.5595 66.9188 84.4159 66.8003C84.2724 66.6818 84.1736 66.5177 84.136 66.3352L83.6323 63.8555H93.2975L92.7959 66.3352C92.7577 66.5201 92.6569 66.686 92.5104 66.8048C92.364 66.9236 92.181 66.9879 91.9925 66.9868Z" fill="#E6E6E6"/>
    <path d="M93.4935 64.8154H83.4246C83.3078 64.8161 83.1949 64.7735 83.1075 64.6959C83.0202 64.6182 82.9646 64.5109 82.9515 64.3946L82.7476 62.5562C82.7337 62.4327 82.7686 62.3086 82.8448 62.2105C82.921 62.1124 83.0325 62.0481 83.1554 62.0313H93.6934C93.7557 62.0307 93.8174 62.0425 93.8752 62.066C93.9329 62.0894 93.9854 62.1241 94.0298 62.1679C94.0741 62.2117 94.1094 62.2639 94.1335 62.3214C94.1577 62.379 94.1702 62.4407 94.1705 62.5031C94.1715 62.5215 94.1715 62.5399 94.1705 62.5583L93.9666 64.3966C93.9539 64.5129 93.8984 64.6203 93.8109 64.6977C93.7234 64.7751 93.6103 64.8171 93.4935 64.8154Z" fill="#F0F0F0"/>
    <path d="M25.0213 6.94531H10.7886V22.6001H25.0213V6.94531Z" fill="#E6E6E6"/>
    <path d="M26.2389 6.94531H10.9785V22.6001H26.2389V6.94531Z" fill="#F5F5F5"/>
    <path d="M25.2663 7.92188H11.9512V21.6259H25.2663V7.92188Z" fill="white"/>
    <path d="M16.6143 19.6498C15.8533 18.8868 15.4258 17.8524 15.4258 16.7738C15.4258 15.6952 15.8533 14.6607 16.6143 13.8977L20.5946 9.90234C21.3556 10.6653 21.7831 11.6998 21.7831 12.7784C21.7831 13.857 21.3556 14.8914 20.5946 15.6544L16.6143 19.6498Z" fill="#F5F5F5"/>
    <path d="M20.6862 30.8555H10.9985V41.8081H20.6862V30.8555Z" fill="#E6E6E6"/>
    <path d="M22.0873 30.8555H11.2354V41.8081H22.0873V30.8555Z" fill="#F5F5F5"/>
    <path d="M20.97 31.9766H12.3569V40.6884H20.97V31.9766Z" fill="white"/>
    <path d="M15.881 34.5627L14.8933 35.5521C14.4633 35.9828 14.4633 36.6812 14.8933 37.112L15.881 38.1014C16.311 38.5321 17.0082 38.5321 17.4382 38.1014L18.4258 37.112C18.8559 36.6812 18.8559 35.9828 18.4258 35.5521L17.4382 34.5627C17.0082 34.1319 16.311 34.1319 15.881 34.5627Z" fill="#F5F5F5"/>
    <path d="M41.9761 44.5391H37.5615V66.8467H41.9761V44.5391Z" fill="#E6E6E6"/>
    <path d="M37.5616 44.5391H18.5146V66.8467H37.5616V44.5391Z" fill="#F0F0F0"/>
    <path d="M35.8265 53.1211H20.25V58.2624H35.8265V53.1211Z" fill="#E6E6E6"/>
    <path d="M35.8265 59.4102H20.25V64.5515H35.8265V59.4102Z" fill="#E6E6E6"/>
    <path d="M26.2876 53.8112H29.7866C29.9004 53.8101 30.0092 53.7644 30.0897 53.6838C30.1701 53.6032 30.2158 53.4942 30.2169 53.3802C30.2163 53.2661 30.1708 53.1568 30.0903 53.076C30.0097 52.9953 29.9006 52.9498 29.7866 52.9492H26.2876C26.1738 52.9498 26.0649 52.9954 25.9847 53.0762C25.9044 53.1569 25.8594 53.2663 25.8594 53.3802C25.8594 53.4942 25.9044 53.6035 25.9847 53.6843C26.0649 53.765 26.1738 53.8107 26.2876 53.8112Z" fill="#F0F0F0"/>
    <path d="M35.8265 46.832H20.25V51.9734H35.8265V46.832Z" fill="#E6E6E6"/>
    <path d="M26.2876 47.5222H29.7866C29.9006 47.5216 30.0097 47.476 30.0903 47.3953C30.1708 47.3146 30.2163 47.2053 30.2169 47.0912C30.2158 46.9772 30.1701 46.8682 30.0897 46.7876C30.0092 46.707 29.9004 46.6612 29.7866 46.6602H26.2876C26.1738 46.6607 26.0649 46.7063 25.9847 46.7871C25.9044 46.8679 25.8594 46.9772 25.8594 47.0912C25.8594 47.2051 25.9044 47.3144 25.9847 47.3952C26.0649 47.476 26.1738 47.5216 26.2876 47.5222Z" fill="#F0F0F0"/>
    <path d="M26.2876 60.1003H29.7866C29.9009 60.0997 30.0104 60.0539 30.091 59.9727C30.1716 59.8916 30.2169 59.7817 30.2169 59.6672C30.2163 59.5533 30.1708 59.4442 30.0901 59.3638C30.0095 59.2834 29.9004 59.2383 29.7866 59.2383H26.2876C26.2314 59.2383 26.1757 59.2494 26.1237 59.2709C26.0718 59.2925 26.0246 59.3241 25.9848 59.3639C25.945 59.4037 25.9135 59.451 25.892 59.5031C25.8705 59.5551 25.8594 59.6109 25.8594 59.6672C25.8591 59.7238 25.87 59.7799 25.8913 59.8323C25.9127 59.8847 25.9442 59.9324 25.984 59.9726C26.0237 60.0128 26.071 60.0448 26.1231 60.0667C26.1752 60.0886 26.2311 60.1 26.2876 60.1003Z" fill="#F0F0F0"/>
    <path d="M37.5615 43.3672H17.9253V44.5397H37.5615V43.3672Z" fill="#E6E6E6"/>
    <path d="M42.5919 43.3672H37.5615V44.5397H42.5919V43.3672Z" fill="#E0E0E0"/>
    <path d="M52.2003 79.9974C71.927 79.9974 87.9187 78.7336 87.9187 77.1745C87.9187 75.6154 71.927 74.3516 52.2003 74.3516C32.4736 74.3516 16.4819 75.6154 16.4819 77.1745C16.4819 78.7336 32.4736 79.9974 52.2003 79.9974Z" fill="#F5F5F5"/>
    <path d="M81.0818 15.0798C80.7879 14.1048 80.3985 13.1613 79.9195 12.263L80.6434 9.88945L75.9658 5.19138L73.5923 5.92264C72.6985 5.43699 71.7568 5.04544 70.7824 4.75425L69.6202 2.5625H63.0075L61.8432 4.75425C60.8656 5.04567 59.9206 5.4372 59.0231 5.92264L56.6517 5.19342L51.9618 9.89149L52.6877 12.2671C52.2063 13.1643 51.8169 14.108 51.5255 15.0839L49.3457 16.2502V22.8766L51.5336 24.0429C51.8249 25.0185 52.215 25.9617 52.6979 26.8577L51.972 29.2312L56.6619 33.9293L59.0333 33.2041C59.9286 33.6866 60.8708 34.0761 61.8452 34.3664L63.0075 36.5622H69.6304L70.7926 34.3705C71.7662 34.0779 72.7076 33.6871 73.6025 33.2041L75.976 33.9293L80.6658 29.2312L79.9318 26.8617C80.4103 25.9644 80.7983 25.0215 81.0899 24.047L83.2697 22.8766V16.2441L81.0818 15.0798ZM66.3067 31.5905C63.9318 31.5901 61.6104 30.8842 59.6359 29.5622C57.6615 28.2402 56.1227 26.3613 55.2141 24.1633C54.3056 21.9652 54.0681 19.5466 54.5316 17.2133C54.9952 14.8801 56.139 12.7369 57.8184 11.0548C59.4979 9.37267 61.6375 8.22721 63.9668 7.76323C66.2961 7.29925 68.7104 7.53759 70.9045 8.4481C73.0986 9.35861 74.9738 10.9004 76.2932 12.8785C77.6126 14.8567 78.3168 17.1823 78.3168 19.5614C78.3163 22.7519 77.0507 25.8115 74.7984 28.0673C72.5461 30.3232 69.4916 31.5905 66.3067 31.5905Z" fill="#407BFF"/>
    <path d="M66.3066 9.21875C64.2646 9.21956 62.2686 9.82691 60.571 10.964C58.8735 12.1011 57.5506 13.7169 56.7697 15.6071C55.9888 17.4972 55.7849 19.5769 56.1838 21.5832C56.5827 23.5894 57.5664 25.4322 59.0107 26.8784C60.4549 28.3246 62.2948 29.3094 64.2977 29.7082C66.3007 30.1069 68.3766 29.9019 70.2632 29.1188C72.1498 28.3358 73.7622 27.01 74.8966 25.309C76.0311 23.6081 76.6366 21.6083 76.6366 19.5627C76.6366 18.204 76.3693 16.8585 75.8502 15.6033C75.331 14.348 74.57 13.2075 73.6108 12.247C72.6515 11.2864 71.5127 10.5246 70.2594 10.005C69.0062 9.48537 67.663 9.21821 66.3066 9.21875ZM66.3066 28.5299C64.5362 28.5303 62.8054 28.0048 61.3331 27.0198C59.8608 26.0348 58.7132 24.6345 58.0353 22.9962C57.3574 21.3578 57.1797 19.5548 57.5247 17.8153C57.8697 16.0757 58.7219 14.4777 59.9735 13.2234C61.2251 11.969 62.8199 11.1146 64.5562 10.7682C66.2926 10.4218 68.0925 10.599 69.7283 11.2773C71.3641 11.9556 72.7624 13.1047 73.7464 14.5791C74.7303 16.0535 75.2557 17.7871 75.2561 19.5606C75.2513 21.9372 74.307 24.2152 72.6298 25.896C70.9526 27.5769 68.6791 28.5239 66.3066 28.5299Z" fill="#407BFF"/>
    <path opacity="0.4" d="M81.0818 15.0798C80.7879 14.1048 80.3985 13.1613 79.9195 12.263L80.6434 9.88945L75.9658 5.19138L73.5923 5.92264C72.6985 5.43699 71.7568 5.04544 70.7824 4.75425L69.6202 2.5625H63.0075L61.8432 4.75425C60.8656 5.04567 59.9206 5.4372 59.0231 5.92264L56.6517 5.19342L51.9618 9.89149L52.6877 12.2671C52.2063 13.1643 51.8169 14.108 51.5255 15.0839L49.3457 16.2502V22.8766L51.5336 24.0429C51.8249 25.0185 52.215 25.9617 52.6979 26.8577L51.972 29.2312L56.6619 33.9293L59.0333 33.2041C59.9286 33.6866 60.8708 34.0761 61.8452 34.3664L63.0075 36.5622H69.6304L70.7926 34.3705C71.7662 34.0779 72.7076 33.6871 73.6025 33.2041L75.976 33.9293L80.6658 29.2312L79.9318 26.8617C80.4103 25.9644 80.7983 25.0215 81.0899 24.047L83.2697 22.8766V16.2441L81.0818 15.0798ZM66.3067 31.5905C63.9318 31.5901 61.6104 30.8842 59.6359 29.5622C57.6615 28.2402 56.1227 26.3613 55.2141 24.1633C54.3056 21.9652 54.0681 19.5466 54.5316 17.2133C54.9952 14.8801 56.139 12.7369 57.8184 11.0548C59.4979 9.37267 61.6375 8.22721 63.9668 7.76323C66.2961 7.29925 68.7104 7.53759 70.9045 8.4481C73.0986 9.35861 74.9738 10.9004 76.2932 12.8785C77.6126 14.8567 78.3168 17.1823 78.3168 19.5614C78.3163 22.7519 77.0507 25.8115 74.7984 28.0673C72.5461 30.3232 69.4916 31.5905 66.3067 31.5905Z" fill="white"/>
    <path opacity="0.4" d="M66.3066 9.21875C64.2646 9.21956 62.2686 9.82691 60.571 10.964C58.8735 12.1011 57.5506 13.7169 56.7697 15.6071C55.9888 17.4972 55.7849 19.5769 56.1838 21.5832C56.5827 23.5894 57.5664 25.4322 59.0107 26.8784C60.4549 28.3246 62.2948 29.3094 64.2977 29.7082C66.3007 30.1069 68.3766 29.9019 70.2632 29.1188C72.1498 28.3358 73.7622 27.01 74.8966 25.309C76.0311 23.6081 76.6366 21.6083 76.6366 19.5627C76.6366 18.204 76.3693 16.8585 75.8502 15.6033C75.331 14.348 74.57 13.2075 73.6108 12.247C72.6515 11.2864 71.5127 10.5246 70.2594 10.005C69.0062 9.48537 67.663 9.21821 66.3066 9.21875ZM66.3066 28.5299C64.5362 28.5303 62.8054 28.0048 61.3331 27.0198C59.8608 26.0348 58.7132 24.6345 58.0353 22.9962C57.3574 21.3578 57.1797 19.5548 57.5247 17.8153C57.8697 16.0757 58.7219 14.4777 59.9735 13.2234C61.2251 11.969 62.8199 11.1146 64.5562 10.7682C66.2926 10.4218 68.0925 10.599 69.7283 11.2773C71.3641 11.9556 72.7624 13.1047 73.7464 14.5791C74.7303 16.0535 75.2557 17.7871 75.2561 19.5606C75.2513 21.9372 74.307 24.2152 72.6298 25.896C70.9526 27.5769 68.6791 28.5239 66.3066 28.5299Z" fill="white"/>
    <path d="M39.4195 28.2123C39.2658 27.6953 39.0609 27.1951 38.8078 26.7191L39.1932 25.4588L36.7035 22.9688L35.4454 23.3549C34.9702 23.1013 34.4708 22.896 33.9548 22.7421L33.3431 21.5859H29.8196L29.2079 22.7421C28.6918 22.896 28.1925 23.1013 27.7173 23.3549L26.4592 22.9688L23.9756 25.4588L24.359 26.7191C24.1066 27.1955 23.9017 27.6956 23.7472 28.2123L22.585 28.8251V32.3466L23.7472 32.9594C23.9008 33.4763 24.1057 33.9765 24.359 34.4525L23.9756 35.7128L26.4592 38.2028L27.7173 37.8168C28.1929 38.0695 28.6921 38.2748 29.2079 38.4295L29.8196 39.5836H33.3349L33.9467 38.4295C34.4624 38.2748 34.9616 38.0695 35.4372 37.8168L36.6953 38.2028L39.1809 35.7128L38.7956 34.4525C39.0487 33.9765 39.2536 33.4763 39.4073 32.9594L40.5675 32.3466V28.8312L39.4195 28.2123ZM31.5773 35.5923C30.5896 35.5923 29.6241 35.2989 28.8029 34.7493C27.9817 34.1996 27.3417 33.4183 26.9637 32.5042C26.5857 31.5902 26.4868 30.5843 26.6795 29.614C26.8722 28.6436 27.3478 27.7522 28.0462 27.0526C28.7446 26.353 29.6344 25.8766 30.603 25.6836C31.5717 25.4906 32.5758 25.5896 33.4883 25.9683C34.4007 26.3469 35.1806 26.9881 35.7294 27.8107C36.2781 28.6333 36.5709 29.6005 36.5709 30.5899C36.5704 31.9165 36.0441 33.1885 35.1077 34.1265C34.1713 35.0646 32.9015 35.5918 31.5773 35.5923Z" fill="#263238"/>
    <path d="M39.4195 28.2123C39.2658 27.6953 39.0609 27.1951 38.8078 26.7191L39.1932 25.4588L36.7035 22.9688L35.4454 23.3549C34.9702 23.1013 34.4708 22.896 33.9548 22.7421L33.3431 21.5859H29.8196L29.2079 22.7421C28.6918 22.896 28.1925 23.1013 27.7173 23.3549L26.4592 22.9688L23.9756 25.4588L24.359 26.7191C24.1066 27.1955 23.9017 27.6956 23.7472 28.2123L22.585 28.8251V32.3466L23.7472 32.9594C23.9008 33.4763 24.1057 33.9765 24.359 34.4525L23.9756 35.7128L26.4592 38.2028L27.7173 37.8168C28.1929 38.0695 28.6921 38.2748 29.2079 38.4295L29.8196 39.5836H33.3349L33.9467 38.4295C34.4624 38.2748 34.9616 38.0695 35.4372 37.8168L36.6953 38.2028L39.1809 35.7128L38.7956 34.4525C39.0487 33.9765 39.2536 33.4763 39.4073 32.9594L40.5675 32.3466V28.8312L39.4195 28.2123ZM31.5773 35.5923C30.5896 35.5923 29.6241 35.2989 28.8029 34.7493C27.9817 34.1996 27.3417 33.4183 26.9637 32.5042C26.5857 31.5902 26.4868 30.5843 26.6795 29.614C26.8722 28.6436 27.3478 27.7522 28.0462 27.0526C28.7446 26.353 29.6344 25.8766 30.603 25.6836C31.5717 25.4906 32.5758 25.5896 33.4883 25.9683C34.4007 26.3469 35.1806 26.9881 35.7294 27.8107C36.2781 28.6333 36.5709 29.6005 36.5709 30.5899C36.5704 31.9165 36.0441 33.1885 35.1077 34.1265C34.1713 35.0646 32.9015 35.5918 31.5773 35.5923Z" fill="#407BFF"/>
    <path d="M31.5771 28.9336C31.2496 28.9336 30.9295 29.0309 30.6572 29.2131C30.385 29.3954 30.1727 29.6544 30.0474 29.9575C29.9221 30.2606 29.8893 30.5941 29.9532 30.9158C30.0171 31.2375 30.1748 31.5331 30.4063 31.765C30.6379 31.997 30.9329 32.155 31.2541 32.219C31.5753 32.283 31.9082 32.2501 32.2107 32.1246C32.5133 31.999 32.7719 31.7865 32.9538 31.5137C33.1357 31.2409 33.2328 30.9203 33.2328 30.5922C33.2328 30.1523 33.0584 29.7304 32.7479 29.4194C32.4374 29.1083 32.0162 28.9336 31.5771 28.9336Z" fill="#263238"/>
    <path opacity="0.4" d="M39.4195 28.2123C39.2658 27.6953 39.0609 27.1951 38.8078 26.7191L39.1932 25.4588L36.7035 22.9688L35.4454 23.3549C34.9702 23.1013 34.4708 22.896 33.9548 22.7421L33.3431 21.5859H29.8196L29.2079 22.7421C28.6918 22.896 28.1925 23.1013 27.7173 23.3549L26.4592 22.9688L23.9756 25.4588L24.359 26.7191C24.1066 27.1955 23.9017 27.6956 23.7472 28.2123L22.585 28.8251V32.3466L23.7472 32.9594C23.9008 33.4763 24.1057 33.9765 24.359 34.4525L23.9756 35.7128L26.4592 38.2028L27.7173 37.8168C28.1929 38.0695 28.6921 38.2748 29.2079 38.4295L29.8196 39.5836H33.3349L33.9467 38.4295C34.4624 38.2748 34.9616 38.0695 35.4372 37.8168L36.6953 38.2028L39.1809 35.7128L38.7956 34.4525C39.0487 33.9765 39.2536 33.4763 39.4073 32.9594L40.5675 32.3466V28.8312L39.4195 28.2123ZM31.5773 35.5923C30.5896 35.5923 29.6241 35.2989 28.8029 34.7493C27.9817 34.1996 27.3417 33.4183 26.9637 32.5042C26.5857 31.5902 26.4868 30.5843 26.6795 29.614C26.8722 28.6436 27.3478 27.7522 28.0462 27.0526C28.7446 26.353 29.6344 25.8766 30.603 25.6836C31.5717 25.4906 32.5758 25.5896 33.4883 25.9683C34.4007 26.3469 35.1806 26.9881 35.7294 27.8107C36.2781 28.6333 36.5709 29.6005 36.5709 30.5899C36.5704 31.9165 36.0441 33.1885 35.1077 34.1265C34.1713 35.0646 32.9015 35.5918 31.5773 35.5923Z" fill="white"/>
    <path opacity="0.2" d="M31.5771 28.9336C31.2496 28.9336 30.9295 29.0309 30.6572 29.2131C30.385 29.3954 30.1727 29.6544 30.0474 29.9575C29.9221 30.2606 29.8893 30.5941 29.9532 30.9158C30.0171 31.2375 30.1748 31.5331 30.4063 31.765C30.6379 31.997 30.9329 32.155 31.2541 32.219C31.5753 32.283 31.9082 32.2501 32.2107 32.1246C32.5133 31.999 32.7719 31.7865 32.9538 31.5137C33.1357 31.2409 33.2328 30.9203 33.2328 30.5922C33.2328 30.1523 33.0584 29.7304 32.7479 29.4194C32.4374 29.1083 32.0162 28.9336 31.5771 28.9336Z" fill="white"/>
    <path d="M42.6167 25.0202L41.2709 24.4646L41.222 23.9581C41.0961 23.8517 40.9789 23.7356 40.8713 23.6108L40.3697 23.5597L39.813 22.2136L40.1372 21.8276C40.1229 21.6624 40.1229 21.4964 40.1372 21.3312L39.813 20.9472L40.3737 19.6093L40.8753 19.5603C40.9844 19.4316 41.103 19.3114 41.2301 19.2008L41.2791 18.6962L42.6249 18.1406L43.0082 18.4634C43.1731 18.4511 43.3388 18.4511 43.5037 18.4634L43.887 18.1406L45.2328 18.6962L45.2797 19.2008C45.4046 19.3088 45.5218 19.4256 45.6305 19.55L46.1321 19.5991L46.6867 20.9452L46.3645 21.3292C46.3788 21.4943 46.3788 21.6604 46.3645 21.8255L46.6867 22.2116L46.1321 23.5577L45.6305 23.6088C45.5229 23.7342 45.4056 23.851 45.2797 23.9581L45.2328 24.4626L43.887 25.0182L43.5037 24.6955C43.3394 24.7077 43.1745 24.7077 43.0102 24.6955L42.6167 25.0202ZM43.5914 24.4074L43.9401 24.6955L44.9596 24.2726L45.0004 23.8212L45.0493 23.7844C45.1923 23.6684 45.3241 23.5392 45.4429 23.3984L45.4796 23.3514L45.9302 23.3085L46.3523 22.2872L46.0831 21.9277V21.8684C46.1015 21.683 46.1015 21.4962 46.0831 21.3108V21.2434L46.3706 20.8921L45.9485 19.8707L45.5 19.8299L45.4612 19.7809C45.3412 19.6429 45.2081 19.517 45.0636 19.405L45.0147 19.3662L44.9739 18.9148L43.9543 18.492L43.5995 18.7922H43.5404C43.3554 18.7718 43.1687 18.7718 42.9837 18.7922H42.9226L42.5739 18.5022L41.5544 18.925L41.5115 19.3764L41.4667 19.4152C41.3221 19.5294 41.1896 19.6581 41.0711 19.7992L41.0324 19.8483L40.5817 19.8891L40.1556 20.9104L40.4451 21.2597V21.319C40.4247 21.5043 40.4247 21.6913 40.4451 21.8766V21.9379L40.1556 22.2647L40.5797 23.286L41.0283 23.3289L41.067 23.3759C41.1846 23.5203 41.3165 23.6523 41.4606 23.7701L41.5075 23.8069L41.5503 24.2604L42.5698 24.6832L42.9205 24.3952H42.9797C43.1648 24.4136 43.3512 24.4136 43.5363 24.3952L43.5914 24.4074Z" fill="#263238"/>
    <path d="M43.8585 23.0252C43.5731 23.144 43.2589 23.1753 42.9558 23.1151C42.6526 23.055 42.3741 22.9061 42.1554 22.6874C41.9368 22.4686 41.7878 22.1898 41.7274 21.8862C41.667 21.5826 41.6978 21.2678 41.8161 20.9818C41.9343 20.6957 42.1345 20.4513 42.3915 20.2793C42.6485 20.1073 42.9506 20.0155 43.2596 20.0156C43.5687 20.0157 43.8707 20.1076 44.1276 20.2797C44.3845 20.4519 44.5846 20.6965 44.7027 20.9826C44.7813 21.1721 44.8218 21.3752 44.822 21.5805C44.8223 21.7857 44.7821 21.9889 44.7039 22.1786C44.6257 22.3683 44.511 22.5407 44.3663 22.6859C44.2216 22.8312 44.0497 22.9465 43.8605 23.0252H43.8585Z" fill="#263238"/>
    <path d="M32.6251 21.8247C32.5997 21.8247 32.5753 21.8146 32.5574 21.7966C32.5394 21.7786 32.5293 21.7542 32.5293 21.7287V21.2405C32.5293 21.2151 32.5394 21.1907 32.5574 21.1727C32.5753 21.1546 32.5997 21.1445 32.6251 21.1445C32.6506 21.1445 32.6749 21.1546 32.6929 21.1727C32.7109 21.1907 32.721 21.2151 32.721 21.2405V21.7206C32.7221 21.7338 32.7205 21.7472 32.7162 21.7598C32.7119 21.7724 32.705 21.784 32.696 21.7938C32.6869 21.8036 32.676 21.8114 32.6638 21.8167C32.6516 21.8221 32.6384 21.8248 32.6251 21.8247Z" fill="#407BFF"/>
    <path d="M32.6251 20.3811C32.5997 20.3811 32.5753 20.371 32.5574 20.353C32.5394 20.335 32.5293 20.3106 32.5293 20.2851V19.321C32.5293 19.2955 32.5394 19.2711 32.5574 19.2531C32.5753 19.2351 32.5997 19.225 32.6251 19.225C32.6506 19.225 32.6749 19.2351 32.6929 19.2531C32.7109 19.2711 32.721 19.2955 32.721 19.321V20.2851C32.721 20.3106 32.7109 20.335 32.6929 20.353C32.6749 20.371 32.6506 20.3811 32.6251 20.3811ZM32.6251 18.4529C32.5997 18.4529 32.5753 18.4428 32.5574 18.4248C32.5394 18.4067 32.5293 18.3823 32.5293 18.3569V17.3927C32.5293 17.3673 32.5394 17.3429 32.5574 17.3249C32.5753 17.3069 32.5997 17.2967 32.6251 17.2967C32.6506 17.2967 32.6749 17.3069 32.6929 17.3249C32.7109 17.3429 32.721 17.3673 32.721 17.3927V18.3569C32.721 18.3823 32.7109 18.4067 32.6929 18.4248C32.6749 18.4428 32.6506 18.4529 32.6251 18.4529ZM32.6251 16.5267C32.5995 16.5261 32.5752 16.5156 32.5572 16.4972C32.5393 16.4789 32.5293 16.4543 32.5293 16.4286V15.4665C32.5293 15.4411 32.5394 15.4166 32.5574 15.3986C32.5753 15.3806 32.5997 15.3705 32.6251 15.3705C32.6506 15.3705 32.6749 15.3806 32.6929 15.3986C32.7109 15.4166 32.721 15.4411 32.721 15.4665V16.4286C32.721 16.4543 32.7109 16.4789 32.693 16.4972C32.6751 16.5156 32.6507 16.5261 32.6251 16.5267ZM32.6251 14.5923C32.6128 14.5931 32.6005 14.5914 32.5889 14.5873C32.5773 14.5831 32.5667 14.5767 32.5577 14.5682C32.5487 14.5598 32.5415 14.5496 32.5367 14.5383C32.5318 14.527 32.5293 14.5147 32.5293 14.5024V14.4881C32.5292 14.16 32.5837 13.8342 32.6904 13.524C32.6992 13.5002 32.7168 13.4807 32.7396 13.4696C32.7624 13.4586 32.7886 13.4568 32.8127 13.4647C32.8248 13.4686 32.836 13.4749 32.8456 13.4833C32.8552 13.4916 32.863 13.5019 32.8685 13.5133C32.8741 13.5248 32.8772 13.5373 32.8778 13.55C32.8783 13.5627 32.8763 13.5754 32.8719 13.5873C32.7717 13.877 32.7207 14.1815 32.721 14.4881C32.7211 14.5144 32.7112 14.5397 32.6935 14.559C32.6757 14.5783 32.6513 14.5902 32.6251 14.5923ZM33.2369 12.8111C33.2154 12.8114 33.1944 12.8042 33.1777 12.7907C33.1678 12.7829 33.1595 12.7732 33.1533 12.7623C33.1472 12.7513 33.1432 12.7392 33.1417 12.7266C33.1402 12.7141 33.1411 12.7014 33.1445 12.6893C33.1479 12.6771 33.1536 12.6658 33.1614 12.6559C33.3687 12.3959 33.6182 12.1729 33.8996 11.9961C33.9103 11.9894 33.9222 11.9849 33.9346 11.9828C33.9471 11.9807 33.9598 11.9811 33.9722 11.9839C33.9845 11.9868 33.9961 11.992 34.0064 11.9993C34.0167 12.0067 34.0254 12.016 34.0321 12.0267C34.0388 12.0375 34.0433 12.0494 34.0454 12.0619C34.0475 12.0744 34.0471 12.0871 34.0442 12.0995C34.0414 12.1118 34.0362 12.1234 34.0288 12.1337C34.0215 12.144 34.0122 12.1528 34.0015 12.1595C33.7386 12.323 33.5055 12.5302 33.3123 12.7723C33.2978 12.7919 33.2769 12.8056 33.2532 12.8111H33.2369ZM34.8375 11.8102C34.8138 11.8104 34.7908 11.8017 34.773 11.7859C34.7553 11.77 34.744 11.7481 34.7415 11.7245C34.739 11.7008 34.7453 11.677 34.7593 11.6578C34.7732 11.6385 34.7939 11.6251 34.8171 11.6202C35.026 11.5736 35.2393 11.5503 35.4533 11.5508H35.7938C35.8064 11.5508 35.8189 11.5533 35.8305 11.5581C35.8422 11.5629 35.8527 11.57 35.8616 11.5789C35.8705 11.5878 35.8776 11.5984 35.8824 11.6101C35.8872 11.6217 35.8897 11.6342 35.8897 11.6468C35.8897 11.6594 35.8872 11.6719 35.8824 11.6835C35.8776 11.6952 35.8705 11.7058 35.8616 11.7147C35.8527 11.7236 35.8422 11.7307 35.8305 11.7355C35.8189 11.7403 35.8064 11.7428 35.7938 11.7428H35.4798C35.2796 11.743 35.08 11.7649 34.8844 11.8082L34.8375 11.8102ZM51.1888 11.7428H50.2427C50.2173 11.7428 50.1929 11.7327 50.1749 11.7147C50.157 11.6967 50.1469 11.6723 50.1469 11.6468C50.1469 11.6213 50.157 11.5969 50.1749 11.5789C50.1929 11.5609 50.2173 11.5508 50.2427 11.5508H51.2051C51.2177 11.5508 51.2302 11.5533 51.2418 11.5581C51.2534 11.5629 51.264 11.57 51.2729 11.5789C51.2818 11.5878 51.2889 11.5984 51.2937 11.6101C51.2985 11.6217 51.301 11.6342 51.301 11.6468C51.301 11.6594 51.2985 11.6719 51.2937 11.6835C51.2889 11.6952 51.2818 11.7058 51.2729 11.7147C51.264 11.7236 51.2534 11.7307 51.2418 11.7355C51.2302 11.7403 51.2177 11.7428 51.2051 11.7428H51.1888ZM49.2639 11.7428H48.326C48.3134 11.7428 48.3009 11.7403 48.2893 11.7355C48.2777 11.7307 48.2671 11.7236 48.2582 11.7147C48.2493 11.7058 48.2422 11.6952 48.2374 11.6835C48.2326 11.6719 48.2301 11.6594 48.2301 11.6468C48.2301 11.6342 48.2326 11.6217 48.2374 11.6101C48.2422 11.5984 48.2493 11.5878 48.2582 11.5789C48.2671 11.57 48.2777 11.5629 48.2893 11.5581C48.3009 11.5533 48.3134 11.5508 48.326 11.5508H49.2864C49.299 11.5508 49.3114 11.5533 49.323 11.5581C49.3347 11.5629 49.3452 11.57 49.3541 11.5789C49.363 11.5878 49.3701 11.5984 49.3749 11.6101C49.3797 11.6217 49.3822 11.6342 49.3822 11.6468C49.3822 11.6594 49.3797 11.6719 49.3749 11.6835C49.3701 11.6952 49.363 11.7058 49.3541 11.7147C49.3452 11.7236 49.3347 11.7307 49.323 11.7355C49.3114 11.7403 49.299 11.7428 49.2864 11.7428H49.2639ZM47.3411 11.7428H46.3787C46.3532 11.7428 46.3289 11.7327 46.3109 11.7147C46.2929 11.6967 46.2828 11.6723 46.2828 11.6468C46.2828 11.6213 46.2929 11.5969 46.3109 11.5789C46.3289 11.5609 46.3532 11.5508 46.3787 11.5508H47.3411C47.3537 11.5508 47.3661 11.5533 47.3778 11.5581C47.3894 11.5629 47.4 11.57 47.4089 11.5789C47.4178 11.5878 47.4248 11.5984 47.4296 11.6101C47.4345 11.6217 47.4369 11.6342 47.4369 11.6468C47.4369 11.6594 47.4345 11.6719 47.4296 11.6835C47.4248 11.6952 47.4178 11.7058 47.4089 11.7147C47.4 11.7236 47.3894 11.7307 47.3778 11.7355C47.3661 11.7403 47.3537 11.7428 47.3411 11.7428ZM45.4162 11.7428H44.4538C44.4284 11.7428 44.404 11.7327 44.386 11.7147C44.368 11.6967 44.3579 11.6723 44.3579 11.6468C44.3579 11.6213 44.368 11.5969 44.386 11.5789C44.404 11.5609 44.4284 11.5508 44.4538 11.5508H45.4162C45.4288 11.5508 45.4413 11.5533 45.4529 11.5581C45.4645 11.5629 45.4751 11.57 45.484 11.5789C45.4929 11.5878 45.4999 11.5984 45.5048 11.6101C45.5096 11.6217 45.5121 11.6342 45.5121 11.6468C45.5121 11.6594 45.5096 11.6719 45.5048 11.6835C45.4999 11.6952 45.4929 11.7058 45.484 11.7147C45.4751 11.7236 45.4645 11.7307 45.4529 11.7355C45.4413 11.7403 45.4288 11.7428 45.4162 11.7428ZM43.4913 11.7428H42.5289C42.5035 11.7428 42.4791 11.7327 42.4611 11.7147C42.4432 11.6967 42.4331 11.6723 42.4331 11.6468C42.4331 11.6213 42.4432 11.5969 42.4611 11.5789C42.4791 11.5609 42.5035 11.5508 42.5289 11.5508H43.4913C43.5039 11.5508 43.5164 11.5533 43.528 11.5581C43.5396 11.5629 43.5502 11.57 43.5591 11.5789C43.568 11.5878 43.5751 11.5984 43.5799 11.6101C43.5847 11.6217 43.5872 11.6342 43.5872 11.6468C43.5872 11.6594 43.5847 11.6719 43.5799 11.6835C43.5751 11.6952 43.568 11.7058 43.5591 11.7147C43.5502 11.7236 43.5396 11.7307 43.528 11.7355C43.5164 11.7403 43.5039 11.7428 43.4913 11.7428ZM41.5665 11.7428H40.6061C40.5935 11.7428 40.581 11.7403 40.5694 11.7355C40.5578 11.7307 40.5472 11.7236 40.5383 11.7147C40.5294 11.7058 40.5223 11.6952 40.5175 11.6835C40.5127 11.6719 40.5102 11.6594 40.5102 11.6468C40.5102 11.6342 40.5127 11.6217 40.5175 11.6101C40.5223 11.5984 40.5294 11.5878 40.5383 11.5789C40.5472 11.57 40.5578 11.5629 40.5694 11.5581C40.581 11.5533 40.5935 11.5508 40.6061 11.5508H41.5665C41.579 11.5508 41.5915 11.5533 41.6031 11.5581C41.6148 11.5629 41.6253 11.57 41.6342 11.5789C41.6431 11.5878 41.6502 11.5984 41.655 11.6101C41.6598 11.6217 41.6623 11.6342 41.6623 11.6468C41.6623 11.6594 41.6598 11.6719 41.655 11.6835C41.6502 11.6952 41.6431 11.7058 41.6342 11.7147C41.6253 11.7236 41.6148 11.7307 41.6031 11.7355C41.5915 11.7403 41.579 11.7428 41.5665 11.7428ZM39.6436 11.7428H38.6812C38.6558 11.7428 38.6314 11.7327 38.6134 11.7147C38.5954 11.6967 38.5853 11.6723 38.5853 11.6468C38.5853 11.6213 38.5954 11.5969 38.6134 11.5789C38.6314 11.5609 38.6558 11.5508 38.6812 11.5508H39.6436C39.6562 11.5508 39.6687 11.5533 39.6803 11.5581C39.6919 11.5629 39.7025 11.57 39.7114 11.5789C39.7203 11.5878 39.7273 11.5984 39.7322 11.6101C39.737 11.6217 39.7394 11.6342 39.7394 11.6468C39.7394 11.6594 39.737 11.6719 39.7322 11.6835C39.7273 11.6952 39.7203 11.7058 39.7114 11.7147C39.7025 11.7236 39.6919 11.7307 39.6803 11.7355C39.6687 11.7403 39.6562 11.7428 39.6436 11.7428ZM37.7187 11.7428H36.7563C36.7309 11.7428 36.7065 11.7327 36.6885 11.7147C36.6705 11.6967 36.6605 11.6723 36.6605 11.6468C36.6605 11.6213 36.6705 11.5969 36.6885 11.5789C36.7065 11.5609 36.7309 11.5508 36.7563 11.5508H37.7187C37.7313 11.5508 37.7438 11.5533 37.7554 11.5581C37.767 11.5629 37.7776 11.57 37.7865 11.5789C37.7954 11.5878 37.8025 11.5984 37.8073 11.6101C37.8121 11.6217 37.8146 11.6342 37.8146 11.6468C37.8146 11.6594 37.8121 11.6719 37.8073 11.6835C37.8025 11.6952 37.7954 11.7058 37.7865 11.7147C37.7776 11.7236 37.767 11.7307 37.7554 11.7355C37.7438 11.7403 37.7313 11.7428 37.7187 11.7428Z" fill="#407BFF"/>
    <path d="M52.6513 11.7428H52.1701C52.1446 11.7428 52.1203 11.7327 52.1023 11.7147C52.0843 11.6967 52.0742 11.6722 52.0742 11.6468C52.0742 11.6213 52.0843 11.5969 52.1023 11.5789C52.1203 11.5609 52.1446 11.5508 52.1701 11.5508H52.6513C52.6767 11.5508 52.7011 11.5609 52.719 11.5789C52.737 11.5969 52.7471 11.6213 52.7471 11.6468C52.7471 11.6722 52.737 11.6967 52.719 11.7147C52.7011 11.7327 52.6767 11.7428 52.6513 11.7428Z" fill="#407BFF"/>
    <path d="M32.5763 76.9609H33.5815L33.5815 45.49H32.5763L32.5763 76.9609Z" fill="#263238"/>
    <path d="M73.992 59.6016H57.3899V57.2954H73.992C74.1927 57.2954 74.3851 57.3753 74.527 57.5174C74.6688 57.6595 74.7485 57.8523 74.7485 58.0532V58.8437C74.7485 58.9433 74.729 59.0418 74.6909 59.1337C74.6529 59.2257 74.5972 59.3092 74.527 59.3796C74.4567 59.45 74.3733 59.5058 74.2815 59.5439C74.1898 59.582 74.0914 59.6016 73.992 59.6016Z" fill="#407BFF"/>
    <path d="M73.3534 77.1336L72.1504 58.0859" stroke="#407BFF" stroke-width="2.83" stroke-linecap="round" stroke-linejoin="round"/>
    <path d="M68.7475 78.0789L67.5444 59.0312" stroke="#407BFF" stroke-width="2.83" stroke-linecap="round" stroke-linejoin="round"/>
    <path d="M56.6738 77.1336L57.8769 58.0859" stroke="#407BFF" stroke-width="2.83" stroke-linecap="round" stroke-linejoin="round"/>
    <path d="M61.2803 78.0789L62.4833 59.0312" stroke="#407BFF" stroke-width="2.83" stroke-linecap="round" stroke-linejoin="round"/>
    <path d="M75.4662 58.0859H58.8641V55.7798H75.4662C75.6668 55.7798 75.8592 55.8596 76.0011 56.0018C76.143 56.1439 76.2227 56.3366 76.2227 56.5376V57.3281C76.2227 57.5291 76.143 57.7219 76.0011 57.864C75.8592 58.0061 75.6668 58.0859 75.4662 58.0859Z" fill="#407BFF"/>
    <path opacity="0.2" d="M75.4662 58.0859H58.8641V55.7798H75.4662C75.6668 55.7798 75.8592 55.8596 76.0011 56.0018C76.143 56.1439 76.2227 56.3366 76.2227 56.5376V57.3281C76.2227 57.5291 76.143 57.7219 76.0011 57.864C75.8592 58.0061 75.6668 58.0859 75.4662 58.0859Z" fill="black"/>
    <path d="M58.7457 77.7109H59.751L59.751 46.24H58.7457L58.7457 77.7109Z" fill="#263238"/>
    <path d="M62.1712 48.6328C62.1712 48.6328 50.681 49.0659 48.7725 53.6863C48.7725 53.6863 49.0375 67.4476 50.575 71.9638L53.864 71.59L53.3379 58.2128L65.2237 48.6369L62.1712 48.6328Z" fill="#263238"/>
    <path opacity="0.2" d="M62.1712 48.6328C62.1712 48.6328 50.681 49.0659 48.7725 53.6863C48.7725 53.6863 49.0375 67.4476 50.575 71.9638L53.864 71.59L53.3379 58.2128L65.2237 48.6369L62.1712 48.6328Z" fill="black"/>
    <path d="M53.3196 75.0349H51.2662L51.2377 73.6643L51.2173 72.5898L53.2237 72.7124L53.2625 73.6643L53.3196 75.0349Z" fill="#B55B52"/>
    <path opacity="0.2" d="M53.2625 73.6643H51.2377L51.2173 72.5898L53.2237 72.7124L53.2625 73.6643Z" fill="black"/>
    <path d="M54.2371 73.0288L49.8409 73.1616L49.0396 71.5275L54.1148 71.4805L54.2371 73.0288Z" fill="#407BFF"/>
    <path d="M50.7406 75.3447C50.7406 75.3447 50.8466 74.1375 50.4266 74.305C50.0066 74.4725 50.4755 75.0894 50.7406 75.3447Z" stroke="#407BFF" stroke-width="0.94" stroke-miterlimit="10"/>
    <path d="M50.7405 75.3475C50.7405 75.3475 49.8372 74.7142 49.6068 75.037C49.3764 75.3597 50.7405 75.3475 50.7405 75.3475Z" stroke="#407BFF" stroke-width="0.94" stroke-miterlimit="10"/>
    <path d="M51.456 74.7617L53.0873 74.7781C53.2024 74.7807 53.3124 74.8261 53.396 74.9053C53.4796 74.9846 53.5309 75.0921 53.54 75.207L53.6542 76.6512C53.6596 76.7138 53.6518 76.7768 53.6313 76.8363C53.6108 76.8957 53.5781 76.9501 53.5352 76.9959C53.4923 77.0418 53.4402 77.0781 53.3823 77.1025C53.3245 77.1268 53.2622 77.1387 53.1994 77.1373C52.3165 77.1108 50.4997 77.0638 49.8554 77.0822C48.9928 77.1067 47.7674 77.121 47.592 76.7921C47.5421 76.7039 47.5252 76.6008 47.5442 76.5013C47.5633 76.4017 47.6171 76.3122 47.696 76.2488C47.696 76.2488 50.047 76.0302 51.1277 74.9108C51.1697 74.8652 51.2204 74.8286 51.2768 74.8029C51.3332 74.7773 51.3941 74.7633 51.456 74.7617Z" fill="#263238"/>
    <path d="M72.481 48.6328C72.481 48.6328 72.6992 51.3148 72.6177 53.3881C72.5239 55.778 67.3874 57.8819 59.9102 56.6563C59.9102 56.6563 59.327 60.6946 57.2594 64.4183C55.1918 68.1421 51.9578 73.6633 51.9578 73.6633L48.7769 71.59C48.7769 71.59 52.9651 59.947 53.7624 56.7155C54.5597 53.4841 54.8757 51.9337 57.1554 50.9247C59.4351 49.9156 64.4206 48.6328 64.4206 48.6328H72.481Z" fill="#263238"/>
    <path d="M50.7406 73.0577L50.3633 73.6378L49.5334 74.9185L47.9409 73.9891L48.7749 72.69L49.0991 72.1875L50.7406 73.0577Z" fill="#B55B52"/>
    <path opacity="0.2" d="M50.7406 73.0577L50.3633 73.6378L48.7749 72.69L49.0991 72.1875L50.7406 73.0577Z" fill="black"/>
    <path d="M52.7857 72.59L48.6158 70.0898L47.9409 71.7587L51.8988 74.0485L52.7857 72.59Z" fill="#407BFF"/>
    <path d="M46.85 74.0509C46.85 74.0509 47.1538 73.0051 46.8133 72.9847C46.4728 72.9642 46.85 74.0509 46.85 74.0509Z" stroke="#407BFF" stroke-width="0.94" stroke-miterlimit="10"/>
    <path d="M46.7701 74.0091C46.7701 74.0091 46.2991 72.8734 45.9198 73.1267C45.5405 73.38 46.7701 74.0091 46.7701 74.0091Z" stroke="#407BFF" stroke-width="0.94" stroke-miterlimit="10"/>
    <path d="M48.1466 73.873L49.5372 74.6901C49.635 74.7475 49.7073 74.84 49.7394 74.9489C49.7716 75.0578 49.7613 75.1748 49.7105 75.2763L49.0804 76.557C49.0526 76.613 49.0134 76.6626 48.9654 76.7026C48.9174 76.7426 48.8617 76.7722 48.8017 76.7895C48.7417 76.8068 48.6787 76.8114 48.6168 76.803C48.555 76.7946 48.4955 76.7735 48.4422 76.7409C47.6939 76.2792 46.1503 75.3335 45.5875 75.0291C44.829 74.6206 43.7666 74.0242 43.7809 73.6585C43.7838 73.5582 43.822 73.4622 43.8888 73.3874C43.9556 73.3126 44.0467 73.2639 44.1459 73.25C44.1459 73.25 46.2828 74.2346 47.7816 73.826C47.8425 73.8091 47.9061 73.8046 47.9688 73.8127C48.0315 73.8207 48.0919 73.8413 48.1466 73.873Z" fill="#263238"/>
    <path d="M59.5737 36.9129C59.5737 36.9129 59.1455 41.5987 59.3168 42.8039C59.3168 42.8039 54.8472 43.4596 52.5879 43.1491L51.0749 42.7692L49.1826 43.2329L49.6985 44.7342H51.2115C51.2115 44.7342 52.3126 45.0447 52.7938 44.7342C52.7938 44.7342 56.5763 45.492 58.8111 45.251C61.0459 45.01 61.7392 44.1582 61.8391 42.4607C61.9329 40.8266 63.0075 37.1866 62.1491 36.3594L59.5737 36.9129Z" fill="#B55B52"/>
    <path d="M74.9239 37.4411C74.9239 37.4411 73.209 33.078 71.5411 32.0935C69.8731 31.1089 62.1491 32.9923 62.1491 32.9923C62.1491 32.9923 58.8356 34.0606 58.646 39.2468L61.6903 40.5398L62.1715 48.6348H72.4811L72.426 38.1499L74.9239 37.4411Z" fill="#407BFF"/>
    <path d="M62.2899 24.4414C62.2899 24.4414 61.2703 24.3127 60.993 23.5467C60.7157 22.7807 61.7801 23.1668 61.6904 21.7819C61.6007 20.397 63.1891 20.0661 64.3412 20.6748C65.4932 21.2835 67.3223 20.6196 68.0115 21.451C68.7007 22.2823 68.3989 23.0565 68.3989 23.0565C68.3989 23.0565 70.3809 25.3034 67.8688 26.8374C65.3566 28.3715 62.2899 24.4414 62.2899 24.4414Z" fill="#263238"/>
    <path d="M68.2843 31.9076C67.1832 33.5887 66.1923 33.7623 64.8648 33.7603C63.3743 33.7603 63.8738 32.7001 63.8738 32.7001C64.4978 32.3876 64.9525 32.0526 65.0239 31.2825C65.0383 31.1332 65.0417 30.983 65.0341 30.8332C65.0195 30.4864 64.9599 30.1431 64.8567 29.8118C62.7462 30.0038 62.002 28.9723 61.7389 27.0257C61.5922 25.8283 61.8096 24.6145 62.3629 23.543C63.5863 24.9851 65.8884 23.8555 65.8884 23.8555C65.2421 25.7286 66.8244 26.4006 66.8244 26.4006C67.4361 26.0166 67.9255 26.3516 67.8786 27.0972C67.8695 27.3052 67.7983 27.5056 67.6744 27.6727C67.5505 27.8399 67.3794 27.9659 67.1833 28.0347C67.0629 31.354 68.2843 31.9076 68.2843 31.9076Z" fill="#B55B52"/>
    <path d="M62.9443 27.7917C62.9277 27.7917 62.9117 27.7854 62.8995 27.774C62.8874 27.7626 62.8801 27.7471 62.879 27.7304C62.8785 27.7218 62.8796 27.7132 62.8824 27.7051C62.8852 27.697 62.8895 27.6894 62.8952 27.683C62.9009 27.6765 62.9078 27.6713 62.9155 27.6675C62.9233 27.6637 62.9316 27.6615 62.9402 27.661C63.6784 27.6222 63.9597 27.2668 63.9699 27.2627C63.9751 27.256 63.9816 27.2505 63.9889 27.2464C63.9962 27.2422 64.0043 27.2396 64.0127 27.2387C64.021 27.2377 64.0295 27.2385 64.0375 27.2408C64.0456 27.2432 64.0531 27.2471 64.0597 27.2525C64.0665 27.2577 64.0723 27.2642 64.0766 27.2716C64.0809 27.2791 64.0837 27.2873 64.0849 27.2959C64.086 27.3044 64.0854 27.3131 64.0832 27.3214C64.081 27.3297 64.0771 27.3375 64.0719 27.3444C64.0597 27.3607 63.7497 27.7529 62.9484 27.7917H62.9443Z" fill="#263238"/>
    <path d="M62.9441 26.986L62.8238 25.7461L62.2896 26.8736C62.3794 26.9478 62.4871 26.9972 62.6019 27.0169C62.7167 27.0366 62.8347 27.026 62.9441 26.986Z" fill="#A02724"/>
    <path d="M63.7681 25.7467C63.7681 25.902 63.8394 26.0286 63.9291 26.0286C64.0189 26.0286 64.0902 25.902 64.0902 25.7467C64.0902 25.5915 64.0189 25.4648 63.9291 25.4648C63.8394 25.4648 63.7681 25.5915 63.7681 25.7467Z" fill="#263238"/>
    <path d="M61.9673 25.7467C61.9673 25.902 62.0387 26.0286 62.1284 26.0286C62.2181 26.0286 62.2895 25.902 62.2895 25.7467C62.2895 25.5915 62.2181 25.4648 62.1284 25.4648C62.0387 25.4648 61.9673 25.5915 61.9673 25.7467Z" fill="#263238"/>
    <path d="M64.8427 25.124C64.8286 25.1244 64.8148 25.1212 64.8023 25.1147C64.7898 25.1083 64.7792 25.0989 64.7713 25.0872C64.7611 25.0709 64.494 24.7114 63.8741 24.8258C63.8628 24.8281 63.8512 24.8282 63.8399 24.826C63.8286 24.8237 63.8179 24.8192 63.8084 24.8127C63.7989 24.8063 63.7908 24.7979 63.7845 24.7882C63.7783 24.7785 63.7741 24.7677 63.7721 24.7563C63.7685 24.7336 63.7736 24.7104 63.7865 24.6914C63.7994 24.6724 63.8191 24.6591 63.8415 24.6542C64.5755 24.5194 64.8998 24.9667 64.914 24.9871C64.9228 25.0003 64.928 25.0155 64.9288 25.0313C64.9297 25.0471 64.9263 25.0628 64.919 25.0768C64.9117 25.0909 64.9007 25.1026 64.8873 25.1109C64.8739 25.1192 64.8584 25.1237 64.8427 25.124Z" fill="#263238"/>
    <path d="M61.8555 25.0095C61.8413 25.0093 61.8273 25.0058 61.8147 24.9993C61.8046 24.9941 61.7956 24.987 61.7883 24.9783C61.781 24.9697 61.7755 24.9596 61.772 24.9488C61.7686 24.938 61.7674 24.9266 61.7684 24.9152C61.7694 24.9039 61.7727 24.8929 61.778 24.8829C61.8467 24.7681 61.948 24.6763 62.0689 24.6193C62.1897 24.5622 62.3248 24.5423 62.457 24.5622C62.4683 24.5637 62.4792 24.5674 62.489 24.5732C62.4988 24.579 62.5074 24.5866 62.5143 24.5958C62.5211 24.6049 62.526 24.6153 62.5288 24.6264C62.5316 24.6374 62.5321 24.649 62.5304 24.6602C62.5292 24.6715 62.5257 24.6823 62.5201 24.6922C62.5146 24.702 62.5071 24.7106 62.4981 24.7175C62.4892 24.7244 62.4789 24.7293 62.468 24.7321C62.4571 24.7349 62.4457 24.7355 62.4346 24.7338C62.3378 24.7192 62.2389 24.7331 62.1499 24.7737C62.0609 24.8143 61.9855 24.8799 61.9329 24.9626C61.9252 24.9764 61.914 24.9881 61.9004 24.9963C61.8868 25.0045 61.8713 25.0091 61.8555 25.0095Z" fill="#263238"/>
    <path d="M61.7168 26.7136C61.5262 26.7132 61.3399 26.6562 61.1816 26.5498C61.0232 26.4434 60.8999 26.2923 60.8272 26.1157C60.7545 25.9392 60.7357 25.745 60.7732 25.5577C60.8106 25.3704 60.9026 25.1984 61.0376 25.0635C61.1726 24.9286 61.3444 24.8368 61.5315 24.7997C61.7185 24.7626 61.9123 24.7818 62.0884 24.855C62.2646 24.9282 62.4151 25.052 62.5209 25.2109C62.6268 25.3697 62.6834 25.5564 62.6834 25.7474C62.6834 25.8745 62.6583 26.0003 62.6097 26.1176C62.5611 26.235 62.4899 26.3416 62.4001 26.4313C62.3104 26.5211 62.2038 26.5922 62.0865 26.6406C61.9693 26.6891 61.8437 26.7139 61.7168 26.7136ZM61.7168 24.9099C61.5515 24.9099 61.3898 24.9591 61.2524 25.0511C61.1149 25.1431 61.0077 25.2739 60.9445 25.4269C60.8812 25.58 60.8646 25.7483 60.8969 25.9108C60.9291 26.0733 61.0088 26.2225 61.1257 26.3396C61.2426 26.4567 61.3916 26.5365 61.5537 26.5688C61.7159 26.6011 61.884 26.5845 62.0368 26.5211C62.1895 26.4578 62.3201 26.3504 62.412 26.2127C62.5038 26.075 62.5529 25.9131 62.5529 25.7474C62.5502 25.5271 62.4609 25.3167 62.3044 25.1618C62.1479 25.007 61.9368 24.9201 61.7168 24.9201V24.9099Z" fill="white"/>
    <path d="M64.027 26.7136C63.8362 26.7136 63.6498 26.6569 63.4911 26.5508C63.3325 26.4446 63.2089 26.2937 63.1359 26.1172C63.0629 25.9406 63.0438 25.7463 63.081 25.5589C63.1182 25.3715 63.2101 25.1994 63.345 25.0642C63.4799 24.9291 63.6517 24.8371 63.8388 24.7998C64.0259 24.7625 64.2198 24.7817 64.3961 24.8548C64.5723 24.9279 64.7229 25.0518 64.8289 25.2106C64.9349 25.3695 64.9915 25.5563 64.9915 25.7474C64.9909 26.0035 64.8891 26.2489 64.7084 26.43C64.5276 26.6111 64.2826 26.713 64.027 26.7136ZM64.027 24.9099C63.8615 24.9095 63.6997 24.9583 63.562 25.0501C63.4242 25.1419 63.3167 25.2725 63.2531 25.4255C63.1896 25.5785 63.1727 25.747 63.2047 25.9095C63.2368 26.0721 63.3162 26.2216 63.4331 26.3389C63.5499 26.4562 63.6989 26.5362 63.8611 26.5687C64.0233 26.6011 64.1915 26.5847 64.3444 26.5213C64.4973 26.458 64.628 26.3507 64.7199 26.2129C64.8119 26.0751 64.861 25.9131 64.861 25.7474C64.8578 25.5276 64.7686 25.3178 64.6127 25.1631C64.4567 25.0084 64.2464 24.9212 64.027 24.9201V24.9099Z" fill="white"/>
    <path d="M62.6831 25.7461H63.0542" stroke="white" stroke-width="0.94" stroke-miterlimit="10"/>
    <path d="M64.9219 25.9258L66.7305 26.3609" stroke="white" stroke-width="0.94" stroke-linecap="round" stroke-linejoin="round"/>
    <path opacity="0.2" d="M65.5563 29.6172C65.4408 30.0425 65.265 30.449 65.0343 30.8244C65.0198 30.4777 64.9601 30.1343 64.8569 29.8031L65.5563 29.6172Z" fill="black"/>
    <path opacity="0.2" d="M61.69 40.5391V39.2461L61.168 40.3185L61.69 40.5391Z" fill="black"/>
    <path opacity="0.2" d="M70.1992 38.8148L69.8016 36.4883L69.6895 39.0212L70.1992 38.8148Z" fill="black"/>
    <path d="M73.0435 43.6959C73.0191 45.3974 72.2544 46.2451 70.0176 46.4861C67.7807 46.7271 64.0003 45.9693 64.0003 45.9693C63.519 46.2798 62.4179 45.9693 62.4179 45.9693H60.905L60.3911 44.468L62.2813 44.0063L63.7943 44.3842C66.0638 44.6947 70.5334 44.0411 70.5334 44.0411C70.405 43.1382 70.2602 40.1907 70.199 38.8139L72.8661 38.0234C73.1292 39.8312 73.066 42.2292 73.0435 43.6959Z" fill="#B55B52"/>
    <path d="M33.5979 34.8116L35.4025 44.026C35.4425 44.2257 35.5503 44.4054 35.7075 44.5346C35.8647 44.6638 36.0617 44.7345 36.2651 44.7348H51.5438C51.672 44.7347 51.7987 44.7065 51.9148 44.6521C52.031 44.5976 52.1338 44.5183 52.216 44.4198C52.2983 44.3212 52.3579 44.2058 52.3908 44.0817C52.4237 43.9575 52.429 43.8276 52.4063 43.7012L50.7751 34.4869C50.7392 34.2838 50.6331 34.0998 50.4754 33.9673C50.3177 33.8347 50.1184 33.7619 49.9125 33.7617H34.4605C34.3306 33.7613 34.2022 33.7899 34.0847 33.8452C33.9672 33.9006 33.8634 33.9815 33.7808 34.0819C33.6983 34.1824 33.6391 34.3 33.6074 34.4262C33.5758 34.5524 33.5726 34.684 33.5979 34.8116Z" fill="#407BFF"/>
    <path opacity="0.2" d="M50.1348 33.7617L52.0433 44.7348C52.1103 44.735 52.1765 44.7204 52.2373 44.6921C52.298 44.6637 52.3518 44.6224 52.3948 44.5709C52.4378 44.5195 52.469 44.4592 52.4861 44.3943C52.5033 44.3294 52.5059 44.2616 52.494 44.1955L50.7057 34.1396C50.687 34.0336 50.6315 33.9375 50.5491 33.8684C50.4667 33.7993 50.3626 33.7615 50.2551 33.7617H50.1348Z" fill="black"/>
    <path d="M35.582 45.6148H59.0803C59.0805 45.4991 59.058 45.3845 59.0139 45.2775C58.9699 45.1706 58.9051 45.0734 58.8235 44.9916C58.7418 44.9098 58.6448 44.845 58.5381 44.8008C58.4313 44.7567 58.3169 44.7341 58.2014 44.7344H36.4649C36.3493 44.7341 36.2347 44.7567 36.1277 44.8008C36.0207 44.8449 35.9235 44.9096 35.8415 44.9914C35.7595 45.0731 35.6944 45.1703 35.6499 45.2772C35.6053 45.3842 35.5823 45.4989 35.582 45.6148Z" fill="#407BFF"/>
    <path opacity="0.2" d="M51.3174 45.6148H59.0801C59.0804 45.4991 59.0578 45.3845 59.0138 45.2775C58.9697 45.1706 58.905 45.0734 58.8233 44.9916C58.7417 44.9098 58.6447 44.845 58.5379 44.8008C58.4312 44.7567 58.3168 44.7341 58.2013 44.7344H52.2003C52.0846 44.7341 51.97 44.7567 51.863 44.8008C51.7561 44.8449 51.6588 44.9096 51.5768 44.9914C51.4948 45.0731 51.4297 45.1703 51.3852 45.2772C51.3407 45.3842 51.3177 45.4989 51.3174 45.6148Z" fill="black"/>
    <path opacity="0.4" d="M41.1343 39.5916C41.2995 40.7375 42.0907 41.5729 42.9022 41.4565C43.7138 41.3401 44.2378 40.3147 44.0747 39.1687C43.9115 38.0228 43.1183 37.1874 42.3068 37.3038C41.4952 37.4202 40.9692 38.4436 41.1343 39.5916Z" fill="white"/>
    <path opacity="0.2" d="M35.582 45.6148H59.0803C59.0805 45.4991 59.058 45.3845 59.0139 45.2775C58.9699 45.1706 58.9051 45.0734 58.8235 44.9916C58.7418 44.9098 58.6448 44.845 58.5381 44.8008C58.4313 44.7567 58.3169 44.7341 58.2014 44.7344H36.4649C36.3493 44.7341 36.2347 44.7567 36.1277 44.8008C36.0207 44.8449 35.9235 44.9096 35.8415 44.9914C35.7595 45.0731 35.6944 45.1703 35.6499 45.2772C35.6053 45.3842 35.5823 45.4989 35.582 45.6148Z" fill="black"/>
    <path d="M25.9575 46.7512H66.535C66.535 46.3655 66.382 45.9956 66.1098 45.7229C65.8375 45.4501 65.4682 45.2969 65.0832 45.2969H27.4114C27.0261 45.2969 26.6567 45.45 26.3841 45.7227C26.1115 45.9954 25.9581 46.3653 25.9575 46.7512Z" fill="#263238"/>
  </g>
  <defs>
    <clipPath id="clip0_3253_4161">
      <rect width="101.953" height="80" fill="white"/>
    </clipPath>
  </defs>
</svg>