<svg xmlns="http://www.w3.org/2000/svg" width="95" height="80" viewBox="0 0 95 80" fill="none">
  <path d="M84.0814 41.9318C84.0863 48.0819 82.5993 54.1414 79.748 59.5906C76.8967 65.0399 72.7661 69.7161 67.7106 73.2184C67.2181 73.5618 66.7188 73.8961 66.2082 74.2079C65.9484 74.3728 65.6863 74.5333 65.4242 74.6891C65.0401 74.9151 64.6493 75.141 64.2584 75.3534C59.0751 78.1774 53.307 79.7597 47.4083 79.9757C41.5096 80.1918 35.6412 79.0356 30.2652 76.5982C28.952 76.0033 27.6748 75.3319 26.4403 74.5875C20.2074 70.8476 15.1744 65.4028 11.9354 58.8955C8.69643 52.3883 7.38655 45.0903 8.16038 37.8628C8.19201 37.5284 8.23268 37.185 8.27787 36.8642C8.33887 36.4124 8.40664 35.9605 8.48346 35.5086C8.74818 33.9465 9.11114 32.4026 9.57018 30.8861C9.63344 30.6738 9.70121 30.4614 9.76673 30.2535C9.98814 29.5667 10.2269 28.8889 10.4829 28.2202C12.4364 23.1721 15.4409 18.5971 19.297 14.7986C23.1532 11.0001 27.7729 8.06487 32.8498 6.18765L33.1571 6.07695C33.7987 5.85102 34.4426 5.62509 35.0978 5.43983C35.8795 5.2139 36.6658 4.98798 37.4678 4.81401C38.7427 4.51975 40.0323 4.2935 41.3312 4.13623C41.5933 4.1046 41.8553 4.07297 42.1174 4.04811C45.8419 3.67113 49.6015 3.83704 53.2783 4.54064C53.6609 4.61444 54.0374 4.69427 54.4079 4.78012L54.8462 4.88179C54.8643 4.88179 54.8801 4.88179 54.9005 4.89535C60.7337 6.30096 66.1531 9.06291 70.7183 12.9568C75.2835 16.8507 78.8656 21.7666 81.1737 27.3052C81.4568 27.9875 81.7204 28.6773 81.9644 29.3747C82.0729 29.6842 82.1745 29.9937 82.2739 30.3078C82.6569 31.4957 82.9796 32.7022 83.2409 33.9226L83.39 34.6546C83.5143 35.2985 83.616 35.9515 83.7131 36.6044C83.959 38.3695 84.0821 40.1496 84.0814 41.9318Z" fill="#E9EEF7"/>
  <path d="M67.5795 72.7908C67.4824 72.4632 67.383 72.1424 67.2768 71.8171C67.2497 71.7335 67.2203 71.6521 67.1954 71.5685C66.9695 70.8712 66.7293 70.1791 66.4747 69.4922C66.3957 69.2776 66.3143 69.0652 66.2307 68.8529C66.1765 68.7105 66.1223 68.5727 66.0658 68.4327C66.0675 68.4275 66.0675 68.422 66.0658 68.4168C66.0138 68.2835 65.9596 68.1525 65.9031 68.0192C65.8738 67.9446 65.8444 67.8701 65.8105 67.7933C65.7766 67.7165 65.7314 67.6035 65.6885 67.5086C65.6846 67.496 65.6793 67.4839 65.6727 67.4725C65.6139 67.3324 65.5529 67.1946 65.4897 67.0567C65.3858 66.8173 65.2751 66.5823 65.1643 66.3473C65.0536 66.1124 64.9655 65.9407 64.8639 65.7396C64.6628 65.3352 64.4482 64.9353 64.2267 64.5422C64.0761 64.2801 63.9255 64.0203 63.7749 63.7627C63.7683 63.754 63.7623 63.745 63.7568 63.7356C63.732 63.6927 63.7071 63.652 63.68 63.6136C63.6258 63.5255 63.5716 63.4396 63.5151 63.356C63.4428 63.2453 63.3727 63.1301 63.2891 63.033C63.1581 62.8409 63.0271 62.6557 62.8892 62.4727L62.6837 62.2015C62.6136 62.1112 62.5436 62.0208 62.4713 61.9327C62.3244 61.7519 62.1731 61.5735 62.0194 61.4018C61.8658 61.23 61.7393 61.09 61.5947 60.9386C61.5314 60.8731 61.4704 60.8076 61.4049 60.7488C61.3901 60.7306 61.3734 60.7139 61.3552 60.6991C61.3552 60.6991 61.3439 60.6856 61.3394 60.6856C61.2083 60.5545 61.0705 60.4235 60.9327 60.297C60.8333 60.2043 60.7316 60.114 60.63 60.0259C60.5283 59.9377 60.386 59.8135 60.2594 59.7118L60.0855 59.5717C60.0177 59.5153 59.9477 59.461 59.8754 59.4068C59.8514 59.3319 59.8097 59.2638 59.7539 59.2083C59.698 59.1529 59.6297 59.1117 59.5546 59.0883C58.1628 58.5799 56.5384 59.2464 55.2393 59.7434L50.7727 61.4582L41.9615 64.8472L36.9256 66.7901C36.8686 66.8111 36.8164 66.8433 36.7722 66.8848C36.7279 66.9263 36.6925 66.9764 36.668 67.0319C36.6477 67.0166 36.6257 67.0037 36.6025 66.9935L36.555 66.9754C36.5085 66.9619 36.4592 66.9619 36.4127 66.9754C36.3629 66.9873 36.318 67.0141 36.2839 67.0522L35.4231 68.0486C35.4121 68.0664 35.3984 68.0824 35.3825 68.096C35.3739 68.109 35.3641 68.1212 35.3531 68.1322L35.2605 68.2406L35.1769 68.34L34.9509 68.5908C34.9374 68.6111 34.9193 68.6292 34.9035 68.6495C34.898 68.6594 34.8902 68.6679 34.8809 68.6744L34.3997 69.2595L33.984 69.7724C33.9616 69.7969 33.9404 69.8225 33.9207 69.8492L33.6722 70.161L33.5637 70.2943C33.4131 70.4781 33.2708 70.6611 33.1367 70.8433C32.7075 71.4013 32.2918 71.9729 31.8919 72.5378C31.051 73.7097 30.2814 74.9311 29.5874 76.1955C29.8133 76.3288 30.0393 76.4621 30.2652 76.5909C35.6421 79.0294 41.5117 80.1861 47.4117 79.9701C53.3117 79.7541 59.081 78.1712 64.2652 75.3461C64.656 75.1337 65.0469 74.91 65.4309 74.6818C65.693 74.5259 65.9551 74.3655 66.2149 74.2006C66.7255 73.8843 67.2248 73.5544 67.7173 73.211C67.6676 73.0755 67.6247 72.9331 67.5795 72.7908Z" fill="#98AAE3"/>
  <path d="M66.4746 69.4908C62.9659 72.6899 59.1048 75.3943 54.5591 76.5895C51.8206 77.2986 48.9628 77.4194 46.1742 76.9439C43.3855 76.4684 40.7293 75.4074 38.3804 73.8309C36.7266 72.7012 35.1406 71.4925 33.541 70.2861C34.4154 69.1722 35.3326 68.09 36.2635 67.0304C36.3118 66.9778 36.3788 66.9462 36.4502 66.9424C36.5216 66.9386 36.5916 66.9629 36.6453 67.0101C36.6687 66.9543 36.7035 66.904 36.7475 66.8624C36.7914 66.8207 36.8436 66.7887 36.9006 66.7684C38.5815 66.1207 40.2609 65.4738 41.9388 64.8276L50.75 61.4387L55.2166 59.7239C56.5134 59.2269 58.1401 58.5604 59.5318 59.0687C59.6072 59.0929 59.6757 59.1346 59.7319 59.1904C59.788 59.2461 59.8302 59.3144 59.8549 59.3895C61.4153 60.5956 62.739 62.0801 63.7589 63.768C64.8483 65.5827 65.7578 67.4994 66.4746 69.4908Z" fill="#7F95DC"/>
  <path d="M65.6772 72.3281C65.8624 72.9517 66.0409 73.5775 66.2081 74.2056C65.9483 74.3705 65.6862 74.5309 65.4241 74.6868C65.2118 73.7673 64.9836 72.8523 64.7328 71.9418C64.4956 71.8266 64.2629 71.7159 64.0347 71.5735C62.6275 70.7629 61.4466 69.6115 60.6006 68.2253C60.4891 68.0491 60.3875 67.8683 60.2956 67.6831C60.1984 67.5001 60.1081 67.3103 60.0245 67.1205C59.9409 66.9307 59.8663 66.7522 59.7985 66.5625C59.7883 66.5311 59.783 66.4983 59.7827 66.4653C59.7894 66.4034 59.8146 66.3449 59.8548 66.2974C59.8951 66.2499 59.9487 66.2155 60.0086 66.1987C60.0758 66.167 60.1527 66.1632 60.2226 66.1882C60.2925 66.2132 60.3496 66.2649 60.3814 66.332C60.4266 66.4382 60.4741 66.5444 60.526 66.6528C60.6028 66.8177 60.6887 66.9827 60.7791 67.1431C60.8694 67.3035 60.9666 67.4797 61.0705 67.6424C61.9675 69.0729 63.2366 70.2326 64.7418 70.9974C65.2377 71.2447 65.7559 71.4444 66.2895 71.5939C66.6138 71.6887 66.9435 71.7641 67.2768 71.8198C67.3829 72.1451 67.4824 72.466 67.5795 72.7936C66.9311 72.7044 66.2936 72.5484 65.6772 72.3281Z" fill="#D0E0F8"/>
  <path d="M57.006 19.1193C56.8027 17.5739 56.6318 16.024 56.4932 14.4696C56.4119 14.5939 56.3057 14.6956 56.2831 14.5148L56.2198 13.9749C56.2198 13.9613 56.2198 13.9478 56.2198 13.9342C56.2198 13.8551 56.1972 13.776 56.1859 13.7083C56.1578 13.691 56.1283 13.6759 56.0978 13.6631C56.0695 13.648 56.04 13.6351 56.0097 13.6247C56.0346 13.4552 56.0549 13.2858 56.0752 13.1141C56.0099 12.8332 55.9176 12.5593 55.7996 12.2962C55.6326 11.9579 55.4361 11.6351 55.2122 11.3315C55.0088 11.0233 54.7822 10.731 54.5344 10.4572C53.5516 9.39077 52.2367 8.84403 50.8653 8.47351C49.4939 8.10298 48.0887 7.84768 46.7512 7.34386C45.016 6.66608 43.3622 5.67425 42.1219 4.28479C41.8598 4.30965 41.5977 4.34128 41.3357 4.37291C41.3131 4.55139 41.2792 4.72535 41.243 4.8948C40.9109 6.45371 40.1315 7.91998 39.3339 9.28233C38.9583 9.93668 38.5298 10.5593 38.0529 11.144L37.8451 11.3699C37.6679 12.9383 37.4085 14.4964 37.0679 16.0376L37.165 16.1573L37.2599 16.2771L37.2848 16.311L37.3571 16.4104L37.3797 16.4397L37.4474 16.5414C37.4723 16.5753 37.4949 16.6114 37.5197 16.6476C37.5446 16.6837 37.5739 16.7312 37.6011 16.7764C37.6282 16.8216 37.6711 16.8916 37.7027 16.9503C37.7592 17.0452 37.8112 17.1446 37.8631 17.244C37.8835 17.2825 37.9015 17.3231 37.9219 17.3615C37.9671 17.4587 38.01 17.5536 38.0507 17.6507L38.0958 17.7569C38.1207 17.8202 38.1455 17.8812 38.1659 17.9422C38.202 18.0416 38.2382 18.1432 38.2698 18.2427C38.3014 18.3421 38.3263 18.4257 38.3557 18.5205C38.385 18.6154 38.4167 18.7126 38.446 18.8142C38.579 19.233 38.6802 19.6613 38.7488 20.0953C38.7552 20.1311 38.7598 20.1673 38.7623 20.2037C38.7731 20.2658 38.7806 20.3284 38.7849 20.3912C38.7849 20.4974 38.7985 20.6013 38.7985 20.7053V20.7708C39.0244 20.8544 39.2729 20.9244 39.5124 20.9967C40.2271 21.1944 40.9529 21.3498 41.6858 21.4621H41.7175H41.9434H42.1083H42.2303C42.2936 21.4621 42.3614 21.4621 42.4246 21.4463C42.4879 21.4305 42.576 21.4463 42.6506 21.4282C42.7126 21.4249 42.7745 21.4182 42.8358 21.4079L43.0617 21.3831C43.1187 21.3792 43.1753 21.3716 43.2312 21.3605L43.4006 21.3356C43.4955 21.3198 43.5904 21.3062 43.6831 21.2882C44.2187 21.1909 44.7471 21.0573 45.2646 20.8883C45.3979 20.8453 45.5289 20.8002 45.6622 20.7527C45.7955 20.7053 45.8881 20.6669 46.0101 20.6194C46.0802 20.5923 46.1525 20.5652 46.2225 20.5336L46.541 20.3957H46.5546L46.9635 20.2015C47.0132 20.1743 47.0691 20.1604 47.1258 20.161C47.1824 20.1617 47.2379 20.177 47.287 20.2054C47.336 20.2338 47.3769 20.2743 47.4057 20.3231C47.4346 20.3718 47.4503 20.4272 47.4515 20.4839C47.4515 20.6849 47.4335 20.8883 47.4312 21.0893C47.4289 21.1134 47.4289 21.1376 47.4312 21.1616C47.4312 21.2317 47.4312 21.3062 47.4312 21.3876C47.4312 21.5389 47.4312 21.6903 47.4312 21.8394C47.4312 22.045 47.4312 22.2529 47.4312 22.463C47.4312 22.6302 47.4312 22.8019 47.4448 22.9713C47.4448 23.0956 47.4448 23.2153 47.4606 23.3396C47.4606 23.3644 47.4606 23.387 47.4606 23.4119C47.4606 23.5 47.4606 23.5881 47.4741 23.674C47.4877 23.7598 47.4741 23.8502 47.4922 23.9383C47.4922 23.9632 47.4922 23.988 47.4922 24.0129C47.5306 24.5732 47.5803 25.1425 47.6526 25.7028C47.6526 25.7909 47.6752 25.879 47.6888 25.9671C47.7136 26.1321 47.7385 26.2947 47.7701 26.4597C47.7814 26.5387 47.795 26.6156 47.813 26.6856C47.8122 26.6916 47.8122 26.6977 47.813 26.7037L47.8695 26.9748C48.0027 27.6652 48.3678 28.2893 48.9043 28.7438L49.0353 28.8477C49.5511 29.2189 50.1471 29.4634 50.7749 29.5617L50.9376 29.591C51.1387 29.6204 51.3443 29.6475 51.5476 29.6678C51.5487 29.6483 51.5487 29.6287 51.5476 29.6091C51.5341 29.4623 51.8662 29.3064 52.1418 29.1844C52.253 29.1409 52.361 29.0896 52.4649 29.0307C53.2218 28.5156 53.7052 27.3656 54.3175 26.7014C54.6339 26.3441 54.9937 26.0276 55.3884 25.7593C55.8957 25.4493 56.4441 25.212 57.0173 25.0544C57.3156 24.964 57.6115 24.8827 57.9211 24.8285C57.5581 22.9141 57.2531 21.011 57.006 19.1193ZM57.006 19.1193C56.8027 17.5739 56.6318 16.024 56.4932 14.4696C56.4119 14.5939 56.3057 14.6956 56.2831 14.5148L56.2198 13.9749C56.2198 13.9613 56.2198 13.9478 56.2198 13.9342C56.2198 13.8551 56.1972 13.776 56.1859 13.7083C56.1578 13.691 56.1283 13.6759 56.0978 13.6631C56.0695 13.648 56.04 13.6351 56.0097 13.6247C56.0346 13.4552 56.0549 13.2858 56.0752 13.1141C56.0099 12.8332 55.9176 12.5593 55.7996 12.2962C55.6326 11.9579 55.4361 11.6351 55.2122 11.3315C55.0088 11.0233 54.7822 10.731 54.5344 10.4572C53.5516 9.39077 52.2367 8.84403 50.8653 8.47351C49.4939 8.10298 48.0887 7.84768 46.7512 7.34386C45.016 6.66608 43.3622 5.67425 42.1219 4.28479C41.8598 4.30965 41.5977 4.34128 41.3357 4.37291C41.3131 4.55139 41.2792 4.72535 41.243 4.8948C40.9109 6.45371 40.1315 7.91998 39.3339 9.28233C38.9583 9.93668 38.5298 10.5593 38.0529 11.144L37.8451 11.3699C37.6679 12.9383 37.4085 14.4964 37.0679 16.0376C37.1018 16.076 37.1334 16.1167 37.165 16.1573L37.2599 16.2771L37.2848 16.311L37.3593 16.4104L37.3797 16.4397L37.4474 16.5414C37.4723 16.5753 37.4949 16.6114 37.5197 16.6476C37.5446 16.6837 37.5739 16.7312 37.6011 16.7764C37.6282 16.8216 37.6711 16.8916 37.7027 16.9503C37.7592 17.0452 37.8112 17.1446 37.8631 17.244C37.8835 17.2847 37.9015 17.3231 37.9219 17.3615C37.9671 17.4587 38.01 17.5536 38.0507 17.6507L38.0958 17.7569C38.1207 17.8202 38.1455 17.8812 38.1659 17.9422C38.202 18.0416 38.2382 18.1432 38.2698 18.2427C38.3014 18.3421 38.3263 18.4257 38.3557 18.5205C38.385 18.6154 38.4167 18.7126 38.446 18.8142C38.579 19.233 38.6802 19.6613 38.7488 20.0953C38.7552 20.1311 38.7598 20.1673 38.7623 20.2037C38.7731 20.2658 38.7806 20.3284 38.7849 20.3912C38.7849 20.4974 38.7985 20.6013 38.7985 20.7053V20.7708C39.0244 20.8544 39.2729 20.9244 39.5124 20.9967C40.2271 21.1944 40.9529 21.3498 41.6858 21.4621H41.7175H41.9434H42.1083H42.2303C42.2936 21.4621 42.3614 21.4621 42.4246 21.4463C42.4879 21.4305 42.576 21.4463 42.6506 21.4282C42.7126 21.4249 42.7745 21.4182 42.8358 21.4079L43.0617 21.3831C43.1187 21.3792 43.1753 21.3716 43.2312 21.3605L43.4006 21.3356C43.4955 21.3198 43.5904 21.3062 43.6831 21.2882C44.2187 21.1909 44.7471 21.0573 45.2646 20.8883C45.3979 20.8453 45.5289 20.8002 45.6622 20.7527C45.7955 20.7053 45.8881 20.6669 46.0101 20.6194C46.0802 20.5923 46.1525 20.5652 46.2225 20.5336L46.541 20.3957H46.5546L46.9635 20.2015C47.0132 20.1743 47.0691 20.1604 47.1258 20.161C47.1824 20.1617 47.2379 20.177 47.287 20.2054C47.336 20.2338 47.3769 20.2743 47.4057 20.3231C47.4346 20.3718 47.4503 20.4272 47.4515 20.4839C47.4515 20.6849 47.4335 20.8883 47.4312 21.0893C47.4289 21.1134 47.4289 21.1376 47.4312 21.1616C47.4312 21.2317 47.4312 21.3062 47.4312 21.3876C47.4312 21.5389 47.4312 21.6903 47.4312 21.8394C47.4312 22.045 47.4312 22.2529 47.4312 22.463C47.4312 22.6302 47.4312 22.8019 47.4448 22.9713C47.4448 23.0956 47.4448 23.2153 47.4606 23.3396C47.4606 23.3644 47.4606 23.387 47.4606 23.4119C47.4606 23.5 47.4606 23.5881 47.4741 23.674C47.4877 23.7598 47.4741 23.8502 47.4922 23.9383C47.4922 23.9632 47.4922 23.988 47.4922 24.0129C47.5306 24.5732 47.5803 25.1425 47.6526 25.7028C47.6526 25.7909 47.6752 25.879 47.6888 25.9671C47.7136 26.1321 47.7385 26.2947 47.7701 26.4597C47.7814 26.5387 47.795 26.6156 47.813 26.6856C47.8122 26.6916 47.8122 26.6977 47.813 26.7037L47.8695 26.9748C48.0027 27.6652 48.3678 28.2893 48.9043 28.7438L49.0353 28.8477C49.5511 29.2189 50.1471 29.4634 50.7749 29.5617L50.9376 29.591C51.1387 29.6204 51.3443 29.6475 51.5476 29.6678C51.5487 29.6483 51.5487 29.6287 51.5476 29.6091C51.5341 29.4623 51.8662 29.3064 52.1418 29.1844C52.253 29.1409 52.361 29.0896 52.4649 29.0307C53.2218 28.5156 53.7052 27.3656 54.3175 26.7014C54.6339 26.3441 54.9937 26.0276 55.3884 25.7593C55.8957 25.4493 56.4441 25.212 57.0173 25.0544C57.3156 24.964 57.6115 24.8827 57.9211 24.8285C57.5581 22.9141 57.2531 21.011 57.006 19.1193ZM59.4257 31.5973C59.7125 30.4709 59.8508 29.3118 59.8369 28.1496C59.8369 27.2097 59.7917 26.2654 59.7036 25.3255C59.6788 25.0612 59.6539 24.8014 59.6223 24.537C59.5387 23.7915 59.437 23.0504 59.3286 22.3139C58.7861 18.8635 57.9625 15.4633 56.866 12.1471C56.7033 11.641 56.5346 11.1364 56.3599 10.6334C56.3012 10.4594 56.2379 10.2877 56.1769 10.1137C56.1159 9.93978 56.0707 9.8223 56.0165 9.67545C55.8293 8.28716 55.4188 6.93827 54.801 5.68103C54.6812 5.4551 54.5502 5.22917 54.4101 4.98969C53.8295 4.04757 53.0546 3.16193 52.013 2.76204C51.2855 2.48189 50.4858 2.51577 49.7176 2.51803H47.2911C45.2871 2.51803 43.2854 2.51803 41.2792 2.51803C40.0185 2.51803 38.7623 2.51803 37.5039 2.54515C37.0295 2.54515 36.5573 2.54515 36.0828 2.56774C36.0486 2.57003 36.0154 2.58008 35.9857 2.59711C35.5338 2.80722 34.1782 4.15827 33.7445 4.76828C33.3897 5.27979 33.0869 5.82548 32.8407 6.39722C32.6803 6.76323 32.5403 7.14053 32.4137 7.52687C31.6659 9.80874 31.5936 12.2397 31.6207 14.6165C31.6682 19.0944 32.0432 23.6536 31.1892 28.0818C31.1757 28.1677 31.1576 28.2513 31.1418 28.3371C31.1101 28.4885 31.0785 28.6421 31.0446 28.789C30.5408 31.0483 29.7116 33.3708 28.2657 35.2167C28.2318 35.2613 28.2065 35.3119 28.1911 35.3658C28.1711 35.3878 28.1537 35.4121 28.1392 35.4381C28.088 35.5225 28.0571 35.6176 28.0488 35.716C28.0475 35.7355 28.0475 35.7551 28.0488 35.7747C28.0476 35.7829 28.0476 35.7913 28.0488 35.7995V35.8244C28.049 35.9607 28.0858 36.0945 28.1554 36.2117C28.2249 36.3289 28.3247 36.4254 28.4442 36.4909C28.521 36.5316 28.5933 36.5722 28.6701 36.6106L28.8825 36.7191L29.3095 36.9314C29.6484 37.0986 29.9873 37.2545 30.3307 37.4036C31.9745 38.1223 33.6846 38.6785 35.4367 39.0642C41.9886 40.5169 49.0398 39.6177 54.8981 36.2198C55.0766 36.1158 55.2528 36.0097 55.4291 35.899C55.7815 35.6836 56.1272 35.4576 56.4661 35.2212C56.6491 35.0969 56.8321 34.9704 57.0106 34.8371C57.3404 34.5976 57.668 34.3491 57.9843 34.0938C58.1916 33.9283 58.3844 33.7454 58.5604 33.547C58.6068 33.5119 58.6459 33.4682 58.6757 33.4183L58.6892 33.3934C58.7299 33.3392 58.7728 33.2872 58.8112 33.233C58.961 33.202 59.1017 33.1373 59.2227 33.0437C59.3437 32.9501 59.4417 32.8302 59.5093 32.693C59.599 32.4949 59.6143 32.2711 59.5523 32.0627L59.4257 31.5973ZM56.6988 13.9161C56.7214 13.9816 56.7395 14.0472 56.7553 14.1104C57.0512 15.1519 57.3246 16.1957 57.5777 17.2486C58.166 19.6665 58.5864 22.1221 58.8361 24.598C58.8564 24.8239 58.8767 25.0363 58.8926 25.2577C58.9423 25.8361 58.9761 26.4145 58.9987 26.9974C59.0369 27.8432 59.0089 28.6908 58.9151 29.5323C58.5838 28.1255 58.2825 26.7135 58.0114 25.2961C57.9775 25.1199 57.9437 24.9437 57.912 24.7697C57.5596 22.893 57.2583 21.0103 57.0083 19.1215C56.805 17.5762 56.634 16.0263 56.4955 14.4719C56.4774 14.2618 56.457 14.0539 56.4412 13.8438C56.4412 13.7602 56.4254 13.6766 56.4186 13.5953C56.3983 13.3152 56.3757 13.035 56.3531 12.7548C56.4729 13.1389 56.5813 13.5253 56.6988 13.9161ZM57.0151 19.1125C56.8118 17.5671 56.6408 16.0173 56.5022 14.4629C56.4209 14.5871 56.3147 14.6888 56.2921 14.5081L56.2289 13.9681C56.2289 13.9545 56.2289 13.941 56.2289 13.9274C56.2289 13.8483 56.2063 13.7693 56.195 13.7015C56.1668 13.6842 56.1373 13.6691 56.1069 13.6563C56.0785 13.6412 56.0491 13.6284 56.0187 13.6179C56.0436 13.4485 56.0639 13.279 56.0843 13.1073C56.019 12.8264 55.9267 12.5525 55.8086 12.2894C55.6417 11.9512 55.4451 11.6283 55.2212 11.3247C55.0178 11.0165 54.7912 10.7242 54.5434 10.4504C53.5606 9.384 52.2457 8.83725 50.8744 8.46673C49.503 8.09621 48.0977 7.84091 46.7602 7.33709C45.0251 6.6593 43.3713 5.66748 42.1309 4.27802C41.8688 4.30287 41.6068 4.3345 41.3447 4.36613C41.3221 4.54461 41.2882 4.71858 41.2521 4.88802C40.92 6.44693 40.1405 7.9132 39.343 9.27555C38.9673 9.9299 38.5389 10.5525 38.062 11.1372L37.8541 11.3631C37.6769 12.9316 37.4175 14.4896 37.0769 16.0308C37.1424 16.1099 37.2079 16.1912 37.2689 16.2703L37.2938 16.3042L37.3684 16.4036L37.3887 16.433L37.4565 16.5346C37.4813 16.5685 37.5039 16.6047 37.5288 16.6408C37.5536 16.677 37.583 16.7244 37.6101 16.7696C37.6372 16.8148 37.6801 16.8848 37.7118 16.9436C37.7682 17.0385 37.8202 17.1379 37.8722 17.2373C37.8925 17.2757 37.9106 17.3163 37.9309 17.3548C37.9761 17.4519 38.019 17.5468 38.0597 17.6439L38.1049 17.7501C38.1297 17.8134 38.1546 17.8744 38.1749 17.9354C38.2111 18.0348 38.2472 18.1365 38.2788 18.2359C38.3105 18.3353 38.3353 18.4189 38.3647 18.5138C38.3941 18.6087 38.4257 18.7058 38.4551 18.8075C38.588 19.2263 38.6892 19.6545 38.7578 20.0885C38.7643 20.1244 38.7688 20.1606 38.7714 20.1969C38.7821 20.259 38.7896 20.3216 38.794 20.3845C38.794 20.4906 38.8075 20.5946 38.8075 20.6985V20.764C39.0334 20.8476 39.282 20.9176 39.5215 20.9899C40.2362 21.1876 40.9619 21.343 41.6949 21.4554H41.7265H41.9524H42.1174H42.2394C42.3026 21.4554 42.3704 21.4554 42.4337 21.4395C42.4969 21.4237 42.585 21.4395 42.6596 21.4215C42.7217 21.4182 42.7835 21.4114 42.8449 21.4011L43.0708 21.3763C43.1277 21.3724 43.1843 21.3648 43.2402 21.3537L43.4097 21.3288C43.5046 21.313 43.5995 21.2995 43.6921 21.2814C44.2277 21.1842 44.7561 21.0505 45.2736 20.8815C45.4069 20.8386 45.5379 20.7934 45.6712 20.7459C45.8045 20.6985 45.8972 20.6601 46.0192 20.6126C46.0892 20.5855 46.1615 20.5584 46.2315 20.5268L46.5501 20.389H46.5636L46.9726 20.1947C47.0223 20.1675 47.0782 20.1536 47.1348 20.1543C47.1915 20.155 47.247 20.1702 47.296 20.1986C47.345 20.227 47.386 20.2675 47.4148 20.3163C47.4436 20.3651 47.4594 20.4204 47.4606 20.4771C47.4606 20.6782 47.4425 20.8815 47.4402 21.0826C47.438 21.1066 47.438 21.1308 47.4402 21.1549C47.4402 21.2249 47.4402 21.2995 47.4402 21.3808C47.4402 21.5322 47.4402 21.6835 47.4402 21.8327C47.4402 22.0382 47.4402 22.2461 47.4402 22.4562C47.4402 22.6234 47.4402 22.7951 47.4538 22.9646C47.4538 23.0888 47.4538 23.2086 47.4696 23.3328C47.4696 23.3577 47.4696 23.3803 47.4696 23.4051C47.4696 23.4932 47.4696 23.5813 47.4832 23.6672C47.4967 23.753 47.4832 23.8434 47.5012 23.9315C47.5012 23.9564 47.5012 23.9812 47.5012 24.0061C47.5397 24.5664 47.5894 25.1357 47.6617 25.696C47.6617 25.7841 47.6842 25.8722 47.6978 25.9604C47.7227 26.1253 47.7475 26.288 47.7791 26.4529C47.7904 26.532 47.804 26.6088 47.8221 26.6788C47.8212 26.6848 47.8212 26.6909 47.8221 26.6969L47.8785 26.968C48.0117 27.6584 48.3768 28.2826 48.9133 28.737L49.0443 28.841C49.5602 29.2121 50.1561 29.4567 50.784 29.5549L50.9467 29.5843C51.1477 29.6136 51.3533 29.6407 51.5567 29.6611C51.5577 29.6415 51.5577 29.6219 51.5567 29.6023C51.5431 29.4555 51.8752 29.2996 52.1508 29.1776C52.2621 29.1342 52.37 29.0828 52.4739 29.024C53.2308 28.5088 53.7143 27.3589 54.3265 26.6946C54.643 26.3373 55.0027 26.0208 55.3974 25.7525C55.9048 25.4425 56.4531 25.2052 57.0264 25.0476C57.3246 24.9572 57.6206 24.8759 57.9301 24.8217C57.5611 22.9118 57.2531 21.011 57.006 19.1193L57.0151 19.1125Z" fill="#78534D"/>
  <path d="M36.3016 23.5835C36.2791 23.4322 36.0531 23.4751 36.0463 23.6152C36.0238 24.0806 35.965 24.5415 35.9311 25.0069C35.8972 25.4723 35.8679 25.9287 35.8521 26.3918C35.853 26.4487 35.8743 26.5034 35.9122 26.5459C35.9501 26.5884 36.002 26.6159 36.0584 26.6233C36.1149 26.6307 36.1721 26.6175 36.2196 26.5862C36.2672 26.5549 36.3019 26.5076 36.3175 26.4528C36.4179 25.9775 36.4656 25.4926 36.4598 25.0069C36.4444 24.529 36.3915 24.0531 36.3016 23.5835Z" fill="#916665"/>
  <path d="M34.4807 18.4542C34.4629 18.3953 34.4248 18.3447 34.3732 18.3112C34.3216 18.2778 34.2598 18.2638 34.1988 18.2717C34.1378 18.2795 34.0816 18.3088 34.0401 18.3542C33.9987 18.3996 33.9747 18.4582 33.9724 18.5197C34.0176 19.9453 34.1305 21.3709 34.1238 22.7965C34.117 24.2221 33.9837 25.6409 33.8707 27.062C33.8526 27.3173 34.248 27.358 34.3113 27.1185C34.6486 25.702 34.8281 24.2525 34.8467 22.7965C34.9162 21.3393 34.7932 19.8792 34.4807 18.4542Z" fill="#916665"/>
  <path d="M63.4131 62.9407C63.3209 62.7112 63.1953 62.4965 63.0404 62.3036C63.0291 62.2855 63.0132 62.2697 63.002 62.2516C62.7173 61.8901 62.4484 61.5241 62.1954 61.1468C62.0508 60.9345 61.913 60.7198 61.7797 60.5007C61.5538 60.1392 61.364 59.7709 61.1787 59.3868C61.1222 59.2784 61.0703 59.1609 61.0206 59.0547C60.9709 58.9486 60.9437 58.8853 60.9099 58.7994C60.8873 58.7543 60.8692 58.7091 60.8489 58.6616C60.8385 58.6449 60.8309 58.6266 60.8263 58.6074C60.6756 58.2489 60.5386 57.8837 60.4151 57.5116C60.3947 57.4597 60.3789 57.4055 60.3631 57.3535C60.3619 57.346 60.3619 57.3384 60.3631 57.3309C60.3066 57.1479 60.2501 56.9694 60.1982 56.7864C59.8135 55.4666 59.5496 54.1145 59.4097 52.7468C59.3848 52.5209 59.36 52.2791 59.3442 52.0442C59.3238 51.7957 59.3058 51.5539 59.2922 51.3054C59.2922 51.145 59.2764 50.9801 59.2674 50.8174C59.2402 50.1034 59.2335 49.3873 59.2425 48.6688C59.2425 47.991 59.2764 47.3132 59.308 46.6242C59.3306 46.1843 59.3555 45.7445 59.3826 45.3047C59.3826 45.2844 59.3826 45.2686 59.3826 45.246L59.3961 45.0201C59.4323 44.4808 59.4707 43.9409 59.5114 43.4002C59.5114 43.3233 59.5114 43.2443 59.5272 43.1742C59.5543 42.8218 59.5791 42.4671 59.604 42.1169C59.6356 41.6831 59.6627 41.2471 59.6921 40.8133C59.7034 40.6122 59.7147 40.4111 59.7283 40.2078C59.7893 39.0781 59.8322 37.9485 59.8299 36.8189C59.8299 36.1185 59.8051 35.4158 59.7621 34.7155C59.7413 34.0372 59.6657 33.3618 59.5362 32.6957C59.5204 32.6347 59.5046 32.5737 59.4842 32.5127C59.1973 31.5638 58.4292 30.9673 57.469 30.7278C56.4026 30.4635 55.291 30.5719 54.2088 30.6352L52.9662 30.7052L52.3133 30.7414L51.6581 30.7798H51.6378L50.7024 30.8318L49.9252 30.8769C47.0725 31.0411 44.2175 31.2038 41.3603 31.3649C40.4204 31.4169 39.476 31.4711 38.5407 31.6044C38.3712 31.6293 38.2018 31.6541 38.0323 31.6858C37.7838 31.7287 37.5376 31.7784 37.2913 31.8371H37.271C37.1286 31.8733 36.9886 31.9094 36.8485 31.9524C36.0283 32.1864 35.241 32.5234 34.5056 32.9555C32.7896 33.9743 31.3607 35.4126 30.353 37.1352L30.3079 37.212C30.0216 37.7036 29.7702 38.2147 29.5555 38.7415C29.4045 39.1108 29.2732 39.4879 29.1624 39.8712C29.1527 39.8362 29.1452 39.8008 29.1398 39.765C29.0969 39.5594 29.054 39.3538 29.0155 39.1459C28.8529 38.2422 28.7264 37.3385 28.6495 36.419C28.6269 36.1479 28.6089 35.879 28.5953 35.6079C28.5917 35.5419 28.5655 35.4792 28.5211 35.4304C28.4767 35.3815 28.4168 35.3495 28.3515 35.3396C28.2862 35.3298 28.2195 35.3428 28.1627 35.3765C28.1058 35.4101 28.0623 35.4623 28.0395 35.5243C28.0383 35.5438 28.0383 35.5635 28.0395 35.583C28.0383 35.5913 28.0383 35.5996 28.0395 35.6079V35.6327C28.0937 37.5523 28.3666 39.4594 28.8529 41.3171C28.7776 41.81 28.736 42.3074 28.7286 42.806V42.876C28.7286 43.0138 28.7286 43.1539 28.7286 43.2917C28.7419 43.816 28.7993 44.3382 28.9003 44.8529C28.9745 45.2389 29.0726 45.6199 29.194 45.9938C29.3849 46.5987 29.6586 47.1743 30.0074 47.7041C30.3666 48.235 30.7981 48.7095 31.189 49.2133C31.9308 50.1594 32.3932 51.2941 32.5242 52.4893C32.5264 52.5753 32.5613 52.6572 32.6217 52.7185C32.6821 52.7797 32.7636 52.8157 32.8495 52.8191C32.8977 52.8176 32.945 52.8062 32.9886 52.7856C33.0321 52.765 33.0709 52.7357 33.1026 52.6994C33.1267 52.6759 33.1452 52.6473 33.1568 52.6158C33.1738 52.5783 33.1808 52.537 33.1771 52.496C33.1771 52.4011 33.1523 52.3063 33.1387 52.2114C33.193 52.3198 33.2427 52.4237 33.2946 52.5299C33.7465 53.4766 34.2119 54.4232 34.6502 55.3766C34.9371 55.9889 35.2218 56.5989 35.4929 57.2179C36.5164 59.5382 37.3636 62.0212 37.1128 64.5922C37.1128 64.66 37.097 64.721 37.0902 64.7865C37.0019 65.5324 36.8079 66.262 36.5141 66.9532C36.3852 67.2539 36.2341 67.5446 36.0623 67.823C35.5471 68.6544 34.1577 69.7524 35.0275 70.803C35.095 70.8858 35.1707 70.9615 35.2534 71.0289C35.6434 71.2855 36.0629 71.4941 36.5028 71.6502C37.106 71.9214 37.7138 72.188 38.3238 72.4433C39.5468 72.963 40.7973 73.4155 42.0697 73.7988C44.5549 74.5195 47.1937 74.8539 49.7354 74.2507C52.1122 73.6836 54.1772 72.3077 56.0275 70.7556C56.4636 70.3896 56.8906 70.019 57.3176 69.6372C58.2213 68.8239 59.125 67.9789 60.0061 67.1317L60.4987 66.6617C60.9505 66.2099 61.4182 65.7761 61.8814 65.3378C62.1344 65.0961 62.3919 64.8543 62.645 64.6103C62.899 64.4066 63.1267 64.1721 63.3228 63.9122C63.4054 63.7897 63.4588 63.6497 63.4787 63.5033C63.4821 63.4581 63.4821 63.4128 63.4787 63.3677C63.4826 63.2226 63.4604 63.0779 63.4131 62.9407Z" fill="#F3D2CB"/>
  <path d="M69.8207 55.5824C69.7551 54.7668 69.6196 53.9535 69.5179 53.1424C69.3055 51.466 69.0894 49.7896 68.8695 48.1132C68.5683 45.7666 68.267 43.4192 67.9658 41.071C67.9319 40.8202 67.9003 40.574 67.8686 40.3209C67.8686 40.2667 67.8528 40.2125 67.846 40.156C67.7602 39.4782 67.6721 38.7824 67.5862 38.0955C67.5004 37.4087 67.4168 36.6812 67.3309 35.9718C67.297 35.6781 67.2632 35.3867 67.227 35.0929C67.1909 34.7992 67.1615 34.5304 67.1276 34.2502C67.0824 33.8662 67.035 33.4866 66.9875 33.1048C66.8068 31.6905 66.7141 30.2061 66.1606 28.8754C65.9041 28.2451 65.506 27.6824 64.9971 27.2306C64.4517 26.785 63.8424 26.424 63.1897 26.1597C62.0815 25.6561 60.908 25.3108 59.7036 25.134C59.5545 25.1159 59.4031 25.0979 59.2517 25.0866C59.1004 25.0753 59.0077 25.0708 58.8835 25.0685C58.5885 25.061 58.2933 25.0738 58.0001 25.1069C57.1401 25.1884 56.3155 25.4895 55.6052 25.9813C55.0515 26.4058 54.5542 26.8993 54.1254 27.4498C53.7114 28.0059 53.2346 28.5123 52.7043 28.959C52.5746 29.0571 52.4388 29.1469 52.2977 29.2278C52.1361 29.3214 51.9649 29.3971 51.7871 29.4538C51.5133 29.5428 51.2236 29.5721 50.9376 29.5396C50.8788 29.526 50.8178 29.526 50.7591 29.5396C50.7042 29.5527 50.654 29.5808 50.6142 29.6206C50.5743 29.6605 50.5462 29.7107 50.5332 29.7656C50.5133 29.8478 50.5257 29.9346 50.5677 30.0081C50.6097 30.0815 50.6781 30.1362 50.7591 30.1609H50.7726C51.0082 30.1903 51.2465 30.1903 51.4821 30.1609C51.4467 30.2082 51.4267 30.2651 51.4247 30.3241C51.4227 30.383 51.4388 30.4412 51.4708 30.4908C51.5295 30.5699 51.5882 30.6467 51.6515 30.7167C51.6567 30.7275 51.6636 30.7374 51.6718 30.7461C51.8706 30.9991 52.0695 31.2454 52.2773 31.4917C52.2837 31.5048 52.293 31.5164 52.3044 31.5255C52.9958 32.3615 53.7074 33.1771 54.3559 34.0446C54.7441 34.566 55.0988 35.1116 55.4177 35.6781C55.7651 36.2893 56.0671 36.9251 56.3214 37.5804C57.128 39.6431 57.4646 41.8279 57.677 44.0239C57.7199 44.4554 57.7561 44.8915 57.79 45.323C57.79 45.4337 57.8058 45.5489 57.8126 45.6551C57.8577 46.238 57.8962 46.8209 57.9346 47.4015C57.973 47.9822 58.0091 48.5831 58.052 49.1706C58.1266 50.2076 58.2125 51.2468 58.3345 52.2816C58.3661 52.5595 58.4022 52.8306 58.4429 53.104C58.4542 53.2124 58.4723 53.3186 58.4881 53.4293C58.6705 54.745 58.9676 56.0423 59.376 57.3062C59.5754 57.9515 59.8254 58.5801 60.1238 59.186C60.3324 59.6172 60.6621 59.9784 61.0727 60.2252L61.0953 60.2365L61.2105 60.2975C61.3237 60.3503 61.4407 60.3941 61.5607 60.4286L61.6805 60.4557C61.7108 60.4641 61.7418 60.4701 61.7731 60.4738C61.8836 60.4962 61.9952 60.5128 62.1075 60.5235C62.6606 60.5653 63.2166 60.5471 63.7658 60.4692C64.463 60.3838 65.1464 60.2092 65.7991 59.9496C66.4423 59.7032 67.0549 59.3832 67.6246 58.9962C68.2122 58.6137 68.7405 58.1471 69.1926 57.6112C69.438 57.3333 69.6211 57.006 69.7294 56.6513C69.8378 56.2967 69.8689 55.923 69.8207 55.5553V55.5824Z" fill="#F3D2CB"/>
  <path d="M53.1358 29.5281C52.8692 29.5281 52.6026 29.51 52.3383 29.4942L51.7893 29.4536L51.5408 29.4287C51.3374 29.4084 51.1318 29.3813 50.9308 29.3519L50.7681 29.3225C50.1402 29.2243 49.5443 28.9797 49.0284 28.6086L48.8974 28.5047C48.3609 28.0502 47.9958 27.426 47.8627 26.7356L47.8062 26.4645C47.8052 26.4585 47.8052 26.4524 47.8062 26.4464C47.7881 26.3696 47.7745 26.2928 47.7633 26.2205C47.7316 26.0578 47.7068 25.8929 47.6819 25.728C47.6684 25.6399 47.6548 25.5518 47.6458 25.4637C47.5735 24.9034 47.5238 24.334 47.4854 23.7737C47.4854 23.7489 47.4854 23.724 47.4854 23.6992C47.4854 23.611 47.4718 23.5229 47.4673 23.4371C47.4628 23.3512 47.456 23.2609 47.4537 23.1727C47.4537 23.1479 47.4537 23.1253 47.4537 23.1004C47.4537 22.9762 47.4537 22.8564 47.4379 22.7322C47.4379 22.5627 47.4266 22.391 47.4244 22.2238C47.4244 22.0137 47.4244 21.8059 47.4244 21.6003C47.4244 21.4444 47.4244 21.293 47.4244 21.1484C47.4244 21.0739 47.4244 20.9993 47.4244 20.9225C47.4221 20.8984 47.4221 20.8742 47.4244 20.8502C47.4244 20.6491 47.4244 20.4458 47.4447 20.2447C47.4435 20.1881 47.4277 20.1327 47.3989 20.0839C47.3701 20.0351 47.3292 19.9946 47.2801 19.9662C47.2311 19.9379 47.1756 19.9226 47.1189 19.9219C47.0623 19.9212 47.0064 19.9351 46.9567 19.9623L46.5478 20.1566H46.5342L46.2156 20.2944C46.1433 20.326 46.0733 20.3532 46.0033 20.3803C45.888 20.4277 45.7773 20.4706 45.6553 20.5136C45.5333 20.5565 45.391 20.6062 45.2577 20.6491C44.7402 20.8182 44.2118 20.9518 43.6762 21.049C43.5836 21.0671 43.4887 21.0806 43.3938 21.0965L43.2243 21.1213C43.1684 21.1325 43.1118 21.14 43.0549 21.1439L42.829 21.1688C42.7676 21.179 42.7058 21.1858 42.6437 21.1891C42.5692 21.1891 42.4946 21.2049 42.4178 21.2072C42.341 21.2094 42.2867 21.2207 42.2235 21.223H42.1015H41.9366H41.7106H41.679C41.0563 21.2325 40.4339 21.1932 39.8173 21.1055C39.4604 21.0558 39.1079 20.9903 38.76 20.9067C38.4121 20.8231 38.0822 20.7372 37.7614 20.631C37.7478 20.631 37.732 20.631 37.714 20.631C37.6601 20.5908 37.5952 20.5679 37.528 20.5653C37.4608 20.5628 37.3944 20.5807 37.3375 20.6167C37.2807 20.6527 37.2362 20.7051 37.2098 20.7669C37.1834 20.8288 37.1764 20.8972 37.1898 20.9632C37.2169 21.0761 37.244 21.1891 37.2689 21.2998L37.3095 21.5009C37.3389 21.6342 37.366 21.7675 37.3886 21.9008C37.4112 22.0341 37.4361 22.1719 37.4564 22.3074C37.463 22.3418 37.4675 22.3765 37.47 22.4114C37.488 22.5288 37.5038 22.6373 37.5174 22.7616C37.7395 24.7997 37.5941 26.8612 37.0881 28.8481C37.0746 28.9 37.0633 28.9543 37.0497 29.0062C37.0362 29.0582 37.0136 29.144 36.9932 29.2141C36.9729 29.2841 36.9729 29.2954 36.9616 29.3338C36.8893 29.5936 36.817 29.8557 36.7221 30.1065C36.6958 30.1781 36.6657 30.2483 36.6318 30.3166C36.5007 30.608 36.329 30.8814 36.1912 31.1638C36.1513 31.237 36.1413 31.3228 36.1632 31.4032C36.1851 31.4836 36.2372 31.5525 36.3087 31.5954L36.8645 31.9297L37.5852 32.35C37.9512 32.5601 38.3172 32.7611 38.6922 32.9577L39.0108 33.1181C39.4626 33.344 39.9258 33.57 40.3957 33.7575C41.5355 34.25 42.7386 34.5807 43.9699 34.7403C46.1429 34.9948 48.3375 34.4964 50.1875 33.3282C50.3863 33.204 50.5806 33.0707 50.7681 32.9329C51.0227 32.7561 51.2678 32.566 51.5024 32.3635C51.7738 32.1226 52.0317 31.8669 52.275 31.5976L52.3089 31.5569C52.5523 31.2857 52.7786 30.9998 52.9867 30.7007C53.1426 30.4747 53.2849 30.2488 53.4205 30.0229C53.4509 29.9731 53.4674 29.916 53.4681 29.8576C53.4689 29.7992 53.4539 29.7417 53.4248 29.6911C53.3957 29.6405 53.3535 29.5987 53.3027 29.57C53.2518 29.5413 53.1942 29.5269 53.1358 29.5281Z" fill="#F3D2CB"/>
  <path d="M48.8975 28.5052C44.8194 28.9706 39.6344 27.5653 38.15 24.2871C37.9196 23.7795 37.7072 23.2764 37.5129 22.7779C37.4409 22.1693 37.3315 21.5657 37.1853 20.9705C37.172 20.9045 37.1789 20.8361 37.2053 20.7742C37.2317 20.7124 37.2763 20.66 37.3331 20.624C37.3899 20.588 37.4563 20.5701 37.5235 20.5726C37.5907 20.5752 37.6556 20.5981 37.7095 20.6384C37.7253 20.6384 37.7434 20.6384 37.7592 20.6384C40.7958 21.6243 44.0986 21.3743 46.9522 19.9425C47.0021 19.9155 47.0581 19.9016 47.1148 19.9024C47.1715 19.9031 47.2271 19.9184 47.2763 19.9467C47.3254 19.975 47.3665 20.0154 47.3956 20.0641C47.4247 20.1128 47.4408 20.1682 47.4425 20.2249C47.3844 21.4092 47.3973 22.596 47.4809 23.7788C47.5356 24.7763 47.6632 25.7685 47.8627 26.7475C47.999 27.4335 48.3637 28.0531 48.8975 28.5052Z" fill="#C37C73"/>
  <path d="M56.1878 10.1695C56.1878 10.0836 56.1878 10 56.1765 9.91645C56.1304 8.89219 55.9643 7.87686 55.6817 6.89127C55.4862 6.20585 55.2252 5.54082 54.9023 4.90536C54.713 4.53559 54.501 4.17794 54.2674 3.83446C53.6752 2.94656 52.9061 2.19049 52.0081 1.61358C50.9034 0.962131 49.6813 0.534527 48.4114 0.355157C47.2274 0.16155 46.0318 0.0475768 44.8327 0.014005C43.6784 -0.029378 42.5225 0.0280758 41.3782 0.185711C39.4398 0.47264 37.5374 1.16172 35.9921 2.39981C35.7556 2.59112 35.5294 2.79473 35.3143 3.00982C34.4174 3.89758 33.6894 4.94101 33.1657 6.08922C32.7053 7.08469 32.3954 8.14305 32.2462 9.22963C31.9753 11.2755 32.2023 13.3565 32.9082 15.2958C33.0831 15.7822 33.2891 16.2569 33.5249 16.7169C33.8142 17.2958 34.2027 17.8196 34.6727 18.2645C35.0951 18.6508 35.5553 18.9937 36.0463 19.288L36.1457 19.3467C36.1999 19.3783 36.2542 19.4122 36.3084 19.4393C36.4168 19.5048 36.5343 19.5659 36.6382 19.6223C37.3309 19.9973 38.0561 20.3088 38.8049 20.5532C39.0308 20.6368 39.2793 20.7068 39.5188 20.7791C40.2335 20.9768 40.9593 21.1322 41.6923 21.2445C43.4006 21.4951 45.1259 21.6129 46.8525 21.5969H47.4354C47.842 21.5969 48.2555 21.5721 48.6667 21.5427C49.6859 21.4845 50.689 21.2625 51.6376 20.8853C52.2781 20.6214 52.8653 20.2432 53.3705 19.7692C53.4405 19.7059 53.5061 19.6427 53.5716 19.5726C53.8774 19.2529 54.1388 18.8934 54.3488 18.504C54.3829 18.5289 54.4225 18.5452 54.4643 18.5515C54.5061 18.5578 54.5487 18.5539 54.5887 18.5401C54.6286 18.5264 54.6646 18.5032 54.6937 18.4725C54.7227 18.4418 54.7439 18.4046 54.7554 18.3639C54.9384 17.833 55.1101 17.2953 55.2638 16.7508C55.5815 15.6566 55.8223 14.5416 55.9845 13.4138C56.0093 13.2444 56.0297 13.0749 56.05 12.9032C56.0703 12.7315 56.0816 12.6208 56.0952 12.4762C56.1739 11.71 56.2048 10.9396 56.1878 10.1695Z" fill="#78534D"/>
  <path d="M51.4027 18.1159C51.4998 17.2154 51.7234 16.3332 52.067 15.4951C52.4182 14.6523 53.0461 13.9542 53.8473 13.516C54.6584 13.1139 55.6931 13.1093 56.4274 13.638C57.0442 14.0899 57.3763 14.8309 57.5186 15.5787C57.6973 16.6249 57.5614 17.7006 57.1283 18.6695C56.6951 19.6383 55.9841 20.4569 55.0854 21.0214C54.3963 21.4371 53.5739 21.6991 52.7854 21.532C51.9969 21.3648 51.2852 20.7141 51.2378 19.912L51.4027 18.1159Z" fill="#C37C73"/>
  <path d="M55.4131 19.8678C54.3196 22.6603 53.2419 25.0167 50.2167 25.995C46.0574 27.3505 39.1462 26.0876 37.3885 22.2152C36.6982 20.7069 36.1337 19.1442 35.7008 17.543C35.5494 16.9646 35.4229 16.3975 35.3167 15.8395C33.4302 5.76307 39.4603 -0.879226 50.8403 2.78533C55.6074 4.32165 57.46 14.6308 55.4131 19.8678Z" fill="#F3D2CB"/>
  <path d="M56.4365 9.16245C56.2258 8.39634 55.9739 7.64214 55.6819 6.90317C55.6684 6.86476 55.6503 6.82409 55.6367 6.78568C55.3905 6.15534 55.142 5.51597 54.8483 4.9037C54.7805 4.76814 54.715 4.63259 54.6427 4.49929C53.9193 3.15379 52.7556 2.09772 51.3464 1.508C49.8213 0.850545 48.1653 0.656248 46.5228 0.577173C45.6394 0.534247 44.7515 0.516172 43.8681 0.520691C42.9917 0.51232 42.1154 0.54927 41.2428 0.631395C39.8437 0.794441 38.5319 1.3954 37.4947 2.34845C37.4314 2.40041 37.3727 2.45464 37.3139 2.51338C36.4193 3.36821 35.6658 4.35955 35.0818 5.45045C33.5746 8.26641 33.0469 11.5037 33.5816 14.6525C33.5862 14.6905 33.593 14.7282 33.6019 14.7655C33.7371 15.6547 34.0116 16.517 34.4153 17.3207C34.4827 17.4496 34.5581 17.5741 34.6412 17.6935C34.8398 17.9949 35.0836 18.2639 35.3642 18.491C35.488 18.6235 35.6435 18.7223 35.816 18.778H35.8725C35.9314 18.7725 35.9892 18.7588 36.0442 18.7373C36.1662 18.6876 36.286 18.6063 36.3854 18.5543C36.4264 18.5341 36.4622 18.5046 36.4898 18.4681C36.5175 18.4317 36.5362 18.3893 36.5446 18.3443C36.5529 18.2993 36.5506 18.253 36.5379 18.209C36.5251 18.1651 36.5023 18.1247 36.4712 18.0911C36.6836 17.3433 36.8734 16.5842 37.0406 15.8319C37.3812 14.2906 37.6406 12.7326 37.8178 11.1642L38.0256 10.9383C38.502 10.3539 38.9304 9.73212 39.3066 9.07886C40.1042 7.72329 40.8881 6.24798 41.2157 4.68907C41.2519 4.51962 41.2858 4.34566 41.3084 4.16718C41.3615 3.85113 41.3932 3.53183 41.4033 3.2115C41.6145 3.51544 41.8455 3.80525 42.0946 4.07906C43.3327 5.46852 44.9887 6.47164 46.7239 7.13813C48.0614 7.65099 49.4644 7.89951 50.838 8.26778C52.2117 8.63604 53.5243 9.18505 54.5071 10.2514C54.7549 10.5252 54.9815 10.8175 55.1849 11.1258C55.4088 11.4294 55.6053 11.7522 55.7723 12.0905C55.8903 12.3536 55.9827 12.6275 56.0479 12.9083C56.0954 13.1049 56.1293 13.3015 56.1586 13.5025C56.1699 13.5771 56.1835 13.6562 56.1925 13.7285C56.1925 13.742 56.1925 13.7556 56.1925 13.7691L56.2558 14.3091C56.2784 14.4876 56.3846 14.3882 56.4659 14.2639C56.5053 14.2101 56.5365 14.1507 56.5585 14.0877C56.5879 13.9996 56.6105 13.9115 56.6353 13.8234L56.6625 13.7127C56.7994 13.1303 56.8587 12.5325 56.8387 11.9346C56.8148 10.9979 56.6798 10.0673 56.4365 9.16245Z" fill="#78534D"/>
  <path d="M55.361 7.5723C55.2534 7.05576 55.0268 6.57147 54.699 6.15799C54.3853 5.7929 54.0089 5.48684 53.5875 5.25427C52.747 4.76401 51.78 4.5313 50.9531 4.03426C50.7837 3.93485 50.6436 4.19015 50.804 4.29634C52.2726 5.28591 54.2246 5.90269 54.9159 7.68526C54.9309 7.74429 54.9687 7.79494 55.021 7.82608C55.0734 7.85722 55.1359 7.8663 55.1949 7.85132C55.254 7.83634 55.3046 7.79853 55.3358 7.7462C55.3669 7.69388 55.376 7.63132 55.361 7.5723Z" fill="#916665"/>
  <path d="M53.5581 7.64547C52.4284 6.35767 50.8198 5.71152 49.2541 5.1354C47.6884 4.55928 45.9849 4.02383 44.6587 2.95519C44.4893 2.81963 44.2453 3.05008 44.4147 3.19919C45.7025 4.32884 47.2208 5.02921 48.7842 5.68441C50.3476 6.3396 51.8952 7.01738 53.2824 8.00017C53.5038 8.16736 53.7185 7.83073 53.5581 7.64547Z" fill="#916665"/>
  <path d="M39.7948 4.37077C39.4113 5.33397 38.9583 6.26801 38.4393 7.1655C38.1883 7.58922 37.9098 7.99602 37.6056 8.38326C37.287 8.79445 36.9278 9.14915 36.5867 9.54001C36.5585 9.57932 36.5437 9.62663 36.5445 9.67497C36.5452 9.72332 36.5614 9.77015 36.5908 9.80859C36.6201 9.84702 36.661 9.87503 36.7074 9.8885C36.7538 9.90197 36.8034 9.90019 36.8487 9.88342C37.8112 9.43156 38.5161 8.442 38.9996 7.53151C39.4889 6.55281 39.859 5.51896 40.1021 4.4521C40.1541 4.24877 39.8694 4.18777 39.7948 4.37077Z" fill="#916665"/>
  <path d="M40.0683 1.77027C39.7661 2.45296 39.3749 3.09263 38.9047 3.67258C38.4348 4.26226 37.8926 4.78415 37.4091 5.36027C37.2464 5.55457 37.4497 5.86861 37.6915 5.72853C38.3751 5.2984 38.9509 4.71716 39.3747 4.02955C39.7991 3.36296 40.1434 2.64861 40.4004 1.90131C40.4704 1.71604 40.1496 1.58275 40.0683 1.77027Z" fill="#916665"/>
  <path d="M36.2747 4.19731C35.9586 4.94496 35.6826 5.70893 35.4478 6.48597C35.2409 7.24735 35.0854 8.02177 34.9824 8.80399C34.8763 9.58142 34.8174 10.3646 34.8062 11.1491C34.8171 11.9447 34.8926 12.7381 35.0321 13.5214C35.0727 13.7857 35.4998 13.7225 35.4839 13.4604C35.4402 11.9172 35.5006 10.3729 35.6647 8.83788C35.7483 8.08328 35.8635 7.32416 36.0081 6.5786C36.1389 5.79907 36.3131 5.02745 36.53 4.26735C36.591 4.09338 36.3379 4.03464 36.2747 4.19731Z" fill="#916665"/>
  <path d="M33.8798 7.36316C33.6376 8.05972 33.451 8.77439 33.3218 9.50044C33.1927 10.2238 33.1843 10.9636 33.2969 11.6897C33.3489 11.9766 33.7307 11.8704 33.7601 11.6287C33.9386 10.2415 33.8979 8.82265 34.2119 7.44901C34.221 7.4058 34.213 7.36077 34.1897 7.32328C34.1664 7.28578 34.1296 7.2587 34.0868 7.24765C34.0441 7.2366 33.9987 7.24244 33.9602 7.26395C33.9217 7.28546 33.8929 7.32098 33.8798 7.36316Z" fill="#916665"/>
  <path d="M41.9454 15.8066C41.9815 16.5906 42.3972 17.2254 42.8875 17.2254C43.3778 17.2254 43.7347 16.5951 43.6986 15.8134C43.6624 15.0316 43.2467 14.3945 42.7565 14.3945C42.2662 14.3945 41.9092 15.0249 41.9454 15.8066Z" fill="#45383B"/>
  <path d="M50.4789 15.2126C50.4021 15.9921 50.7297 16.6811 51.2087 16.7512C51.6877 16.8212 52.1395 16.2496 52.2163 15.4702C52.2931 14.6907 51.9678 14.0016 51.4866 13.9316C51.0054 13.8615 50.558 14.4331 50.4789 15.2126Z" fill="#45383B"/>
  <path d="M49.9073 17.9493C49.7243 17.3144 49.3221 16.7654 49.0917 16.1419C48.8688 15.5159 48.6906 14.8749 48.5585 14.2237C48.3958 13.4917 48.258 12.7484 48.1292 12.0096C48.1021 11.8605 47.8672 11.8967 47.8694 12.0435C47.8653 12.8222 47.903 13.6005 47.9824 14.3751C48.0779 15.151 48.2762 15.9108 48.5721 16.6344C48.7144 16.9823 48.8951 17.3122 49.0601 17.6443C49.225 17.9764 49.3854 18.3447 49.2747 18.7062C49.0669 19.3839 48.1451 19.5331 47.5531 19.6641C47.5054 19.6767 47.4639 19.7063 47.4364 19.7473C47.4089 19.7883 47.3972 19.8379 47.4036 19.8869C47.4099 19.9358 47.4339 19.9808 47.471 20.0134C47.508 20.046 47.5557 20.064 47.6051 20.064C48.2558 20.0798 48.8906 20.0233 49.4125 19.6121C49.6542 19.4181 49.831 19.155 49.9194 18.8579C50.0078 18.5609 50.0036 18.2439 49.9073 17.9493Z" fill="#C37C73"/>
  <path d="M54.5635 11.0467C54.5117 10.8101 54.3916 10.5939 54.2181 10.4248C54.0446 10.2557 53.8254 10.1413 53.5875 10.0956C53.3703 10.0426 53.1461 10.0243 52.9232 10.0414C52.6715 10.083 52.4322 10.1802 52.2229 10.326C51.4931 10.8073 50.6414 11.7584 49.7241 11.3201L49.6134 11.2569C49.5795 11.2365 49.5456 11.2185 49.5095 11.1936C49.4897 11.1793 49.4672 11.1693 49.4433 11.1642C49.4194 11.1592 49.3947 11.1592 49.3709 11.1643C49.347 11.1694 49.3245 11.1795 49.3048 11.1939C49.285 11.2083 49.2686 11.2267 49.2564 11.2478C49.2085 11.2902 49.1752 11.3468 49.1614 11.4093C49.1476 11.4718 49.154 11.5371 49.1796 11.5958C49.357 12.0547 49.6906 12.4363 50.1217 12.6734C50.3449 12.7779 50.5899 12.8272 50.8361 12.8169C51.0823 12.8067 51.3223 12.7373 51.536 12.6147C51.954 12.3729 52.2771 11.9979 52.7041 11.7697C53.2079 11.4986 53.7998 11.6048 54.333 11.4421C54.4148 11.4183 54.4843 11.364 54.5272 11.2905C54.5701 11.2169 54.5831 11.1296 54.5635 11.0467Z" fill="#78534D"/>
  <path d="M45.9442 8.77243C44.7219 9.49315 43.4409 8.41547 42.2119 8.29121C41.9425 8.2561 41.6685 8.28792 41.4143 8.38384C41.1558 8.51276 40.9319 8.7018 40.7614 8.9351C40.3615 9.38696 40.0181 9.87045 39.9458 10.4895C39.9454 10.5551 39.9677 10.6188 40.0089 10.6698C40.05 10.7208 40.1076 10.7561 40.1717 10.7696C40.714 10.9459 41.2584 10.668 41.7849 10.5686C42.422 10.4466 43.0681 10.6002 43.6759 10.7787C43.9357 10.8706 44.2129 10.903 44.487 10.8736C44.7566 10.8164 45.009 10.6965 45.2235 10.5234C45.6502 10.1913 46.0235 9.79589 46.3305 9.35081C46.6514 9.13166 46.317 8.55328 45.9442 8.77243Z" fill="#78534D"/>
  <path d="M50.0001 22.1961C49.607 21.4393 48.518 21.498 47.7905 21.5522C46.9704 21.6155 45.9018 21.8346 45.4725 22.6254C45.4646 22.6396 45.461 22.6558 45.4621 22.672C45.4633 22.6882 45.4691 22.7038 45.4789 22.7167C45.4888 22.7296 45.5022 22.7394 45.5175 22.7449C45.5328 22.7503 45.5493 22.7512 45.5651 22.7474C45.9018 22.6525 46.2203 22.4989 46.557 22.3882C46.942 22.2653 47.3434 22.2013 47.7476 22.1984C48.4104 22.1475 49.0759 22.2528 49.6906 22.5057C49.7338 22.5312 49.7842 22.5417 49.834 22.5354C49.8837 22.5291 49.93 22.5065 49.9655 22.471C50.001 22.4355 50.0236 22.3893 50.0299 22.3395C50.0362 22.2897 50.0257 22.2393 50.0001 22.1961Z" fill="#C37C73"/>
  <path d="M48.6058 22.957C48.5295 22.9599 48.4537 22.9713 48.3799 22.9909H48.346C48.346 22.9909 48.346 22.9909 48.3234 22.9909C48.2743 22.995 48.2257 23.0049 48.1788 23.0203C48.0478 23.0519 47.9168 23.0813 47.7835 23.1039L47.5937 23.1378L47.5078 23.1513H47.4852H47.3926C47.4152 23.1513 47.4107 23.1513 47.3813 23.1513H47.2932L47.2006 23.1694C47.1607 23.1722 47.1217 23.1822 47.0853 23.1988C47.0718 23.1988 47.0379 23.2349 47.0243 23.2349C47.0058 23.2341 46.9875 23.2397 46.9726 23.2507C46.9576 23.2617 46.9469 23.2774 46.9422 23.2954C46.9374 23.3133 46.9389 23.3323 46.9465 23.3493C46.954 23.3662 46.9672 23.3801 46.9837 23.3886C47.0018 23.3886 47.0243 23.4609 47.0402 23.4744C47.0694 23.5023 47.1029 23.5252 47.1396 23.5422C47.2103 23.5838 47.2863 23.6157 47.3655 23.6371C47.5352 23.6804 47.7115 23.6911 47.8851 23.6687C48.0562 23.6488 48.2222 23.5983 48.3754 23.5196C48.4131 23.5004 48.4494 23.4785 48.4838 23.4541C48.5065 23.437 48.5276 23.4181 48.5471 23.3976C48.5155 23.4315 48.5833 23.3682 48.5855 23.366C48.6524 23.3153 48.7071 23.2505 48.7459 23.1762C48.7526 23.1525 48.7542 23.1277 48.7506 23.1034C48.747 23.0791 48.7383 23.0559 48.7251 23.0351C48.7119 23.0144 48.6944 22.9968 48.6738 22.9833C48.6533 22.9698 48.6301 22.9609 48.6058 22.957Z" fill="#C37C73"/>
  <path d="M41.2494 21.0882C40.6093 20.9918 40.0242 20.6716 39.5979 20.1845C39.3456 19.9227 39.2068 19.572 39.2115 19.2085C39.2354 19.0306 39.3014 18.8609 39.404 18.7136C39.5065 18.5662 39.6427 18.4455 39.8012 18.3612C40.1203 18.1952 40.4763 18.1128 40.836 18.1218C41.7397 18.1218 42.788 18.4245 43.407 19.1C44.0261 19.7756 43.5697 20.4895 42.84 20.8465C42.3464 21.0861 41.7918 21.1704 41.2494 21.0882Z" fill="#E7A791"/>
  <path d="M54.3198 19.4402C53.757 19.7622 53.0976 19.8728 52.4604 19.7519C52.1019 19.7031 51.7772 19.5147 51.5567 19.2278C51.4651 19.0734 51.4116 18.8995 51.4006 18.7203C51.3896 18.5412 51.4214 18.3619 51.4935 18.1976C51.6389 17.8693 51.8661 17.5839 52.1532 17.3684C52.8468 16.8036 53.8702 16.3924 54.7785 16.537C55.6867 16.6816 55.768 17.522 55.4201 18.2563C55.1813 18.753 54.7977 19.1657 54.3198 19.4402Z" fill="#E7A791"/>
  <path d="M36.5774 15.3102C35.9878 14.7522 35.2219 14.2913 34.4085 14.3726C33.3918 14.4743 32.6372 15.4074 32.3209 16.3789C32.0982 17.08 32.04 17.8229 32.1509 18.5502C32.2618 19.2774 32.5388 19.9693 32.9603 20.5721C33.9002 21.8893 36.1753 23.1319 37.7862 22.2914C39.397 21.451 38.6899 19.3837 38.2561 18.0259C37.936 16.9929 37.3583 16.0584 36.5774 15.3102Z" fill="#F3D2CB"/>
  <path d="M36.4668 18.7051C36.327 18.3177 36.0853 17.9752 35.7672 17.7135C35.4492 17.4519 35.0664 17.2809 34.6594 17.2184C34.5994 17.2029 34.5358 17.2117 34.4824 17.2431C34.429 17.2744 34.3903 17.3257 34.3747 17.3856C34.3591 17.4456 34.368 17.5092 34.3993 17.5626C34.4307 17.616 34.482 17.6547 34.5419 17.6703C34.8533 17.7507 35.1412 17.9038 35.382 18.1171C35.6227 18.3303 35.8095 18.5977 35.9268 18.8971C36.1057 19.4675 36.089 20.0814 35.8794 20.6413C35.8704 20.6781 35.8736 20.7168 35.8887 20.7516C35.9037 20.7864 35.9297 20.8154 35.9627 20.834C35.9957 20.8527 36.0339 20.8601 36.0714 20.8551C36.109 20.85 36.1439 20.8329 36.1708 20.8062C36.6837 20.2391 36.7266 19.3896 36.4668 18.7051Z" fill="#C37C73"/>
  <path d="M38.6897 32.704C38.6817 32.333 38.6371 31.9637 38.5564 31.6015C38.3763 30.7339 37.9568 29.934 37.3455 29.2925H37.3342C37.2438 29.3106 37.1512 29.3309 37.0585 29.3422L36.9591 29.3558C36.7874 29.3829 36.6157 29.3987 36.4417 29.41C35.9994 29.4336 35.5557 29.4117 35.1178 29.3445C33.7487 29.1412 32.4677 28.5492 31.1437 28.1403C30.9494 28.077 30.7506 28.0205 30.5518 27.9708C29.1985 27.6056 27.7649 27.6719 26.4512 28.1606C25.2204 28.6286 24.1408 29.4239 23.3289 30.4606C22.3235 31.7484 21.9439 33.2643 21.8558 34.8323C21.8445 34.9791 21.8377 35.1237 21.8355 35.2706C21.8332 35.4174 21.8355 35.5756 21.8355 35.7224C21.8355 36.5493 21.9033 37.3808 21.9846 38.1941L22.0253 38.5985C22.0569 38.9058 22.0908 39.2108 22.1201 39.5022C22.1382 39.6559 22.1518 39.805 22.1676 39.9541C22.1947 40.2229 22.2241 40.4895 22.2512 40.7584C22.2625 40.8578 22.2738 40.9595 22.2828 41.0611C22.6066 44.1654 22.929 47.2712 23.2498 50.3784C23.4411 52.1994 23.6309 54.0196 23.8191 55.8391C23.9118 56.7428 23.9999 57.6465 24.0993 58.5503C24.1547 59.2634 24.3012 59.9665 24.5353 60.6424C24.7652 61.2841 25.2014 61.8316 25.7757 62.199C26.3389 62.5232 26.9624 62.7293 27.6079 62.8045C28.296 62.8866 28.9893 62.9168 29.682 62.8949C30.3806 62.9082 31.0789 62.8545 31.7673 62.7345C32.4371 62.6195 33.0624 62.3224 33.5747 61.8759C33.7262 61.7332 33.8604 61.5732 33.9746 61.3992C34.1172 61.1806 34.2325 60.9454 34.318 60.6988C34.3866 60.5187 34.4417 60.3336 34.483 60.1453C34.5055 60.0482 34.5259 59.9442 34.544 59.8471C34.6376 59.2652 34.6829 58.6765 34.6795 58.0871C34.6931 57.4063 34.6931 56.7285 34.6795 56.0538C34.6795 55.9656 34.6795 55.8753 34.6795 55.7872V55.3918C34.6795 55.0167 34.6614 54.6394 34.6479 54.2621C34.6321 53.7764 34.6162 53.2929 34.5937 52.8094C34.5711 52.2762 34.544 51.7438 34.5123 51.2121C34.4671 50.3988 34.4129 49.5862 34.3497 48.7743C34.309 48.2841 34.2683 47.7938 34.2209 47.3035C34.135 46.3998 34.0364 45.4961 33.9249 44.5924C33.8134 43.6887 33.6884 42.7955 33.5499 41.9129C33.4569 41.5234 33.4531 41.118 33.5386 40.7268C33.6734 40.3548 33.9266 40.0373 34.2593 39.823C34.6614 39.5203 35.0545 39.213 35.4364 38.89C36.1766 38.286 36.8323 37.5854 37.3861 36.8069C38.0028 35.9338 38.4222 34.937 38.6152 33.8857C38.6665 33.5923 38.6952 33.2955 38.701 32.9978C38.701 32.9661 38.701 32.9345 38.701 32.9051C38.701 32.8758 38.692 32.7628 38.6897 32.704Z" fill="#F3D2CB"/>
  <path d="M94.5436 27.0093C93.7506 26.4467 92.6865 26.6771 91.9386 27.2081C91.1366 27.7797 90.5831 28.6088 89.7901 29.1985C89.6274 29.3205 89.4579 29.4244 89.2885 29.5419C89.2139 29.5916 89.1371 29.6391 89.0626 29.6843L89.0761 29.377C89.1168 28.3543 89.1537 27.3316 89.1868 26.3089C89.2366 25.878 89.2366 25.4429 89.1868 25.0121C89.1879 25.0031 89.1879 24.994 89.1868 24.9849C89.2803 24.8939 89.3657 24.7948 89.4421 24.689C90.0634 23.7853 89.2591 22.6873 88.2809 22.5856C87.2077 22.4726 86.1729 23.2227 85.4093 23.8937C84.6457 24.5647 83.9837 25.3419 83.2291 26.022C82.6304 26.5784 81.9332 27.0182 81.1731 27.3188C80.9518 27.4042 80.7255 27.4758 80.4954 27.5334C79.3793 27.8113 78.2361 27.9288 77.12 28.2315C76.1214 28.4942 75.1948 28.9784 74.4089 29.6481C73.6482 30.3097 73.0525 31.1398 72.6692 32.0723C72.4346 32.2026 72.2123 32.3539 72.005 32.5242L71.9349 32.5784C70.9431 33.4189 70.245 34.6434 69.7118 35.8521C69.2283 36.9546 68.8081 38.0843 68.3449 39.1913C68.189 39.5686 68.0264 39.9437 67.8637 40.321C67.5098 41.1343 67.143 41.9424 66.7634 42.7452C65.6699 45.0722 64.52 47.3767 63.2751 49.6315C62.1455 51.6987 60.8057 53.7953 60.4781 56.1834C60.4199 56.6078 60.398 57.0363 60.4126 57.4644V57.5051C60.4126 57.5412 60.4126 57.5774 60.4126 57.6158C60.4422 58.2773 60.5678 58.9311 60.7854 59.5565C60.8669 59.7957 60.9666 60.0283 61.0836 60.2524L61.1559 60.397C61.2056 60.4873 61.2598 60.5755 61.314 60.659C61.4808 60.9274 61.6746 61.178 61.8924 61.4069C61.9477 61.4704 62.0065 61.5308 62.0686 61.5876C62.1877 61.703 62.3145 61.8102 62.4482 61.9084C62.6301 62.0478 62.8227 62.1724 63.0243 62.2812C63.1856 62.3707 63.3524 62.4499 63.5236 62.5184C63.5296 62.5197 63.5357 62.5197 63.5417 62.5184C64.0247 62.7128 64.5302 62.8457 65.0464 62.9138C66.176 63.0697 67.5316 63.1849 68.5889 62.6382C69.5604 62.1276 70.0258 61.0996 70.3964 60.1236C70.8482 58.942 71.2617 57.7355 71.6435 56.5268C72.3787 54.1324 72.9672 51.6954 73.4057 49.2293C74.1242 45.3569 74.4947 41.3354 75.8796 37.6392C76.9686 37.5646 78.0666 37.533 79.1579 37.4788C80.1316 37.4313 81.137 37.4404 82.0949 37.2687C82.6632 37.1541 83.2016 36.9234 83.6764 36.5909C83.9604 36.4047 84.2342 36.2033 84.4966 35.9877L85.2037 35.4274C85.5713 35.2446 85.9247 35.0346 86.2611 34.7993C86.7129 34.4988 87.1648 34.2028 87.6324 33.9114C88.5791 33.3127 89.5235 32.7162 90.4294 32.0588C91.2772 31.4629 92.0615 30.7815 92.7701 30.0254C93.1059 29.6625 93.4191 29.2792 93.7077 28.8777C94.0149 28.4507 94.2544 27.974 94.5865 27.5741C94.622 27.5348 94.6492 27.4886 94.6663 27.4385C94.6835 27.3884 94.6902 27.3353 94.6862 27.2825C94.6822 27.2296 94.6675 27.1782 94.643 27.1312C94.6184 27.0843 94.5846 27.0428 94.5436 27.0093Z" fill="#F3D2CB"/>
  <path d="M73.9169 31.8296C74.6484 31.8036 75.3764 31.9438 76.0459 32.2396C76.7155 32.5354 77.3092 32.9793 77.7825 33.5377C78.3248 33.5625 78.867 33.5941 79.4092 33.6167C79.653 33.6401 79.8963 33.5671 80.087 33.4134C80.2755 33.2787 80.4517 33.1274 80.6134 32.9615C80.9486 32.634 81.2259 32.2521 81.4335 31.8319C81.5876 31.4553 81.6844 31.0578 81.7205 30.6525C81.8312 29.8708 81.9215 29.0711 82.5203 28.4859C82.7237 28.2896 82.9711 28.1449 83.242 28.0639C83.5128 27.9829 83.7991 27.968 84.0769 28.0205C84.2205 27.7306 84.4199 27.472 84.6638 27.2595C84.9077 27.0471 85.1912 26.8849 85.498 26.7824C85.6504 26.7124 85.819 26.6851 85.9857 26.7034C86.1524 26.7217 86.311 26.7849 86.4446 26.8863C86.4749 26.9178 86.5014 26.9527 86.5237 26.9903C86.6432 26.5274 86.8461 26.0902 87.1224 25.7002C87.5133 25.1625 88.7807 24.139 89.2778 25.1196C89.4856 25.5285 89.402 26.0798 89.3953 26.5203C89.3953 27.1529 89.3704 27.7878 89.3478 28.4204C89.3041 29.6494 89.2288 30.8755 89.1219 32.0985C89.0925 32.4419 88.5525 32.4442 88.5842 32.0985C88.7717 30.1261 88.8801 28.1447 88.8734 26.1634C88.8862 25.959 88.8786 25.7539 88.8508 25.5511C88.7988 25.3048 88.6542 25.2913 88.4328 25.3839C88.0741 25.5506 87.7718 25.8184 87.563 26.1543C87.0637 26.918 87.1111 27.8172 86.8016 28.6395C86.7843 28.679 86.7561 28.7127 86.7203 28.7367C86.7609 30.282 86.8603 31.8274 86.8965 33.375C86.8965 33.7704 86.2933 33.7704 86.282 33.375C86.239 31.911 86.282 30.4379 86.23 28.9807C86.2164 28.6282 86.1984 28.278 86.1826 27.9256C86.1713 27.6748 86.1825 27.2704 85.8346 27.3404C85.5702 27.4063 85.3259 27.5359 85.1229 27.7177C84.9451 27.8868 84.7929 28.0809 84.6711 28.2939C84.7262 28.3308 84.7688 28.3837 84.793 28.4455C84.8173 28.5072 84.822 28.575 84.8066 28.6395C84.7502 28.8496 84.6553 29.0439 84.6123 29.2563C84.5694 29.4687 84.5491 29.6427 84.5175 29.837C84.4519 30.2436 84.3842 30.6503 84.3277 31.057C84.2102 31.8793 84.1469 32.704 84.0362 33.5241C84.018 33.83 83.9086 34.1235 83.7222 34.3668C83.4585 34.6263 83.1777 34.8678 82.8817 35.0898C82.2559 35.6343 81.6459 36.1968 81.0314 36.7526C80.8055 36.9469 80.5027 36.6329 80.7128 36.4363C81.2776 35.9099 81.8425 35.388 82.3982 34.8548C82.6513 34.6108 82.9043 34.36 83.1416 34.1002C83.3788 33.8404 83.3946 33.5354 83.4624 33.1965C83.616 32.4487 83.7719 31.7031 83.8984 30.9508C83.9639 30.5622 84.0227 30.1758 84.0792 29.7872C84.1085 29.602 84.1379 29.4167 84.1605 29.2315C84.1729 29.0766 84.1729 28.9209 84.1605 28.766C84.0024 28.6827 83.8294 28.6313 83.6515 28.6151C83.4735 28.5988 83.2941 28.6178 83.1235 28.6712C82.6716 28.8203 82.4615 29.2495 82.3734 29.6878C82.1972 30.5735 82.344 31.4953 81.8989 32.3131C81.6497 32.7207 81.3236 33.076 80.9388 33.3592C80.5931 33.6438 80.2293 34.0934 79.7775 34.1861C79.5227 34.2184 79.2652 34.2237 79.0093 34.2019C78.6953 34.2019 78.379 34.1906 78.0649 34.1816C77.7961 34.1816 77.5566 34.22 77.3691 34.0076C77.2144 33.8213 77.05 33.6433 76.8766 33.4744C76.4799 33.117 76.0156 32.8427 75.5112 32.6677C75.0067 32.4926 74.4723 32.4205 73.9395 32.4555C73.5147 32.4803 73.5125 31.8455 73.9169 31.8296Z" fill="#C37C73"/>
  <path d="M72.0615 37.6188C72.3439 37.603 72.6173 37.5194 72.8997 37.481C73.1821 37.4425 73.4464 37.4041 73.7221 37.377C73.9977 37.3499 74.253 37.3273 74.5173 37.316C74.7817 37.3047 75.0957 37.2708 75.3804 37.2844C75.4798 37.2919 75.5727 37.3367 75.6404 37.4098C75.7082 37.4829 75.7459 37.579 75.7459 37.6786C75.7459 37.7783 75.7082 37.8743 75.6404 37.9475C75.5727 38.0206 75.4798 38.0654 75.3804 38.0729C75.107 38.091 74.8246 38.0729 74.5512 38.0729C74.2778 38.0729 73.9977 38.048 73.7221 38.0277C73.4464 38.0074 73.1889 37.9735 72.9245 37.9418C72.6602 37.9102 72.3507 37.8311 72.0615 37.8198C72.0483 37.8198 72.0352 37.8172 72.023 37.8122C72.0108 37.8071 71.9997 37.7997 71.9904 37.7904C71.981 37.7811 71.9736 37.77 71.9686 37.7578C71.9635 37.7456 71.9609 37.7325 71.9609 37.7193C71.9609 37.7061 71.9635 37.693 71.9686 37.6808C71.9736 37.6686 71.981 37.6576 71.9904 37.6482C71.9997 37.6389 72.0108 37.6315 72.023 37.6264C72.0352 37.6214 72.0483 37.6188 72.0615 37.6188Z" fill="#C37C73"/>
  <path d="M60.3811 54.7819C60.6111 53.7139 60.9915 52.684 61.5108 51.7228C62.0101 50.7242 62.5885 49.7686 63.1646 48.8151C64.3462 46.8541 65.5436 44.9021 66.5738 42.8574C67.6041 40.8128 68.5191 38.6371 69.4183 36.4907C70.1593 34.7262 71.0518 32.6861 73.0106 32.0174C73.2365 31.9451 73.3788 32.3043 73.1642 32.3924C71.542 33.0702 70.7784 34.7918 70.1435 36.31C69.7256 37.3018 69.3121 38.2914 68.8467 39.2651C68.3572 40.2863 67.8586 41.3053 67.351 42.322C66.3479 44.3259 65.3538 46.3503 64.2242 48.2887C63.142 50.1459 61.9446 51.9601 61.251 54.0115C61.0647 54.5269 60.9174 55.0555 60.8104 55.593C60.7163 56.1444 60.674 56.7033 60.6839 57.2626C60.6903 58.3551 60.9866 59.4263 61.5424 60.3669C61.6554 60.5521 61.373 60.708 61.2532 60.5318C60.7094 59.7102 60.3665 58.7722 60.2524 57.7935C60.142 56.7889 60.1854 55.7734 60.3811 54.7819Z" fill="#C37C73"/>
  <path d="M68.3181 33.5216C68.2978 33.4561 68.282 33.3928 68.2594 33.3318C68.0786 32.7308 67.8482 32.1457 67.6494 31.5537C67.245 30.3631 66.8857 29.1363 66.3119 28.0134C65.7903 26.981 65.0015 26.1073 64.0277 25.483C63.0634 24.8795 61.9737 24.5047 60.8421 24.3873C60.4374 24.3392 60.0293 24.3249 59.6221 24.3444C59.3569 24.3518 59.0922 24.3729 58.8291 24.4076C58.5196 24.4505 58.2101 24.507 57.9028 24.5793C57.5955 24.6516 57.3041 24.7239 56.9991 24.8053C56.4258 24.9628 55.8775 25.2001 55.3702 25.5101C54.9759 25.7791 54.6163 26.0955 54.2993 26.4523C53.687 27.1165 53.2035 28.2597 52.4466 28.7816C52.3428 28.8404 52.2348 28.8918 52.1236 28.9352C51.8479 29.0572 51.5158 29.2131 51.5294 29.36C51.5304 29.3795 51.5304 29.3991 51.5294 29.4187C51.5356 29.447 51.5401 29.4757 51.5429 29.5046C51.5746 29.7938 51.6017 29.8977 51.6197 30.2524C51.6303 30.4105 51.6371 30.5687 51.6401 30.7268V30.7562C51.6401 30.9821 51.6401 31.1968 51.613 31.4159C51.5958 31.7335 51.5588 32.0496 51.5023 32.3626C51.4127 32.836 51.2851 33.3014 51.1204 33.7543C50.5819 35.2688 49.554 36.5606 48.1992 37.4256C47.8295 37.6669 47.4072 37.8157 46.9679 37.8594C46.4727 37.8668 45.9803 37.7833 45.5152 37.6131C44.7803 37.3738 44.0675 37.0715 43.3847 36.7094C41.9785 36.0095 40.7121 35.0586 39.6478 33.9034C39.4219 33.6549 39.214 33.3996 39.0129 33.133C38.9022 32.9929 38.787 32.8483 38.6944 32.7014C38.4888 32.4077 38.2922 32.1027 38.1115 31.7977C38.0911 31.7593 38.0663 31.7187 38.0482 31.6803C37.6365 30.9421 37.3069 30.161 37.0654 29.3509C37.0548 29.3092 37.031 29.272 36.9977 29.2447C36.9805 29.1791 36.9417 29.1212 36.8876 29.0802C36.8335 29.0392 36.7673 29.0176 36.6994 29.0188C36.6181 29.0188 36.5368 29.0188 36.4554 29.0188C35.275 28.9787 34.1051 28.7827 32.9761 28.4359C32.3752 28.2597 31.7855 28.0541 31.189 27.8756C30.6449 27.7036 30.0882 27.5744 29.5239 27.4893C27.4364 27.1978 25.4075 28.0044 23.9141 29.4594C22.6218 30.7223 21.8446 32.3964 21.4493 34.1293C21.3619 34.5149 21.2919 34.9027 21.2391 35.2928C21.162 35.8508 21.1175 36.4128 21.1059 36.976C21.1059 37.1183 21.0923 37.2765 21.0923 37.4279C21.0918 37.5619 21.1116 37.6952 21.151 37.8232C21.2719 38.0715 21.4734 38.2714 21.7226 38.3903C21.822 38.4558 21.9215 38.5191 22.0209 38.5914C22.8478 39.1404 23.6453 39.721 24.4428 40.322L25.168 40.8665C25.4459 41.0766 25.7261 41.2845 26.0062 41.4855L26.1034 41.5556C26.9474 42.1787 27.8246 42.7556 28.7309 43.2839C29.0849 43.4858 29.4449 43.6748 29.8109 43.851C29.9509 44.269 30.0955 44.6824 30.2401 45.0959C30.2401 45.0959 30.2401 45.0959 30.2401 45.1094C30.2898 45.254 30.3395 45.3964 30.3938 45.5387C30.518 45.8912 30.6468 46.2413 30.7778 46.5938C30.9285 47.017 31.0851 47.438 31.2478 47.8567C31.3766 48.1979 31.5076 48.5345 31.6409 48.8779C31.912 49.5738 32.1884 50.2666 32.47 50.9565C32.6779 51.4648 32.888 51.9686 33.1026 52.4724C33.1207 52.5199 33.1411 52.5651 33.1614 52.6125C33.3557 53.0644 33.5545 53.532 33.7578 53.9884C33.7612 53.9969 33.7649 54.0052 33.7691 54.0133C34.0628 54.6911 34.3678 55.3688 34.6729 56.0308L34.9756 56.6792C35.3484 57.4677 35.7392 58.2472 36.0826 59.0515C36.2724 59.5033 36.4487 59.9552 36.5978 60.4251C37.0323 61.7043 37.1721 63.0652 37.0067 64.406C36.8516 65.4697 36.4627 66.4859 35.868 67.3815C35.8622 67.3886 35.8569 67.3962 35.8522 67.4041C35.7663 67.5328 35.6782 67.6616 35.5856 67.7859C35.5269 67.8672 35.4659 67.9463 35.4003 68.0254C35.3893 68.0432 35.3756 68.0592 35.3597 68.0728C35.3512 68.0858 35.3413 68.0979 35.3303 68.109C35.2219 68.2513 35.1044 68.3891 34.9824 68.5224L34.9666 68.5427L34.9394 68.5676C34.7723 68.7574 34.5938 68.9381 34.413 69.1166C34.1938 69.3046 33.9933 69.5134 33.8143 69.7402C33.7826 69.784 33.7568 69.8319 33.7375 69.8825C33.6985 69.9601 33.6747 70.0444 33.6675 70.131C33.6579 70.2069 33.6648 70.284 33.6878 70.3569C33.7064 70.4364 33.7369 70.5125 33.7782 70.5829C33.9313 70.828 34.1175 71.0508 34.3317 71.2448C34.5283 71.4437 34.7361 71.6312 34.944 71.8119C35.3737 72.1724 35.8265 72.5045 36.2995 72.806C37.015 73.2573 37.7714 73.6401 38.5588 73.9492C38.8119 74.0486 39.0626 74.1435 39.3202 74.2294C41.4867 74.929 43.7491 75.2865 46.0258 75.289C48.5471 75.3364 51.2221 75.1782 53.5108 74.0463C55.7994 72.9144 57.4645 70.915 59.107 69.0353L60.2954 67.6797L60.7698 67.1375C61.1675 66.6856 61.5696 66.2202 61.9695 65.7616C62.4485 65.2103 62.9297 64.6583 63.4132 64.1055C63.5149 63.988 63.6391 63.866 63.7408 63.7327C63.7682 63.6984 63.7931 63.6622 63.8154 63.6243C63.8807 63.5236 63.9181 63.4075 63.9238 63.2876C63.9257 63.1364 63.885 62.9876 63.8063 62.8584L63.7544 62.777C63.6948 62.6967 63.6291 62.6212 63.5578 62.5511L63.5058 62.5014L63.49 62.4856C63.0382 62.0563 62.6112 61.6135 62.1977 61.1549L62.1412 61.0939C62.0124 60.8996 61.8904 60.7053 61.773 60.5065C61.5583 60.145 61.3618 59.7722 61.181 59.3949C61.1245 59.2864 61.0726 59.169 61.0229 59.0628C60.9732 58.9566 60.9461 58.8933 60.9122 58.8075C60.8896 58.7645 60.8715 58.7194 60.8512 58.6742C60.8408 58.6574 60.8332 58.6391 60.8286 58.62C60.687 58.2946 60.5514 57.9663 60.4219 57.6349C60.3406 57.4271 60.2615 57.2215 60.196 57.0113C59.8236 55.9941 59.5054 54.9579 59.2426 53.9071C59.1196 53.477 59.0536 53.0327 59.046 52.5854C59.0438 52.5508 59.0438 52.5161 59.046 52.4815C59.0438 52.4454 59.0438 52.4092 59.046 52.373C59.0796 52.015 59.1641 51.6635 59.2968 51.3293C59.3375 51.2253 59.3781 51.1237 59.421 51.022C59.6063 50.5905 59.8096 50.1725 59.9791 49.7342C60.1501 49.2843 60.2581 48.8129 60.2999 48.3334C60.2999 48.2815 60.2999 48.2273 60.3135 48.173C60.3583 47.4859 60.3157 46.7958 60.187 46.1193C60.1418 45.8595 60.0853 45.6065 60.0243 45.3512C59.9814 45.1817 59.9384 45.0055 59.8955 44.8383C59.7712 44.3639 59.6492 43.8962 59.5205 43.424C59.4933 43.3314 59.4708 43.2365 59.4436 43.1439L59.2471 42.4299C59.229 42.3734 59.2155 42.3147 59.1996 42.256C59.1025 41.9058 58.9986 41.5578 58.8992 41.2077L58.9669 41.1783C59.2132 41.0653 59.4595 40.9524 59.7012 40.8236C61.4917 39.8842 63.1666 38.7393 64.692 37.4121C65.564 36.6778 66.4022 35.9029 67.2246 35.1121L67.3511 34.9924L68.0154 34.3462C68.2481 34.0841 68.4175 33.865 68.3181 33.5216Z" fill="#E9A567"/>
  <path d="M30.0999 43.6754C30.0999 43.6392 30.0999 43.6031 30.0999 43.5669C29.9825 43.515 29.874 43.463 29.7543 43.4065C29.3145 43.1866 28.8792 42.9569 28.4484 42.7174C27.5899 42.2362 26.7494 41.7256 25.918 41.1992C24.2629 40.1483 22.7207 38.9293 21.3158 37.5617C20.8256 37.085 20.1071 37.8103 20.5658 38.3141C21.9461 39.8266 23.4582 41.2132 25.0843 42.4576C25.8956 43.0762 26.7461 43.6414 27.6305 44.1498C28.0824 44.4074 28.5343 44.6529 28.9861 44.8864C29.4527 45.1635 29.9472 45.3906 30.4614 45.5641C30.4818 45.5641 30.4998 45.5641 30.5179 45.5754C30.3808 44.9398 30.2415 44.3065 30.0999 43.6754Z" fill="#FAFAD7"/>
  <path d="M68.0266 33.4424C67.6493 33.8152 67.2336 34.1202 66.8427 34.4884C66.4519 34.8567 66.1062 35.1798 65.7312 35.5187C64.9653 36.2145 64.2242 36.9307 63.4289 37.595C62.6718 38.2278 61.8814 38.8198 61.0612 39.3685C60.641 39.6486 60.2117 39.9175 59.7779 40.1751C59.4005 40.3677 59.0367 40.5858 58.689 40.828C58.7884 41.0675 58.872 41.3137 58.9488 41.56C59.0256 41.8063 59.0798 42.0119 59.1476 42.2378C59.6537 42.1587 60.1394 41.8108 60.5687 41.56C60.998 41.3092 61.4317 41.0336 61.852 40.7557C62.7733 40.1443 63.661 39.4836 64.5111 38.7766C65.337 38.1166 66.105 37.3872 66.8066 36.5964C67.159 36.1829 67.5024 35.7627 67.8142 35.3153C68.126 34.868 68.3677 34.3823 68.6456 33.9168C68.6895 33.8342 68.7027 33.7387 68.6828 33.6473C68.6629 33.5558 68.6113 33.4744 68.537 33.4175C68.4627 33.3606 68.3707 33.3318 68.2772 33.3364C68.1838 33.341 68.095 33.3785 68.0266 33.4424Z" fill="#FAFAD7"/>
  <path d="M59.8954 44.8121C57.5728 45.7881 55.2299 46.7596 52.8306 47.5232C50.178 48.374 47.4437 48.945 44.6723 49.2267C41.9111 49.4916 39.1288 49.4431 36.3785 49.0821C34.9862 48.9244 33.6098 48.6485 32.2643 48.2575C31.9184 48.1522 31.5802 48.0231 31.2522 47.8711C31.094 47.4509 30.9359 47.0307 30.7822 46.6082L31.042 46.6805C31.7763 46.8658 32.5241 47.0239 33.2742 47.1549C34.7692 47.3905 36.2794 47.5158 37.7928 47.53C43.0637 47.6588 48.434 47.0781 53.5016 45.5825C54.7607 45.2302 55.9948 44.7939 57.1955 44.2766C57.9637 43.9309 58.7025 43.5378 59.4367 43.1289C59.5949 43.6824 59.7463 44.245 59.8954 44.8121Z" fill="#FAFAD7"/>
  <path d="M60.3135 48.1513C58.6495 48.9701 56.9402 49.6935 55.194 50.318C52.4205 51.364 49.5616 52.1675 46.6494 52.7196C43.7233 53.2788 40.7353 53.4414 37.7659 53.2031C36.2625 53.0858 34.7697 52.8593 33.2992 52.5253L33.1072 52.4801C32.8948 51.9763 32.6847 51.4725 32.4746 50.9619C33.053 51.0613 33.6359 51.1268 34.221 51.172C35.8025 51.3008 37.384 51.3708 38.9813 51.3821C44.6047 51.4228 50.2958 50.6185 55.5464 48.5738C56.6894 48.1101 57.7919 47.5524 58.8427 46.9065C59.2946 46.6376 59.7464 46.371 60.1847 46.0977C60.3141 46.774 60.3574 47.4641 60.3135 48.1513Z" fill="#FAFAD7"/>
  <path d="M34.2504 59.3887C33.9228 57.0029 32.592 54.9063 31.4534 52.8368C30.2085 50.5775 29.0585 48.2775 27.965 45.9505C27.6246 45.226 27.2933 44.497 26.9709 43.7635C26.7699 43.3116 26.5756 42.8598 26.3835 42.4079C26.2547 42.1052 26.1305 41.8002 26.0062 41.4929C25.9678 41.3912 25.9271 41.2896 25.8842 41.1856C25.6041 40.4785 25.3217 39.7691 25.0167 39.0687C24.4677 37.8306 23.7537 36.5835 22.7235 35.7385C22.5155 35.5701 22.2941 35.4189 22.0615 35.2866C22.0005 35.1307 21.9282 34.9816 21.8559 34.8348C21.7349 34.5958 21.5999 34.3642 21.4515 34.1412C21.1336 33.6665 20.7537 33.2365 20.3219 32.8624C19.5365 32.1919 18.6097 31.7076 17.6107 31.4459C16.4992 31.1409 15.3514 31.0256 14.2354 30.7477C13.211 30.483 12.2705 29.963 11.5016 29.2363C11.1514 28.92 10.8238 28.5788 10.4872 28.2422C10.1099 27.8536 9.72808 27.465 9.32141 27.1125C8.55777 26.4348 7.51398 25.6915 6.45212 25.8044C5.47159 25.9038 4.66729 27.0018 5.28859 27.9056C5.36383 28.0123 5.44934 28.1114 5.54389 28.2015C5.54489 28.212 5.54489 28.2226 5.54389 28.2332C5.49639 28.6649 5.49639 29.1005 5.54389 29.5322C5.57552 30.5549 5.61242 31.5776 5.65459 32.6003L5.66815 32.9076C5.59359 32.8624 5.51678 32.815 5.44222 32.7653C5.27277 32.6568 5.10333 32.5394 4.94066 32.4219C4.15443 31.8299 3.58509 31.003 2.79208 30.4314C2.04426 29.8982 0.984654 29.6701 0.187126 30.2326C0.137557 30.2629 0.0953591 30.3038 0.0636003 30.3525C0.0318416 30.4011 0.0113211 30.4562 0.00353119 30.5138C-0.00425874 30.5713 0.000877601 30.6299 0.018567 30.6852C0.0362564 30.7405 0.0660535 30.7912 0.105792 30.8336C0.442425 31.2357 0.668354 31.6876 0.982395 32.1236C1.2722 32.5235 1.58527 32.906 1.92 33.2691C2.62855 34.0252 3.41287 34.7066 4.26062 35.3025C5.16433 35.9599 6.11097 36.5564 7.05761 37.1528C7.42813 37.3878 7.79564 37.6258 8.16014 37.8667C8.25051 37.9232 8.33862 37.982 8.42899 38.043C8.76281 38.2766 9.11403 38.4843 9.47956 38.6643L10.1867 39.2246C10.9074 39.8029 11.6688 40.3542 12.5974 40.5078C13.5621 40.6796 14.5675 40.6683 15.5344 40.718C16.6257 40.7722 17.7214 40.8038 18.8127 40.8784C20.1976 44.5746 20.5681 48.5961 21.2866 52.4685C21.7254 54.9345 22.3139 57.3715 23.0488 59.766C23.4306 60.9747 23.8351 62.1812 24.2959 63.3628C24.6732 64.3388 25.1387 65.3667 26.1034 65.8773C27.1517 66.4241 28.514 66.3089 29.6459 66.153C30.755 66.0326 31.7979 65.5653 32.6259 64.8177C32.9961 64.4607 33.3086 64.0484 33.5522 63.5955C34.0192 62.7 34.2728 61.7087 34.2933 60.6991C34.318 60.2619 34.3036 59.8233 34.2504 59.3887Z" fill="#F3D2CB"/>
  <path d="M20.8119 35.0377C20.0803 35.0126 19.3525 35.1534 18.683 35.4496C18.0135 35.7458 17.4198 36.1897 16.9463 36.748C16.404 36.7728 15.8618 36.8045 15.3196 36.8271C15.0759 36.8492 14.8331 36.7764 14.6418 36.6237C14.454 36.4931 14.2786 36.3456 14.1176 36.1832C13.7822 35.8558 13.5049 35.4738 13.2975 35.0535C13.1416 34.6774 13.044 34.2797 13.0083 33.8742C12.8976 33.0925 12.8073 32.2927 12.2086 31.7075C12.0067 31.5114 11.7611 31.3662 11.4919 31.2841C11.2227 31.202 10.9379 31.1853 10.6609 31.2353C10.5174 30.9455 10.3179 30.6869 10.074 30.4744C9.83013 30.2619 9.54664 30.0997 9.23985 29.9972C9.08744 29.9272 8.91887 29.8999 8.75215 29.9182C8.58543 29.9365 8.42681 29.9998 8.29321 30.1012C8.26367 30.1333 8.2372 30.1681 8.21414 30.2051C8.09466 29.7423 7.89177 29.3051 7.61543 28.915C7.22457 28.3773 5.95711 27.3539 5.46007 28.3344C5.25221 28.7433 5.33581 29.2946 5.34259 29.7329C5.35162 30.3685 5.36744 31.0026 5.39003 31.6352C5.43522 32.8643 5.51053 34.0903 5.61596 35.3133C5.64533 35.6567 6.1853 35.6567 6.15367 35.3133C5.96615 33.341 5.8577 31.3596 5.86448 29.3782C5.85161 29.1739 5.85918 28.9688 5.88707 28.7659C5.93904 28.5174 6.08363 28.5061 6.30504 28.5987C6.66344 28.7649 6.9657 29.0318 7.17487 29.3669C7.67417 30.1328 7.62672 31.0297 7.93624 31.8521C7.95218 31.8924 7.98071 31.9265 8.01758 31.9493C7.97691 33.4969 7.8775 35.0422 7.84135 36.5898C7.84135 36.9852 8.44458 36.9829 8.45588 36.5898C8.49881 35.1258 8.45588 33.6528 8.50784 32.1955C8.5214 31.8431 8.53947 31.4906 8.55529 31.1404C8.55529 30.8897 8.55529 30.4852 8.90322 30.5553C9.16765 30.6212 9.41196 30.7507 9.61489 30.9326C9.79269 31.1017 9.94491 31.2957 10.0667 31.5087C10.0116 31.5456 9.96905 31.5985 9.94482 31.6603C9.92059 31.7221 9.91583 31.7898 9.93119 31.8544C9.98767 32.0645 10.0826 32.2588 10.1255 32.4712C10.1684 32.6835 10.1887 32.8575 10.2204 33.0495C10.2859 33.4585 10.3537 33.8651 10.4102 34.2718C10.5276 35.0919 10.5909 35.9188 10.7016 36.7389C10.7199 37.0449 10.8293 37.3384 11.0156 37.5817C11.2791 37.8416 11.5607 38.0825 11.8584 38.3024C12.4819 38.8491 13.0919 39.4117 13.7065 39.9675C13.9324 40.1595 14.2374 39.8477 14.025 39.6512C13.4625 39.1247 12.8954 38.6006 12.3396 38.0697C12.0865 37.8234 11.8335 37.5749 11.5963 37.3151C11.3591 37.0552 11.3432 36.748 11.2755 36.4113C11.1218 35.6635 10.9659 34.918 10.8394 34.1521C10.7739 33.7657 10.7174 33.3771 10.6587 32.9908C10.6293 32.8055 10.5999 32.6203 10.5773 32.435C10.5649 32.2794 10.5649 32.123 10.5773 31.9673C10.8975 31.8018 11.2699 31.7686 11.6144 31.8747C12.0662 32.0238 12.2763 32.4531 12.3644 32.8914C12.5407 33.777 12.3938 34.6988 12.8389 35.5167C13.0883 35.9249 13.4153 36.2802 13.8013 36.5627C14.1448 36.8474 14.5085 37.297 14.9604 37.3896C15.2151 37.422 15.4726 37.4273 15.7285 37.4054C16.0426 37.4054 16.3589 37.4054 16.6729 37.3851C16.9417 37.3851 17.1812 37.4235 17.3688 37.2089C17.5292 37.0281 17.6828 36.8429 17.8613 36.6779C18.2581 36.3207 18.7224 36.0463 19.2267 35.8709C19.7311 35.6955 20.2654 35.6227 20.7984 35.6567C21.2141 35.6906 21.2276 35.0558 20.8119 35.0377Z" fill="#C37C73"/>
  <path d="M22.6785 40.8258C22.3961 40.8077 22.1228 40.7264 21.8403 40.688C21.5579 40.6496 21.2936 40.6089 21.018 40.5841C20.7423 40.5592 20.4893 40.5344 20.2227 40.5231C19.9561 40.5118 19.6443 40.4779 19.3596 40.4914C19.2602 40.499 19.1674 40.5438 19.0996 40.6169C19.0318 40.69 18.9941 40.786 18.9941 40.8857C18.9941 40.9854 19.0318 41.0814 19.0996 41.1545C19.1674 41.2276 19.2602 41.2724 19.3596 41.2799C19.633 41.298 19.9154 41.2799 20.1888 41.2686C20.4622 41.2573 20.7423 41.2438 21.018 41.2212C21.2936 41.1986 21.5512 41.1692 21.8155 41.1376C22.0798 41.106 22.3893 41.0246 22.6785 41.0156C22.7037 41.0156 22.7278 41.0056 22.7456 40.9878C22.7634 40.97 22.7734 40.9459 22.7734 40.9207C22.7734 40.8955 22.7634 40.8714 22.7456 40.8536C22.7278 40.8358 22.7037 40.8258 22.6785 40.8258Z" fill="#C37C73"/>
  <path d="M34.3474 57.989C34.1182 56.9208 33.7378 55.8907 33.2178 54.9299C32.7185 53.9313 32.1401 52.9756 31.564 52.02C30.3824 50.0612 29.185 48.1091 28.1547 46.0645C27.1245 44.0198 26.2095 41.8441 25.3103 39.6978C24.5693 37.9311 23.6768 35.8909 21.718 35.2244C21.4921 35.1521 21.3498 35.5091 21.5644 35.5995C23.1866 36.2773 23.9502 37.9988 24.5851 39.5171C25.003 40.5089 25.4165 41.4985 25.8819 42.47C26.3729 43.4927 26.8715 44.5116 27.3775 45.5268C28.3807 47.533 29.3747 49.5573 30.5044 51.4935C31.5866 53.3529 32.784 55.1671 33.4776 57.2186C33.668 57.7335 33.8191 58.2622 33.9295 58.8001C34.0236 59.3515 34.0659 59.9104 34.056 60.4697C34.0496 61.5622 33.7533 62.6334 33.1975 63.5739C33.0845 63.7592 33.3669 63.9128 33.4866 63.7389C34.0301 62.9171 34.3729 61.9792 34.4875 61.0006C34.5942 59.9955 34.547 58.9799 34.3474 57.989Z" fill="#C37C73"/>
  <path d="M64.0413 63.1965C63.8015 62.8513 63.5413 62.5209 63.2618 62.2069C63.0246 61.9042 62.7987 61.5902 62.5841 61.2716C62.1322 60.6051 61.7188 59.916 61.3189 59.2111C60.485 57.8259 59.8708 56.32 59.4979 54.7468C59.3894 54.2949 59.2923 53.8431 59.1974 53.3912C59.1522 53.1653 59.1093 52.9394 59.0686 52.7134C59.0551 52.6321 59.0415 52.5553 59.0234 52.4875C59.3182 52.1227 59.5692 51.7246 59.7712 51.3014C60.1488 50.4527 60.3524 49.537 60.37 48.6083C60.4355 46.6902 59.9633 44.7495 59.4662 42.9081C58.9556 41.0058 58.3366 39.1351 57.7492 37.2599C57.4284 36.2139 57.1234 35.161 56.8568 34.0969C56.5902 33.0328 56.2965 31.9371 56.1315 30.839C56.1067 30.6719 55.8288 30.708 55.8378 30.8774C55.8969 31.8364 56.0093 32.7913 56.1745 33.7377C56.3539 34.6651 56.5801 35.5827 56.8523 36.4872C57.3809 38.3331 58.0022 40.1518 58.5399 41.9954C59.0641 43.8028 59.5702 45.6599 59.7012 47.5374C59.7871 48.4541 59.7106 49.3787 59.4753 50.2689C59.25 51.0334 58.8571 51.738 58.3253 52.3316C57.7324 52.9706 57.0542 53.5248 56.31 53.9786C55.9214 54.2249 55.5283 54.4666 55.1375 54.7106C54.7466 54.9546 54.3354 55.1467 53.9378 55.3726C53.7593 55.472 53.8768 55.7996 54.0801 55.7183C54.4619 55.5624 54.8302 55.3771 55.2098 55.2145C55.5965 55.0574 55.9737 54.8779 56.3394 54.6767C57.0504 54.2847 57.7131 53.8108 58.314 53.2647C58.384 53.1992 58.4496 53.1246 58.5196 53.0568C58.5377 53.154 58.5535 53.2534 58.5716 53.3505C58.6506 53.7572 58.7478 54.1616 58.8608 54.5593C59.0867 55.3591 59.3601 56.1408 59.6583 56.9202C59.9565 57.6997 60.2615 58.443 60.6049 59.1795C60.9635 59.9284 61.3773 60.6497 61.843 61.3371C62.0976 61.7212 62.3657 62.0977 62.6473 62.4668C62.7896 62.6565 62.9342 62.8418 63.0834 63.0271C63.2256 63.2231 63.3877 63.404 63.5668 63.567C63.8131 63.7704 64.2266 63.5128 64.0413 63.1965Z" fill="#B66B4D"/>
  <path d="M36.2659 57.6516C35.3622 55.4263 34.1015 53.359 33.1142 51.1765C32.1415 48.9957 31.34 46.7424 30.7171 44.4371C30.3647 43.1448 30.0687 41.8389 29.8383 40.5195C29.6078 39.2001 29.4835 37.8468 29.2712 36.516C29.235 36.2901 28.8735 36.3443 28.8735 36.568C28.8927 37.7542 29.0038 38.937 29.2057 40.106C29.3819 41.2809 29.604 42.4489 29.8721 43.6102C30.407 45.9059 31.1332 48.1527 32.0433 50.327C32.4952 51.416 32.9967 52.4824 33.5322 53.5307C34.0676 54.579 34.6325 55.6296 35.1408 56.6937C36.1236 58.7722 36.8895 61.0383 36.6952 63.3699C36.5861 64.617 36.1616 65.8158 35.4616 66.8537C34.7515 67.856 33.9498 68.7901 33.0668 69.6439C32.7731 69.9444 33.2362 70.4098 33.5186 70.1071C35.0775 68.4985 36.659 66.7927 37.1606 64.5425C37.6893 62.2109 37.1493 59.8115 36.2659 57.6516Z" fill="#B66B4D"/>
  <path d="M49.0168 55.7286C47.4163 56.4163 45.7016 56.7994 43.9606 56.8583C43.0817 56.8989 42.1983 56.8854 41.3195 56.8447C40.5549 56.823 39.7933 56.7399 39.0421 56.5962C38.2242 56.4222 37.4154 56.1263 36.8303 55.5072C36.6789 55.3468 36.4597 55.5795 36.593 55.7331C37.6323 57.0277 39.2906 57.3485 40.8631 57.4502C42.6954 57.5699 44.5593 57.579 46.3667 57.2243C47.381 57.0251 48.3503 56.6422 49.227 56.0946C49.269 56.0637 49.2982 56.0184 49.3089 55.9674C49.3197 55.9163 49.3113 55.8631 49.2853 55.8178C49.2593 55.7726 49.2176 55.7385 49.1681 55.722C49.1186 55.7056 49.0647 55.7079 49.0168 55.7286Z" fill="#B66B4D"/>
  <path d="M52.3384 29.4656C52.3158 28.449 50.7275 28.449 50.7569 29.4656C50.795 31.0833 50.4941 32.6909 49.8735 34.1853C49.3584 35.4414 48.5021 36.4446 47.142 36.7654C45.782 37.0862 44.3631 36.6615 43.1747 35.9656C41.9011 35.1869 40.7486 34.2255 39.7542 33.1121C39.1853 32.4972 38.6797 31.8265 38.245 31.1104C37.8157 30.3919 37.5491 29.5831 37.0995 28.8827C37.0596 28.8169 36.9995 28.7658 36.9281 28.737C36.8568 28.7081 36.778 28.7031 36.7036 28.7227C36.6292 28.7422 36.5631 28.7853 36.5151 28.8455C36.4672 28.9057 36.44 28.9798 36.4376 29.0567C36.3833 29.8859 36.7448 30.7218 37.095 31.4561C37.4638 32.22 37.9081 32.945 38.4212 33.6205C39.4786 35.0325 40.6918 36.3452 42.1784 37.3144C43.665 38.2836 45.3595 38.7807 47.1014 38.548C48.8433 38.3152 50.2937 37.2172 51.1319 35.6561C52.1418 33.7718 52.3858 31.5735 52.3384 29.4656Z" fill="#FAFAD7"/>
  <path d="M64.71 63.2216C64.5912 63.0182 64.3977 62.8691 64.1707 62.8062C63.9436 62.7433 63.701 62.7716 63.4945 62.885C59.5498 65.5306 57.7401 70.187 54.0191 73.0518C52.0964 74.5339 49.7739 75.0083 47.3903 75.0106C44.8431 75.0364 42.3119 74.6056 39.9166 73.7386C37.5218 72.8484 35.4771 71.3302 33.629 69.5928C33.1772 69.1703 32.4248 69.7058 32.7502 70.2706C33.9657 72.3604 36.0148 73.8855 38.1724 74.8931C40.6547 76.0216 43.3309 76.662 46.0551 76.7796C48.6759 76.931 51.4073 76.7118 53.7367 75.424C55.883 74.2379 57.4825 72.3333 58.9466 70.4129C60.5687 68.287 62.1096 65.9622 64.3688 64.4462C64.5755 64.3281 64.7272 64.1333 64.7911 63.904C64.855 63.6748 64.8258 63.4295 64.71 63.2216Z" fill="#FAFAD7"/>
  <path d="M69.2376 15.4909C69.3732 14.673 69.0795 13.7038 68.2187 13.4372C67.8188 13.3301 67.3966 13.3396 67.002 13.4644C66.6073 13.5893 66.2565 13.8245 65.991 14.1421C65.9528 14.1911 65.9245 14.2471 65.9079 14.3069C65.8912 14.3668 65.8866 14.4294 65.8941 14.4911C65.9017 14.5527 65.9213 14.6123 65.9519 14.6664C65.9825 14.7205 66.0234 14.7681 66.0724 14.8063C66.1213 14.8446 66.1773 14.8729 66.2372 14.8895C66.2971 14.9061 66.3596 14.9108 66.4213 14.9032C66.483 14.8957 66.5426 14.876 66.5967 14.8455C66.6508 14.8149 66.6983 14.7739 66.7366 14.725C67.0303 14.3997 67.7578 14.0834 68.1486 14.4223C68.5395 14.7611 68.4424 15.6242 68.0831 15.9631C67.9924 16.0398 67.8874 16.0978 67.7742 16.1338C67.661 16.1699 67.5418 16.1833 67.4234 16.1732C67.2407 16.167 67.0604 16.2164 66.9063 16.3148C66.7522 16.4132 66.6316 16.5561 66.5604 16.7245C66.4506 17.0924 66.3809 17.4712 66.3525 17.8541C66.2579 18.279 66.2395 18.7173 66.2983 19.1487C66.3093 19.2261 66.345 19.298 66.4001 19.3535C66.4552 19.4091 66.5268 19.4454 66.6042 19.4571C66.6815 19.4687 66.7606 19.4551 66.8296 19.4183C66.8987 19.3815 66.954 19.3234 66.9874 19.2526C67.1838 18.7975 67.297 18.3108 67.3217 17.8157C67.3729 17.5824 67.4032 17.345 67.4121 17.1063C67.411 17.0973 67.411 17.0882 67.4121 17.0792L67.5793 17.0634C67.9946 17.0324 68.3864 16.859 68.6885 16.5725C68.9907 16.286 69.1846 15.9039 69.2376 15.4909Z" fill="#78534D"/>
  <path d="M66.9443 20.7794C66.9711 20.7263 66.9828 20.667 66.9782 20.6077C66.985 20.5734 66.985 20.5381 66.9782 20.5038C66.9726 20.4349 66.9475 20.3691 66.9059 20.314C66.8328 20.2397 66.7405 20.1873 66.6393 20.1626C66.583 20.1419 66.5224 20.1357 66.4631 20.1446L66.3433 20.1739C66.2666 20.2035 66.1994 20.2535 66.149 20.3185C66.1395 20.3289 66.1312 20.3402 66.1242 20.3524C66.0731 20.418 66.0404 20.496 66.0293 20.5783C66.0293 20.619 66.0293 20.6574 66.0293 20.6981C66.0397 20.7802 66.0717 20.8582 66.1219 20.924C66.1982 21.0183 66.3055 21.0824 66.4247 21.1048C66.4851 21.1162 66.5474 21.1115 66.6054 21.0912C66.6677 21.0826 66.7264 21.0567 66.7749 21.0166C66.8397 20.9684 66.8904 20.9036 66.9217 20.8291C66.9256 20.8179 66.9309 20.8073 66.9375 20.7975L66.9443 20.7794Z" fill="#78534D"/>
  <path d="M25.1433 20.2815C25.3196 19.2242 24.94 17.9703 23.8239 17.6246C22.7711 17.297 21.6527 17.7398 20.9411 18.5283C20.8915 18.5916 20.8549 18.6641 20.8334 18.7416C20.8119 18.8191 20.8058 18.9001 20.8156 18.9799C20.8253 19.0597 20.8507 19.1368 20.8903 19.2069C20.9298 19.2769 20.9828 19.3384 21.0461 19.388C21.1095 19.4375 21.182 19.4741 21.2594 19.4956C21.3369 19.5172 21.4179 19.5232 21.4977 19.5135C21.5775 19.5037 21.6547 19.4783 21.7247 19.4388C21.7947 19.3992 21.8562 19.3462 21.9058 19.2829C22.2876 18.8604 23.2297 18.4515 23.7358 18.8898C24.2419 19.3281 24.1154 20.4442 23.65 20.8825C23.5329 20.9825 23.3971 21.0582 23.2505 21.1051C23.1038 21.152 22.9493 21.1693 22.7959 21.1559C22.5592 21.1447 22.3248 21.2072 22.125 21.3346C21.9251 21.462 21.7696 21.6482 21.6799 21.8675C21.5014 22.3194 21.4833 22.8684 21.411 23.3406C21.2867 23.8905 21.2622 24.4584 21.3387 25.017C21.3524 25.1177 21.3985 25.2113 21.4699 25.2837C21.5413 25.3561 21.6343 25.4033 21.7349 25.4183C21.8355 25.4334 21.9382 25.4154 22.0277 25.367C22.1172 25.3187 22.1886 25.2426 22.2311 25.1503C22.5316 24.5651 22.5813 23.937 22.6626 23.2909C22.7312 22.9895 22.7713 22.6824 22.7824 22.3736C22.7813 22.3608 22.7813 22.348 22.7824 22.3352L23.0083 22.3171C24.1357 22.2742 24.9626 21.3682 25.1433 20.2815Z" fill="#78534D"/>
  <path d="M22.1747 27.1275C22.209 27.0573 22.2246 26.9795 22.2199 26.9015C22.2256 26.8566 22.221 26.811 22.2063 26.7682C22.2003 26.6792 22.169 26.5938 22.116 26.522C22.0689 26.4608 22.0076 26.4119 21.9375 26.3796C21.8923 26.3511 21.8427 26.3305 21.7906 26.3186C21.7187 26.2912 21.6409 26.2827 21.5647 26.2938L21.4088 26.3322C21.31 26.3712 21.2234 26.4359 21.158 26.5197C21.1455 26.533 21.1342 26.5474 21.1241 26.5626C21.0607 26.6441 21.0195 26.7406 21.0044 26.8428C21.0044 26.8948 21.0044 26.9467 21.0044 26.9987C21.0163 27.1072 21.0577 27.2103 21.1241 27.2969C21.1687 27.3619 21.2294 27.414 21.3004 27.4483C21.367 27.4953 21.445 27.5234 21.5263 27.5296C21.6017 27.5442 21.6796 27.5388 21.7522 27.5138C21.8353 27.5023 21.9135 27.4679 21.9781 27.4144C22.0611 27.3515 22.1265 27.2682 22.1679 27.1726C22.1729 27.1582 22.1797 27.1446 22.1883 27.132L22.1747 27.1275Z" fill="#78534D"/>
  <path d="M26.6253 5.27462C26.4436 5.08839 26.2201 4.9482 25.9734 4.86568C25.7266 4.78317 25.4637 4.76071 25.2065 4.80017C24.5084 4.89506 24.1085 5.38985 23.8645 6.01567C23.7131 6.40201 24.3615 6.66634 24.5423 6.2913C24.6303 6.03683 24.8099 5.82422 25.0461 5.69485C25.227 5.62607 25.4255 5.61892 25.6109 5.67452C25.6943 5.69528 25.7727 5.73283 25.8411 5.78488C25.9095 5.83692 25.9666 5.90236 26.0089 5.97721C26.0512 6.05206 26.0778 6.13474 26.087 6.22021C26.0963 6.30567 26.088 6.39213 26.0628 6.4743C26.0469 6.56982 26.009 6.66032 25.9521 6.73864L25.925 6.77705C25.9141 6.79092 25.902 6.80377 25.8888 6.81546C25.8888 6.82901 25.7962 6.89905 25.803 6.89679C25.7013 6.96231 25.5883 7.00524 25.4889 7.07527C25.3914 7.14099 25.3108 7.2289 25.2539 7.33181C25.1969 7.43471 25.1652 7.54966 25.1613 7.66721C25.174 7.86293 25.2104 8.05638 25.2698 8.24332C25.3104 8.42407 25.3534 8.60481 25.394 8.78555C25.4844 9.17867 25.5228 9.66441 25.8233 9.96264C25.8773 10.0147 25.9438 10.0518 26.0164 10.0705C26.089 10.0891 26.1652 10.0886 26.2376 10.0691C26.3099 10.0495 26.376 10.0115 26.4293 9.95879C26.4826 9.90609 26.5214 9.84047 26.5418 9.76834C26.657 9.41589 26.5033 9.02504 26.4175 8.68162C26.3994 8.60707 26.2774 8.06032 26.2119 7.80728L26.2661 7.77339C26.3894 7.69421 26.5011 7.59841 26.5982 7.48872C26.7775 7.28088 26.9059 7.03412 26.9733 6.76801C27.0427 6.50968 27.0473 6.2382 26.9866 5.97768C26.9259 5.71716 26.8018 5.47566 26.6253 5.27462Z" fill="#78534D"/>
  <path d="M27.0726 11.0882C27.0471 10.9934 26.9972 10.907 26.928 10.8374L26.9054 10.8171H26.8918C26.8225 10.7481 26.7359 10.6989 26.6411 10.6748L26.501 10.6567C26.4297 10.6533 26.3587 10.6689 26.2954 10.7019C26.2246 10.722 26.1611 10.762 26.1124 10.8171L26.022 10.9346C25.9755 11.0174 25.9506 11.1107 25.9497 11.2057C25.9497 11.2531 25.9497 11.3006 25.9678 11.348C25.9937 11.442 26.0435 11.5276 26.1124 11.5966L26.135 11.6214C26.1851 11.6759 26.2492 11.7157 26.3202 11.7366C26.3836 11.7696 26.4545 11.7852 26.5258 11.7818C26.6709 11.7758 26.8092 11.7191 26.9167 11.6214L27.0071 11.5017C27.0549 11.4185 27.0799 11.3242 27.0793 11.2283C27.0839 11.1831 27.0793 11.1266 27.0726 11.0882Z" fill="#78534D"/>
</svg>