<svg xmlns="http://www.w3.org/2000/svg" xmlns:xlink="http://www.w3.org/1999/xlink" width="400" zoomAndPan="magnify" viewBox="0 0 300 262.499992" height="350" preserveAspectRatio="xMidYMid meet" version="1.0"><defs><clipPath id="91132cd7c8"><path d="M 110.699219 91.699219 L 189.300781 91.699219 L 189.300781 170.300781 L 110.699219 170.300781 Z M 110.699219 91.699219 " clip-rule="nonzero"/></clipPath><clipPath id="188bd5b702"><path d="M 187 92 L 273.320312 92 L 273.320312 206.734375 L 187 206.734375 Z M 187 92 " clip-rule="nonzero"/></clipPath><clipPath id="c26ef43f1a"><path d="M 187 99 L 273.320312 99 L 273.320312 101 L 187 101 Z M 187 99 " clip-rule="nonzero"/></clipPath><clipPath id="45f8615ae7"><path d="M 33.777344 92 L 120 92 L 120 206.734375 L 33.777344 206.734375 Z M 33.777344 92 " clip-rule="nonzero"/></clipPath><clipPath id="394bce24eb"><path d="M 33.777344 99 L 120 99 L 120 101 L 33.777344 101 Z M 33.777344 99 " clip-rule="nonzero"/></clipPath><clipPath id="75c3bcbbd6"><path d="M 110 65.253906 L 197 65.253906 L 197 180 L 110 180 Z M 110 65.253906 " clip-rule="nonzero"/></clipPath></defs><g clip-path="url(#91132cd7c8)"><path fill="#0d5cde" d="M 110.699219 91.699219 L 189.300781 91.699219 L 189.300781 170.300781 L 110.699219 170.300781 Z M 110.699219 91.699219 " fill-opacity="1" fill-rule="nonzero"/></g><g clip-path="url(#188bd5b702)"><path fill="#86a3f4" d="M 269.511719 206.734375 L 191.265625 206.734375 C 189.210938 206.734375 187.542969 205.066406 187.542969 203.007812 L 187.542969 96.476562 C 187.542969 94.417969 189.210938 92.75 191.265625 92.75 L 269.511719 92.75 C 271.566406 92.75 273.234375 94.417969 273.234375 96.476562 L 273.234375 203.007812 C 273.234375 205.066406 271.566406 206.734375 269.511719 206.734375 Z M 269.511719 206.734375 " fill-opacity="1" fill-rule="nonzero"/></g><path fill="#7597f4" d="M 200.710938 182.785156 L 200.710938 92.839844 C 200.710938 92.789062 200.671875 92.75 200.621094 92.75 L 191.265625 92.75 C 189.210938 92.75 187.542969 94.417969 187.542969 96.472656 L 187.542969 185.867188 C 187.542969 185.917969 187.585938 185.960938 187.636719 185.960938 L 197.539062 185.960938 C 199.292969 185.960938 200.710938 184.539062 200.710938 182.785156 Z M 200.710938 182.785156 " fill-opacity="1" fill-rule="nonzero"/><g clip-path="url(#c26ef43f1a)"><path fill="#9ec0ff" d="M 187.542969 99.800781 L 273.234375 99.800781 L 273.234375 100.386719 L 187.542969 100.386719 Z M 187.542969 99.800781 " fill-opacity="1" fill-rule="nonzero"/></g><path fill="#ffc26e" d="M 215.167969 150.628906 L 216.679688 155.285156 L 221.570312 155.285156 L 217.613281 158.164062 L 219.125 162.820312 L 215.167969 159.941406 L 211.210938 162.820312 L 212.722656 158.164062 L 208.765625 155.285156 L 213.65625 155.285156 Z M 215.167969 150.628906 " fill-opacity="1" fill-rule="nonzero"/><path fill="#ffce73" d="M 212.722656 158.164062 L 212.269531 159.550781 C 216.359375 159.066406 217.84375 156.738281 218.378906 155.285156 L 216.679688 155.285156 L 215.167969 150.628906 L 213.65625 155.285156 L 208.765625 155.285156 Z M 212.722656 158.164062 " fill-opacity="1" fill-rule="nonzero"/><path fill="#ffc26e" d="M 230.390625 150.628906 L 231.898438 155.285156 L 236.792969 155.285156 L 232.835938 158.164062 L 234.347656 162.820312 L 230.390625 159.941406 L 226.433594 162.820312 L 227.945312 158.164062 L 223.988281 155.285156 L 228.878906 155.285156 Z M 230.390625 150.628906 " fill-opacity="1" fill-rule="nonzero"/><path fill="#ffce73" d="M 227.941406 158.164062 L 227.492188 159.550781 C 231.578125 159.066406 233.066406 156.738281 233.597656 155.285156 L 231.898438 155.285156 L 230.390625 150.628906 L 228.878906 155.285156 L 223.988281 155.285156 Z M 227.941406 158.164062 " fill-opacity="1" fill-rule="nonzero"/><path fill="#ffc26e" d="M 245.609375 150.628906 L 247.121094 155.285156 L 252.011719 155.285156 L 248.054688 158.164062 L 249.566406 162.820312 L 245.609375 159.941406 L 241.652344 162.820312 L 243.164062 158.164062 L 239.207031 155.285156 L 244.097656 155.285156 Z M 245.609375 150.628906 " fill-opacity="1" fill-rule="nonzero"/><path fill="#ffce73" d="M 243.164062 158.164062 L 242.714844 159.550781 C 246.800781 159.066406 248.289062 156.738281 248.820312 155.285156 L 247.121094 155.285156 L 245.609375 150.628906 L 244.097656 155.285156 L 239.207031 155.285156 Z M 243.164062 158.164062 " fill-opacity="1" fill-rule="nonzero"/><path fill="#ffc26e" d="M 260.832031 150.628906 L 262.34375 155.285156 L 267.234375 155.285156 L 263.277344 158.164062 L 264.789062 162.820312 L 260.832031 159.941406 L 256.875 162.820312 L 258.386719 158.164062 L 254.429688 155.285156 L 259.320312 155.285156 Z M 260.832031 150.628906 " fill-opacity="1" fill-rule="nonzero"/><path fill="#ffce73" d="M 258.386719 158.164062 L 257.9375 159.550781 C 262.023438 159.066406 263.511719 156.738281 264.042969 155.285156 L 262.34375 155.285156 L 260.832031 150.628906 L 259.320312 155.285156 L 254.429688 155.285156 Z M 258.386719 158.164062 " fill-opacity="1" fill-rule="nonzero"/><path fill="#ffc26e" d="M 199.945312 150.628906 L 201.457031 155.285156 L 206.347656 155.285156 L 202.390625 158.164062 L 203.902344 162.820312 L 199.945312 159.941406 L 195.988281 162.820312 L 197.5 158.164062 L 193.542969 155.285156 L 198.433594 155.285156 Z M 199.945312 150.628906 " fill-opacity="1" fill-rule="nonzero"/><path fill="#ffce73" d="M 197.5 158.164062 L 197.050781 159.550781 C 201.136719 159.066406 202.625 156.738281 203.15625 155.285156 L 201.457031 155.285156 L 199.945312 150.628906 L 198.433594 155.285156 L 193.542969 155.285156 Z M 197.5 158.164062 " fill-opacity="1" fill-rule="nonzero"/><path fill="#bfa89a" d="M 199.945312 159.941406 L 200.710938 160.5 L 200.710938 152.992188 L 199.945312 150.628906 L 198.433594 155.285156 L 193.542969 155.285156 L 197.5 158.164062 L 195.988281 162.820312 Z M 199.945312 159.941406 " fill-opacity="1" fill-rule="nonzero"/><path fill="#bfaf9d" d="M 200.710938 158.320312 L 200.710938 152.992188 L 199.945312 150.628906 L 198.433594 155.285156 L 193.542969 155.285156 L 197.5 158.164062 L 197.050781 159.550781 C 198.625 159.363281 199.816406 158.902344 200.710938 158.320312 Z M 200.710938 158.320312 " fill-opacity="1" fill-rule="nonzero"/><path fill="#6187ed" d="M 249.589844 171.484375 L 213.449219 171.484375 C 212.640625 171.484375 211.988281 170.828125 211.988281 170.023438 C 211.988281 169.214844 212.640625 168.5625 213.449219 168.5625 L 249.589844 168.5625 C 250.398438 168.5625 251.050781 169.214844 251.050781 170.023438 C 251.050781 170.828125 250.398438 171.484375 249.589844 171.484375 Z M 249.589844 171.484375 " fill-opacity="1" fill-rule="nonzero"/><path fill="#6187ed" d="M 244.453125 177.371094 L 218.585938 177.371094 C 217.78125 177.371094 217.128906 176.71875 217.128906 175.910156 C 217.128906 175.105469 217.78125 174.449219 218.585938 174.449219 L 244.453125 174.449219 C 245.257812 174.449219 245.914062 175.105469 245.914062 175.910156 C 245.914062 176.71875 245.257812 177.371094 244.453125 177.371094 Z M 244.453125 177.371094 " fill-opacity="1" fill-rule="nonzero"/><path fill="#9cbafa" d="M 198.351562 185.058594 C 198.351562 185.308594 198.300781 185.550781 198.207031 185.785156 C 198.109375 186.015625 197.972656 186.222656 197.792969 186.402344 C 197.617188 186.578125 197.410156 186.714844 197.179688 186.8125 C 196.945312 186.910156 196.703125 186.957031 196.453125 186.957031 C 196.199219 186.957031 195.957031 186.910156 195.726562 186.8125 C 195.492188 186.714844 195.289062 186.578125 195.109375 186.402344 C 194.933594 186.222656 194.796875 186.015625 194.699219 185.785156 C 194.601562 185.550781 194.554688 185.308594 194.554688 185.058594 C 194.554688 184.804688 194.601562 184.5625 194.699219 184.332031 C 194.796875 184.097656 194.933594 183.890625 195.109375 183.714844 C 195.289062 183.535156 195.492188 183.398438 195.726562 183.300781 C 195.957031 183.207031 196.199219 183.15625 196.453125 183.15625 C 196.703125 183.15625 196.945312 183.207031 197.179688 183.300781 C 197.410156 183.398438 197.617188 183.535156 197.792969 183.714844 C 197.972656 183.890625 198.109375 184.097656 198.207031 184.332031 C 198.300781 184.5625 198.351562 184.804688 198.351562 185.058594 Z M 198.351562 185.058594 " fill-opacity="1" fill-rule="nonzero"/><path fill="#86a3f4" d="M 196.453125 183.15625 C 195.40625 183.15625 194.554688 184.007812 194.554688 185.058594 C 194.554688 185.382812 194.636719 185.691406 194.78125 185.960938 L 197.632812 185.960938 C 197.804688 185.960938 197.976562 185.941406 198.144531 185.914062 C 198.273438 185.65625 198.351562 185.367188 198.351562 185.058594 C 198.351562 184.007812 197.5 183.15625 196.453125 183.15625 Z M 196.453125 183.15625 " fill-opacity="1" fill-rule="nonzero"/><path fill="#9cbafa" d="M 266.332031 185.933594 L 243.632812 185.933594 C 243.148438 185.933594 242.753906 185.542969 242.753906 185.058594 C 242.753906 184.574219 243.148438 184.179688 243.632812 184.179688 L 266.332031 184.179688 C 266.816406 184.179688 267.210938 184.574219 267.210938 185.058594 C 267.210938 185.542969 266.816406 185.933594 266.332031 185.933594 Z M 266.332031 185.933594 " fill-opacity="1" fill-rule="nonzero"/><path fill="#9cbafa" d="M 237.40625 185.933594 L 202.898438 185.933594 C 202.414062 185.933594 202.019531 185.542969 202.019531 185.058594 C 202.019531 184.574219 202.414062 184.179688 202.898438 184.179688 L 237.40625 184.179688 C 237.886719 184.179688 238.28125 184.574219 238.28125 185.058594 C 238.28125 185.542969 237.886719 185.933594 237.40625 185.933594 Z M 237.40625 185.933594 " fill-opacity="1" fill-rule="nonzero"/><path fill="#9cbafa" d="M 250.117188 189.878906 L 202.898438 189.878906 C 202.414062 189.878906 202.019531 189.484375 202.019531 189 C 202.019531 188.515625 202.414062 188.125 202.898438 188.125 L 250.117188 188.125 C 250.601562 188.125 250.992188 188.515625 250.992188 189 C 250.992188 189.484375 250.601562 189.878906 250.117188 189.878906 Z M 250.117188 189.878906 " fill-opacity="1" fill-rule="nonzero"/><path fill="#9cbafa" d="M 198.351562 195.597656 C 198.351562 195.847656 198.300781 196.089844 198.207031 196.324219 C 198.109375 196.558594 197.972656 196.761719 197.792969 196.941406 C 197.617188 197.117188 197.410156 197.253906 197.179688 197.351562 C 196.945312 197.449219 196.703125 197.496094 196.453125 197.496094 C 196.199219 197.496094 195.957031 197.449219 195.726562 197.351562 C 195.492188 197.253906 195.289062 197.117188 195.109375 196.941406 C 194.933594 196.761719 194.796875 196.558594 194.699219 196.324219 C 194.601562 196.089844 194.554688 195.847656 194.554688 195.597656 C 194.554688 195.34375 194.601562 195.101562 194.699219 194.871094 C 194.796875 194.636719 194.933594 194.433594 195.109375 194.253906 C 195.289062 194.074219 195.492188 193.9375 195.726562 193.84375 C 195.957031 193.746094 196.199219 193.699219 196.453125 193.699219 C 196.703125 193.699219 196.945312 193.746094 197.179688 193.84375 C 197.410156 193.9375 197.617188 194.074219 197.792969 194.253906 C 197.972656 194.433594 198.109375 194.636719 198.207031 194.871094 C 198.300781 195.101562 198.351562 195.34375 198.351562 195.597656 Z M 198.351562 195.597656 " fill-opacity="1" fill-rule="nonzero"/><path fill="#9cbafa" d="M 253.621094 196.472656 L 220.152344 196.472656 C 219.667969 196.472656 219.273438 196.082031 219.273438 195.597656 C 219.273438 195.113281 219.667969 194.71875 220.152344 194.71875 L 253.621094 194.71875 C 254.105469 194.71875 254.496094 195.113281 254.496094 195.597656 C 254.496094 196.082031 254.105469 196.472656 253.621094 196.472656 Z M 253.621094 196.472656 " fill-opacity="1" fill-rule="nonzero"/><path fill="#9cbafa" d="M 213.449219 196.472656 L 202.898438 196.472656 C 202.414062 196.472656 202.019531 196.082031 202.019531 195.597656 C 202.019531 195.113281 202.414062 194.71875 202.898438 194.71875 L 213.449219 194.71875 C 213.933594 194.71875 214.324219 195.113281 214.324219 195.597656 C 214.324219 196.082031 213.933594 196.472656 213.449219 196.472656 Z M 213.449219 196.472656 " fill-opacity="1" fill-rule="nonzero"/><path fill="#9ec0ff" d="M 252.425781 124.53125 C 252.425781 125.253906 252.390625 125.976562 252.320312 126.695312 C 252.25 127.414062 252.144531 128.128906 252.003906 128.835938 C 251.863281 129.546875 251.6875 130.246094 251.476562 130.9375 C 251.269531 131.628906 251.023438 132.308594 250.75 132.976562 C 250.472656 133.644531 250.164062 134.296875 249.824219 134.933594 C 249.484375 135.570312 249.113281 136.1875 248.710938 136.789062 C 248.3125 137.390625 247.882812 137.96875 247.425781 138.527344 C 246.964844 139.085938 246.480469 139.621094 245.972656 140.132812 C 245.460938 140.644531 244.925781 141.128906 244.371094 141.585938 C 243.8125 142.046875 243.230469 142.476562 242.632812 142.875 C 242.03125 143.277344 241.414062 143.648438 240.777344 143.988281 C 240.140625 144.328125 239.488281 144.636719 238.820312 144.914062 C 238.15625 145.191406 237.476562 145.433594 236.785156 145.644531 C 236.09375 145.855469 235.394531 146.03125 234.6875 146.171875 C 233.980469 146.3125 233.265625 146.417969 232.550781 146.488281 C 231.832031 146.558594 231.109375 146.59375 230.390625 146.59375 C 229.667969 146.59375 228.945312 146.558594 228.230469 146.488281 C 227.511719 146.417969 226.796875 146.3125 226.089844 146.171875 C 225.382812 146.03125 224.683594 145.855469 223.992188 145.644531 C 223.300781 145.433594 222.621094 145.191406 221.957031 144.914062 C 221.289062 144.636719 220.636719 144.328125 220 143.988281 C 219.363281 143.648438 218.746094 143.277344 218.144531 142.875 C 217.546875 142.476562 216.964844 142.046875 216.410156 141.585938 C 215.851562 141.128906 215.316406 140.644531 214.804688 140.132812 C 214.296875 139.621094 213.8125 139.085938 213.355469 138.527344 C 212.894531 137.96875 212.464844 137.390625 212.066406 136.789062 C 211.664062 136.1875 211.292969 135.570312 210.953125 134.933594 C 210.613281 134.296875 210.304688 133.644531 210.027344 132.976562 C 209.753906 132.308594 209.511719 131.628906 209.300781 130.9375 C 209.089844 130.246094 208.914062 129.546875 208.773438 128.835938 C 208.632812 128.128906 208.527344 127.414062 208.457031 126.695312 C 208.386719 125.976562 208.351562 125.253906 208.351562 124.53125 C 208.351562 123.808594 208.386719 123.089844 208.457031 122.371094 C 208.527344 121.652344 208.632812 120.9375 208.773438 120.230469 C 208.914062 119.519531 209.089844 118.820312 209.300781 118.128906 C 209.511719 117.4375 209.753906 116.757812 210.027344 116.089844 C 210.304688 115.421875 210.613281 114.769531 210.953125 114.132812 C 211.292969 113.496094 211.664062 112.875 212.066406 112.277344 C 212.464844 111.675781 212.894531 111.09375 213.355469 110.535156 C 213.8125 109.976562 214.296875 109.445312 214.804688 108.933594 C 215.316406 108.421875 215.851562 107.9375 216.410156 107.480469 C 216.964844 107.019531 217.546875 106.589844 218.144531 106.1875 C 218.746094 105.789062 219.363281 105.417969 220 105.074219 C 220.636719 104.734375 221.289062 104.425781 221.957031 104.148438 C 222.621094 103.875 223.300781 103.628906 223.992188 103.421875 C 224.683594 103.210938 225.382812 103.035156 226.089844 102.894531 C 226.796875 102.753906 227.511719 102.648438 228.230469 102.578125 C 228.945312 102.507812 229.667969 102.472656 230.390625 102.472656 C 231.109375 102.472656 231.832031 102.507812 232.550781 102.578125 C 233.265625 102.648438 233.980469 102.753906 234.6875 102.894531 C 235.394531 103.035156 236.09375 103.210938 236.785156 103.421875 C 237.476562 103.628906 238.15625 103.875 238.820312 104.148438 C 239.488281 104.425781 240.140625 104.734375 240.777344 105.074219 C 241.414062 105.417969 242.03125 105.789062 242.632812 106.1875 C 243.230469 106.589844 243.8125 107.019531 244.371094 107.480469 C 244.925781 107.9375 245.460938 108.421875 245.972656 108.933594 C 246.480469 109.445312 246.964844 109.976562 247.425781 110.535156 C 247.882812 111.09375 248.3125 111.675781 248.710938 112.277344 C 249.113281 112.875 249.484375 113.496094 249.824219 114.132812 C 250.164062 114.769531 250.472656 115.421875 250.75 116.089844 C 251.023438 116.757812 251.269531 117.4375 251.476562 118.128906 C 251.6875 118.820312 251.863281 119.519531 252.003906 120.230469 C 252.144531 120.9375 252.25 121.652344 252.320312 122.371094 C 252.390625 123.089844 252.425781 123.808594 252.425781 124.53125 Z M 252.425781 124.53125 " fill-opacity="1" fill-rule="nonzero"/><path fill="#9e5959" d="M 213.582031 138.800781 C 217.625 143.566406 223.652344 146.59375 230.390625 146.59375 C 237.148438 146.59375 243.195312 143.546875 247.238281 138.75 C 245.117188 138.375 240.835938 137.820312 238.417969 136.613281 C 234.539062 134.675781 230.558594 134.988281 230.558594 134.988281 C 230.558594 134.988281 226.304688 134.96875 222.703125 136.613281 C 220.121094 137.792969 215.558594 138.398438 213.582031 138.800781 Z M 213.582031 138.800781 " fill-opacity="1" fill-rule="nonzero"/><path fill="#9e5959" d="M 226.125 134.574219 C 226.195312 133.695312 226.292969 132.195312 226.3125 130.691406 C 226.34375 128.351562 227.054688 127.382812 227.054688 127.382812 C 227.675781 125.972656 229.082031 124.984375 230.722656 124.984375 C 232.359375 124.984375 233.769531 125.972656 234.390625 127.382812 C 234.390625 127.382812 235.101562 128.351562 235.132812 130.691406 C 235.148438 132.195312 235.25 133.695312 235.316406 134.574219 C 235.359375 134.828125 235.382812 135.089844 235.382812 135.355469 C 235.382812 137.933594 233.296875 140.023438 230.722656 140.023438 C 228.148438 140.023438 226.0625 137.933594 226.0625 135.355469 C 226.0625 135.089844 226.082031 134.828125 226.125 134.574219 Z M 226.125 134.574219 " fill-opacity="1" fill-rule="nonzero"/><path fill="#914d4d" d="M 230.722656 135.648438 C 230.722656 135.648438 228.4375 135.632812 226.199219 133.546875 C 226.25 132.726562 226.300781 131.707031 226.3125 130.691406 C 226.34375 128.351562 227.054688 127.382812 227.054688 127.382812 C 227.675781 125.972656 229.082031 124.984375 230.722656 124.984375 C 232.359375 124.984375 233.769531 125.972656 234.390625 127.382812 C 234.390625 127.382812 235.101562 128.351562 235.132812 130.691406 C 235.144531 131.753906 235.199219 132.8125 235.25 133.652344 C 233.007812 135.910156 230.722656 135.648438 230.722656 135.648438 Z M 230.722656 135.648438 " fill-opacity="1" fill-rule="nonzero"/><path fill="#9e5959" d="M 230.722656 109.046875 C 230.722656 109.046875 240.59375 109.039062 239.070312 121.980469 C 237.519531 135.160156 230.722656 134.359375 230.722656 134.359375 C 230.722656 134.359375 223.273438 134.308594 222.222656 121.726562 C 221.171875 109.148438 228.667969 109.046875 230.722656 109.046875 Z M 230.722656 109.046875 " fill-opacity="1" fill-rule="nonzero"/><path fill="#9e5959" d="M 239.136719 121.363281 C 239.136719 121.363281 240.144531 120.636719 240.324219 121.707031 C 240.5 122.78125 239.519531 125.976562 238.179688 125.953125 L 238.691406 121.707031 Z M 239.136719 121.363281 " fill-opacity="1" fill-rule="nonzero"/><path fill="#723333" d="M 239.847656 123.097656 C 239.839844 123.023438 239.769531 122.972656 239.695312 122.980469 C 239.539062 123 239.414062 123.050781 239.3125 123.113281 C 239.386719 122.863281 239.484375 122.621094 239.625 122.433594 C 239.671875 122.375 239.660156 122.289062 239.601562 122.246094 C 239.539062 122.199219 239.457031 122.210938 239.410156 122.269531 C 238.839844 123.023438 238.867188 124.464844 238.871094 124.527344 C 238.871094 124.601562 238.929688 124.660156 239.003906 124.660156 C 239.082031 124.65625 239.140625 124.597656 239.140625 124.519531 C 239.140625 124.515625 239.132812 124.140625 239.195312 123.683594 C 239.214844 123.628906 239.328125 123.296875 239.730469 123.25 C 239.804688 123.242188 239.855469 123.171875 239.847656 123.097656 Z M 239.847656 123.097656 " fill-opacity="1" fill-rule="nonzero"/><path fill="#9e5959" d="M 222.300781 121.40625 C 222.300781 121.40625 221.230469 120.636719 221.054688 121.707031 C 220.875 122.78125 221.644531 125.976562 223.011719 125.953125 Z M 222.300781 121.40625 " fill-opacity="1" fill-rule="nonzero"/><path fill="#723333" d="M 221.96875 122.269531 C 221.925781 122.210938 221.839844 122.199219 221.78125 122.246094 C 221.722656 122.289062 221.710938 122.375 221.753906 122.433594 C 221.894531 122.621094 221.996094 122.863281 222.066406 123.113281 C 221.964844 123.050781 221.839844 123 221.683594 122.980469 C 221.609375 122.972656 221.542969 123.023438 221.53125 123.097656 C 221.523438 123.171875 221.578125 123.242188 221.652344 123.25 C 222.050781 123.296875 222.167969 123.628906 222.183594 123.683594 C 222.246094 124.136719 222.242188 124.515625 222.242188 124.519531 C 222.238281 124.59375 222.296875 124.65625 222.371094 124.660156 C 222.449219 124.660156 222.507812 124.601562 222.511719 124.527344 C 222.511719 124.464844 222.539062 123.023438 221.96875 122.269531 Z M 221.96875 122.269531 " fill-opacity="1" fill-rule="nonzero"/><path fill="#142347" d="M 221.457031 121.152344 C 221.457031 121.152344 222.175781 121.402344 222.511719 122.21875 C 222.847656 123.03125 223.246094 123.25 223.3125 123.117188 C 223.378906 122.984375 222.585938 118.433594 224.003906 115.425781 C 224.003906 115.425781 225.886719 112.84375 230.449219 112.84375 C 235.007812 112.84375 237.355469 115.976562 237.652344 117.867188 C 237.949219 119.757812 237.949219 122.917969 238.046875 122.992188 C 238.148438 123.066406 238.617188 121.730469 239.132812 121.402344 C 239.5625 121.125 239.847656 121.152344 239.847656 121.152344 C 239.847656 121.152344 239.996094 115.523438 238.511719 113.242188 C 237.023438 110.957031 233.886719 108.675781 230.613281 108.675781 C 227.34375 108.675781 223.671875 110.925781 222.019531 113.738281 C 221.457031 114.863281 221.078125 117.238281 221.457031 121.152344 Z M 221.457031 121.152344 " fill-opacity="1" fill-rule="nonzero"/><path fill="#192b4f" d="M 223.144531 111.191406 C 223.144531 111.191406 221.921875 112.3125 221.824219 113.140625 C 221.726562 113.96875 222.648438 114.398438 222.648438 114.398438 C 222.648438 114.398438 223.078125 115.425781 224.003906 115.425781 C 224.003906 115.425781 224.878906 116.210938 226.0625 115.835938 C 226.0625 115.835938 227.414062 116.878906 228.78125 116.21875 C 228.78125 116.21875 229.554688 116.714844 230.675781 116.25 C 230.675781 116.25 232.324219 116.546875 232.941406 115.953125 C 232.941406 115.953125 234.015625 116.3125 234.613281 115.835938 C 234.613281 115.835938 236.085938 116.335938 236.671875 115.730469 C 236.671875 115.730469 237.933594 115.847656 238.179688 115.191406 C 238.179688 115.191406 239.289062 114.496094 239.230469 113.820312 C 239.171875 113.140625 238.785156 111.871094 237.980469 111.753906 C 237.980469 111.753906 237.550781 110.628906 236.824219 110.460938 C 236.824219 110.460938 236.199219 109.667969 235.601562 109.570312 C 235.601562 109.570312 235.085938 108.875 234.402344 108.808594 C 234.402344 108.808594 233.917969 108.082031 232.792969 108.144531 C 232.792969 108.144531 232.464844 107.980469 232.046875 108.046875 C 232.046875 108.046875 230.921875 107.375 230.277344 108.046875 C 230.277344 108.046875 228.597656 107.78125 228.035156 108.410156 C 228.035156 108.410156 226.671875 108.3125 226.199219 108.941406 C 226.199219 108.941406 224.761719 109.203125 224.417969 109.832031 C 224.417969 109.832031 223.089844 110.214844 223.144531 111.191406 Z M 223.144531 111.191406 " fill-opacity="1" fill-rule="nonzero"/><path fill="#ffffff" d="M 239.300781 136.707031 C 237.636719 135.867188 237.636719 135.867188 237.636719 135.867188 L 235.445312 135.515625 C 235.445312 135.515625 234.8125 137.933594 230.789062 137.933594 C 226.765625 137.933594 226.0625 135.289062 226.0625 135.289062 L 224.335938 135.515625 C 224.335938 135.515625 223.398438 136.011719 221.316406 136.902344 C 219.234375 137.792969 216.007812 138.164062 216.007812 138.164062 C 216.007812 138.164062 214.613281 138.097656 213.328125 138.496094 C 217.371094 143.4375 223.511719 146.59375 230.390625 146.59375 C 237.328125 146.59375 243.519531 143.378906 247.558594 138.359375 C 245.761719 137.859375 240.785156 137.453125 239.300781 136.707031 Z M 239.300781 136.707031 " fill-opacity="1" fill-rule="nonzero"/><path fill="#efefef" d="M 230.964844 138.125 C 233.125 138.097656 233.636719 143.839844 233.636719 143.839844 C 233.636719 143.839844 237.902344 141.292969 237.636719 135.867188 L 235.445312 135.515625 C 235.445312 135.515625 234.8125 137.933594 230.789062 137.933594 C 226.765625 137.933594 226.0625 135.289062 226.0625 135.289062 L 224.335938 135.515625 C 224.335938 135.515625 224.207031 135.582031 223.945312 135.710938 C 223.992188 136.289062 224.527344 141.238281 228.085938 143.839844 C 228.085938 143.839844 228.808594 138.148438 230.964844 138.125 Z M 230.964844 138.125 " fill-opacity="1" fill-rule="nonzero"/><path fill="#efefef" d="M 232.128906 137.832031 C 231.730469 137.898438 231.285156 137.933594 230.789062 137.933594 C 230.433594 137.933594 230.105469 137.914062 229.804688 137.875 C 230.027344 138.328125 230.234375 138.941406 231.011719 138.941406 C 231.769531 138.941406 231.929688 138.316406 232.128906 137.832031 Z M 232.128906 137.832031 " fill-opacity="1" fill-rule="nonzero"/><path fill="#efefef" d="M 231.011719 145.089844 C 230.949219 145.089844 230.898438 145.042969 230.898438 144.980469 L 230.898438 138.941406 C 230.898438 138.882812 230.949219 138.832031 231.011719 138.832031 C 231.070312 138.832031 231.121094 138.882812 231.121094 138.941406 L 231.121094 144.980469 C 231.121094 145.042969 231.070312 145.089844 231.011719 145.089844 Z M 231.011719 145.089844 " fill-opacity="1" fill-rule="nonzero"/><path fill="#eddfde" d="M 230.742188 142.167969 C 223.839844 142.167969 221.25 137.164062 221.25 137.164062 C 221.25 137.164062 219.753906 137.160156 219.183594 137.164062 C 218.609375 137.167969 215.433594 137.785156 213.980469 138.070312 C 213.707031 138.125 213.433594 138.195312 213.160156 138.289062 C 217.199219 143.351562 223.414062 146.59375 230.390625 146.59375 C 237.457031 146.59375 243.746094 143.265625 247.777344 138.085938 C 245.828125 137.707031 241.535156 137.246094 239.753906 137.160156 C 239.753906 137.160156 237.640625 142.167969 230.742188 142.167969 Z M 230.742188 142.167969 " fill-opacity="1" fill-rule="nonzero"/><path fill="#e8d0cf" d="M 230.480469 144.335938 C 239.046875 144.335938 241.972656 139.421875 242.8125 137.417969 C 241.59375 137.289062 240.46875 137.195312 239.753906 137.160156 C 239.753906 137.160156 237.644531 142.167969 230.742188 142.167969 C 223.839844 142.167969 221.25 137.164062 221.25 137.164062 C 221.25 137.164062 219.753906 137.160156 219.179688 137.164062 C 218.996094 137.164062 218.542969 137.230469 217.96875 137.324219 C 218.488281 138.761719 221.105469 144.335938 230.480469 144.335938 Z M 230.480469 144.335938 " fill-opacity="1" fill-rule="nonzero"/><path fill="#eddfde" d="M 222.085938 136.894531 C 222.085938 136.894531 221.886719 136.59375 221.488281 136.578125 C 221.09375 136.5625 219.277344 136.8125 219.027344 137.007812 C 218.78125 137.207031 219.65625 138.582031 220.464844 139.621094 C 221.273438 140.664062 223.703125 143.742188 231.21875 143.742188 C 238.738281 143.742188 242.207031 137.6875 242.238281 137.257812 C 242.273438 136.828125 239.8125 136.359375 239.300781 136.707031 C 238.628906 137.15625 236.804688 141.226562 230.90625 141.226562 C 225.007812 141.226562 222.648438 137.6875 222.085938 136.894531 Z M 222.085938 136.894531 " fill-opacity="1" fill-rule="nonzero"/><path fill="#ffffff" d="M 237.617188 135.65625 C 236.757812 134.511719 235.289062 134.207031 235.289062 134.207031 L 235.332031 134.96875 C 235.332031 134.96875 233.488281 137.785156 230.742188 137.785156 C 227.996094 137.785156 226.078125 134.96875 226.078125 134.96875 L 226.152344 134.214844 C 226.152344 134.214844 224.699219 134.453125 223.9375 135.65625 C 223.9375 135.65625 224.085938 139.054688 227.96875 142.25 C 227.96875 142.25 228.292969 138.117188 230.742188 138.117188 C 233.742188 138.117188 234.289062 142.25 234.289062 142.25 C 234.289062 142.25 236.050781 140.515625 237.058594 138.234375 C 237.792969 136.566406 237.617188 135.65625 237.617188 135.65625 Z M 237.617188 135.65625 " fill-opacity="1" fill-rule="nonzero"/><g clip-path="url(#45f8615ae7)"><path fill="#86a3f4" d="M 115.832031 206.734375 L 37.589844 206.734375 C 35.53125 206.734375 33.863281 205.066406 33.863281 203.007812 L 33.863281 96.476562 C 33.863281 94.417969 35.53125 92.75 37.589844 92.75 L 115.832031 92.75 C 117.886719 92.75 119.554688 94.417969 119.554688 96.476562 L 119.554688 203.007812 C 119.554688 205.066406 117.886719 206.734375 115.832031 206.734375 Z M 115.832031 206.734375 " fill-opacity="1" fill-rule="nonzero"/></g><path fill="#7597f4" d="M 109.996094 185.960938 L 119.554688 185.960938 L 119.554688 96.476562 C 119.554688 94.417969 117.886719 92.75 115.832031 92.75 L 106.273438 92.75 L 106.273438 182.234375 C 106.273438 184.292969 107.9375 185.960938 109.996094 185.960938 Z M 109.996094 185.960938 " fill-opacity="1" fill-rule="nonzero"/><g clip-path="url(#394bce24eb)"><path fill="#9ec0ff" d="M 33.863281 99.800781 L 119.554688 99.800781 L 119.554688 100.386719 L 33.863281 100.386719 Z M 33.863281 99.800781 " fill-opacity="1" fill-rule="nonzero"/></g><path fill="#6187ed" d="M 95.914062 171.484375 L 59.769531 171.484375 C 58.964844 171.484375 58.308594 170.828125 58.308594 170.023438 C 58.308594 169.214844 58.964844 168.5625 59.769531 168.5625 L 95.914062 168.5625 C 96.71875 168.5625 97.371094 169.214844 97.371094 170.023438 C 97.371094 170.828125 96.71875 171.484375 95.914062 171.484375 Z M 95.914062 171.484375 " fill-opacity="1" fill-rule="nonzero"/><path fill="#6187ed" d="M 90.773438 177.371094 L 64.90625 177.371094 C 64.101562 177.371094 63.449219 176.71875 63.449219 175.910156 C 63.449219 175.105469 64.101562 174.449219 64.90625 174.449219 L 90.773438 174.449219 C 91.582031 174.449219 92.234375 175.105469 92.234375 175.910156 C 92.234375 176.71875 91.582031 177.371094 90.773438 177.371094 Z M 90.773438 177.371094 " fill-opacity="1" fill-rule="nonzero"/><path fill="#9ec0ff" d="M 98.746094 124.53125 C 98.746094 125.253906 98.710938 125.976562 98.640625 126.695312 C 98.570312 127.414062 98.464844 128.128906 98.324219 128.835938 C 98.183594 129.546875 98.007812 130.246094 97.796875 130.9375 C 97.589844 131.628906 97.347656 132.308594 97.070312 132.976562 C 96.792969 133.644531 96.484375 134.296875 96.144531 134.933594 C 95.804688 135.570312 95.433594 136.1875 95.035156 136.789062 C 94.632812 137.390625 94.203125 137.96875 93.746094 138.527344 C 93.289062 139.085938 92.804688 139.621094 92.292969 140.132812 C 91.78125 140.644531 91.25 141.128906 90.691406 141.585938 C 90.132812 142.046875 89.554688 142.476562 88.953125 142.875 C 88.351562 143.277344 87.734375 143.648438 87.097656 143.988281 C 86.460938 144.328125 85.808594 144.636719 85.144531 144.914062 C 84.476562 145.191406 83.796875 145.433594 83.105469 145.644531 C 82.417969 145.855469 81.71875 146.03125 81.007812 146.171875 C 80.300781 146.3125 79.589844 146.417969 78.871094 146.488281 C 78.152344 146.558594 77.433594 146.59375 76.710938 146.59375 C 75.988281 146.59375 75.269531 146.558594 74.550781 146.488281 C 73.832031 146.417969 73.117188 146.3125 72.410156 146.171875 C 71.703125 146.03125 71.003906 145.855469 70.3125 145.644531 C 69.621094 145.433594 68.945312 145.191406 68.277344 144.914062 C 67.609375 144.636719 66.957031 144.328125 66.320312 143.988281 C 65.683594 143.648438 65.066406 143.277344 64.46875 142.875 C 63.867188 142.476562 63.289062 142.046875 62.730469 141.585938 C 62.171875 141.128906 61.636719 140.644531 61.128906 140.132812 C 60.617188 139.621094 60.132812 139.085938 59.675781 138.527344 C 59.21875 137.96875 58.789062 137.390625 58.386719 136.789062 C 57.984375 136.1875 57.617188 135.570312 57.273438 134.933594 C 56.933594 134.296875 56.625 133.644531 56.351562 132.976562 C 56.074219 132.308594 55.832031 131.628906 55.621094 130.9375 C 55.414062 130.246094 55.238281 129.546875 55.097656 128.835938 C 54.957031 128.128906 54.851562 127.414062 54.777344 126.695312 C 54.707031 125.976562 54.671875 125.253906 54.671875 124.53125 C 54.671875 123.808594 54.707031 123.089844 54.777344 122.371094 C 54.851562 121.652344 54.957031 120.9375 55.097656 120.230469 C 55.238281 119.519531 55.414062 118.820312 55.621094 118.128906 C 55.832031 117.4375 56.074219 116.757812 56.351562 116.089844 C 56.625 115.421875 56.933594 114.769531 57.273438 114.132812 C 57.617188 113.496094 57.984375 112.875 58.386719 112.277344 C 58.789062 111.675781 59.21875 111.09375 59.675781 110.535156 C 60.132812 109.976562 60.617188 109.445312 61.128906 108.933594 C 61.636719 108.421875 62.171875 107.9375 62.730469 107.480469 C 63.289062 107.019531 63.867188 106.589844 64.46875 106.1875 C 65.066406 105.789062 65.683594 105.417969 66.320312 105.074219 C 66.957031 104.734375 67.609375 104.425781 68.277344 104.148438 C 68.945312 103.875 69.621094 103.628906 70.3125 103.421875 C 71.003906 103.210938 71.703125 103.035156 72.410156 102.894531 C 73.117188 102.753906 73.832031 102.648438 74.550781 102.578125 C 75.269531 102.507812 75.988281 102.472656 76.710938 102.472656 C 77.433594 102.472656 78.152344 102.507812 78.871094 102.578125 C 79.589844 102.648438 80.300781 102.753906 81.007812 102.894531 C 81.71875 103.035156 82.417969 103.210938 83.105469 103.421875 C 83.796875 103.628906 84.476562 103.875 85.144531 104.148438 C 85.808594 104.425781 86.460938 104.734375 87.097656 105.074219 C 87.734375 105.417969 88.351562 105.789062 88.953125 106.1875 C 89.554688 106.589844 90.132812 107.019531 90.691406 107.480469 C 91.25 107.9375 91.78125 108.421875 92.292969 108.933594 C 92.804688 109.445312 93.289062 109.976562 93.746094 110.535156 C 94.203125 111.09375 94.632812 111.675781 95.035156 112.277344 C 95.433594 112.875 95.804688 113.496094 96.144531 114.132812 C 96.484375 114.769531 96.792969 115.421875 97.070312 116.089844 C 97.347656 116.757812 97.589844 117.4375 97.796875 118.128906 C 98.007812 118.820312 98.183594 119.519531 98.324219 120.230469 C 98.464844 120.9375 98.570312 121.652344 98.640625 122.371094 C 98.710938 123.089844 98.746094 123.808594 98.746094 124.53125 Z M 98.746094 124.53125 " fill-opacity="1" fill-rule="nonzero"/><path fill="#f9c4b9" d="M 91.804688 137.605469 C 91.222656 137.402344 91.128906 137.246094 90.652344 137.148438 C 86.542969 136.296875 84.390625 135.707031 82.355469 135.367188 C 81.015625 135.144531 79.730469 135.035156 77.980469 135.035156 C 76.417969 135.035156 75.0625 134.625 72.867188 135.367188 C 71.324219 135.882812 69.230469 137.382812 66.925781 138.210938 C 65.898438 138.582031 64.632812 138.5 63.34375 139.0625 C 62.828125 139.285156 62.554688 140.246094 62.539062 141.429688 C 66.371094 144.652344 71.3125 146.59375 76.710938 146.59375 C 83.058594 146.59375 88.777344 143.90625 92.796875 139.609375 C 92.628906 138.570312 92.273438 137.765625 91.804688 137.605469 Z M 91.804688 137.605469 " fill-opacity="1" fill-rule="nonzero"/><path fill="#f9c4b9" d="M 81.882812 135.21875 L 81.40625 129.417969 C 81.320312 124.40625 73.867188 124.402344 73.78125 129.417969 C 73.746094 129.796875 73.25 135.773438 73.242188 135.929688 C 73.417969 142.125 82.722656 141.359375 81.882812 135.21875 Z M 81.882812 135.21875 " fill-opacity="1" fill-rule="nonzero"/><path fill="#e8ab9e" d="M 77.59375 134.6875 C 78.027344 134.660156 79.804688 134.496094 81.691406 132.867188 C 81.460938 129.851562 81.710938 125.71875 77.59375 125.605469 C 73.476562 125.714844 73.722656 129.855469 73.496094 132.867188 C 75.378906 134.496094 77.160156 134.660156 77.59375 134.6875 Z M 77.59375 134.6875 " fill-opacity="1" fill-rule="nonzero"/><path fill="#121d3f" d="M 77.652344 129.382812 C 83.015625 129.953125 85.765625 128.496094 85.765625 128.496094 C 85.859375 128.652344 85.828125 129.25 85.828125 129.25 C 86.609375 129.15625 87.359375 128.308594 87.359375 128.308594 L 87.484375 129.25 C 87.484375 129.25 89.332031 128.496094 89.769531 127.179688 C 90.207031 125.867188 89.957031 124.265625 89.113281 122.355469 C 88.269531 120.445312 88.644531 115.964844 85.984375 111.453125 C 83.324219 106.941406 77.652344 107.816406 77.652344 107.816406 C 77.652344 107.816406 71.984375 106.941406 69.324219 111.453125 C 66.664062 115.964844 67.039062 120.445312 66.195312 122.355469 C 65.347656 124.265625 65.097656 125.863281 65.535156 127.179688 C 65.976562 128.496094 67.820312 129.25 67.820312 129.25 L 67.945312 128.308594 C 67.945312 128.308594 68.699219 129.15625 69.480469 129.25 C 69.480469 129.25 69.449219 128.652344 69.542969 128.496094 C 69.542969 128.496094 72.289062 129.953125 77.652344 129.382812 Z M 77.652344 129.382812 " fill-opacity="1" fill-rule="nonzero"/><path fill="#f9c4b9" d="M 77.648438 108.621094 C 77.648438 108.621094 87.820312 107.945312 86.414062 120.527344 C 85.003906 133.105469 78.523438 133.726562 77.648438 133.785156 C 76.777344 133.726562 70.296875 133.105469 68.886719 120.527344 C 67.476562 107.945312 77.648438 108.621094 77.648438 108.621094 Z M 77.648438 108.621094 " fill-opacity="1" fill-rule="nonzero"/><path fill="#121d3f" d="M 84.464844 119.027344 C 84.867188 119.71875 84.972656 121.160156 84.910156 121.941406 C 84.847656 122.726562 84.941406 123.757812 85.035156 123.816406 C 85.128906 123.871094 87.101562 121.847656 87.101562 121.847656 L 87.101562 119.9375 C 87.101562 119.9375 88.320312 108.429688 77.398438 108.429688 C 66.695312 108.429688 67.945312 120.75 68.171875 121.65625 C 68.398438 122.5625 70.105469 124.136719 70.074219 123.757812 C 70.042969 123.382812 69.847656 119.371094 70.074219 119.246094 C 71.394531 119.246094 72.984375 118.742188 72.984375 118.742188 C 72.984375 117.234375 73.457031 116.207031 73.457031 116.207031 C 73.425781 116.960938 73.644531 118.589844 73.644531 118.589844 C 74.675781 118.933594 76.367188 118.589844 76.367188 118.589844 C 76.148438 114.796875 78.117188 113.199219 78.117188 113.199219 C 78.117188 113.199219 79.246094 115.070312 79.328125 118.433594 L 79.765625 118.453125 C 79.765625 118.453125 79.933594 115.925781 79.726562 114.171875 C 79.726562 114.171875 81.394531 116.175781 81.25 118.890625 C 81.25 118.890625 81.769531 119.0625 82.667969 119.101562 C 83.5625 119.136719 84.464844 119.027344 84.464844 119.027344 Z M 84.464844 119.027344 " fill-opacity="1" fill-rule="nonzero"/><path fill="#f9c4b9" d="M 85.03125 121.863281 C 85.03125 121.863281 85.855469 120.425781 86.976562 120.785156 C 87.933594 121.09375 87.574219 124.710938 85.894531 126.371094 C 84.121094 128.121094 84.207031 123.929688 85.03125 121.863281 Z M 85.03125 121.863281 " fill-opacity="1" fill-rule="nonzero"/><path fill="#e29888" d="M 86.710938 122.066406 C 86.683594 121.972656 86.585938 121.921875 86.496094 121.949219 C 85.476562 122.257812 85.3125 124.699219 85.296875 124.976562 C 85.292969 125.070312 85.367188 125.148438 85.460938 125.15625 C 85.464844 125.15625 85.464844 125.15625 85.46875 125.15625 C 85.558594 125.15625 85.636719 125.085938 85.640625 124.992188 C 85.652344 124.757812 85.679688 124.488281 85.726562 124.210938 C 85.875 123.980469 86.167969 123.625 86.375 123.570312 C 86.46875 123.542969 86.519531 123.449219 86.496094 123.359375 C 86.472656 123.269531 86.378906 123.214844 86.289062 123.238281 C 86.144531 123.277344 86 123.378906 85.871094 123.496094 C 86.03125 122.894531 86.269531 122.375 86.597656 122.277344 C 86.6875 122.25 86.738281 122.15625 86.710938 122.066406 Z M 86.710938 122.066406 " fill-opacity="1" fill-rule="nonzero"/><path fill="#f9c4b9" d="M 70.117188 121.863281 C 70.117188 121.863281 69.289062 120.425781 68.171875 120.785156 C 67.214844 121.09375 67.570312 124.710938 69.25 126.371094 C 71.023438 128.121094 70.941406 123.929688 70.117188 121.863281 Z M 70.117188 121.863281 " fill-opacity="1" fill-rule="nonzero"/><path fill="#e29888" d="M 69.847656 124.976562 C 69.832031 124.699219 69.671875 122.257812 68.648438 121.949219 C 68.558594 121.921875 68.464844 121.972656 68.4375 122.066406 C 68.410156 122.15625 68.460938 122.25 68.550781 122.277344 C 68.878906 122.375 69.117188 122.894531 69.277344 123.496094 C 69.148438 123.378906 69.003906 123.277344 68.859375 123.238281 C 68.765625 123.214844 68.671875 123.269531 68.648438 123.359375 C 68.625 123.449219 68.679688 123.542969 68.773438 123.570312 C 68.980469 123.625 69.273438 123.980469 69.421875 124.210938 C 69.464844 124.488281 69.492188 124.757812 69.507812 124.992188 C 69.511719 125.085938 69.585938 125.15625 69.675781 125.15625 C 69.679688 125.15625 69.683594 125.15625 69.6875 125.15625 C 69.78125 125.148438 69.855469 125.070312 69.847656 124.976562 Z M 69.847656 124.976562 " fill-opacity="1" fill-rule="nonzero"/><path fill="#efefef" d="M 91.265625 137 C 90.683594 136.796875 90.234375 136.691406 89.753906 136.59375 C 85.796875 135.773438 84.144531 135.496094 82.167969 135.15625 C 82.050781 135.136719 81.949219 135.222656 81.945312 135.335938 C 81.921875 136.363281 80.109375 139.238281 77.214844 139.238281 C 74.1875 139.238281 73.496094 136.570312 73.136719 135.242188 C 73.125 135.191406 73.070312 135.164062 73.023438 135.179688 C 71.5 135.683594 65.253906 136.535156 63.5625 136.953125 C 62.640625 137.40625 62.351562 139.375 62.476562 141.371094 C 66.316406 144.628906 71.28125 146.59375 76.710938 146.59375 C 83.15625 146.59375 88.953125 143.824219 92.984375 139.40625 C 92.558594 138.144531 91.832031 137.195312 91.265625 137 Z M 91.265625 137 " fill-opacity="1" fill-rule="nonzero"/><path fill="#efefef" d="M 93.867188 138.375 C 92.859375 137.324219 91.515625 136.890625 90.136719 136.949219 C 89.128906 136.988281 88.101562 137.300781 87.171875 137.816406 C 84.570312 139.175781 83.59375 142.507812 84.855469 145.039062 C 88.410156 143.621094 91.503906 141.308594 93.867188 138.375 Z M 93.867188 138.375 " fill-opacity="1" fill-rule="nonzero"/><path fill="#efefef" d="M 66.539062 137.449219 C 66.445312 137.425781 66.351562 137.402344 66.253906 137.378906 C 64.511719 136.945312 62.5 136.679688 61.105469 137.890625 C 60.90625 138.066406 60.546875 138.53125 60.160156 139.097656 C 62.699219 141.988281 65.984375 144.210938 69.71875 145.460938 C 69.878906 145.085938 70.015625 144.753906 70.113281 144.472656 C 70.792969 142.800781 70.640625 140.867188 69.683594 139.332031 C 68.949219 138.054688 67.816406 137.78125 66.539062 137.449219 Z M 66.539062 137.449219 " fill-opacity="1" fill-rule="nonzero"/><path fill="#9cbafa" d="M 44.792969 195.597656 C 44.792969 195.847656 44.746094 196.089844 44.648438 196.324219 C 44.554688 196.558594 44.417969 196.761719 44.238281 196.941406 C 44.058594 197.117188 43.855469 197.253906 43.621094 197.351562 C 43.390625 197.449219 43.148438 197.496094 42.898438 197.496094 C 42.644531 197.496094 42.402344 197.449219 42.171875 197.351562 C 41.9375 197.253906 41.734375 197.117188 41.554688 196.941406 C 41.378906 196.761719 41.238281 196.558594 41.144531 196.324219 C 41.046875 196.089844 41 195.847656 41 195.597656 C 41 195.34375 41.046875 195.101562 41.144531 194.871094 C 41.238281 194.636719 41.378906 194.433594 41.554688 194.253906 C 41.734375 194.074219 41.9375 193.9375 42.171875 193.84375 C 42.402344 193.746094 42.644531 193.699219 42.898438 193.699219 C 43.148438 193.699219 43.390625 193.746094 43.621094 193.84375 C 43.855469 193.9375 44.058594 194.074219 44.238281 194.253906 C 44.417969 194.433594 44.554688 194.636719 44.648438 194.871094 C 44.746094 195.101562 44.792969 195.34375 44.792969 195.597656 Z M 44.792969 195.597656 " fill-opacity="1" fill-rule="nonzero"/><path fill="#9cbafa" d="M 99.941406 196.472656 L 66.472656 196.472656 C 65.988281 196.472656 65.597656 196.082031 65.597656 195.597656 C 65.597656 195.113281 65.988281 194.71875 66.472656 194.71875 L 99.941406 194.71875 C 100.425781 194.71875 100.816406 195.113281 100.816406 195.597656 C 100.816406 196.082031 100.425781 196.472656 99.941406 196.472656 Z M 99.941406 196.472656 " fill-opacity="1" fill-rule="nonzero"/><path fill="#9cbafa" d="M 59.890625 196.472656 L 49.339844 196.472656 C 48.859375 196.472656 48.464844 196.082031 48.464844 195.597656 C 48.464844 195.113281 48.859375 194.71875 49.339844 194.71875 L 59.890625 194.71875 C 60.375 194.71875 60.769531 195.113281 60.769531 195.597656 C 60.769531 196.082031 60.375 196.472656 59.890625 196.472656 Z M 59.890625 196.472656 " fill-opacity="1" fill-rule="nonzero"/><path fill="#9cbafa" d="M 44.792969 185.058594 C 44.792969 185.308594 44.746094 185.550781 44.648438 185.785156 C 44.554688 186.015625 44.417969 186.222656 44.238281 186.402344 C 44.058594 186.578125 43.855469 186.714844 43.621094 186.8125 C 43.390625 186.910156 43.148438 186.957031 42.898438 186.957031 C 42.644531 186.957031 42.402344 186.910156 42.171875 186.8125 C 41.9375 186.714844 41.734375 186.578125 41.554688 186.402344 C 41.378906 186.222656 41.238281 186.015625 41.144531 185.785156 C 41.046875 185.550781 41 185.308594 41 185.058594 C 41 184.804688 41.046875 184.5625 41.144531 184.332031 C 41.238281 184.097656 41.378906 183.890625 41.554688 183.714844 C 41.734375 183.535156 41.9375 183.398438 42.171875 183.300781 C 42.402344 183.207031 42.644531 183.15625 42.898438 183.15625 C 43.148438 183.15625 43.390625 183.207031 43.621094 183.300781 C 43.855469 183.398438 44.058594 183.535156 44.238281 183.714844 C 44.417969 183.890625 44.554688 184.097656 44.648438 184.332031 C 44.746094 184.5625 44.792969 184.804688 44.792969 185.058594 Z M 44.792969 185.058594 " fill-opacity="1" fill-rule="nonzero"/><path fill="#9cbafa" d="M 83.726562 185.933594 L 49.21875 185.933594 C 48.734375 185.933594 48.34375 185.542969 48.34375 185.058594 C 48.34375 184.574219 48.734375 184.179688 49.21875 184.179688 L 83.726562 184.179688 C 84.210938 184.179688 84.601562 184.574219 84.601562 185.058594 C 84.601562 185.542969 84.210938 185.933594 83.726562 185.933594 Z M 83.726562 185.933594 " fill-opacity="1" fill-rule="nonzero"/><path fill="#9cbafa" d="M 96.4375 189.878906 L 49.21875 189.878906 C 48.734375 189.878906 48.34375 189.484375 48.34375 189 C 48.34375 188.515625 48.734375 188.125 49.21875 188.125 L 96.4375 188.125 C 96.921875 188.125 97.316406 188.515625 97.316406 189 C 97.316406 189.484375 96.921875 189.878906 96.4375 189.878906 Z M 96.4375 189.878906 " fill-opacity="1" fill-rule="nonzero"/><path fill="#9cbafa" d="M 112.65625 185.933594 L 89.953125 185.933594 C 89.46875 185.933594 89.078125 185.542969 89.078125 185.058594 C 89.078125 184.574219 89.46875 184.179688 89.953125 184.179688 L 112.65625 184.179688 C 113.140625 184.179688 113.53125 184.574219 113.53125 185.058594 C 113.53125 185.542969 113.140625 185.933594 112.65625 185.933594 Z M 112.65625 185.933594 " fill-opacity="1" fill-rule="nonzero"/><path fill="#86a3f4" d="M 112.65625 184.179688 L 106.5625 184.179688 C 107.003906 185.121094 107.902344 185.800781 108.96875 185.933594 L 112.65625 185.933594 C 113.140625 185.933594 113.53125 185.542969 113.53125 185.058594 C 113.53125 184.574219 113.140625 184.179688 112.65625 184.179688 Z M 112.65625 184.179688 " fill-opacity="1" fill-rule="nonzero"/><path fill="#ffc26e" d="M 46.265625 150.628906 L 47.777344 155.285156 L 52.667969 155.285156 L 48.710938 158.164062 L 50.222656 162.820312 L 46.265625 159.941406 L 42.308594 162.820312 L 43.820312 158.164062 L 39.863281 155.285156 L 44.753906 155.285156 Z M 46.265625 150.628906 " fill-opacity="1" fill-rule="nonzero"/><path fill="#ffce73" d="M 43.820312 158.164062 L 43.371094 159.550781 C 47.457031 159.066406 48.945312 156.738281 49.476562 155.285156 L 47.777344 155.285156 L 46.265625 150.628906 L 44.753906 155.285156 L 39.863281 155.285156 Z M 43.820312 158.164062 " fill-opacity="1" fill-rule="nonzero"/><path fill="#ffc26e" d="M 61.488281 150.628906 L 63 155.285156 L 67.890625 155.285156 L 63.933594 158.164062 L 65.445312 162.820312 L 61.488281 159.941406 L 57.53125 162.820312 L 59.042969 158.164062 L 55.085938 155.285156 L 59.976562 155.285156 Z M 61.488281 150.628906 " fill-opacity="1" fill-rule="nonzero"/><path fill="#ffce73" d="M 59.042969 158.164062 L 58.59375 159.550781 C 62.679688 159.066406 64.167969 156.738281 64.699219 155.285156 L 63 155.285156 L 61.488281 150.628906 L 59.976562 155.285156 L 55.085938 155.285156 Z M 59.042969 158.164062 " fill-opacity="1" fill-rule="nonzero"/><path fill="#ffc26e" d="M 76.710938 150.628906 L 78.222656 155.285156 L 83.113281 155.285156 L 79.15625 158.164062 L 80.667969 162.820312 L 76.710938 159.941406 L 72.753906 162.820312 L 74.265625 158.164062 L 70.308594 155.285156 L 75.199219 155.285156 Z M 76.710938 150.628906 " fill-opacity="1" fill-rule="nonzero"/><path fill="#ffce73" d="M 74.265625 158.164062 L 73.8125 159.550781 C 77.902344 159.066406 79.386719 156.738281 79.921875 155.285156 L 78.222656 155.285156 L 76.710938 150.628906 L 75.199219 155.285156 L 70.308594 155.285156 Z M 74.265625 158.164062 " fill-opacity="1" fill-rule="nonzero"/><path fill="#ffc26e" d="M 91.933594 150.628906 L 93.445312 155.285156 L 98.335938 155.285156 L 94.378906 158.164062 L 95.890625 162.820312 L 91.933594 159.941406 L 87.976562 162.820312 L 89.488281 158.164062 L 85.53125 155.285156 L 90.421875 155.285156 Z M 91.933594 150.628906 " fill-opacity="1" fill-rule="nonzero"/><path fill="#ffce73" d="M 89.488281 158.164062 L 89.035156 159.550781 C 93.121094 159.066406 94.609375 156.738281 95.144531 155.285156 L 93.445312 155.285156 L 91.933594 150.628906 L 90.421875 155.285156 L 85.53125 155.285156 Z M 89.488281 158.164062 " fill-opacity="1" fill-rule="nonzero"/><path fill="#ffc26e" d="M 107.152344 150.628906 L 108.664062 155.285156 L 113.554688 155.285156 L 109.597656 158.164062 L 111.109375 162.820312 L 107.152344 159.941406 L 103.195312 162.820312 L 104.707031 158.164062 L 100.75 155.285156 L 105.644531 155.285156 Z M 107.152344 150.628906 " fill-opacity="1" fill-rule="nonzero"/><path fill="#ffce73" d="M 104.707031 158.164062 L 104.257812 159.550781 C 108.34375 159.066406 109.832031 156.738281 110.363281 155.285156 L 108.664062 155.285156 L 107.152344 150.628906 L 105.644531 155.285156 L 100.75 155.285156 Z M 104.707031 158.164062 " fill-opacity="1" fill-rule="nonzero"/><path fill="#bfa89a" d="M 106.273438 160.585938 L 107.152344 159.941406 L 111.109375 162.820312 L 109.597656 158.164062 L 113.554688 155.285156 L 108.664062 155.285156 L 107.152344 150.628906 L 106.273438 153.347656 Z M 106.273438 160.585938 " fill-opacity="1" fill-rule="nonzero"/><path fill="#bfaf9d" d="M 106.273438 159.109375 C 108.863281 158.230469 109.929688 156.46875 110.363281 155.285156 L 108.664062 155.285156 L 107.152344 150.628906 L 106.269531 153.347656 L 106.269531 159.109375 Z M 106.273438 159.109375 " fill-opacity="1" fill-rule="nonzero"/><g clip-path="url(#75c3bcbbd6)"><path fill="#eddfde" d="M 192.613281 179.238281 L 114.371094 179.238281 C 112.3125 179.238281 110.648438 177.566406 110.648438 175.507812 L 110.648438 68.980469 C 110.648438 66.921875 112.3125 65.253906 114.371094 65.253906 L 192.613281 65.253906 C 194.671875 65.253906 196.335938 66.921875 196.335938 68.980469 L 196.335938 175.507812 C 196.335938 177.566406 194.671875 179.238281 192.613281 179.238281 Z M 192.613281 179.238281 " fill-opacity="1" fill-rule="nonzero"/></g><path fill="#e0c9c8" d="M 110.648438 71.425781 L 196.335938 71.425781 L 196.335938 72.007812 L 110.648438 72.007812 Z M 110.648438 71.425781 " fill-opacity="1" fill-rule="nonzero"/><path fill="#9ec0ff" d="M 175.527344 97.035156 C 175.527344 97.757812 175.492188 98.480469 175.421875 99.199219 C 175.351562 99.917969 175.246094 100.632812 175.105469 101.339844 C 174.964844 102.046875 174.789062 102.75 174.578125 103.441406 C 174.371094 104.132812 174.128906 104.8125 173.851562 105.476562 C 173.574219 106.144531 173.265625 106.796875 172.925781 107.433594 C 172.585938 108.074219 172.214844 108.691406 171.816406 109.292969 C 171.414062 109.894531 170.984375 110.472656 170.527344 111.03125 C 170.070312 111.589844 169.585938 112.125 169.074219 112.636719 C 168.5625 113.148438 168.03125 113.632812 167.472656 114.089844 C 166.914062 114.546875 166.335938 114.976562 165.734375 115.378906 C 165.136719 115.78125 164.515625 116.152344 163.878906 116.492188 C 163.242188 116.832031 162.59375 117.140625 161.925781 117.417969 C 161.257812 117.695312 160.578125 117.9375 159.890625 118.148438 C 159.199219 118.355469 158.5 118.53125 157.789062 118.671875 C 157.082031 118.816406 156.371094 118.921875 155.652344 118.992188 C 154.933594 119.0625 154.214844 119.097656 153.492188 119.097656 C 152.769531 119.097656 152.050781 119.0625 151.332031 118.992188 C 150.613281 118.921875 149.898438 118.8125 149.191406 118.671875 C 148.484375 118.53125 147.785156 118.355469 147.09375 118.148438 C 146.402344 117.9375 145.726562 117.695312 145.058594 117.417969 C 144.390625 117.140625 143.738281 116.832031 143.101562 116.492188 C 142.46875 116.152344 141.847656 115.78125 141.25 115.378906 C 140.648438 114.976562 140.070312 114.546875 139.511719 114.089844 C 138.953125 113.632812 138.417969 113.148438 137.910156 112.636719 C 137.398438 112.125 136.914062 111.589844 136.457031 111.03125 C 136 110.472656 135.570312 109.894531 135.167969 109.292969 C 134.765625 108.691406 134.398438 108.074219 134.058594 107.433594 C 133.714844 106.796875 133.40625 106.144531 133.132812 105.476562 C 132.855469 104.8125 132.613281 104.132812 132.402344 103.441406 C 132.195312 102.75 132.019531 102.046875 131.878906 101.339844 C 131.738281 100.632812 131.632812 99.917969 131.5625 99.199219 C 131.488281 98.480469 131.453125 97.757812 131.453125 97.035156 C 131.453125 96.3125 131.488281 95.59375 131.5625 94.875 C 131.632812 94.152344 131.738281 93.441406 131.878906 92.730469 C 132.019531 92.023438 132.195312 91.324219 132.402344 90.632812 C 132.613281 89.941406 132.855469 89.261719 133.132812 88.59375 C 133.40625 87.925781 133.714844 87.273438 134.058594 86.636719 C 134.398438 86 134.765625 85.378906 135.167969 84.777344 C 135.570312 84.179688 136 83.597656 136.457031 83.039062 C 136.914062 82.480469 137.398438 81.945312 137.910156 81.4375 C 138.417969 80.925781 138.953125 80.441406 139.511719 79.980469 C 140.070312 79.523438 140.648438 79.09375 141.25 78.691406 C 141.847656 78.289062 142.46875 77.917969 143.101562 77.578125 C 143.738281 77.238281 144.390625 76.929688 145.058594 76.652344 C 145.726562 76.375 146.402344 76.132812 147.09375 75.925781 C 147.785156 75.714844 148.484375 75.539062 149.191406 75.398438 C 149.898438 75.257812 150.613281 75.152344 151.332031 75.082031 C 152.050781 75.007812 152.769531 74.972656 153.492188 74.972656 C 154.214844 74.972656 154.933594 75.007812 155.652344 75.082031 C 156.371094 75.152344 157.082031 75.257812 157.789062 75.398438 C 158.5 75.539062 159.199219 75.714844 159.890625 75.925781 C 160.578125 76.132812 161.257812 76.375 161.925781 76.652344 C 162.59375 76.929688 163.242188 77.238281 163.878906 77.578125 C 164.515625 77.917969 165.136719 78.289062 165.734375 78.691406 C 166.335938 79.09375 166.914062 79.523438 167.472656 79.980469 C 168.03125 80.441406 168.5625 80.925781 169.074219 81.4375 C 169.585938 81.945312 170.070312 82.480469 170.527344 83.039062 C 170.984375 83.597656 171.414062 84.179688 171.816406 84.777344 C 172.214844 85.378906 172.585938 86 172.925781 86.636719 C 173.265625 87.273438 173.574219 87.925781 173.851562 88.59375 C 174.128906 89.261719 174.371094 89.941406 174.578125 90.632812 C 174.789062 91.324219 174.964844 92.023438 175.105469 92.730469 C 175.246094 93.441406 175.351562 94.152344 175.421875 94.875 C 175.492188 95.59375 175.527344 96.3125 175.527344 97.035156 Z M 175.527344 97.035156 " fill-opacity="1" fill-rule="nonzero"/><path fill="#de9681" d="M 153.492188 119.097656 C 160.113281 119.097656 166.054688 116.171875 170.09375 111.542969 C 168.015625 111.164062 163.609375 110.609375 161.140625 109.378906 C 157.25 107.4375 153.261719 107.75 153.261719 107.75 C 153.261719 107.75 149 107.730469 145.390625 109.378906 C 143.027344 110.457031 139.003906 111.058594 136.816406 111.460938 C 140.855469 116.136719 146.828125 119.097656 153.492188 119.097656 Z M 153.492188 119.097656 " fill-opacity="1" fill-rule="nonzero"/><path fill="#de9681" d="M 148.820312 107.332031 C 148.886719 106.449219 148.988281 104.949219 149.007812 103.441406 C 149.035156 101.097656 149.75 100.128906 149.75 100.128906 C 150.371094 98.710938 151.78125 97.722656 153.425781 97.722656 C 155.070312 97.722656 156.480469 98.710938 157.101562 100.128906 C 157.101562 100.128906 157.816406 101.097656 157.84375 103.441406 C 157.863281 104.949219 157.960938 106.449219 158.03125 107.332031 C 158.074219 107.585938 158.097656 107.851562 158.097656 108.117188 C 158.097656 110.699219 156.003906 112.792969 153.425781 112.792969 C 150.84375 112.792969 148.753906 110.699219 148.753906 108.117188 C 148.753906 107.851562 148.777344 107.585938 148.820312 107.332031 Z M 148.820312 107.332031 " fill-opacity="1" fill-rule="nonzero"/><path fill="#cf7c6e" d="M 153.425781 108.410156 C 153.425781 108.410156 151.136719 108.394531 148.890625 106.304688 C 148.945312 105.480469 148.992188 104.460938 149.007812 103.441406 C 149.035156 101.097656 149.75 100.128906 149.75 100.128906 C 150.371094 98.710938 151.78125 97.722656 153.425781 97.722656 C 155.066406 97.722656 156.480469 98.710938 157.101562 100.128906 C 157.101562 100.128906 157.816406 101.097656 157.84375 103.441406 C 157.859375 104.503906 157.910156 105.566406 157.964844 106.410156 C 155.714844 108.671875 153.425781 108.410156 153.425781 108.410156 Z M 153.425781 108.410156 " fill-opacity="1" fill-rule="nonzero"/><path fill="#de9681" d="M 153.425781 81.75 C 153.425781 81.75 163.320312 81.742188 161.792969 94.710938 C 160.238281 107.921875 153.425781 107.117188 153.425781 107.117188 C 153.425781 107.117188 145.960938 107.066406 144.90625 94.457031 C 143.855469 81.851562 151.367188 81.75 153.425781 81.75 Z M 153.425781 81.75 " fill-opacity="1" fill-rule="nonzero"/><path fill="#de9681" d="M 162.0625 94.175781 C 162.0625 94.175781 162.871094 93.363281 163.050781 94.4375 C 163.226562 95.515625 162.242188 98.714844 160.898438 98.695312 L 161.414062 94.4375 Z M 162.0625 94.175781 " fill-opacity="1" fill-rule="nonzero"/><path fill="#c97565" d="M 162.570312 95.832031 C 162.5625 95.757812 162.496094 95.707031 162.421875 95.714844 C 162.265625 95.734375 162.136719 95.785156 162.035156 95.847656 C 162.109375 95.59375 162.207031 95.351562 162.351562 95.167969 C 162.394531 95.105469 162.382812 95.023438 162.324219 94.976562 C 162.265625 94.929688 162.179688 94.941406 162.132812 95.003906 C 161.5625 95.757812 161.589844 97.203125 161.589844 97.265625 C 161.59375 97.339844 161.652344 97.398438 161.726562 97.398438 C 161.804688 97.394531 161.863281 97.332031 161.863281 97.257812 C 161.863281 97.25 161.855469 96.875 161.917969 96.417969 C 161.9375 96.363281 162.050781 96.03125 162.453125 95.984375 C 162.527344 95.976562 162.582031 95.90625 162.570312 95.832031 Z M 162.570312 95.832031 " fill-opacity="1" fill-rule="nonzero"/><path fill="#de9681" d="M 144.988281 94.136719 C 144.988281 94.136719 143.914062 93.363281 143.734375 94.4375 C 143.558594 95.515625 144.328125 98.714844 145.699219 98.695312 Z M 144.988281 94.136719 " fill-opacity="1" fill-rule="nonzero"/><path fill="#c97565" d="M 144.652344 95.003906 C 144.609375 94.941406 144.523438 94.929688 144.464844 94.976562 C 144.40625 95.023438 144.394531 95.105469 144.4375 95.167969 C 144.578125 95.351562 144.679688 95.59375 144.75 95.847656 C 144.648438 95.78125 144.523438 95.734375 144.367188 95.714844 C 144.292969 95.707031 144.226562 95.757812 144.214844 95.832031 C 144.207031 95.90625 144.261719 95.976562 144.335938 95.984375 C 144.734375 96.03125 144.851562 96.363281 144.867188 96.417969 C 144.933594 96.875 144.925781 97.25 144.925781 97.257812 C 144.921875 97.332031 144.984375 97.394531 145.058594 97.398438 C 145.132812 97.398438 145.195312 97.339844 145.195312 97.265625 C 145.199219 97.203125 145.226562 95.757812 144.652344 95.003906 Z M 144.652344 95.003906 " fill-opacity="1" fill-rule="nonzero"/><path fill="#854343" d="M 143.828125 89.5 C 143.828125 89.5 143.710938 92.074219 144.140625 93.882812 C 144.140625 93.882812 145.410156 94.507812 145.542969 95.851562 C 145.542969 95.851562 145.84375 95.96875 145.941406 95.851562 C 146.042969 95.734375 145.941406 89.25 145.941406 89.25 Z M 143.828125 89.5 " fill-opacity="1" fill-rule="nonzero"/><path fill="#8c4949" d="M 157.964844 87.320312 C 157.964844 87.320312 158.597656 87.917969 158.699219 88.984375 C 158.796875 90.046875 158.964844 90.777344 159.695312 91.578125 C 160.425781 92.375 160.589844 94.667969 160.625 96 L 160.898438 96 C 160.898438 96 161.6875 93.929688 162.816406 93.867188 C 162.816406 93.867188 163.117188 92.40625 163.25 91.175781 C 163.382812 89.945312 163.148438 85.027344 160.027344 83.0625 C 160.027344 83.0625 158.128906 80.46875 154.710938 80.269531 C 151.292969 80.070312 147.9375 81.46875 146.007812 83.363281 L 146.640625 83.328125 C 146.640625 83.328125 145.8125 83.960938 145.195312 85.226562 C 144.582031 86.488281 144.117188 87.320312 143.320312 87.386719 C 143.320312 87.386719 143.617188 87.898438 144.214844 88.125 C 144.214844 88.125 143.453125 88.484375 142.820312 88.382812 C 142.820312 88.382812 143.035156 90.046875 144.707031 90.144531 C 146.375 90.246094 148.753906 88.949219 148.753906 88.949219 C 148.753906 88.949219 151.257812 90.414062 153.21875 89.515625 C 155.175781 88.617188 155.328125 88.183594 156.148438 87.851562 C 156.972656 87.519531 157.964844 87.320312 157.964844 87.320312 Z M 157.964844 87.320312 " fill-opacity="1" fill-rule="nonzero"/><path fill="#ffffff" d="M 158.953125 108.5 C 153.296875 114.953125 148.003906 108.421875 148.003906 108.421875 C 148.003906 108.421875 142.324219 110.132812 140.164062 110.53125 C 138.976562 110.75 137.632812 111.046875 136.660156 111.273438 C 140.699219 116.058594 146.742188 119.097656 153.492188 119.097656 C 160.265625 119.097656 166.320312 116.039062 170.363281 111.226562 C 169.640625 110.972656 168.742188 110.769531 167.667969 110.628906 C 164.875 110.265625 158.953125 108.5 158.953125 108.5 Z M 158.953125 108.5 " fill-opacity="1" fill-rule="nonzero"/><path fill="#efefef" d="M 161.070312 109.105469 C 161.25 110.675781 161.539062 113.546875 161.761719 117.488281 C 165.121094 116.128906 168.066406 113.960938 170.363281 111.226562 C 169.640625 110.972656 168.742188 110.769531 167.667969 110.628906 C 165.953125 110.40625 163.050781 109.652344 161.070312 109.105469 Z M 161.070312 109.105469 " fill-opacity="1" fill-rule="nonzero"/><path fill="#efefef" d="M 136.660156 111.273438 C 138.847656 113.863281 141.621094 115.941406 144.777344 117.304688 C 145.011719 113.148438 145.390625 110.359375 145.582031 109.132812 C 143.765625 109.652344 141.394531 110.304688 140.164062 110.53125 C 138.976562 110.75 137.632812 111.046875 136.660156 111.273438 Z M 136.660156 111.273438 " fill-opacity="1" fill-rule="nonzero"/><path fill="#dba086" d="M 141.765625 109.398438 C 140.894531 109.617188 140.089844 109.832031 138.738281 110.140625 C 137.921875 110.339844 137.070312 110.546875 136.261719 110.789062 C 138.265625 113.300781 140.804688 115.363281 143.707031 116.808594 C 143.855469 114.210938 144.152344 111.617188 144.597656 109.304688 C 143.789062 108.9375 143.136719 109.042969 141.765625 109.398438 Z M 141.765625 109.398438 " fill-opacity="1" fill-rule="nonzero"/><path fill="#dba086" d="M 165.164062 109.492188 C 163.394531 109.042969 162.863281 108.914062 161.953125 109.304688 C 162.410156 111.664062 162.710938 114.355469 162.855469 117.011719 C 165.890625 115.582031 168.542969 113.484375 170.628906 110.902344 C 169.742188 110.617188 168.742188 110.351562 167.8125 110.140625 C 166.691406 109.882812 165.988281 109.703125 165.164062 109.492188 Z M 165.164062 109.492188 " fill-opacity="1" fill-rule="nonzero"/><path fill="#ffffff" d="M 183.933594 123.132812 L 185.445312 127.789062 L 190.339844 127.789062 L 186.382812 130.667969 L 187.890625 135.324219 L 183.933594 132.445312 L 179.980469 135.324219 L 181.488281 130.667969 L 177.53125 127.789062 L 182.425781 127.789062 Z M 183.933594 123.132812 " fill-opacity="1" fill-rule="nonzero"/><path fill="#ffc259" d="M 123.046875 123.132812 L 124.558594 127.789062 L 129.449219 127.789062 L 125.492188 130.667969 L 127.003906 135.324219 L 123.046875 132.445312 L 119.089844 135.324219 L 120.601562 130.667969 L 116.644531 127.789062 L 121.535156 127.789062 Z M 123.046875 123.132812 " fill-opacity="1" fill-rule="nonzero"/><path fill="#ffce5e" d="M 120.601562 130.667969 L 120.152344 132.054688 C 124.238281 131.566406 125.726562 129.238281 126.257812 127.789062 L 124.558594 127.789062 L 123.046875 123.132812 L 121.535156 127.789062 L 116.644531 127.789062 Z M 120.601562 130.667969 " fill-opacity="1" fill-rule="nonzero"/><path fill="#ffc259" d="M 138.269531 123.132812 L 139.78125 127.789062 L 144.671875 127.789062 L 140.714844 130.667969 L 142.226562 135.324219 L 138.269531 132.445312 L 134.3125 135.324219 L 135.824219 130.667969 L 131.867188 127.789062 L 136.757812 127.789062 Z M 138.269531 123.132812 " fill-opacity="1" fill-rule="nonzero"/><path fill="#ffce5e" d="M 135.824219 130.667969 L 135.375 132.054688 C 139.460938 131.566406 140.949219 129.238281 141.480469 127.789062 L 139.78125 127.789062 L 138.269531 123.132812 L 136.757812 127.789062 L 131.867188 127.789062 Z M 135.824219 130.667969 " fill-opacity="1" fill-rule="nonzero"/><path fill="#ffc259" d="M 153.492188 123.132812 L 155.003906 127.789062 L 159.894531 127.789062 L 155.9375 130.667969 L 157.449219 135.324219 L 153.492188 132.445312 L 149.535156 135.324219 L 151.046875 130.667969 L 147.089844 127.789062 L 151.980469 127.789062 Z M 153.492188 123.132812 " fill-opacity="1" fill-rule="nonzero"/><path fill="#ffce5e" d="M 151.046875 130.667969 L 150.59375 132.054688 C 154.683594 131.566406 156.171875 129.238281 156.703125 127.789062 L 155.003906 127.789062 L 153.492188 123.132812 L 151.980469 127.789062 L 147.089844 127.789062 Z M 151.046875 130.667969 " fill-opacity="1" fill-rule="nonzero"/><path fill="#ffc259" d="M 168.714844 123.132812 L 170.226562 127.789062 L 175.117188 127.789062 L 171.160156 130.667969 L 172.671875 135.324219 L 168.714844 132.445312 L 164.757812 135.324219 L 166.269531 130.667969 L 162.3125 127.789062 L 167.203125 127.789062 Z M 168.714844 123.132812 " fill-opacity="1" fill-rule="nonzero"/><path fill="#ffce5e" d="M 166.269531 130.667969 L 165.816406 132.054688 C 169.902344 131.566406 171.390625 129.238281 171.925781 127.789062 L 170.226562 127.789062 L 168.714844 123.132812 L 167.203125 127.789062 L 162.3125 127.789062 Z M 166.269531 130.667969 " fill-opacity="1" fill-rule="nonzero"/><path fill="#ccafad" d="M 172.695312 143.988281 L 136.550781 143.988281 C 135.746094 143.988281 135.089844 143.332031 135.089844 142.527344 C 135.089844 141.71875 135.746094 141.066406 136.550781 141.066406 L 172.695312 141.066406 C 173.5 141.066406 174.152344 141.71875 174.152344 142.527344 C 174.152344 143.332031 173.5 143.988281 172.695312 143.988281 Z M 172.695312 143.988281 " fill-opacity="1" fill-rule="nonzero"/><path fill="#ccafad" d="M 167.554688 149.875 L 141.691406 149.875 C 140.882812 149.875 140.230469 149.21875 140.230469 148.414062 C 140.230469 147.605469 140.882812 146.953125 141.691406 146.953125 L 167.554688 146.953125 C 168.363281 146.953125 169.015625 147.605469 169.015625 148.414062 C 169.015625 149.21875 168.363281 149.875 167.554688 149.875 Z M 167.554688 149.875 " fill-opacity="1" fill-rule="nonzero"/><path fill="#e0c9c8" d="M 121.453125 157.558594 C 121.453125 157.8125 121.40625 158.054688 121.308594 158.289062 C 121.210938 158.519531 121.074219 158.726562 120.898438 158.902344 C 120.71875 159.082031 120.515625 159.21875 120.28125 159.316406 C 120.050781 159.410156 119.808594 159.460938 119.554688 159.460938 C 119.304688 159.460938 119.0625 159.410156 118.828125 159.316406 C 118.597656 159.21875 118.390625 159.082031 118.214844 158.902344 C 118.035156 158.726562 117.898438 158.519531 117.800781 158.289062 C 117.707031 158.054688 117.65625 157.8125 117.65625 157.558594 C 117.65625 157.308594 117.707031 157.066406 117.800781 156.832031 C 117.898438 156.601562 118.035156 156.394531 118.214844 156.21875 C 118.390625 156.039062 118.597656 155.902344 118.828125 155.804688 C 119.0625 155.710938 119.304688 155.660156 119.554688 155.660156 C 119.808594 155.660156 120.050781 155.710938 120.28125 155.804688 C 120.515625 155.902344 120.71875 156.039062 120.898438 156.21875 C 121.074219 156.394531 121.210938 156.601562 121.308594 156.832031 C 121.40625 157.066406 121.453125 157.308594 121.453125 157.558594 Z M 121.453125 157.558594 " fill-opacity="1" fill-rule="nonzero"/><path fill="#e0c9c8" d="M 189.4375 158.4375 L 166.734375 158.4375 C 166.25 158.4375 165.859375 158.042969 165.859375 157.558594 C 165.859375 157.078125 166.25 156.683594 166.734375 156.683594 L 189.4375 156.683594 C 189.921875 156.683594 190.3125 157.078125 190.3125 157.558594 C 190.3125 158.042969 189.921875 158.4375 189.4375 158.4375 Z M 189.4375 158.4375 " fill-opacity="1" fill-rule="nonzero"/><path fill="#e0c9c8" d="M 160.507812 158.4375 L 126 158.4375 C 125.515625 158.4375 125.125 158.042969 125.125 157.558594 C 125.125 157.078125 125.515625 156.683594 126 156.683594 L 160.507812 156.683594 C 160.992188 156.683594 161.382812 157.078125 161.382812 157.558594 C 161.382812 158.042969 160.992188 158.4375 160.507812 158.4375 Z M 160.507812 158.4375 " fill-opacity="1" fill-rule="nonzero"/><path fill="#e0c9c8" d="M 173.21875 162.378906 L 126 162.378906 C 125.515625 162.378906 125.125 161.988281 125.125 161.503906 C 125.125 161.019531 125.515625 160.625 126 160.625 L 173.21875 160.625 C 173.703125 160.625 174.097656 161.019531 174.097656 161.503906 C 174.097656 161.988281 173.703125 162.378906 173.21875 162.378906 Z M 173.21875 162.378906 " fill-opacity="1" fill-rule="nonzero"/><path fill="#e0c9c8" d="M 121.453125 168.101562 C 121.453125 168.351562 121.40625 168.59375 121.308594 168.828125 C 121.210938 169.058594 121.074219 169.265625 120.898438 169.441406 C 120.71875 169.621094 120.515625 169.757812 120.28125 169.855469 C 120.050781 169.953125 119.808594 170 119.554688 170 C 119.304688 170 119.0625 169.953125 118.828125 169.855469 C 118.597656 169.757812 118.390625 169.621094 118.214844 169.441406 C 118.035156 169.265625 117.898438 169.058594 117.800781 168.828125 C 117.707031 168.59375 117.65625 168.351562 117.65625 168.101562 C 117.65625 167.847656 117.707031 167.605469 117.800781 167.375 C 117.898438 167.140625 118.035156 166.933594 118.214844 166.757812 C 118.390625 166.578125 118.597656 166.441406 118.828125 166.34375 C 119.0625 166.25 119.304688 166.199219 119.554688 166.199219 C 119.808594 166.199219 120.050781 166.25 120.28125 166.34375 C 120.515625 166.441406 120.71875 166.578125 120.898438 166.757812 C 121.074219 166.933594 121.210938 167.140625 121.308594 167.375 C 121.40625 167.605469 121.453125 167.847656 121.453125 168.101562 Z M 121.453125 168.101562 " fill-opacity="1" fill-rule="nonzero"/><path fill="#e0c9c8" d="M 176.722656 168.976562 L 143.253906 168.976562 C 142.769531 168.976562 142.378906 168.585938 142.378906 168.101562 C 142.378906 167.617188 142.769531 167.222656 143.253906 167.222656 L 176.722656 167.222656 C 177.207031 167.222656 177.597656 167.617188 177.597656 168.101562 C 177.597656 168.585938 177.207031 168.976562 176.722656 168.976562 Z M 176.722656 168.976562 " fill-opacity="1" fill-rule="nonzero"/><path fill="#e0c9c8" d="M 136.550781 168.976562 L 126 168.976562 C 125.515625 168.976562 125.125 168.585938 125.125 168.101562 C 125.125 167.617188 125.515625 167.222656 126 167.222656 L 136.550781 167.222656 C 137.035156 167.222656 137.425781 167.617188 137.425781 168.101562 C 137.425781 168.585938 137.035156 168.976562 136.550781 168.976562 Z M 136.550781 168.976562 " fill-opacity="1" fill-rule="nonzero"/></svg>