<svg xmlns="http://www.w3.org/2000/svg" width="88" height="80" viewBox="0 0 88 80" fill="none">
  <g clip-path="url(#clip0_3253_2954)">
    <path d="M29.9984 27.2129C30.3445 29.5662 29.9876 31.9697 28.9728 34.1193C27.9579 36.2688 26.3308 38.0677 24.2973 39.2884C22.2639 40.509 19.9155 41.0965 17.5494 40.9765C15.1833 40.8564 12.9058 40.0343 11.0052 38.6141C9.10463 37.1939 7.66637 35.2394 6.87246 32.9981C6.07856 30.7568 5.96469 28.3294 6.54528 26.0231C7.12587 23.7168 8.37481 21.6353 10.134 20.042C11.8933 18.4487 14.0837 17.4152 16.4281 17.0724C19.5668 16.6103 22.7599 17.419 25.3048 19.3207C27.8497 21.2224 29.538 24.0613 29.9984 27.2129Z" fill="#F5F5F5"/>
    <path d="M27.1804 27.6267C27.4437 29.42 27.1713 31.2514 26.3976 32.8891C25.624 34.5269 24.3838 35.8973 22.8342 36.8271C21.2845 37.7569 19.495 38.2041 17.692 38.1123C15.8891 38.0204 14.1538 37.3936 12.7058 36.3111C11.2579 35.2286 10.1622 33.7391 9.55764 32.0312C8.95305 30.3232 8.86667 28.4735 9.30942 26.7163C9.75218 24.959 10.7042 23.3731 12.0449 22.1593C13.3857 20.9455 15.0549 20.1583 16.8413 19.8975C18.0257 19.7232 19.2326 19.7849 20.3931 20.0791C21.5537 20.3732 22.6452 20.894 23.6053 21.6118C24.5654 22.3295 25.3753 23.2301 25.9887 24.2622C26.6021 25.2942 27.007 26.4375 27.1804 27.6267Z" fill="#EBEBEB"/>
    <path d="M27.1349 27.3433C27.0818 27.3433 26.9855 26.9602 26.7416 26.2888C26.398 25.3433 25.9111 24.4567 25.298 23.6604C24.8748 23.1185 24.3941 22.6245 23.8643 22.1872C23.2552 21.6909 22.5849 21.2754 21.87 20.951C21.485 20.7739 21.0873 20.626 20.6802 20.5086C20.2574 20.3829 19.8253 20.2911 19.388 20.2341C18.9366 20.1713 18.4808 20.1442 18.0251 20.1532C17.555 20.1646 17.0864 20.2101 16.6228 20.2894C16.1608 20.3755 15.7053 20.4943 15.2599 20.6449C14.8277 20.7948 14.4076 20.9777 14.0032 21.1919C13.6127 21.3984 13.2385 21.6348 12.8841 21.8989C12.5425 22.1491 12.2204 22.4251 11.9204 22.7243C11.3606 23.2738 10.8741 23.8938 10.4729 24.5688C10.1248 25.162 9.84257 25.7918 9.63118 26.4468C9.32881 27.4048 9.17557 28.404 9.17687 29.4089C9.17687 30.1258 9.2221 30.5267 9.17687 30.5365C9.13163 30.5464 8.99986 30.1574 8.91529 29.4228C8.80514 28.3767 8.89052 27.3192 9.16703 26.3046C9.35686 25.5993 9.62953 24.9191 9.97929 24.2785C10.3845 23.5405 10.8873 22.8609 11.474 22.2583C11.7897 21.93 12.131 21.6276 12.4947 21.3538C12.871 21.063 13.2703 20.8035 13.6885 20.5778C14.1227 20.345 14.5745 20.1469 15.0396 19.9853C15.5187 19.8164 16.0098 19.6844 16.5088 19.5904C17.0086 19.5045 17.5142 19.4563 18.0212 19.4462C18.5133 19.4394 19.0052 19.4717 19.4923 19.543C19.9627 19.6114 20.427 19.7171 20.8808 19.8589C21.316 19.9902 21.7402 20.1559 22.1493 20.3546C22.9071 20.7182 23.6124 21.1832 24.2458 21.7369C24.7938 22.2175 25.283 22.7618 25.7032 23.3582C26.3105 24.2158 26.7534 25.1795 27.0091 26.1999C27.1802 26.9266 27.1802 27.3335 27.1349 27.3433Z" fill="#E0E0E0"/>
    <path d="M19.9522 34.2038L20.204 35.7836L18.8037 36.0088L18.5578 34.4763C17.1575 34.6146 15.7572 34.3914 14.8899 33.9116L15.3796 32.073C16.2744 32.5064 17.2657 32.6996 18.2569 32.6339L17.8813 30.2839C16.2666 30.1555 14.4454 29.9126 14.1248 27.9004C13.8869 26.4094 14.7621 24.956 16.9353 24.3458L16.6855 22.7837L18.0878 22.5586L18.3316 24.091C19.3426 23.9853 20.3641 24.1206 21.3132 24.486L20.8884 26.3304C20.1689 26.0488 19.4006 25.9145 18.6286 25.9355L19.0102 28.3269C20.6229 28.4434 22.4165 28.6883 22.7332 30.6729C22.9731 32.1461 22.1097 33.5837 19.9522 34.2038ZM17.5607 28.2104L17.2421 26.2119C16.5262 26.5002 16.2961 26.9564 16.3708 27.4205C16.4456 27.8846 16.9117 28.1235 17.5607 28.2104ZM20.5108 31.214C20.4321 30.7203 19.9837 30.5189 19.3465 30.4044L19.6572 32.3475C20.3338 32.073 20.5835 31.6643 20.5108 31.214Z" fill="#E0E0E0"/>
    <path d="M73.4748 16.4054C74.3708 17.8816 74.8104 19.5916 74.7381 21.3188C74.6657 23.0461 74.0846 24.713 73.0684 26.1085C72.0521 27.504 70.6464 28.5654 69.0291 29.1583C67.4118 29.7512 65.6556 29.849 63.9829 29.4393C62.3103 29.0295 60.7963 28.1307 59.6326 26.8566C58.4689 25.5825 57.7078 23.9904 57.4457 22.2818C57.1835 20.5731 57.4322 18.8248 58.1601 17.2581C58.888 15.6915 60.0625 14.3769 61.5349 13.4807C62.51 12.8854 63.5925 12.4888 64.7203 12.3135C65.8482 12.1383 66.9994 12.1879 68.1082 12.4595C69.217 12.7311 70.2616 13.2193 71.1824 13.8964C72.1032 14.5734 72.8822 15.426 73.4748 16.4054Z" fill="#F5F5F5"/>
    <path d="M71.7045 17.4834C72.3878 18.6085 72.7232 19.9119 72.6684 21.2285C72.6135 22.5451 72.1709 23.8157 71.3965 24.8796C70.6221 25.9435 69.5507 26.7527 68.318 27.2049C67.0853 27.657 65.7467 27.7318 64.4717 27.4197C63.1966 27.1076 62.0425 26.4226 61.1554 25.4516C60.2682 24.4805 59.688 23.267 59.488 21.9646C59.2881 20.6622 59.4776 19.3296 60.0323 18.1353C60.5871 16.9411 61.4823 15.939 62.6045 15.2559C64.1056 14.3403 65.9074 14.0607 67.6137 14.4784C69.3201 14.8961 70.7915 15.9769 71.7045 17.4834Z" fill="#EBEBEB"/>
    <path d="M71.5965 17.3035C71.5631 17.3272 71.388 17.0922 71.032 16.7111C70.5361 16.1758 69.9602 15.7214 69.3249 15.3643C68.8886 15.1211 68.4269 14.9271 67.9482 14.7856C67.4004 14.6271 66.8347 14.5395 66.2647 14.525C65.9573 14.517 65.6496 14.5315 65.3443 14.5684C65.026 14.605 64.711 14.6664 64.4022 14.7521C64.0819 14.8382 63.7688 14.9498 63.4661 15.0858C62.8413 15.3667 62.264 15.7438 61.755 16.2035C61.5085 16.4262 61.2797 16.6678 61.0706 16.9263C60.6722 17.4147 60.3481 17.9598 60.1089 18.5436C59.8892 19.0721 59.7391 19.6271 59.6625 20.1946C59.5971 20.6901 59.5859 21.1914 59.629 21.6895C59.6969 22.4172 59.8767 23.13 60.162 23.8025C60.3587 24.2823 60.5081 24.539 60.4747 24.5608C60.4413 24.5825 60.2485 24.3633 59.985 23.8913C59.6164 23.2224 59.375 22.4905 59.273 21.7329C59.201 21.2093 59.1911 20.679 59.2435 20.1531C59.3417 19.2118 59.6338 18.3012 60.101 17.4792C60.275 17.1778 60.4723 16.8906 60.6911 16.6202C60.9135 16.3371 61.1588 16.0729 61.4246 15.8303C61.9691 15.3292 62.5925 14.9222 63.2694 14.6257C63.5969 14.4804 63.9356 14.3622 64.2823 14.2722C64.6157 14.1832 64.9558 14.1212 65.2991 14.0866C65.6256 14.0513 65.9544 14.0421 66.2824 14.0589C67.4238 14.1032 68.5343 14.4433 69.5059 15.0463C70.1542 15.4468 70.7225 15.9651 71.1815 16.5748C71.5021 17.0152 71.628 17.2877 71.5965 17.3035Z" fill="#E0E0E0"/>
    <path d="M68.7269 23.9411L69.3385 24.9284L68.4653 25.4774L67.8753 24.5216C66.9765 25.0114 65.9774 25.2622 65.2596 25.1871L65.0727 23.8048C65.7943 23.8411 66.5128 23.6879 67.1574 23.3605L66.2429 21.8952C65.1258 22.2684 63.8396 22.6259 63.0568 21.3699C62.4767 20.4398 62.6517 19.2174 63.934 18.1925L63.3263 17.217L64.2015 16.668L64.7915 17.6257C65.4412 17.2677 66.1668 17.0707 66.9077 17.0511L67.1437 18.4058C66.5829 18.4245 66.0314 18.5547 65.5211 18.7889L66.4514 20.2818C67.5646 19.8987 68.8331 19.5551 69.5981 20.7913C70.1665 21.7036 69.9954 22.9122 68.7269 23.9411ZM65.4326 20.6195L64.6558 19.3734C64.2624 19.7684 64.2329 20.1396 64.4139 20.4299C64.5948 20.7202 64.9724 20.7301 65.4326 20.6195ZM68.2549 21.7886C68.0582 21.4825 67.7062 21.4746 67.2479 21.5792L68.0031 22.7898C68.3807 22.4106 68.4299 22.063 68.2549 21.7807V21.7886Z" fill="#E0E0E0"/>
    <path d="M61.7587 8.31726C61.0099 8.79395 60.1372 9.03687 59.2509 9.01527C58.3646 8.99367 57.5046 8.70852 56.7797 8.19592C56.0549 7.68332 55.4979 6.96631 55.1791 6.13566C54.8603 5.30501 54.7941 4.39806 54.9889 3.52962C55.1837 2.66118 55.6307 1.8703 56.2734 1.25708C56.9161 0.643867 57.7255 0.235893 58.5992 0.084803C59.4729 -0.0662874 60.3716 0.0462991 61.1815 0.408311C61.9915 0.770322 62.6762 1.36548 63.1491 2.11845C63.4632 2.61713 63.6764 3.17305 63.7766 3.75447C63.8767 4.33589 63.8618 4.93142 63.7326 5.50705C63.6035 6.08268 63.3627 6.62713 63.024 7.10931C62.6853 7.59149 62.2554 8.00196 61.7587 8.31726Z" fill="#F5F5F5"/>
    <path d="M61.1907 7.41399C60.62 7.77699 59.955 7.96187 59.2796 7.94522C58.6043 7.92858 57.9491 7.71115 57.3969 7.32047C56.8447 6.92979 56.4203 6.3834 56.1775 5.75046C55.9346 5.11751 55.8842 4.42646 56.0327 3.76475C56.1811 3.10304 56.5217 2.50042 57.0113 2.03314C57.501 1.56586 58.1177 1.25492 58.7834 1.13968C59.4491 1.02445 60.1339 1.11008 60.7511 1.38576C61.3683 1.66143 61.8902 2.11476 62.2507 2.68836C62.4903 3.0685 62.6529 3.49231 62.7292 3.93557C62.8056 4.37883 62.7942 4.83286 62.6958 5.27171C62.5974 5.71056 62.4138 6.12563 62.1555 6.49321C61.8972 6.8608 61.5694 7.17368 61.1907 7.41399Z" fill="#EBEBEB"/>
    <path d="M61.2789 7.35561C61.2691 7.33783 61.3871 7.24502 61.5798 7.05742C61.8494 6.79605 62.077 6.49427 62.2544 6.16285C62.3748 5.9351 62.4698 5.6947 62.5376 5.446C62.6144 5.16209 62.6541 4.86933 62.6556 4.57513C62.6584 4.41595 62.6485 4.25681 62.6261 4.09921C62.6043 3.93491 62.5701 3.77251 62.5238 3.61341C62.4758 3.44906 62.4153 3.28863 62.3429 3.13354C62.2671 2.97367 62.1804 2.81927 62.0833 2.67145C61.9839 2.52421 61.8741 2.3843 61.7548 2.2528C61.6384 2.12774 61.5128 2.01157 61.3792 1.90524C61.2495 1.80253 61.1121 1.71009 60.9682 1.62877C60.8312 1.55196 60.6885 1.48594 60.5414 1.43129C60.2675 1.3245 59.9814 1.2522 59.6898 1.21604C59.4349 1.18741 59.1777 1.18741 58.9228 1.21604C58.5498 1.2571 58.1855 1.35638 57.8431 1.51028C57.7183 1.58026 57.5864 1.63654 57.4497 1.67814C57.5437 1.56875 57.6596 1.48058 57.79 1.41944C58.129 1.22083 58.5018 1.08692 58.8893 1.02449C59.1587 0.98288 59.432 0.9736 59.7036 0.99684C60.0159 1.02105 60.3235 1.08748 60.6181 1.19432C60.7781 1.25312 60.9333 1.32443 61.0822 1.40759C61.2379 1.49292 61.3866 1.59066 61.5267 1.69986C61.6729 1.81295 61.8103 1.93706 61.9378 2.07112C62.0658 2.21155 62.1841 2.36066 62.2918 2.51741C62.401 2.67817 62.4977 2.84719 62.5809 3.02296C62.6603 3.19112 62.7261 3.36547 62.7775 3.5443C62.8264 3.7156 62.8613 3.89062 62.8818 4.06761C62.9022 4.23728 62.9101 4.40824 62.9054 4.57908C62.89 5.17008 62.7241 5.74728 62.4235 6.25566C62.2239 6.59409 61.9631 6.89212 61.6545 7.13443C61.5467 7.23453 61.4186 7.30999 61.2789 7.35561Z" fill="#E0E0E0"/>
    <path d="M57.8609 5.93254L57.3614 6.25838L57.0742 5.80813L57.558 5.49217C57.3132 5.0872 57.187 4.62107 57.1942 4.14735L57.8963 4.03676C57.8849 4.41012 57.9696 4.78013 58.1421 5.11104L58.8757 4.62327C58.6791 4.04861 58.4824 3.38706 59.1157 2.97039C59.5877 2.66232 60.2151 2.74131 60.7539 3.39496L61.2476 3.07308L61.5367 3.51937L61.0529 3.83336C61.2417 4.16479 61.3502 4.53619 61.3695 4.91751L60.6772 5.0518C60.6603 4.76607 60.5882 4.48637 60.4648 4.22832L59.7077 4.72399C59.9142 5.29469 60.101 5.94834 59.4756 6.35712C59.0114 6.65531 58.3919 6.5783 57.8609 5.93254ZM59.5365 4.1987L60.1698 3.78597C59.9633 3.58849 59.7765 3.57467 59.625 3.67143C59.4736 3.7682 59.4638 3.96172 59.5287 4.1987H59.5365ZM58.9623 5.6699C59.1196 5.56721 59.1196 5.38356 59.0626 5.14659L58.447 5.54154C58.6338 5.73902 58.8128 5.76272 58.9544 5.6699H58.9623Z" fill="#E0E0E0"/>
    <path d="M87.4008 79.9459C87.4008 79.9755 67.834 79.9972 43.7024 79.9972C19.5708 79.9972 0 79.9755 0 79.9459C0 79.9163 19.5629 79.8945 43.7024 79.8945C67.8418 79.8945 87.4008 79.9182 87.4008 79.9459Z" fill="#263238"/>
    <path d="M11.6941 73.8856C11.9164 73.0227 11.3519 72.1538 10.7108 71.5278C10.0696 70.9018 9.32227 70.3429 8.99382 69.5115C8.46084 68.1687 9.17673 66.4309 8.26811 65.3112C7.73316 64.6516 6.7734 64.4304 6.30139 63.7314C6.05162 63.3621 5.97098 62.9079 5.87265 62.4734C5.37047 60.2415 4.27949 58.1863 2.7141 56.5234C2.60965 58.5097 3.03895 60.4877 3.95707 62.2503C4.32484 62.9533 4.77719 63.6326 4.89912 64.4225C5.0958 65.6982 4.38778 67.0134 4.70245 68.2654C5.05843 69.6991 6.66917 70.6589 6.738 72.134C6.8029 73.3821 5.71924 74.4761 5.79988 75.7222C5.86583 76.252 6.05516 76.7587 6.35253 77.2013C7.31622 78.8127 8.72242 79.9166 10.8563 79.881L13.476 79.9719L11.6941 73.8856Z" fill="#E8505B"/>
    <g opacity="0.3">
      <path d="M11.6941 73.8856C11.9164 73.0227 11.3519 72.1538 10.7108 71.5278C10.0696 70.9018 9.32227 70.3429 8.99382 69.5115C8.46084 68.1687 9.17673 66.4309 8.26811 65.3112C7.73316 64.6516 6.7734 64.4304 6.30139 63.7314C6.05162 63.3621 5.97098 62.9079 5.87265 62.4734C5.37047 60.2415 4.27949 58.1863 2.7141 56.5234C2.60965 58.5097 3.03895 60.4877 3.95707 62.2503C4.32484 62.9533 4.77719 63.6326 4.89912 64.4225C5.0958 65.6982 4.38778 67.0134 4.70245 68.2654C5.05843 69.6991 6.66917 70.6589 6.738 72.134C6.8029 73.3821 5.71924 74.4761 5.79988 75.7222C5.86583 76.252 6.05516 76.7587 6.35253 77.2013C7.31622 78.8127 8.72242 79.9166 10.8563 79.881L13.476 79.9719L11.6941 73.8856Z" fill="black"/>
    </g>
    <path d="M14.0031 79.9545C14.2427 79.9921 14.4869 79.9874 14.7249 79.9407C15.0143 79.8964 15.2988 79.8243 15.5745 79.7255C15.9548 79.5925 16.3103 79.397 16.6267 79.1469C16.8165 78.993 16.9652 78.7942 17.0594 78.5683C17.1391 78.3125 17.1802 78.0463 17.1813 77.7783C17.1872 77.4937 17.2082 77.2096 17.2442 76.9272C17.2945 76.6273 17.4028 76.3402 17.5628 76.082C17.8716 75.537 18.3849 75.0216 18.5462 74.281C18.7075 73.5405 18.5973 72.7664 18.4754 71.9765C18.3535 71.1866 18.2355 70.3275 18.5364 69.506C18.8373 68.6845 19.3919 67.94 19.679 67.0139C19.9662 66.0877 19.8324 65.0687 19.8914 64.0754C19.9108 63.5714 20.027 63.0758 20.2336 62.616C20.4461 62.15 20.7391 61.7116 20.9692 61.2199C21.4333 60.2325 21.5159 59.1069 21.6438 58.0069C21.7054 57.4513 21.771 56.8912 21.8405 56.3264C21.88 55.757 21.9776 55.1933 22.1315 54.6439C22.3084 54.0895 22.5179 53.5461 22.7589 53.0167C22.8827 52.7417 22.984 52.457 23.0618 52.1655C23.1062 51.8658 23.1345 51.5639 23.1464 51.2611C23.1754 50.6533 23.1524 50.0442 23.0775 49.4404C23.0067 48.8341 22.8966 48.2318 22.8317 47.6236L22.8199 47.5189L22.8061 47.3984L22.6999 47.4518C22.1446 47.7359 21.6621 48.1447 21.2898 48.6465C20.9265 49.1371 20.6345 49.677 20.4225 50.25C19.9858 51.3796 19.8324 52.5644 19.6082 53.694C19.384 54.8236 19.1166 55.9393 18.5265 56.8793C18.2414 57.3473 17.8933 57.7739 17.5884 58.232C17.2644 58.6773 17.0427 59.1892 16.9394 59.7309C16.784 60.8427 17.3937 61.8202 17.2678 62.8056C17.2075 63.2896 17.0446 63.7549 16.7899 64.1702C16.552 64.5908 16.2727 64.9798 16.0032 65.3728C15.7324 65.7547 15.4967 66.1605 15.2992 66.5853C15.1148 67.0023 15.0062 67.4491 14.9786 67.9045C14.9137 68.7912 15.0396 69.6324 14.9786 70.4263C14.9063 71.1824 14.6871 71.9171 14.3335 72.5886C14.0149 73.2344 13.6629 73.8209 13.3678 74.3877C13.2203 74.672 13.0827 74.9485 12.9745 75.225C12.8698 75.4942 12.7927 75.7734 12.7444 76.0583C12.6671 76.5552 12.6612 77.0606 12.7267 77.5591C12.7965 78.2526 13.0566 78.9129 13.478 79.4668C13.5418 79.5494 13.6121 79.6267 13.6884 79.6978C13.7411 79.7522 13.7991 79.8012 13.8615 79.844C13.9579 79.917 14.011 79.9486 14.011 79.9486C13.8231 79.8009 13.6528 79.6319 13.5035 79.445C13.0992 78.8883 12.8531 78.2316 12.7916 77.5453C12.7338 77.0525 12.745 76.5539 12.825 76.0642C12.8755 75.7866 12.9532 75.5148 13.0571 75.2526C13.1692 74.9821 13.3069 74.7056 13.4504 74.4252C13.7494 73.8643 14.1054 73.2818 14.4338 72.6301C14.7994 71.9484 15.0267 71.2007 15.1025 70.4302C15.1713 69.6186 15.0514 68.7754 15.1182 67.9084C15.1463 67.4684 15.2529 67.0369 15.4329 66.6347C15.6281 66.219 15.8612 65.8224 16.1291 65.4498C16.3927 65.0549 16.6759 64.6698 16.9158 64.2393C17.1821 63.8074 17.3531 63.3233 17.4173 62.8194C17.5432 61.7689 16.9374 60.7854 17.0948 59.7526C17.1952 59.2338 17.4095 58.7441 17.7222 58.3189C18.0211 57.8687 18.3712 57.4421 18.6662 56.9623C19.2562 55.9946 19.5492 54.8631 19.7675 53.7276C19.9858 52.5921 20.1471 51.4191 20.5778 50.3112C20.7838 49.7536 21.0679 49.2283 21.4215 48.7512C21.7777 48.2697 22.2402 47.8776 22.7727 47.6058L22.6507 47.5387L22.6625 47.6453C22.7294 48.2594 22.8376 48.8637 22.9084 49.4621C22.9822 50.0567 23.0053 50.6566 22.9772 51.2552C22.9667 51.5494 22.9397 51.8428 22.8966 52.1339C22.8218 52.4148 22.7238 52.689 22.6035 52.9535C22.3614 53.489 22.1506 54.0383 21.9722 54.5985C21.8148 55.1566 21.7159 55.7298 21.6772 56.3086C21.6143 56.876 21.5527 57.4369 21.4923 57.9911C21.3665 59.095 21.2839 60.2009 20.8374 61.1508C20.6152 61.6267 20.3222 62.067 20.1038 62.5489C19.8906 63.0257 19.771 63.5393 19.7518 64.0616C19.6948 65.0766 19.8265 66.0699 19.5551 66.9684C19.2837 67.867 18.7134 68.6095 18.4243 69.4586C18.1352 70.3078 18.2433 71.2043 18.3672 71.9903C18.4911 72.7762 18.6209 73.5523 18.4518 74.2534C18.2827 74.9544 17.8028 75.4698 17.4881 76.0307C17.3235 76.2993 17.2132 76.598 17.1636 76.9094C17.1285 77.1951 17.1101 77.4826 17.1085 77.7704C17.1082 78.0293 17.0704 78.2867 16.9964 78.5347C16.9088 78.7502 16.7689 78.9403 16.5893 79.0876C16.2814 79.3362 15.9354 79.533 15.5647 79.6702C15.2925 79.7723 15.0113 79.8483 14.7249 79.8973C14.5489 79.9294 14.3707 79.9472 14.1919 79.9506C14.0739 79.9526 14.0031 79.9545 14.0031 79.9545Z" fill="#263238"/>
    <path d="M22.2867 48.9688C22.2753 48.9947 22.2667 49.0219 22.2611 49.0497C22.2454 49.1129 22.2277 49.1899 22.2041 49.2867C22.1529 49.494 22.09 49.8061 21.9917 50.1971C21.8933 50.5881 21.6514 51.0265 21.4489 51.5695C21.2097 52.1806 21.0016 52.8034 20.8254 53.4357C20.6287 54.1367 20.4478 54.9168 20.2629 55.7501C20.0781 56.5835 19.8814 57.4761 19.4251 58.3173C19.2107 58.7439 18.9688 59.1763 18.7761 59.6503C18.5875 60.1351 18.4613 60.6421 18.4004 61.159C18.2682 62.2288 18.0792 63.2908 17.834 64.3404C17.3089 66.4968 16.8094 68.5486 16.3531 70.4187L15.1121 75.3754C14.7679 76.7775 14.4867 77.9169 14.29 78.7187C14.1995 79.1136 14.1268 79.4099 14.0737 79.631C14.054 79.7278 14.0363 79.8068 14.0225 79.87C14.0147 79.8963 14.0107 79.9235 14.0107 79.951C14.0232 79.9264 14.0331 79.9006 14.0402 79.8739L14.1071 79.6389C14.1681 79.4197 14.2487 79.1176 14.353 78.7365C14.5634 77.9347 14.8623 76.8012 15.2281 75.403L16.5045 70.4562C16.9647 68.5861 17.4682 66.5343 17.9992 64.3779C18.2436 63.3236 18.432 62.2571 18.5637 61.1827C18.6215 60.6814 18.7411 60.1892 18.9197 59.7174C19.1045 59.2573 19.3425 58.8268 19.5569 58.3943C20.0191 57.5373 20.2098 56.617 20.3947 55.7876C20.5796 54.9582 20.7428 54.1742 20.9336 53.4732C21.1244 52.7722 21.3269 52.1501 21.5236 51.611C21.7203 51.0719 21.9464 50.6236 22.0428 50.2188C22.1392 49.8139 22.1844 49.5098 22.2257 49.2985C22.2414 49.2018 22.2552 49.1228 22.267 49.0596C22.2771 49.0302 22.2837 48.9997 22.2867 48.9688Z" fill="#263238"/>
    <path d="M14.473 79.9709C16.184 78.95 16.6757 75.9286 15.9618 74.0624C15.2479 72.1963 13.9951 70.492 13.7984 68.5034C13.6489 66.975 14.1485 65.405 13.7984 63.9101C13.3224 61.8899 11.3616 60.3318 11.3852 58.2583C11.397 57.0952 12.0559 56.0011 12.0047 54.838C11.9398 53.4142 10.8503 52.2826 10.1757 51.0267C9.14121 49.1052 9.07434 46.8323 8.72033 44.6778C8.36633 42.5233 7.54031 40.2148 5.64833 39.1484C5.36709 40.9771 4.88721 42.2311 5.03864 44.7094C5.09175 45.6 6.1223 47.3023 6.26194 49.2514C6.34651 50.4185 6.40354 51.5856 6.47435 52.7526C6.54318 53.8881 6.61595 55.0434 7.02306 56.1098C7.3338 56.9253 7.83138 57.6639 8.06345 58.5052C8.49613 60.085 7.92578 61.7991 8.27586 63.4006C8.57283 64.7573 9.50899 65.9264 9.69976 67.3028C9.9692 69.2361 8.7164 71.2523 9.35952 73.0888C9.67616 74.0051 10.4274 74.7398 10.6398 75.6837C10.8051 76.4183 10.6241 77.1944 10.7736 77.931C11.0155 79.1159 13.2693 80.0401 14.473 79.965" fill="#E8505B"/>
    <path d="M6.11852 40.9727C6.11544 41.0075 6.11544 41.0425 6.11852 41.0773C6.11852 41.1543 6.14212 41.2531 6.15785 41.3775C6.19719 41.6421 6.24045 42.0292 6.32896 42.5307C6.41746 43.0323 6.68493 43.603 6.89144 44.2883C7.09794 44.9735 7.32608 45.7595 7.51882 46.6402C7.71156 47.521 7.87676 48.4985 8.04786 49.5471C8.21897 50.5957 8.40777 51.7411 8.92502 52.8351C9.16496 53.3841 9.4344 53.9331 9.63697 54.5196C9.83442 55.1206 9.95535 55.7444 9.99688 56.3759C10.093 57.7176 10.2611 59.0532 10.5004 60.3768C11.0235 63.0881 11.523 65.6692 11.9774 68.0211C12.4317 70.3731 12.8879 72.4703 13.2498 74.2456C13.6117 76.0209 13.9146 77.4388 14.123 78.44C14.2273 78.9258 14.3099 79.3069 14.3689 79.5795C14.3964 79.7019 14.42 79.7987 14.4377 79.8737C14.4434 79.9075 14.4526 79.9406 14.4653 79.9724C14.4665 79.9378 14.4626 79.9032 14.4535 79.8697C14.4397 79.7947 14.424 79.696 14.4023 79.5716C14.3512 79.299 14.2784 78.9159 14.1879 78.4262C13.9913 77.423 13.712 75.9893 13.3678 74.2219C13.0237 72.4545 12.5949 70.3336 12.1288 67.9895L10.6656 60.3491C10.4297 59.0299 10.2643 57.699 10.17 56.3621C10.1255 55.7175 9.99996 55.0811 9.79627 54.4683C9.5878 53.8758 9.3164 53.3189 9.07449 52.7739C8.55921 51.6976 8.37827 50.572 8.1934 49.5254C8.00853 48.4788 7.84529 47.4993 7.64272 46.6166C7.44015 45.7338 7.21594 44.9439 6.98781 44.2607C6.75967 43.5774 6.50399 43.0106 6.39779 42.5189C6.29159 42.0272 6.24439 41.6342 6.20112 41.3735C6.17752 41.2511 6.15982 41.1524 6.14605 41.0753C6.14153 41.04 6.13226 41.0055 6.11852 40.9727Z" fill="#263238"/>
    <path d="M80.6747 68.2092C80.9405 68.3365 81.178 68.5163 81.373 68.7378C81.568 68.9594 81.7164 69.2182 81.8095 69.4988C81.9915 70.0622 82.0433 70.6599 81.9609 71.2464C81.8331 72.3819 81.19 73.5253 80.4996 74.4317C79.5478 73.5984 79.3196 72.1449 79.2645 71.4005C79.1623 70.2156 79.6874 68.0335 80.6747 68.2092Z" fill="#E8505B"/>
    <path d="M81.6028 76.3042C81.5392 75.9808 81.5616 75.6463 81.6675 75.3343C81.7735 75.0223 81.9594 74.7438 82.2065 74.5269C82.4583 74.3141 82.7496 74.1538 83.0636 74.0551C83.3776 73.9565 83.708 73.9215 84.0356 73.9522C84.1874 73.9505 84.3378 73.9819 84.4764 74.0443C84.6149 74.1067 84.7383 74.1986 84.838 74.3136C84.9126 74.4356 84.9532 74.5754 84.9556 74.7185C84.9581 74.8616 84.9222 75.0028 84.8518 75.1272C84.7075 75.3744 84.5005 75.5788 84.2519 75.7196C83.4279 76.239 82.535 76.5905 81.6028 76.3121" fill="#E8505B"/>
    <path d="M80.3838 79.7777C80.3883 79.6992 80.3995 79.6212 80.4172 79.5447C80.4467 79.3808 80.4861 79.1695 80.5333 78.9147C80.6385 78.2118 80.857 77.5308 81.1803 76.8985C81.515 76.2676 82.0113 75.7379 82.618 75.3641C82.8032 75.2531 83.0014 75.1655 83.208 75.1034C83.2635 75.0857 83.32 75.0712 83.3771 75.06C83.4165 75.06 83.4381 75.0481 83.4381 75.06C82.9675 75.2125 82.532 75.4579 82.1571 75.7817C81.7822 76.1056 81.4755 76.5014 81.255 76.9459C80.9385 77.5676 80.7158 78.2331 80.5942 78.9206C80.5352 79.1853 80.488 79.3985 80.4526 79.5447C80.4378 79.6245 80.4148 79.7026 80.3838 79.7777Z" fill="#263238"/>
    <path d="M80.419 69.9062C80.4254 69.9402 80.4293 69.9745 80.4308 70.0089C80.4308 70.084 80.4407 70.1807 80.4485 70.3012C80.4623 70.554 80.4761 70.9213 80.4918 71.3775C80.5193 72.2859 80.5429 73.5497 80.537 74.932C80.5311 76.3144 80.4977 77.5763 80.4603 78.4866C80.4426 78.9408 80.423 79.3081 80.4072 79.5629C80.4072 79.6814 80.3935 79.7781 80.3876 79.8552C80.3873 79.8891 80.3833 79.9228 80.3758 79.9559C80.3728 79.9217 80.3728 79.8873 80.3758 79.8532C80.3758 79.7781 80.3758 79.6814 80.3758 79.5609C80.3758 79.2963 80.3915 78.931 80.4013 78.4847C80.4249 77.5763 80.4485 76.3124 80.4544 74.9301C80.4603 73.5477 80.4544 72.2878 80.4328 71.3755C80.4328 70.9292 80.421 70.5638 80.4151 70.2992V70.007C80.4135 69.9733 80.4149 69.9396 80.419 69.9062Z" fill="#263238"/>
    <path d="M79.957 76.9877C79.8424 76.3003 79.5661 75.6503 79.1512 75.0915C78.7364 74.5327 78.1948 74.0813 77.5714 73.7748C77.2547 73.6207 76.8378 73.522 76.5782 73.759C76.3186 73.9959 76.3815 74.4245 76.5015 74.7463C76.7816 75.4309 77.257 76.0171 77.868 76.431C78.479 76.8449 79.1983 77.0682 79.9354 77.0726" fill="#E8505B"/>
    <path d="M77.7246 74.8516C77.7929 74.8737 77.8588 74.9028 77.9213 74.9384C77.9996 74.9749 78.0758 75.0157 78.1494 75.0609C78.2495 75.1171 78.3466 75.1784 78.4405 75.2445C78.5556 75.3222 78.6665 75.406 78.7729 75.4953C78.8963 75.5965 79.0144 75.7039 79.1269 75.8172C79.3821 76.08 79.6071 76.3708 79.7975 76.6842C79.9828 77.0011 80.1313 77.3384 80.24 77.6893C80.2858 77.8425 80.3232 77.9981 80.3521 78.1554C80.3784 78.2925 80.3974 78.4309 80.4092 78.5701C80.4207 78.6842 80.426 78.7989 80.4249 78.9137C80.4303 78.9998 80.4303 79.0862 80.4249 79.1724C80.4243 79.2467 80.4164 79.3208 80.4013 79.3935C80.3816 79.3935 80.4151 79.0776 80.36 78.576C80.3448 78.4393 80.3225 78.3035 80.2931 78.1692C80.2625 78.015 80.2231 77.8627 80.1751 77.713C80.0652 77.3685 79.9174 77.0373 79.7346 76.7256C79.5478 76.417 79.3282 76.1297 79.0797 75.8686C78.9705 75.7555 78.8556 75.6481 78.7355 75.5467C78.6334 75.4552 78.5264 75.3695 78.4149 75.29C78.0039 74.9977 77.7246 74.8674 77.7246 74.8516Z" fill="#263238"/>
    <path d="M66.7426 36.6531C66.7426 36.6531 57.56 30.1186 56.3976 29.4768C55.2904 28.8646 51.7759 28.4203 51.4612 28.3433L45.1677 26.9609L35.5544 27.2493L32.801 28.914L25.8231 32.1487C23.9213 33.0283 22.4223 34.5991 21.6281 36.5445L17.2227 47.3485L28.1635 50.595L28.5037 61.9914L25.9254 79.9461H57.9199L56.3091 45.5356L59.6408 46.2722L66.7426 36.6531Z" fill="#263238"/>
    <path d="M28.3605 46.0083C28.3605 46.0083 28.2445 46.0932 28.0222 46.2235C27.709 46.4145 27.3616 46.542 26.9995 46.5987C26.4574 46.6369 25.9134 46.5575 25.4045 46.3657C24.7771 46.156 24.169 45.8917 23.5873 45.5758C22.9638 45.25 22.3797 44.9202 21.833 44.6556C21.3508 44.4138 20.8495 44.2123 20.3343 44.0533C19.9864 43.9482 19.6296 43.8755 19.2684 43.836C19.1405 43.8222 19.0422 43.8163 18.9734 43.8143H18.8711C19.0024 43.8096 19.1338 43.8142 19.2644 43.8281C19.6274 43.8578 19.9865 43.924 20.3363 44.0256C20.8544 44.1796 21.3584 44.3778 21.8428 44.618C22.3935 44.8827 22.9776 45.2105 23.601 45.5383C24.1811 45.852 24.7863 46.1163 25.4104 46.3282C25.9122 46.5184 26.4484 46.5998 26.9838 46.5671C27.3426 46.5143 27.6879 46.3922 28.0006 46.2077C28.1127 46.1445 28.1973 46.0932 28.2563 46.0577C28.3153 46.0221 28.3605 46.0083 28.3605 46.0083Z" fill="white"/>
    <path d="M27.8922 40.6816H27.8194L27.611 40.6718C27.43 40.6619 27.1685 40.6421 26.8459 40.6105C25.1658 40.4407 23.5138 40.0585 21.9291 39.4731C21.6243 39.3605 21.3804 39.2638 21.2132 39.1927L21.0166 39.1097L20.9497 39.0781L21.0205 39.1018L21.2172 39.1769C21.3863 39.244 21.6322 39.3368 21.937 39.4454C23.5259 40.0162 25.1762 40.3973 26.8538 40.5809C27.1744 40.6165 27.4438 40.6421 27.6149 40.656L27.8234 40.6737L27.8922 40.6816Z" fill="white"/>
    <path d="M34.7697 29.4766C34.7697 29.4766 34.6871 29.6108 34.5141 29.836C34.2673 30.1521 33.9841 30.4378 33.6703 30.6871C33.2005 31.0525 32.6888 31.3601 32.1461 31.6034C31.4821 31.9016 30.798 32.1524 30.0988 32.3538C29.3573 32.575 28.6493 32.7705 28.0141 32.9798C27.4493 33.1593 26.8984 33.3804 26.366 33.6414C26.0072 33.8168 25.6638 34.0222 25.3393 34.2555C25.2213 34.3345 25.1427 34.4076 25.0797 34.453C25.0168 34.4984 24.9873 34.5201 24.9873 34.5201C24.9873 34.5201 25.1033 34.4135 25.3295 34.2417C25.6521 34.0036 25.9942 33.7936 26.3522 33.6137C26.885 33.35 27.4365 33.1262 28.0023 32.9443C28.6375 32.731 29.3475 32.5355 30.087 32.3143C30.7845 32.1139 31.4672 31.8651 32.1304 31.5698C32.6709 31.3283 33.1817 31.0248 33.6526 30.6654C33.9698 30.4214 34.2582 30.1418 34.5121 29.832C34.6045 29.7254 34.6616 29.6345 34.7088 29.5733C34.756 29.5121 34.7697 29.4766 34.7697 29.4766Z" fill="white"/>
    <path d="M54.4469 30.9504C54.4469 30.9504 54.4174 30.9366 54.3623 30.905C54.3073 30.8734 54.2325 30.826 54.1263 30.7727C53.8336 30.6158 53.5283 30.4837 53.2138 30.3777C52.746 30.2201 52.2675 30.0967 51.782 30.0084C51.2353 29.9038 50.6275 29.8228 49.9903 29.7319L46.7295 29.2679L45.7462 29.1217L45.4767 29.0803L45.3843 29.0625L45.4787 29.0724L45.7481 29.1059L46.7315 29.2383L49.9943 29.6905C50.6315 29.7793 51.2392 29.8623 51.7879 29.9689C52.274 30.0587 52.7527 30.1854 53.2197 30.3481C53.5354 30.4576 53.8408 30.595 54.1322 30.7588C54.3407 30.8753 54.4469 30.9504 54.4469 30.9504Z" fill="white"/>
    <path d="M49.9939 33.1289C49.9939 33.1289 49.9212 33.1645 49.7815 33.2257C49.6419 33.2869 49.4334 33.3758 49.164 33.4844C48.6231 33.6996 47.8345 33.9978 46.8354 34.2901C45.6663 34.6381 44.4741 34.902 43.2678 35.08C41.9048 35.2893 40.3846 35.2893 38.8013 35.236C37.2181 35.1827 35.7018 35.1155 34.329 35.2024C33.113 35.2616 31.9101 35.4821 30.7516 35.858C29.9711 36.1159 29.2299 36.4807 28.5489 36.9422C28.3148 37.112 28.1319 37.2463 28.0179 37.349C27.9038 37.4517 27.8369 37.4971 27.8369 37.4971C27.8369 37.4971 27.8959 37.4418 28.012 37.3431C28.128 37.2443 28.305 37.1021 28.541 36.9284C29.2195 36.4602 29.9604 36.0906 30.7418 35.8304C31.9022 35.4499 33.1079 35.2261 34.3271 35.1649C35.7038 35.076 37.2162 35.1432 38.8013 35.1945C40.3865 35.2459 41.9029 35.2498 43.2638 35.0425C44.4688 34.864 45.6597 34.6 46.8275 34.2526C47.8246 33.9642 48.6153 33.67 49.1581 33.4626C49.4295 33.356 49.6379 33.2652 49.7776 33.2099L49.9939 33.1289Z" fill="white"/>
    <path d="M53.0071 35.0588C52.9964 35.0667 52.9844 35.0727 52.9717 35.0766L52.8674 35.1141C52.777 35.1477 52.6452 35.1911 52.4741 35.2385C52.0434 35.362 51.5984 35.4284 51.1505 35.436C50.702 35.4364 50.2559 35.3699 49.8269 35.2385C49.6617 35.1891 49.5299 35.1437 49.4336 35.1082L49.3313 35.0667L49.2959 35.0489H49.3352L49.4395 35.0825C49.5299 35.1141 49.6617 35.1556 49.8328 35.201C50.2611 35.3209 50.7039 35.3807 51.1485 35.3787C51.594 35.3658 52.0364 35.2996 52.4662 35.1812C52.6295 35.1358 52.7632 35.0983 52.8596 35.0687L52.9638 35.0391L53.0071 35.0588Z" fill="white"/>
    <path d="M46.8019 40.6484C46.8019 40.6484 45.8579 40.8459 44.318 41.0789C43.547 41.1954 42.6266 41.31 41.602 41.4127C40.5773 41.5154 39.4386 41.5924 38.2585 41.6378C37.0785 41.6832 35.9378 41.6793 34.9151 41.6575C33.8924 41.6358 32.9484 41.5805 32.1814 41.5213C30.6277 41.4028 29.6738 41.2725 29.6738 41.2725L29.8469 41.2863L30.3464 41.3357C30.7791 41.3811 31.4065 41.4364 32.1834 41.4917C32.9602 41.547 33.8865 41.5924 34.9151 41.6181C35.9437 41.6437 37.0785 41.6378 38.2585 41.5963C39.4386 41.5549 40.5734 41.4699 41.602 41.3752C42.6305 41.2804 43.547 41.1619 44.318 41.0493C45.0889 40.9368 45.7104 40.838 46.1392 40.761L46.6328 40.6741L46.8019 40.6484Z" fill="white"/>
    <path d="M54.5038 40.0891H54.433H54.2363C54.0574 40.0891 53.7997 40.0891 53.4811 40.0891C52.8439 40.0891 51.9628 40.0634 50.9952 39.9805C50.0276 39.8975 49.1524 39.7652 48.527 39.6507C48.2123 39.5954 47.9606 39.5441 47.7855 39.5065L47.5888 39.4631L47.52 39.4453H47.5908L47.7875 39.4809L48.5289 39.6132C49.1563 39.7198 50.0276 39.8462 50.9952 39.9291C51.9628 40.0121 52.8439 40.0397 53.4792 40.0496H54.2344H54.4311L54.5038 40.0891Z" fill="white"/>
    <path d="M44.684 48.2273C44.684 48.2273 44.627 48.2391 44.5228 48.2529L44.0586 48.3181C43.8619 48.3477 43.6102 48.3813 43.3211 48.401C43.032 48.4208 42.7055 48.4603 42.3377 48.4662C41.97 48.4721 41.5766 48.4998 41.1577 48.4919C40.9433 48.4919 40.7231 48.4919 40.4949 48.4919L39.7928 48.4682C38.8311 48.4307 37.7769 48.3576 36.6716 48.2707C35.5663 48.1838 34.5082 48.0732 33.5544 48.0159C32.6005 47.9587 31.7312 47.9152 30.9977 47.9271H30.4804L30.0182 47.9508C29.7311 47.9626 29.4813 47.9765 29.2807 48.0021L28.8146 48.0475L28.6514 48.0614C28.6514 48.0614 28.7084 48.0515 28.8146 48.0396L29.2787 47.9844C29.4754 47.9567 29.7291 47.9429 30.0182 47.9271L30.4804 47.9014H30.9977C31.7253 47.8876 32.5927 47.9231 33.5544 47.9824C34.5161 48.0416 35.5663 48.1404 36.6716 48.2332C37.7769 48.326 38.835 48.403 39.7908 48.4445L40.491 48.4701C40.7191 48.4701 40.9394 48.4701 41.1538 48.4701C41.5806 48.4701 41.9778 48.4603 42.3338 48.4504C42.6898 48.4405 43.0241 48.407 43.3172 48.3892C43.6102 48.3714 43.8521 48.3418 44.0547 48.3141L44.5188 48.2569L44.684 48.2273Z" fill="white"/>
    <path d="M56.2583 45.9107L56.1718 45.9245L55.92 45.9502C55.7037 45.9739 55.387 45.9996 54.9976 46.0272C54.2109 46.0805 53.1352 46.118 51.9414 46.0884C50.7476 46.0588 49.6678 45.9601 48.891 45.8653C48.4976 45.8179 48.1889 45.7744 47.9725 45.7409L47.7247 45.7014L47.6382 45.6836L47.7247 45.6935L47.9745 45.7251C48.1908 45.7547 48.5055 45.7942 48.8949 45.8376C49.6718 45.9245 50.7476 46.0154 51.9414 46.047C53.1352 46.0785 54.2149 46.047 54.9957 45.9976C55.389 45.9759 55.7017 45.9522 55.92 45.9344L56.1698 45.9146L56.2583 45.9107Z" fill="white"/>
    <path d="M56.3979 53.0866L56.1108 53.0708C55.9141 53.0708 55.6446 53.0313 55.2867 53.0215C54.5708 52.9839 53.5344 52.9761 52.254 53.0392C50.9737 53.1024 49.4574 53.2545 47.7778 53.4776C46.0982 53.7008 44.2574 53.9911 42.3241 54.236C40.4981 54.4832 38.6594 54.6236 36.8173 54.6566C35.3152 54.6823 33.8139 54.5733 32.3312 54.3307C31.332 54.1653 30.3484 53.9156 29.391 53.5843C29.2199 53.531 29.0724 53.4737 28.9445 53.4223L28.618 53.292C28.443 53.2229 28.3525 53.1834 28.3525 53.1834L28.622 53.2841L28.9485 53.4105C29.0763 53.4618 29.2258 53.5171 29.3969 53.5705C30.3551 53.8952 31.3386 54.1396 32.3371 54.3011C33.8183 54.5387 35.3175 54.6451 36.8173 54.6191C38.6596 54.5819 40.4982 54.4381 42.3241 54.1886C44.2613 53.9378 46.1021 53.6495 47.7837 53.4322C49.4652 53.215 50.9776 53.0689 52.254 53.0037C53.2643 52.9519 54.2765 52.9519 55.2867 53.0037C56.0026 53.0452 56.3979 53.0866 56.3979 53.0866Z" fill="white"/>
    <path d="M45.5827 60.4584C45.5827 60.4584 44.6367 60.6203 43.0948 60.7862C42.3258 60.8691 41.4054 60.9442 40.3827 61.0034C39.36 61.0626 38.2311 61.0903 37.0491 61.0844C35.8671 61.0784 34.7402 61.0232 33.7175 60.956C32.6948 60.8889 31.7764 60.7941 31.0074 60.6993C29.4674 60.5018 28.5254 60.3359 28.5254 60.3359L28.6985 60.3577L29.1921 60.4307C29.4045 60.4643 29.6681 60.5018 29.9788 60.5393C30.2895 60.5769 30.6317 60.6302 31.0153 60.6697C31.7862 60.7605 32.7047 60.8474 33.7254 60.9185C34.7461 60.9896 35.873 61.0311 37.055 61.0429C38.237 61.0548 39.364 61.0172 40.3866 60.9659C41.4093 60.9145 42.3278 60.8375 43.0987 60.7566C43.4921 60.721 43.8323 60.6756 44.1372 60.642C44.442 60.6085 44.7056 60.5729 44.9239 60.5433L45.4175 60.4781L45.5827 60.4584Z" fill="white"/>
    <path d="M56.2874 59.0469C56.2874 59.0469 56.25 59.0607 56.1812 59.0804L55.8803 59.1733C55.6167 59.2522 55.2352 59.3609 54.7612 59.4892C53.8152 59.744 52.4955 60.0599 51.0244 60.3305C49.5533 60.601 48.2061 60.7768 47.2307 60.8755C46.7429 60.9249 46.3476 60.9585 46.0742 60.9782L45.7595 60.9999H45.6494L45.7576 60.9861L46.0723 60.9565C46.3456 60.9328 46.7409 60.8933 47.2267 60.84C48.2101 60.7333 49.5455 60.5556 51.0166 60.2851C52.4877 60.0145 53.8054 59.7025 54.7533 59.4537C55.2273 59.3312 55.6089 59.2266 55.8724 59.1515L56.1772 59.0666L56.2874 59.0469Z" fill="white"/>
    <path d="M38.0797 68.6926C37.5729 68.7717 37.0621 68.8224 36.5496 68.8447C36.0757 68.8704 35.5092 68.8723 34.8799 68.8447C33.516 68.7792 32.1647 68.5518 30.854 68.1674C30.2502 67.9876 29.7153 67.8 29.2807 67.6203C28.8038 67.4302 28.337 67.2153 27.8823 66.9766L27.9807 67.02L28.258 67.1484C28.3779 67.2056 28.5254 67.2748 28.7005 67.3458C28.8755 67.4169 29.0683 67.5078 29.2905 67.5907C29.731 67.7684 30.2738 67.9521 30.8639 68.1298C31.519 68.3157 32.1834 68.4673 32.8542 68.584C33.526 68.6907 34.2028 68.7632 34.8819 68.8013C35.5092 68.8289 36.0737 68.8309 36.5477 68.8013C36.7856 68.8013 37 68.7756 37.1888 68.7637C37.3776 68.7519 37.5369 68.7341 37.6707 68.7203L37.9735 68.6887L38.0797 68.6926Z" fill="white"/>
    <path d="M56.9995 68.1914L56.8028 68.227L56.2403 68.3178C55.7526 68.3948 55.0446 68.5034 54.1694 68.6278C52.419 68.8786 49.9941 69.1906 47.3095 69.4592C44.6249 69.7278 42.1842 69.8976 40.426 69.9964C39.5429 70.0457 38.8271 70.0813 38.3334 70.101L37.765 70.1227H37.5684L37.765 70.1109L38.3334 70.0813L40.424 69.9648C42.1941 69.8581 44.6249 69.6804 47.3075 69.4138C49.9901 69.1472 52.421 68.8391 54.1674 68.5962L56.2403 68.298L56.8028 68.2151L56.9995 68.1914Z" fill="white"/>
    <path d="M58.0302 75.4634C58.0302 75.4634 57.6015 75.5543 56.8168 75.6826C56.032 75.811 54.8953 75.9709 53.4733 76.0894C51.8151 76.2251 50.1506 76.266 48.4877 76.2119C46.6095 76.1506 44.5543 75.9393 42.4047 75.6747C40.2551 75.4101 38.2057 75.1435 36.3354 74.9974C34.6789 74.854 33.015 74.8164 31.3537 74.8848C30.2319 74.9373 29.115 75.0653 28.0103 75.2679C27.6169 75.343 27.318 75.4061 27.1154 75.4555L26.8047 75.5266C26.8047 75.5266 26.9109 75.497 27.1135 75.4476C27.316 75.3982 27.6169 75.3311 28.0064 75.2501C29.1103 75.0406 30.2275 74.9086 31.3498 74.8552C33.0114 74.7803 34.6761 74.8139 36.3334 74.9559C38.2077 75.102 40.2551 75.3686 42.4047 75.6332C44.5543 75.8979 46.6095 76.1092 48.4858 76.1704C50.1471 76.2273 51.8103 76.1897 53.4674 76.0578C54.8815 75.9433 56.0242 75.7873 56.8109 75.6629C57.2042 75.5997 57.5071 75.5503 57.7136 75.5128L58.0302 75.4634Z" fill="white"/>
    <path d="M63.8005 34.8867C63.8005 34.8867 63.7435 35.0427 63.6157 35.3152C63.4313 35.6984 63.2169 36.0662 62.9745 36.4152C62.6139 36.9312 62.2197 37.4226 61.7945 37.8864C61.3185 38.4156 60.7718 38.9725 60.2211 39.5768C59.6952 40.1389 59.2151 40.7425 58.7854 41.3817C58.4353 41.9043 58.1518 42.4689 57.9417 43.0623C57.7984 43.4666 57.7053 43.8871 57.6644 44.3143C57.6447 44.4624 57.6506 44.5809 57.6447 44.6599C57.6388 44.7389 57.6447 44.7803 57.6447 44.7803C57.6395 44.6242 57.6434 44.4679 57.6565 44.3123C57.6902 43.8868 57.7782 43.4673 57.9181 43.0643C58.1256 42.4674 58.4078 41.8994 58.7579 41.3738C59.1876 40.731 59.6684 40.1241 60.1955 39.559C60.7502 38.9567 61.2989 38.3998 61.7689 37.8726C62.1931 37.4107 62.5872 36.9219 62.9489 36.4093C63.194 36.0635 63.4116 35.6991 63.5999 35.3192C63.6707 35.1849 63.712 35.0763 63.7474 35.0052C63.7828 34.9341 63.8005 34.8867 63.8005 34.8867Z" fill="white"/>
    <path d="M54.7417 38.2879L54.8086 38.2385L55.0052 38.1042C55.1783 37.9917 55.4202 37.8179 55.7113 37.5928C56.0024 37.3676 56.3387 37.0872 56.6946 36.7554C57.0783 36.3939 57.4426 36.0122 57.7862 35.6121C58.1254 35.2074 58.4438 34.7856 58.74 34.3482C59.0075 33.9414 59.2337 33.5583 59.4067 33.2404C59.5798 32.9224 59.7135 32.6479 59.8001 32.4504L59.9004 32.2352L59.9378 32.1602C59.7901 32.5339 59.622 32.8991 59.4343 33.2542C59.2632 33.582 59.0409 33.9611 58.7715 34.368C58.4783 34.8089 58.1605 35.2328 57.8196 35.6377C57.4751 36.0396 57.1088 36.4219 56.7222 36.7831C56.3623 37.1129 56.026 37.3953 55.7388 37.6164C55.4193 37.8589 55.0864 38.0831 54.7417 38.2879Z" fill="white"/>
    <path d="M40.6855 47.5217C40.7001 47.5121 40.716 47.5048 40.7327 47.5L40.8744 47.4447C41.0022 47.4013 41.1812 47.3223 41.4113 47.2157C42.051 46.892 42.6379 46.4725 43.1518 45.9715C43.9095 45.2245 44.5781 44.3914 45.1441 43.4893C45.8545 42.3944 46.5032 41.2604 47.0872 40.0926C48.1348 37.9632 49.0543 35.7725 49.8406 33.5325C50.1494 32.6754 50.3893 31.9763 50.5585 31.4965L50.7551 30.9416C50.7768 30.8823 50.7945 30.8369 50.8082 30.7974C50.822 30.7579 50.8279 30.75 50.8279 30.75C50.8269 30.7675 50.8236 30.7847 50.8181 30.8013C50.8063 30.8408 50.7905 30.8882 50.7728 30.9475C50.7315 31.0837 50.6725 31.2713 50.5958 31.5083C50.4405 31.9941 50.2025 32.6932 49.9075 33.5561C49.1389 35.8074 48.2251 38.0061 47.1718 40.1381C46.5868 41.3092 45.9347 42.4453 45.2188 43.5406C44.6446 44.445 43.9659 45.2782 43.197 46.0229C42.6759 46.5238 42.0783 46.9378 41.427 47.2492C41.2497 47.3316 41.0678 47.4034 40.8822 47.4645L40.7367 47.5099C40.7203 47.5164 40.7031 47.5204 40.6855 47.5217Z" fill="#455A64"/>
    <path d="M40.3574 51.7006C40.3898 51.6693 40.4254 51.6415 40.4636 51.6177L40.7822 51.3985C41.0556 51.201 41.4509 50.9225 41.9269 50.5572C42.8807 49.8285 44.1335 48.7404 45.4787 47.4983C46.1553 46.8782 46.8023 46.2917 47.3609 45.7309C47.8603 45.2378 48.3243 44.7099 48.7494 44.151C49.0345 43.7729 49.2884 43.372 49.5085 42.9523C49.5911 42.8062 49.6423 42.6858 49.6816 42.6068C49.7003 42.5657 49.722 42.5261 49.7465 42.4883C49.7366 42.5327 49.7215 42.5758 49.7013 42.6166C49.6659 42.6976 49.6207 42.8141 49.542 42.9701C49.3346 43.3998 49.0877 43.809 48.8045 44.1925C48.3872 44.7616 47.9269 45.2977 47.4278 45.796C46.8692 46.3648 46.2241 46.9532 45.5476 47.5733C44.4071 48.6472 43.2131 49.6622 41.9701 50.6145C41.4883 50.9759 41.0871 51.2484 40.8039 51.432C40.6642 51.5248 40.5521 51.59 40.4774 51.6295C40.439 51.6559 40.399 51.6796 40.3574 51.7006Z" fill="#455A64"/>
    <path d="M35.0469 72.8134L35.0705 72.768C35.0921 72.7364 35.1177 72.6949 35.1491 72.6436C35.218 72.533 35.3242 72.375 35.4658 72.1736C35.751 71.7786 36.1895 71.2119 36.7678 70.5523C37.934 69.2371 39.5664 67.446 41.3659 65.4613L45.9897 60.3961L47.3998 58.8676L47.7932 58.4548L47.8954 58.3502C47.919 58.3265 47.9308 58.3146 47.9328 58.3166C47.9348 58.3186 47.923 58.3304 47.9033 58.3561L47.8069 58.4687L47.4372 58.8932C47.1028 59.2645 46.6308 59.7938 46.0506 60.4415L41.4466 65.5285L36.8169 70.5977C36.2269 71.2514 35.7864 71.8043 35.4933 72.1973C35.3458 72.3948 35.2357 72.5488 35.1609 72.6535L35.0764 72.7739C35.0686 72.7885 35.0587 72.8019 35.0469 72.8134Z" fill="#455A64"/>
    <path d="M53.4084 37.321C53.3764 37.223 53.3521 37.1226 53.3356 37.0208C53.314 36.9241 53.2904 36.8036 53.2727 36.6634C53.255 36.5232 53.2255 36.3632 53.2176 36.1855C53.2097 36.0078 53.1881 35.8123 53.1901 35.5931C53.192 35.3739 53.1901 35.1586 53.2058 34.9217C53.2741 33.8983 53.5232 32.8953 53.9414 31.9595C54.0417 31.7462 54.138 31.5428 54.2403 31.3671C54.3426 31.1913 54.437 31.0156 54.5373 30.8655C54.6376 30.7154 54.7339 30.5831 54.8087 30.4705C54.8776 30.3711 54.9517 30.2755 55.0309 30.1842C55.0906 30.1023 55.1564 30.0251 55.2276 29.9531C55.1767 30.043 55.1182 30.1282 55.0525 30.2079C54.9935 30.2869 54.9208 30.3836 54.846 30.5021C54.7713 30.6206 54.6749 30.749 54.5884 30.8971C54.5019 31.0452 54.3917 31.215 54.3032 31.4006C54.2147 31.5863 54.1066 31.7956 54.0161 31.9931C53.6099 32.9242 53.3638 33.9178 53.2884 34.9315C53.2766 35.1646 53.2589 35.3857 53.2628 35.5931C53.2668 35.8004 53.2628 35.988 53.2786 36.1717C53.2943 36.3553 53.3061 36.5074 53.3199 36.6476C53.3336 36.7878 53.3494 36.9083 53.3651 37.007C53.3896 37.11 53.4041 37.2152 53.4084 37.321Z" fill="#455A64"/>
    <path d="M56.2698 44.4061C56.2462 44.4061 55.8922 43.632 55.4831 42.6525C55.0741 41.673 54.7594 40.8752 54.783 40.8594C55.0744 41.4303 55.337 42.0155 55.5697 42.613C55.8342 43.1979 56.0679 43.7965 56.2698 44.4061Z" fill="#455A64"/>
    <path d="M28.1638 38.1447C28.1481 38.1546 27.9947 37.8722 27.7056 37.4436C26.9503 36.325 25.9743 35.3739 24.8381 34.6493C24.4034 34.3729 24.1183 34.2267 24.1261 34.2109C24.1986 34.2322 24.2685 34.2613 24.3346 34.2978C24.4664 34.359 24.6512 34.4578 24.8755 34.5901C25.4576 34.9389 25.9975 35.3544 26.4842 35.8283C26.9699 36.3039 27.3995 36.834 27.7646 37.4081C27.9022 37.6293 28.0065 37.8129 28.0714 37.9433C28.1089 38.0071 28.1399 38.0746 28.1638 38.1447Z" fill="#455A64"/>
    <path d="M35.883 33.478C35.8717 33.4126 35.8717 33.3458 35.883 33.2805C35.9164 32.9094 36.0754 32.5609 36.3334 32.2931L36.3452 32.2812V32.2951C36.3592 32.3226 36.3698 32.3518 36.3767 32.382C36.3767 32.382 36.355 32.3563 36.3275 32.3049H36.3452C36.2177 32.4563 36.1136 32.626 36.0364 32.8085C35.9546 33.0234 35.903 33.2487 35.883 33.478Z" fill="#455A64"/>
    <path d="M38.4868 34.8348C38.4619 34.7718 38.4479 34.7051 38.4455 34.6373C38.4284 34.4756 38.4323 34.3123 38.4573 34.1515C38.4824 33.991 38.528 33.8343 38.593 33.6855C38.6165 33.6228 38.6497 33.5641 38.6913 33.5117C38.6026 33.7199 38.5367 33.937 38.4947 34.1594C38.4681 34.3836 38.4655 34.6101 38.4868 34.8348Z" fill="#455A64"/>
    <path d="M41.3248 34.6054C41.3156 34.4212 41.2906 34.2382 41.25 34.0583C41.1951 33.8813 41.1233 33.71 41.0356 33.5469C41.0751 33.5856 41.1082 33.6302 41.134 33.6792C41.202 33.794 41.2543 33.9176 41.2894 34.0465C41.3233 34.1754 41.3412 34.3081 41.3425 34.4414C41.346 34.4967 41.34 34.5522 41.3248 34.6054Z" fill="#455A64"/>
    <path d="M43.8066 33.5158C43.7231 33.3403 43.6243 33.1725 43.5116 33.0142C43.3857 32.8665 43.2476 32.7297 43.0986 32.6055C43.152 32.6273 43.2018 32.6573 43.2461 32.6943C43.3572 32.7793 43.457 32.8782 43.5431 32.9886C43.6288 33.0996 43.7001 33.221 43.7555 33.35C43.7813 33.4021 43.7986 33.4581 43.8066 33.5158Z" fill="#455A64"/>
    <path d="M45.5161 31.8232C45.453 31.6155 45.3355 31.4286 45.1759 31.2821C45.0101 31.1435 44.8093 31.0539 44.5957 31.0234C44.5957 31.0234 44.6154 31.0234 44.6488 31.0234C44.6958 31.025 44.7425 31.031 44.7884 31.0412C44.9418 31.0779 45.0841 31.151 45.2034 31.2545C45.323 31.3574 45.4156 31.4883 45.4729 31.6356C45.4914 31.6793 45.5046 31.725 45.5122 31.7719C45.5157 31.7887 45.5171 31.806 45.5161 31.8232Z" fill="#455A64"/>
    <path d="M46.4304 28.6951C46.2791 28.5737 46.1022 28.4886 45.9131 28.4463C45.7213 28.4168 45.5252 28.4331 45.3408 28.4937C45.5185 28.4005 45.722 28.3693 45.9193 28.405C46.1166 28.4408 46.2964 28.5415 46.4304 28.6912V28.6951Z" fill="#455A64"/>
    <path d="M34.1758 31.3685C34.1796 31.3099 34.1936 31.2524 34.2171 31.1987C34.3218 30.9341 34.5199 30.7175 34.7737 30.5904C34.8251 30.5624 34.881 30.5437 34.9389 30.5352C34.7606 30.6127 34.6006 30.7269 34.4692 30.8704C34.3377 31.014 34.2378 31.1837 34.1758 31.3685Z" fill="#455A64"/>
    <path d="M33.5542 29.2869C33.5779 29.2291 33.6111 29.1757 33.6525 29.129C33.7446 29.0085 33.8555 28.9038 33.981 28.8189C34.1064 28.7324 34.2444 28.6658 34.3901 28.6214C34.4488 28.6008 34.5107 28.5901 34.573 28.5898C34.1641 28.6953 33.8042 28.9395 33.5542 29.281V29.2869Z" fill="#455A64"/>
    <path d="M28.6653 41.426C28.6653 41.426 28.6653 41.4142 28.6535 41.426C28.6452 41.4463 28.6393 41.4675 28.6358 41.4892C28.626 41.5504 28.6162 41.6393 28.6044 41.7558C28.5808 41.9868 28.5552 42.3226 28.5277 42.7432C28.4706 43.5746 28.4057 44.718 28.3447 45.9956C28.2838 47.2733 28.2366 48.4167 28.209 49.2501C28.1953 49.645 28.1854 49.9886 28.1776 50.2374C28.1776 50.3441 28.1776 50.4349 28.1658 50.506C28.1687 50.5369 28.1687 50.568 28.1658 50.5988C28.157 50.5687 28.1537 50.5373 28.1559 50.506C28.1559 50.4329 28.1559 50.3441 28.1559 50.2374C28.1559 50.0044 28.1559 49.6667 28.1559 49.2501C28.1559 48.4167 28.1992 47.2634 28.2621 45.9917C28.3251 44.7199 28.3998 43.5706 28.4746 42.7392C28.5119 42.3225 28.5493 41.9868 28.5847 41.7518C28.6024 41.6373 28.6201 41.5544 28.6358 41.4872C28.6413 41.4635 28.6506 41.4408 28.6634 41.4201C28.6634 41.4023 28.6693 41.43 28.6653 41.426Z" fill="#263238"/>
    <path d="M50.3344 1.53698C48.6941 1.03341 46.991 2.50857 45.2996 2.17681C44.2769 1.97933 43.5059 1.15585 42.5954 0.646358C41.2364 -0.115905 39.3129 -0.240315 37.9244 0.468628C36.5359 1.17757 35.6371 1.93193 35.4503 3.48608C34.1857 2.75739 32.0774 4.35498 31.3595 5.89728C30.6417 7.43957 30.8206 9.03124 31.2277 10.6841C31.9351 13.5349 33.1926 16.2186 34.9291 18.5832C35.0825 18.7925 35.3224 19.0236 35.5604 18.913C35.6338 18.8614 35.6941 18.7933 35.7364 18.7141C35.7788 18.6348 35.802 18.5467 35.8043 18.4568C36.0462 16.9461 35.8554 15.4038 35.7237 13.8793C35.5919 12.3548 35.527 10.7829 36.0088 9.33733C36.4907 7.8918 37.6215 6.5608 39.1162 6.26459C40.2215 6.04539 41.3681 6.40479 42.3495 6.9597C43.3309 7.51462 44.1943 8.25318 45.1285 8.88313C46.0627 9.51309 47.1129 10.0443 48.2379 10.0917C49.3628 10.1391 50.5704 9.60985 51.0483 8.58692C51.5262 7.56399 50.9913 6.11055 49.8899 5.87555C50.4028 5.83044 50.884 5.60729 51.2508 5.2445C51.6175 4.8817 51.8469 4.40193 51.8996 3.88767C51.9522 3.37342 51.8247 2.85683 51.539 2.42674C51.2534 1.99665 50.8274 1.67993 50.3344 1.53106V1.53698Z" fill="#263238"/>
    <path d="M45.2741 28.0287L45.1148 24.7644C45.1148 24.7644 49.4062 23.9389 49.3098 19.6043C49.2626 17.513 48.8142 13.21 48.3658 9.32164C48.1346 7.30372 47.1546 5.44736 45.6212 4.12249C44.0878 2.79763 42.1135 2.10155 40.0918 2.17297L39.6749 2.18679C35.1967 2.60939 33.049 6.66557 33.5938 11.1503L34.6263 28.6073C34.7095 30.019 35.3457 31.3404 36.3959 32.2828C37.4461 33.2251 38.825 33.712 40.2315 33.637C41.6396 33.5614 42.9607 32.929 43.9057 31.878C44.8507 30.8269 45.3427 29.4429 45.2741 28.0287Z" fill="#FFBE9D"/>
    <path d="M45.1208 24.7635C45.1208 24.7635 42.4008 25.0814 39.439 23.3555C39.439 23.3555 40.8786 26.4282 45.17 25.8852L45.1208 24.7635Z" fill="#EB996E"/>
    <path d="M46.9125 12.2522C46.919 12.4131 46.863 12.5702 46.7562 12.6904C46.6493 12.8106 46.5002 12.8843 46.3402 12.8959C46.262 12.9049 46.1828 12.8982 46.1073 12.876C46.0318 12.8538 45.9615 12.8167 45.9005 12.7669C45.8394 12.717 45.789 12.6554 45.752 12.5856C45.715 12.5159 45.6924 12.4394 45.6853 12.3608C45.6777 12.1997 45.733 12.042 45.8396 11.9214C45.9461 11.8007 46.0954 11.7267 46.2556 11.715C46.3341 11.7057 46.4136 11.7124 46.4895 11.7345C46.5653 11.7567 46.636 11.7939 46.6973 11.844C46.7585 11.8941 46.8091 11.956 46.8461 12.0261C46.8831 12.0963 46.9057 12.1731 46.9125 12.2522Z" fill="#263238"/>
    <path d="M47.512 11.465C47.4373 11.5479 46.9594 11.2181 46.2966 11.2438C45.6338 11.2695 45.1598 11.619 45.0851 11.54C45.0477 11.5045 45.1205 11.3563 45.327 11.1944C45.6065 10.9845 45.9438 10.8666 46.2926 10.8567C46.6378 10.8431 46.9782 10.9406 47.2642 11.1352C47.4746 11.2833 47.5474 11.4274 47.512 11.465Z" fill="#263238"/>
    <path d="M40.3987 12.7187C40.4058 12.88 40.35 13.0376 40.2431 13.1582C40.1362 13.2788 39.9868 13.3528 39.8264 13.3645C39.7483 13.3735 39.6691 13.3667 39.5936 13.3445C39.518 13.3224 39.4477 13.2853 39.3867 13.2354C39.3257 13.1855 39.2752 13.1239 39.2382 13.0542C39.2013 12.9844 39.1786 12.908 39.1715 12.8293C39.1644 12.668 39.2202 12.5104 39.3271 12.3898C39.434 12.2692 39.5835 12.1952 39.7438 12.1836C39.822 12.1745 39.9011 12.1813 39.9767 12.2035C40.0522 12.2256 40.1225 12.2628 40.1835 12.3126C40.2446 12.3625 40.295 12.4241 40.332 12.4938C40.3689 12.5636 40.3916 12.64 40.3987 12.7187Z" fill="#263238"/>
    <path d="M40.9983 11.8204C40.9256 11.9033 40.4457 11.5736 39.7829 11.5992C39.1201 11.6249 38.6461 11.9744 38.5714 11.8954C38.534 11.8599 38.6068 11.7118 38.8133 11.5499C39.0935 11.3399 39.4315 11.222 39.7809 11.2122C40.1255 11.1987 40.4652 11.2962 40.7505 11.4906C40.961 11.6407 41.0357 11.7829 40.9983 11.8204Z" fill="#263238"/>
    <path d="M43.5766 16.669C43.5766 16.6295 43.9817 16.5446 44.6464 16.436C44.8156 16.4123 44.9749 16.3728 45.0005 16.2543C45.0075 16.0783 44.9616 15.9042 44.8687 15.7547C44.6956 15.3499 44.5147 14.9233 44.3239 14.479C43.5628 12.6602 43.0062 11.1614 43.0809 11.1219C43.1557 11.0824 43.8283 12.5417 44.5874 14.3605C44.7723 14.8081 44.9474 15.2366 45.1126 15.6461C45.2262 15.8472 45.2658 16.0821 45.2247 16.3096C45.2022 16.3704 45.1662 16.4252 45.1196 16.4701C45.0729 16.5149 45.0167 16.5485 44.9552 16.5683C44.862 16.5972 44.7655 16.6138 44.6681 16.6177C43.9974 16.6947 43.5805 16.7125 43.5766 16.669Z" fill="#263238"/>
    <path d="M41.6412 17.2033C41.7494 17.1914 41.7769 17.9142 42.4102 18.4059C43.0435 18.8976 43.8066 18.791 43.8164 18.8917C43.8282 18.9371 43.6512 19.0378 43.3267 19.0576C42.9028 19.0813 42.4844 18.9525 42.1467 18.6942C41.8273 18.4464 41.6158 18.0841 41.5567 17.6831C41.5193 17.381 41.5921 17.1993 41.6412 17.2033Z" fill="#263238"/>
    <path d="M40.9473 8.40723C40.8883 8.58891 40.2236 8.52769 39.4487 8.64815C38.6738 8.76861 38.0523 9.00558 37.9441 8.84563C37.895 8.76861 37.9972 8.59483 38.245 8.41118C38.5759 8.18366 38.9541 8.03512 39.3509 7.97694C39.7477 7.91875 40.1525 7.95245 40.5343 8.07546C40.8214 8.17618 40.9709 8.32034 40.9473 8.40723Z" fill="#263238"/>
    <path d="M47.2012 9.55693C47.0891 9.71096 46.6269 9.57075 46.0782 9.5826C45.5295 9.59445 45.0673 9.72083 44.9532 9.56482C44.9041 9.48978 44.9729 9.33575 45.1716 9.18567C45.4358 8.99985 45.7517 8.90242 46.0743 8.90723C46.3955 8.89581 46.7123 8.98483 46.9809 9.16197C47.1796 9.31798 47.2504 9.47004 47.2012 9.55693Z" fill="#263238"/>
    <path d="M34.0635 14.3437C33.9888 14.3141 31.0682 13.5677 31.2649 16.516C31.4615 19.4643 34.3801 18.6646 34.3801 18.5796C34.3801 18.4947 34.0635 14.3437 34.0635 14.3437Z" fill="#FFBE9D"/>
    <path d="M33.3988 17.5307C33.385 17.5307 33.3496 17.5702 33.265 17.6156C33.148 17.6788 33.0109 17.693 32.8835 17.6551C32.5629 17.5603 32.2679 17.0824 32.2187 16.5492C32.1943 16.2964 32.2266 16.0414 32.3131 15.8028C32.3341 15.7081 32.3779 15.6201 32.4407 15.5464C32.5034 15.4727 32.5832 15.4157 32.6731 15.3802C32.731 15.3603 32.794 15.3615 32.8511 15.3835C32.9083 15.4056 32.9559 15.447 32.9858 15.5006C33.031 15.5816 33.0153 15.6408 33.031 15.6448C33.0467 15.6487 33.092 15.5915 33.0585 15.471C33.0371 15.399 32.992 15.3364 32.9307 15.2933C32.8451 15.238 32.7415 15.2181 32.6416 15.238C32.5222 15.2698 32.4131 15.332 32.3245 15.4184C32.236 15.5049 32.1711 15.6128 32.1361 15.7317C32.0283 15.9967 31.9864 16.2841 32.0142 16.569C32.0732 17.1614 32.4076 17.7005 32.8481 17.7953C32.9286 17.8133 33.0121 17.8128 33.0925 17.794C33.1728 17.7752 33.2479 17.7385 33.3122 17.6867C33.3988 17.6037 33.4086 17.5366 33.3988 17.5307Z" fill="#EB996E"/>
    <path d="M49.2468 8.37303C48.2999 8.65286 47.3004 8.70301 46.3304 8.51934C45.3604 8.33567 44.4477 7.92343 43.6673 7.31653C42.5856 6.45948 41.732 5.20352 40.4025 4.84214C39.9495 4.73822 39.4805 4.72574 39.0227 4.8054C38.5649 4.88507 38.1274 5.0553 37.7357 5.30621C36.9538 5.81189 36.2843 6.47407 35.7689 7.25136C36.6795 9.42361 36.2056 11.9019 35.7178 14.2065C35.691 14.4682 35.5782 14.7134 35.3972 14.9036C35.059 15.184 34.5279 14.9925 34.2172 14.6844C33.7118 14.1887 33.4974 13.4719 33.3499 12.7807C32.9846 11.2053 32.9357 9.57262 33.2063 7.97808C33.4832 6.37811 34.2217 4.89495 35.3304 3.71257C36.7738 2.27496 38.7177 1.45768 40.7506 1.43368C42.773 1.42512 44.7466 2.05667 46.3912 3.23862C47.1543 3.77576 47.8623 4.42349 48.2753 5.27066" fill="#263238"/>
    <path d="M51.6089 2.53854C51.6213 2.62506 51.6153 2.71323 51.5912 2.79724C51.5289 3.04168 51.3912 3.26009 51.1979 3.42126C50.8878 3.67029 50.507 3.81411 50.1103 3.83202C49.8665 3.85369 49.621 3.84707 49.3787 3.81227C49.1003 3.77464 48.8373 3.66204 48.6176 3.48643C48.494 3.38824 48.3943 3.26303 48.3261 3.12033C48.258 2.97763 48.2231 2.82121 48.2242 2.66295C48.2398 2.49069 48.3034 2.32633 48.4078 2.18871C48.5121 2.0511 48.653 1.9458 48.8142 1.88489C48.9815 1.81514 49.1626 1.7854 49.3433 1.798C49.5312 1.81673 49.7096 1.89017 49.8566 2.0093C50.0043 2.13472 50.1233 2.2907 50.2055 2.46656C50.2876 2.64243 50.331 2.83404 50.3325 3.02828C50.3397 3.43816 50.1864 3.83449 49.9058 4.13218C49.6193 4.43667 49.2576 4.65949 48.8575 4.77793C48.0472 5.03268 47.1425 4.91024 46.3283 4.5923C45.5383 4.26619 44.7886 3.84937 44.0941 3.35017C43.4541 2.89445 42.7772 2.49348 42.0704 2.15149C41.4334 1.8462 40.7323 1.70052 40.027 1.72691C39.4154 1.77162 38.8212 1.95096 38.2864 2.2522C37.5067 2.69796 36.854 3.33709 36.3905 4.10849C36.2593 4.31313 36.1391 4.52474 36.0306 4.74239C35.9972 4.82135 35.9585 4.89789 35.9146 4.97146C35.9181 4.94958 35.9247 4.9283 35.9342 4.90827C35.948 4.86877 35.9696 4.80756 36.0031 4.73054C36.0984 4.50315 36.2094 4.28276 36.3354 4.07096C36.7864 3.27525 37.4392 2.61365 38.2274 2.15346C38.7767 1.8397 39.3888 1.65283 40.0191 1.60645C40.7455 1.57239 41.4692 1.71677 42.1274 2.02708C42.8447 2.37221 43.5316 2.77783 44.1807 3.23959C44.8658 3.73049 45.6041 4.14189 46.3814 4.46592C47.1779 4.77398 48.0472 4.89247 48.8182 4.65155C49.1932 4.5338 49.5309 4.31931 49.7976 4.02949C50.0515 3.76419 50.1926 3.41005 50.1909 3.04211C50.191 2.86703 50.1534 2.694 50.0808 2.53484C50.0082 2.37568 49.9022 2.23414 49.7701 2.11989C49.6423 2.01845 49.4892 1.95428 49.3275 1.93443C49.1659 1.91457 49.0019 1.93979 48.8536 2.00733C48.7108 2.05761 48.5851 2.14728 48.4909 2.26604C48.3966 2.3848 48.3376 2.52784 48.3206 2.67875C48.3206 2.82045 48.3522 2.96035 48.4131 3.08817C48.474 3.21598 48.5627 3.32846 48.6726 3.41732C48.8784 3.5822 49.1241 3.6892 49.3846 3.72735C49.62 3.76426 49.8589 3.7742 50.0965 3.75698C50.4867 3.74837 50.8641 3.61561 51.1743 3.37782C51.361 3.22383 51.4979 3.01763 51.5676 2.78539C51.5866 2.70407 51.6004 2.62162 51.6089 2.53854Z" fill="#455A64"/>
    <path d="M30.917 8.46532C31.2131 8.55917 31.5173 8.62528 31.8256 8.6628C32.1592 8.68083 32.4931 8.63388 32.809 8.52456C33.197 8.38624 33.5633 8.19272 33.8966 7.9499C34.4987 7.49871 34.9384 6.86313 35.1494 6.13904C35.2231 5.83474 35.2777 5.52606 35.3126 5.21484C35.334 5.29861 35.342 5.38527 35.3362 5.47156C35.3355 5.70606 35.3058 5.93955 35.2477 6.16668C35.0593 6.93004 34.6113 7.60336 33.9811 8.07036C33.6366 8.32483 33.2552 8.52464 32.8503 8.6628C32.5165 8.7731 32.1633 8.81146 31.8138 8.77536C31.5806 8.74852 31.3527 8.6873 31.1373 8.59368C31.0569 8.5643 30.9823 8.52084 30.917 8.46532Z" fill="#455A64"/>
    <path d="M31.1255 10.6063C31.1255 10.5786 31.4756 10.6438 32.0321 10.5925C32.7556 10.5305 33.4492 10.2747 34.0404 9.85154C34.6317 9.42842 35.0989 8.85361 35.3933 8.18718C35.6234 7.67572 35.6745 7.32618 35.702 7.33211C35.7074 7.41513 35.6994 7.49847 35.6784 7.57895C35.6352 7.80107 35.5693 8.01813 35.4818 8.22668C35.2046 8.92703 34.7325 9.53243 34.1218 9.97053C33.5111 10.4086 32.7877 10.6609 32.038 10.6971C31.8133 10.7088 31.5881 10.6982 31.3654 10.6655C31.2828 10.6586 31.2019 10.6386 31.1255 10.6063Z" fill="#455A64"/>
    <path d="M38.8938 14.7267C38.8839 14.7287 38.8738 14.7287 38.864 14.7267C38.8542 14.7247 38.8449 14.7207 38.8366 14.715C38.8283 14.7093 38.8213 14.7019 38.8159 14.6934C38.8105 14.6849 38.8069 14.6754 38.8053 14.6655C38.802 14.6559 38.8007 14.6458 38.8015 14.6357C38.8023 14.6256 38.8052 14.6157 38.8101 14.6068C38.8149 14.5979 38.8215 14.5901 38.8294 14.5839C38.8374 14.5777 38.8466 14.5732 38.8564 14.5707C38.8758 14.5688 38.8953 14.5739 38.9112 14.5852C38.9271 14.5966 38.9384 14.6133 38.9429 14.6323C38.9475 14.6514 38.945 14.6714 38.936 14.6888C38.9269 14.7062 38.9119 14.7196 38.8938 14.7267Z" fill="#EB996E"/>
    <path d="M40.1607 14.3948C40.1394 14.3947 40.1188 14.3874 40.1023 14.374C40.0857 14.3607 40.0741 14.3421 40.0693 14.3214C40.0645 14.3006 40.0669 14.2788 40.076 14.2595C40.085 14.2402 40.1003 14.2246 40.1193 14.2151C40.1411 14.2134 40.1627 14.2199 40.1798 14.2335C40.197 14.247 40.2084 14.2666 40.2118 14.2882C40.2188 14.3092 40.2173 14.332 40.2078 14.3519C40.1982 14.3718 40.1813 14.3872 40.1607 14.3948Z" fill="#EB996E"/>
    <path d="M41.0045 14.3429C40.9632 14.3429 40.9239 14.3015 40.9121 14.2363C40.9003 14.1711 40.9258 14.1119 40.9652 14.106C41.0045 14.1 41.0458 14.1474 41.0576 14.2126C41.0694 14.2778 41.0438 14.337 41.0045 14.3429Z" fill="#EB996E"/>
    <path d="M39.5449 15.503C39.5056 15.503 39.4702 15.4852 39.4702 15.4595C39.4702 15.4339 39.5017 15.4102 39.541 15.4102C39.5804 15.4102 39.6157 15.4279 39.6157 15.4536C39.6157 15.4793 39.5862 15.501 39.5449 15.503Z" fill="#EB996E"/>
    <path d="M40.6973 15.1933C40.6768 15.1943 40.6566 15.1873 40.6412 15.1736C40.6258 15.16 40.6163 15.1408 40.6147 15.1202C40.6127 15.1099 40.6128 15.0994 40.6149 15.0892C40.617 15.0789 40.6211 15.0692 40.6269 15.0606C40.6328 15.052 40.6403 15.0446 40.649 15.0389C40.6577 15.0332 40.6674 15.0293 40.6777 15.0274C40.6984 15.0268 40.7186 15.0343 40.734 15.0483C40.7493 15.0622 40.7588 15.0816 40.7603 15.1024C40.7637 15.1228 40.7591 15.1438 40.7473 15.1607C40.7355 15.1777 40.7176 15.1894 40.6973 15.1933Z" fill="#EB996E"/>
    <path d="M46.7195 14.2544C46.7094 14.2563 46.699 14.2563 46.689 14.2542C46.6789 14.252 46.6694 14.2479 46.6609 14.242C46.6525 14.2361 46.6453 14.2286 46.6398 14.2198C46.6344 14.2111 46.6307 14.2014 46.629 14.1912C46.6257 14.1815 46.6244 14.1712 46.6252 14.1609C46.626 14.1507 46.6289 14.1407 46.6337 14.1317C46.6385 14.1226 46.6451 14.1146 46.6531 14.1082C46.6611 14.1018 46.6703 14.0971 46.6802 14.0944C46.7003 14.0919 46.7206 14.0968 46.7373 14.1083C46.754 14.1198 46.7659 14.1371 46.7707 14.1568C46.7756 14.1765 46.773 14.1974 46.7636 14.2154C46.7542 14.2334 46.7385 14.2472 46.7195 14.2544Z" fill="#EB996E"/>
    <path d="M47.5788 14.1446C47.5574 14.1427 47.5372 14.1335 47.5217 14.1185C47.5062 14.1036 47.4962 14.0837 47.4935 14.0623C47.4907 14.0409 47.4953 14.0191 47.5066 14.0007C47.5178 13.9823 47.535 13.9682 47.5552 13.9609C47.5946 13.9609 47.6319 13.9925 47.6398 14.0419C47.6446 14.0636 47.641 14.0863 47.6297 14.1054C47.6183 14.1246 47.6001 14.1386 47.5788 14.1446Z" fill="#EB996E"/>
    <path d="M45.9565 14.298C45.944 14.2992 45.9315 14.2968 45.9204 14.291C45.9093 14.2853 45.9001 14.2764 45.8938 14.2655C45.8876 14.2547 45.8847 14.2422 45.8853 14.2297C45.886 14.2171 45.8903 14.205 45.8976 14.1949C45.9049 14.1847 45.9151 14.1769 45.9267 14.1724C45.9384 14.1678 45.9511 14.1668 45.9633 14.1693C45.9756 14.1719 45.9868 14.1779 45.9957 14.1867C46.0046 14.1955 46.0108 14.2067 46.0135 14.219C46.0158 14.237 46.0112 14.2552 46.0006 14.2699C45.99 14.2846 45.9742 14.2946 45.9565 14.298Z" fill="#EB996E"/>
    <path d="M46.6271 15.1489C46.6075 15.1556 46.5861 15.1546 46.5671 15.1462C46.5482 15.1378 46.5331 15.1225 46.5248 15.1035C46.5196 15.0944 46.5162 15.0844 46.5148 15.074C46.5135 15.0636 46.5142 15.0531 46.5169 15.0429C46.5197 15.0328 46.5244 15.0234 46.5308 15.0151C46.5372 15.0069 46.5452 15 46.5543 14.9948C46.5738 14.9899 46.5943 14.9919 46.6124 15.0005C46.6306 15.009 46.6452 15.0237 46.6537 15.0418C46.6623 15.06 46.6644 15.0806 46.6595 15.1001C46.6547 15.1197 46.6432 15.1369 46.6271 15.1489Z" fill="#EB996E"/>
    <path d="M47.3586 14.9737C47.3498 14.9725 47.3413 14.9695 47.3337 14.965C47.326 14.9604 47.3193 14.9544 47.314 14.9472C47.3087 14.94 47.3048 14.9319 47.3027 14.9232C47.3006 14.9145 47.3002 14.9055 47.3016 14.8967C47.3078 14.8798 47.3203 14.866 47.3365 14.8583C47.3527 14.8506 47.3712 14.8494 47.3881 14.8552C47.4056 14.8576 47.4213 14.8669 47.432 14.8809C47.4427 14.895 47.4474 14.9127 47.4452 14.9302C47.4393 14.9474 47.427 14.9617 47.4108 14.9698C47.3946 14.9779 47.3759 14.9793 47.3586 14.9737Z" fill="#EB996E"/>
    <path d="M45.8992 64.1903L45.852 59.8003C45.852 59.8003 42.9354 55.7422 44.082 51.3404C44.082 51.3404 45.9838 49.9976 51.0835 50.7835C51.0835 50.7835 57.4852 44.5215 66.0659 46.1152C74.6467 47.7088 75.4452 55.2149 75.5278 57.2588C75.6104 59.3027 75.5907 63.272 72.6367 67.1524L72.4401 71.0032C72.4401 71.0032 71.736 72.4527 69.7004 72.354C67.6649 72.2552 67.7789 71.959 67.7789 71.959C67.7789 71.959 65.2222 74.0305 65.1121 74.5716C65.0019 75.1127 64.6007 77.1645 64.6007 77.1645C64.6007 77.1645 63.7137 78.375 61.8001 78.5172C61.0432 78.5711 60.286 78.4154 59.6112 78.067C59.3552 77.9368 59.1275 77.7568 58.9415 77.5375C58.7555 77.3181 58.6147 77.0638 58.5275 76.7893C58.3447 76.1814 58.0358 75.6193 57.6213 75.1397C57.2068 74.6602 56.6959 74.2741 56.1222 74.0068L54.8006 73.6593C54.8006 73.6593 54.2676 74.1471 52.413 74.3465C50.5584 74.546 50.5505 73.8864 50.5505 73.8864C50.5505 73.8864 47.6654 74.5558 45.498 71.7141C43.787 69.4668 42.8567 65.4245 45.8992 64.1903Z" fill="#E8505B"/>
    <path d="M63.6864 64.4414C63.7154 64.3944 63.7476 64.3495 63.7828 64.3071C63.8477 64.2202 63.9441 64.0938 64.064 63.9279C64.3059 63.5981 64.6442 63.1104 65.0179 62.4804C65.4528 61.7419 65.8302 60.9708 66.1468 60.1739C66.3258 59.7236 66.4929 59.2437 66.6404 58.7402C66.7879 58.2366 66.9118 57.6916 66.782 57.1604C66.6259 56.6455 66.2909 56.2041 65.838 55.9163C65.4206 55.6351 64.9734 55.4013 64.5046 55.2192C63.7108 54.9045 62.8764 54.705 62.0265 54.6267C61.4535 54.5722 60.8767 54.5722 60.3037 54.6267C60.107 54.6445 59.9438 54.6642 59.8356 54.68C59.7819 54.6913 59.7272 54.6972 59.6724 54.6978C59.725 54.681 59.779 54.6685 59.8336 54.6603C59.9379 54.6386 60.0952 54.6109 60.2997 54.5872C60.8746 54.5155 61.4553 54.5042 62.0324 54.5537C62.8947 54.6188 63.7424 54.8125 64.5479 55.1283C65.0244 55.3101 65.4789 55.5452 65.9029 55.8294C66.3766 56.1304 66.7259 56.5933 66.8863 57.1327C67.0239 57.6995 66.8863 58.2643 66.7427 58.7678C66.5991 59.2714 66.4221 59.7552 66.2392 60.2094C65.9178 61.0089 65.5324 61.7809 65.0867 62.5179C64.7859 63.0139 64.4576 63.4925 64.1034 63.9516C63.9775 64.1155 63.8752 64.2379 63.8064 64.3189C63.7705 64.3636 63.7303 64.4046 63.6864 64.4414Z" fill="#263238"/>
    <path d="M51.6893 50.9727C51.7042 51.0045 51.7142 51.0385 51.7188 51.0734C51.7378 51.1742 51.7425 51.2773 51.7325 51.3795C51.6829 51.7573 51.51 52.108 51.2409 52.3767C50.9203 52.7322 50.4325 53.0225 49.9566 53.4135C49.4352 53.8345 48.9539 54.3032 48.5189 54.8136C47.7269 55.7415 47.0881 56.7909 46.6269 57.9219C46.4499 58.3563 46.3339 58.7118 46.2552 58.9685C46.2218 59.085 46.1923 59.1818 46.1687 59.2588C46.1607 59.293 46.1488 59.3261 46.1333 59.3575C46.1336 59.3221 46.1389 59.2869 46.149 59.2529C46.1687 59.1739 46.1903 59.0771 46.2179 58.9567C46.3114 58.5968 46.4256 58.2427 46.5601 57.8962C47.0045 56.7465 47.641 55.6812 48.4422 54.7464C48.8811 54.2318 49.3685 53.761 49.8976 53.3404C50.3834 52.9455 50.8711 52.667 51.1897 52.3273C51.4538 52.0717 51.6301 51.7383 51.6932 51.3755C51.7063 51.2415 51.705 51.1064 51.6893 50.9727Z" fill="#263238"/>
    <g opacity="0.5">
      <path d="M55.1191 51.5091L57.729 52.1786C57.729 52.1786 61.5503 47.8676 65.7473 46.7756L64.1739 46.4023C60.7249 47.1833 57.578 48.9581 55.1191 51.5091Z" fill="black"/>
    </g>
    <path d="M64.8957 46.5683C61.4637 47.3431 58.341 49.1312 55.9294 51.7027L55.1191 51.5052C55.1191 51.5052 58.8205 47.4273 64.1759 46.3984L64.8957 46.5683Z" fill="#E8505B"/>
    <g opacity="0.7">
      <path d="M64.8957 46.5683C61.4637 47.3431 58.341 49.1312 55.9294 51.7027L55.1191 51.5052C55.1191 51.5052 58.8205 47.4273 64.1759 46.3984L64.8957 46.5683Z" fill="black"/>
    </g>
    <path d="M44.6387 65.0818C46.0842 63.0043 49.7108 63.6402 51.3648 65.5083C53.0188 67.3765 53.7524 69.9476 52.6766 72.1633C52.2164 73.1092 51.3353 73.9406 50.2871 73.9208C50.8101 73.3317 51.1848 72.6253 51.3799 71.8608C51.5749 71.0963 51.5846 70.296 51.4081 69.527C51.0718 67.9768 50.0983 66.6083 48.8671 65.613C48.2437 65.1074 47.5415 64.5525 46.7431 64.4735C45.9446 64.3945 45.3054 64.3709 44.6387 65.0818Z" fill="#E8505B"/>
    <g opacity="0.3">
      <path d="M44.6387 65.0818C46.0842 63.0043 49.7108 63.6402 51.3648 65.5083C53.0188 67.3765 53.7524 69.9476 52.6766 72.1633C52.2164 73.1092 51.3353 73.9406 50.2871 73.9208C50.8101 73.3317 51.1848 72.6253 51.3799 71.8608C51.5749 71.0963 51.5846 70.296 51.4081 69.527C51.0718 67.9768 50.0983 66.6083 48.8671 65.613C48.2437 65.1074 47.5415 64.5525 46.7431 64.4735C45.9446 64.3945 45.3054 64.3709 44.6387 65.0818Z" fill="black"/>
    </g>
    <g opacity="0.3">
      <path d="M63.8318 64.3197C63.8042 64.76 64.2054 65.1491 64.6401 65.2004C64.8596 65.2136 65.079 65.1743 65.2804 65.0858C65.4818 64.9972 65.6594 64.8619 65.7985 64.6909C66.0724 64.3456 66.2731 63.9478 66.3885 63.5219C66.8408 62.098 67.0749 59.9673 66.8369 58.5C66.2115 60.4096 65.0944 62.7912 63.7983 64.3236" fill="black"/>
    </g>
    <g opacity="0.3">
      <path d="M65.2028 57.7543C64.9216 56.919 64.0602 56.4312 63.2361 56.1429C62.391 55.8468 61.5083 55.6726 60.6145 55.6255C60.3333 55.5947 60.0488 55.6223 59.7786 55.7065C59.6446 55.7503 59.5239 55.8277 59.4279 55.9313C59.3319 56.035 59.2637 56.1615 59.2299 56.2989C59.2122 56.4116 59.2295 56.5271 59.2795 56.6295C59.3294 56.732 59.4097 56.8165 59.5092 56.8716C60.9344 58.5279 61.9977 60.4661 62.6304 62.5609C62.6572 62.653 62.7084 62.7362 62.7784 62.8015C62.8484 62.8669 62.9347 62.9121 63.0281 62.9323C63.1216 62.9525 63.2187 62.9471 63.3094 62.9164C63.4 62.8858 63.4807 62.8312 63.5429 62.7584C64.2116 61.9922 64.5971 60.9594 64.9432 59.9799C65.191 59.2611 65.4467 58.4751 65.2028 57.7543Z" fill="black"/>
    </g>
    <g opacity="0.3">
      <path d="M46.3989 58.1363C45.505 56.7398 45.0449 55.1079 45.0773 53.4482C45.0773 53.0987 45.1284 52.7195 45.3703 52.4707C45.6634 52.1685 46.1393 52.1626 46.5504 52.1903C47.709 52.2628 48.8603 52.4253 49.9941 52.6761C50.0826 52.6958 50.1907 52.7254 50.2183 52.8103C50.2494 52.8757 50.2587 52.9494 50.2449 53.0205C50.2311 53.0917 50.1949 53.1564 50.1416 53.2053C48.3814 54.2894 47.1325 56.284 46.4678 58.235" fill="black"/>
    </g>
    <path d="M44.2059 51.4961C44.2096 51.5957 44.205 51.6955 44.1921 51.7943C44.1764 51.9918 44.1587 52.2623 44.1469 52.6039C44.0872 53.9857 44.26 55.3677 44.6582 56.6917C44.7919 57.1242 44.9316 57.5053 45.0653 57.8213C45.1991 58.1373 45.3151 58.3881 45.3997 58.5579C45.4496 58.6443 45.4904 58.7356 45.5216 58.8304C45.4621 58.7508 45.4095 58.6662 45.3643 58.5776C45.2679 58.4117 45.142 58.1629 45.0004 57.8489C44.8344 57.4819 44.6899 57.1054 44.5677 56.7213C44.4221 56.249 44.3052 55.7683 44.2177 55.2817C44.0692 54.3994 44.021 53.5031 44.0741 52.6099C44.0957 52.2682 44.1233 51.9898 44.1528 51.8002C44.1607 51.6974 44.1785 51.5955 44.2059 51.4961Z" fill="#FAFAFA"/>
    <path d="M64.0229 46.2621C63.9903 46.2785 63.956 46.291 63.9206 46.2997L63.6256 46.3865C63.4958 46.4221 63.3384 46.4655 63.1575 46.5248C62.9766 46.584 62.7642 46.6413 62.5459 46.7223C62.0916 46.8743 61.5625 47.0777 60.9823 47.3265C60.4021 47.5754 59.7787 47.8834 59.1434 48.2389C58.5082 48.5943 57.9261 48.9755 57.4088 49.3369C56.8916 49.6982 56.4451 50.0537 56.0813 50.3637C55.8944 50.5119 55.7351 50.66 55.5916 50.7844C55.448 50.9088 55.328 51.0194 55.2317 51.1122L55.0035 51.3195C54.9504 51.3669 54.9209 51.3906 54.9189 51.3867C54.9395 51.3571 54.9632 51.33 54.9897 51.3057L55.2041 51.0826C55.2966 50.9858 55.4126 50.8713 55.5542 50.7429C55.6958 50.6145 55.8492 50.4625 56.0341 50.3084C56.394 49.9905 56.8404 49.6331 57.3537 49.2598C57.915 48.8607 58.4959 48.4903 59.0943 48.15C59.6953 47.815 60.313 47.5112 60.945 47.2397C61.535 46.9948 62.066 46.7973 62.5183 46.6472C62.7465 46.5702 62.9549 46.5169 63.1378 46.4636C63.3207 46.4102 63.4801 46.3708 63.6118 46.3411L63.9108 46.274C63.9473 46.2643 63.9851 46.2603 64.0229 46.2621Z" fill="#FAFAFA"/>
    <path d="M66.318 56.6969C66.3023 56.7147 66.0053 56.4106 65.435 56.0453C65.1005 55.8331 64.7492 55.6488 64.3848 55.4943C63.9399 55.3074 63.4791 55.1613 63.0081 55.0579C62.1471 54.8681 61.262 54.8141 60.3845 54.8979C59.7118 54.967 59.3047 55.0796 59.2988 55.0579C59.3916 55.0229 59.487 54.9952 59.584 54.9749C59.8426 54.9077 60.1054 54.8582 60.3707 54.8268C61.2567 54.7193 62.1544 54.7634 63.0258 54.9572C63.5043 55.0626 63.9719 55.2134 64.4221 55.4074C64.7897 55.5676 65.1419 55.7613 65.4743 55.986L65.671 56.1223L65.8421 56.2585C65.9352 56.3278 66.0233 56.4037 66.1056 56.4856C66.182 56.5502 66.253 56.6209 66.318 56.6969Z" fill="#FAFAFA"/>
    <path d="M48.7258 73.603C48.6932 73.5992 48.6614 73.5905 48.6314 73.5774C48.5426 73.5502 48.4553 73.5186 48.3698 73.4826C48.0513 73.3562 47.7441 73.2029 47.4513 73.0244C46.4753 72.4379 45.6627 71.6131 45.0891 70.6267C44.5156 69.6403 44.1997 68.5243 44.1709 67.3825C44.1594 67.0393 44.1771 66.6958 44.224 66.3556C44.2377 66.2352 44.2594 66.1424 44.2692 66.0792C44.2746 66.047 44.2825 66.0153 44.2928 65.9844C44.2912 66.11 44.2813 66.2353 44.2633 66.3596C44.232 66.699 44.2248 67.0401 44.2417 67.3805C44.2905 68.5059 44.6117 69.6024 45.1775 70.5751C45.7433 71.5479 46.5365 72.3675 47.4887 72.9632C47.7765 73.1444 48.0762 73.3061 48.3855 73.447C48.6038 73.5418 48.7277 73.5951 48.7258 73.603Z" fill="#FAFAFA"/>
    <g opacity="0.2">
      <path d="M49.2409 69.0407C49.0879 68.9883 48.9231 68.9819 48.7666 69.0223C48.6101 69.0626 48.4687 69.1479 48.3598 69.2678C48.2535 69.3898 48.1758 69.5343 48.1326 69.6905C48.0894 69.8467 48.0817 70.0107 48.11 70.1703C48.1396 70.4793 48.2719 70.7694 48.4856 70.9938C48.663 71.1661 48.8902 71.2775 49.1347 71.3117C49.2873 71.3082 49.4361 71.2628 49.5647 71.1802C49.6934 71.0977 49.797 70.9813 49.8643 70.8437C49.949 70.6857 50.0001 70.5118 50.0144 70.3329C50.0286 70.154 50.0057 69.9742 49.9471 69.8047C49.8885 69.6351 49.7955 69.4797 49.6739 69.3482C49.5523 69.2167 49.4049 69.112 49.2409 69.0407Z" fill="black"/>
    </g>
    <path d="M48.9361 69.0002C48.7944 69.1719 48.6985 69.3769 48.6574 69.596C48.6163 69.8151 48.6314 70.0412 48.7012 70.2528C48.771 70.4645 48.8933 70.6549 49.0565 70.8061C49.2197 70.9573 49.4185 71.0643 49.6343 71.1171C49.5458 71.1968 49.4398 71.2543 49.3249 71.2848C49.2101 71.3154 49.0896 71.3181 48.9735 71.2929C48.6847 71.1965 48.4366 71.0055 48.2689 70.7505C48.1013 70.4955 48.0239 70.1913 48.0491 69.8868C48.0614 69.6372 48.1626 69.4004 48.3343 69.2194C48.5009 69.074 48.7154 68.9958 48.9361 69.0002Z" fill="#E8505B"/>
    <g opacity="0.4">
      <path d="M48.9361 69.0002C48.7944 69.1719 48.6985 69.3769 48.6574 69.596C48.6163 69.8151 48.6314 70.0412 48.7012 70.2528C48.771 70.4645 48.8933 70.6549 49.0565 70.8061C49.2197 70.9573 49.4185 71.0643 49.6343 71.1171C49.5458 71.1968 49.4398 71.2543 49.3249 71.2848C49.2101 71.3154 49.0896 71.3181 48.9735 71.2929C48.6847 71.1965 48.4366 71.0055 48.2689 70.7505C48.1013 70.4955 48.0239 70.1913 48.0491 69.8868C48.0614 69.6372 48.1626 69.4004 48.3343 69.2194C48.5009 69.074 48.7154 68.9958 48.9361 69.0002Z" fill="black"/>
    </g>
    <g opacity="0.2">
      <path d="M46.3419 67.9166C46.1941 67.8671 46.0353 67.8617 45.8845 67.9009C45.7337 67.9402 45.5975 68.0224 45.4923 68.1377C45.3896 68.2554 45.3145 68.3948 45.2726 68.5455C45.2308 68.6963 45.2231 68.8545 45.2504 69.0086C45.2829 69.3046 45.4107 69.5819 45.6142 69.7985C45.786 69.9644 46.0056 70.0715 46.2416 70.1046C46.3885 70.1015 46.5317 70.0579 46.6556 69.9784C46.7794 69.899 46.8791 69.7869 46.9437 69.6544C47.0252 69.5017 47.0743 69.3337 47.0879 69.1611C47.1015 68.9884 47.0793 68.8148 47.0228 68.6511C46.9662 68.4875 46.8765 68.3374 46.7593 68.2103C46.6422 68.0832 46.5 67.9818 46.3419 67.9126" fill="black"/>
    </g>
    <path d="M46.049 67.8831C45.9116 68.0485 45.8185 68.2464 45.7785 68.458C45.7385 68.6697 45.753 68.8881 45.8205 69.0925C45.8881 69.297 46.0065 69.4807 46.1645 69.6264C46.3225 69.7721 46.515 69.8749 46.7236 69.925C46.638 70.0021 46.5355 70.0578 46.4245 70.0876C46.3134 70.1175 46.1969 70.1206 46.0844 70.0968C45.8059 70.0032 45.5667 69.8184 45.4051 69.5721C45.2436 69.3258 45.1691 69.0321 45.1935 68.7382C45.2048 68.4982 45.3019 68.2704 45.4669 68.0964C45.63 67.9536 45.8406 67.8774 46.0569 67.8831" fill="#E8505B"/>
    <g opacity="0.4">
      <path d="M46.049 67.8831C45.9116 68.0485 45.8185 68.2464 45.7785 68.458C45.7385 68.6697 45.753 68.8881 45.8205 69.0925C45.8881 69.297 46.0065 69.4807 46.1645 69.6264C46.3225 69.7721 46.515 69.8749 46.7236 69.925C46.638 70.0021 46.5355 70.0578 46.4245 70.0876C46.3134 70.1175 46.1969 70.1206 46.0844 70.0968C45.8059 70.0032 45.5667 69.8184 45.4051 69.5721C45.2436 69.3258 45.1691 69.0321 45.1935 68.7382C45.2048 68.4982 45.3019 68.2704 45.4669 68.0964C45.63 67.9536 45.8406 67.8774 46.0569 67.8831" fill="black"/>
    </g>
    <path d="M53.8037 62.4828C53.8037 62.4828 53.8237 62.4828 53.8317 62.4688H53.8457L53.8037 62.4828Z" fill="#263238"/>
    <path d="M55.2905 63.0999C55.1971 62.8474 55.0163 62.6371 54.7811 62.5074C54.5944 62.4135 54.3881 62.3655 54.1793 62.3672H54.1616C54.0454 62.3744 53.9324 62.4082 53.8312 62.466C53.6128 62.5751 53.4259 62.7386 53.2882 62.9408C53.1505 63.143 53.0666 63.3773 53.0445 63.6212C53.0307 63.9331 53.1093 64.2422 53.2703 64.5093C53.4313 64.7764 53.6676 64.9896 53.9492 65.122C54.1351 65.2181 54.3472 65.25 54.553 65.2129C54.7568 65.1544 54.9349 65.0284 55.0584 64.8554C55.2466 64.6087 55.367 64.3168 55.4077 64.0088C55.4485 63.7007 55.408 63.3873 55.2905 63.0999Z" fill="#263238"/>
    <path d="M47.7246 60.5628C47.7329 60.558 47.7416 60.554 47.7506 60.5508H47.7626L47.7246 60.5628Z" fill="#263238"/>
    <path d="M49.0109 61.1008C48.9318 60.8786 48.7743 60.6931 48.5683 60.5795C48.4074 60.4979 48.2294 60.4559 48.0491 60.4571H48.0275C47.9271 60.4638 47.8295 60.4935 47.7423 60.5439C47.5527 60.6382 47.3903 60.7797 47.2708 60.955C47.1513 61.1303 47.0787 61.3335 47.0599 61.5452C47.0482 61.8153 47.1167 62.0829 47.2568 62.3139C47.3969 62.5449 47.6021 62.7289 47.8466 62.8426C48.0049 62.9367 48.1935 62.9655 48.3725 62.9228C48.5516 62.88 48.7071 62.7691 48.8063 62.6135C48.9678 62.4007 49.0716 62.1494 49.1075 61.8843C49.1433 61.6191 49.11 61.3492 49.0109 61.1008Z" fill="#263238"/>
    <path d="M49.4043 64.3984C49.4458 64.4011 49.4868 64.4091 49.5262 64.4221C49.6421 64.4517 49.7563 64.4873 49.8684 64.5288C50.2824 64.681 50.672 64.8933 51.0249 65.1587C51.553 65.5508 52.0021 66.04 52.3485 66.6003C52.7685 67.2885 53.048 68.0538 53.1706 68.8516C53.296 69.6478 53.2867 70.4597 53.143 71.2529C53.0389 71.9094 52.7564 72.5243 52.3268 73.0302C52.0313 73.3652 51.6485 73.6107 51.2215 73.7391C51.0675 73.7899 50.9056 73.812 50.7436 73.8043C50.9015 73.7827 51.0574 73.7484 51.2097 73.7016C51.6222 73.5611 51.9896 73.3122 52.2737 72.9808C52.6843 72.4811 52.9527 71.8793 53.0506 71.2391C53.188 70.4557 53.194 69.6547 53.0683 68.8693C52.9483 68.0847 52.6764 67.3313 52.2678 66.6517C51.9308 66.0982 51.4947 65.6121 50.9816 65.218C50.6358 64.9525 50.2569 64.7334 49.8547 64.5663C49.5734 64.4557 49.4043 64.4083 49.4043 64.3984Z" fill="#263238"/>
    <path d="M47.5259 62.0632C47.5161 62.0632 47.4649 62.0276 47.4118 61.9348C47.348 61.8129 47.3136 61.6776 47.3115 61.5399C47.3122 61.4022 47.3459 61.2667 47.4099 61.1449C47.463 61.0521 47.5121 61.0086 47.5239 61.0165C47.4664 61.1879 47.4294 61.3656 47.4138 61.5458C47.4318 61.7219 47.4694 61.8955 47.5259 62.0632Z" fill="#FAFAFA"/>
    <path d="M53.4556 64.2442C53.4438 64.2442 53.3946 64.1987 53.3513 64.0941C53.2983 63.9551 53.284 63.8042 53.31 63.6576C53.3324 63.5116 53.3951 63.3748 53.491 63.2627C53.5657 63.1758 53.6286 63.1442 53.6365 63.1541C53.5341 63.3154 53.4578 63.4921 53.4103 63.6774C53.3934 63.8675 53.4087 64.0592 53.4556 64.2442Z" fill="#FAFAFA"/>
    <path d="M57.1865 74.6789C57.1766 74.6947 56.9386 74.5288 56.5217 74.3195C55.9755 74.0549 55.4109 73.8305 54.8323 73.648C54.1538 73.4269 53.5362 73.2373 53.0937 73.0793C52.8734 73.0023 52.7004 72.9352 52.5745 72.8818C52.5103 72.8596 52.4489 72.8297 52.3916 72.793C52.6372 72.8524 52.8794 72.9249 53.1173 73.0102C53.5618 73.1504 54.1833 73.3281 54.8638 73.5513C55.448 73.7335 56.0142 73.9695 56.5551 74.2563C56.6594 74.3096 56.7518 74.3669 56.8285 74.4162C56.8968 74.4568 56.9625 74.5017 57.0252 74.5505C57.0843 74.586 57.1385 74.6292 57.1865 74.6789Z" fill="#263238"/>
    <path d="M71.1401 68.3203C71.0873 68.4178 71.0268 68.5109 70.9591 68.5988C70.8411 68.7745 70.6543 69.0214 70.4163 69.3176C69.7833 70.0816 69.0958 70.7984 68.3591 71.4622C67.4997 72.2521 66.6992 72.9215 66.1328 73.4271L65.4641 74.0195C65.3862 74.0974 65.302 74.1687 65.2124 74.2328C65.2802 74.1463 65.3552 74.0657 65.4366 73.9919C65.5861 73.8398 65.8083 73.6265 66.0856 73.3659C66.6402 72.8465 67.4328 72.1593 68.2883 71.3792C69.0213 70.7177 69.7129 70.0113 70.3593 69.2643C70.6051 68.9759 70.7998 68.737 70.9277 68.5691C70.992 68.4808 71.063 68.3976 71.1401 68.3203Z" fill="#263238"/>
    <g opacity="0.2">
      <path d="M67.7969 71.9771C68.855 72.064 70.0566 71.7382 70.8079 70.9897C71.185 70.6043 71.4396 70.1152 71.5394 69.5843C71.6392 69.0534 71.5797 68.5047 71.3684 68.0078C70.7509 68.8925 70.0547 69.8325 69.205 70.5553C68.6701 71.0114 68.3141 71.5644 67.7969 71.983" fill="black"/>
    </g>
    <g opacity="0.5">
      <path d="M64.0284 47.1385C65.4051 49.1725 68.2273 49.8163 69.5922 51.8542C70.1213 52.6441 70.3789 53.5762 70.6346 54.4925L73.7813 65.8929C73.9111 63.4224 73.3191 60.9777 72.7291 58.5744C72.1496 56.2047 71.5681 53.8349 70.9847 51.4652C70.8885 50.9351 70.6966 50.4271 70.4182 49.9663C70.1075 49.5181 69.6453 49.2041 69.1949 48.9C67.5783 47.8099 65.9145 46.7001 64.0186 46.2656" fill="black"/>
    </g>
    <g opacity="0.3">
      <path d="M54.3758 53.2961C54.4624 53.5726 54.0848 53.9497 53.4967 54.4178C53.1997 54.6508 52.8536 54.9174 52.4721 55.2077C52.0905 55.498 51.6854 55.8159 51.2586 56.1595C50.8318 56.5031 50.4463 56.8447 50.0786 57.1469C49.7108 57.449 49.3902 57.7512 49.0952 57.9941C48.519 58.4779 48.0764 58.7721 47.8227 58.6299C47.569 58.4878 47.5867 57.9269 47.923 57.141C48.1242 56.685 48.3798 56.2553 48.6842 55.8613C49.4293 54.8916 50.3878 54.1082 51.4848 53.5726C51.9313 53.3547 52.402 53.1909 52.887 53.0848C53.7307 52.9209 54.2932 53.0315 54.3758 53.2961Z" fill="white"/>
    </g>
    <path d="M49.1151 68.8812C48.9706 68.9336 48.8209 68.97 48.6686 68.9898C48.5238 69.04 48.3742 69.0751 48.2222 69.0944C48.3381 68.9844 48.4865 68.9151 48.645 68.897C48.7962 68.8424 48.9606 68.8369 49.1151 68.8812Z" fill="#FAFAFA"/>
    <path d="M46.1294 67.7936C45.9926 67.8261 45.854 67.8505 45.7144 67.8667C45.4921 67.916 45.321 68.0088 45.3092 67.9832C45.2974 67.9575 45.4469 67.8212 45.6908 67.766C45.7621 67.7411 45.8375 67.7307 45.9128 67.7355C45.9881 67.7402 46.0617 67.76 46.1294 67.7936Z" fill="#FAFAFA"/>
    <path d="M59.3695 76.9777C59.342 76.9915 59.0804 76.5492 58.7166 76.0298C58.3527 75.5104 58.0282 75.1135 58.0499 75.0938C58.3403 75.3489 58.5933 75.6441 58.8011 75.9705C59.0361 76.2782 59.2274 76.6172 59.3695 76.9777Z" fill="#FAFAFA"/>
    <path d="M47.6535 56.2539C47.681 56.2717 47.2936 56.8463 46.9573 57.6165C46.621 58.3867 46.4597 59.0601 46.4282 59.0522C46.4327 58.901 46.4592 58.7513 46.5069 58.6078C46.5967 58.2542 46.7158 57.9088 46.8629 57.575C47.0087 57.2407 47.1817 56.9191 47.3801 56.6133C47.4556 56.4823 47.5475 56.3615 47.6535 56.2539Z" fill="#FAFAFA"/>
    <path d="M57.1886 52.4307C56.8099 52.3935 56.4384 52.3024 56.0853 52.1601C55.7211 52.0487 55.3737 51.8879 55.0527 51.6822C55.0665 51.6546 55.5306 51.856 56.1187 52.0614C56.7067 52.2668 57.1965 52.4011 57.1886 52.4307Z" fill="#FAFAFA"/>
    <path d="M72.5287 49.2266C72.0689 49.8569 71.3927 50.2938 70.6309 50.4529C70.9758 50.2973 71.3126 50.1239 71.6398 49.9335C71.9478 49.7131 72.2445 49.4772 72.5287 49.2266Z" fill="#EB996E"/>
    <path d="M78.2895 47.9073C77.2314 45.4586 66.6623 36.7656 66.6623 36.7656L60.7031 44.5344C60.7897 44.4179 70.4246 50.3106 70.4246 50.3106L73.2665 63.3204L73.7562 65.6427C73.7562 65.6427 72.4778 66.7624 72.5309 67.9433C72.5644 68.7332 70.7609 70.4335 70.7609 70.4335C70.3322 70.0761 70.0568 69.9754 69.8405 70.0168L67.9229 71.8198L68.3792 72.2385C68.8879 72.7044 69.5574 72.9531 70.2456 72.9316L73.5241 72.8309C73.9917 72.8173 74.4355 72.621 74.7612 72.2839C75.7701 71.2432 77.8981 68.9149 77.9394 67.7932C77.965 67.1653 77.9689 66.5669 77.9669 66.0851C77.9571 66.0791 79.3456 50.356 78.2895 47.9073Z" fill="#FFBE9D"/>
    <path d="M75.1505 68.7109C75.0963 68.7601 75.0345 68.8001 74.9676 68.8294C74.8476 68.8966 74.6627 68.9756 74.4484 69.094C74.2014 69.2371 73.9833 69.4253 73.8052 69.649C73.58 69.931 73.315 70.1784 73.0186 70.3836C72.4704 70.75 71.8196 70.9299 71.162 70.897C71.0467 70.8969 70.9323 70.8768 70.8237 70.8378C70.7799 70.8223 70.7416 70.7942 70.7136 70.7569C70.6856 70.7197 70.6692 70.675 70.6664 70.6284C70.6645 70.5994 70.6699 70.5703 70.6819 70.5438C70.6939 70.5173 70.7122 70.4941 70.7352 70.4764C70.7686 70.4566 70.7903 70.4606 70.7903 70.4626C70.7903 70.4645 70.7726 70.4626 70.747 70.4922C70.73 70.5097 70.7174 70.531 70.7102 70.5543C70.703 70.5777 70.7015 70.6024 70.7057 70.6265C70.7113 70.6637 70.7275 70.6986 70.7522 70.7269C70.777 70.7553 70.8093 70.7759 70.8453 70.7864C70.9486 70.8175 71.0563 70.8308 71.1639 70.8259C71.803 70.8384 72.4307 70.6552 72.9635 70.3006C73.2519 70.1012 73.5108 69.8619 73.7325 69.5897C73.9202 69.3608 74.1507 69.171 74.411 69.0308C74.6352 68.9183 74.822 68.8511 74.9479 68.7939C75.0129 68.7604 75.0807 68.7327 75.1505 68.7109Z" fill="#EB996E"/>
    <path d="M73.6519 70.4258C73.6657 70.4515 73.3943 70.6114 73.1032 70.8602C72.8121 71.1091 72.6076 71.348 72.584 71.3302C72.6911 71.1149 72.8475 70.9282 73.0403 70.7852C73.2116 70.6167 73.4217 70.4933 73.6519 70.4258Z" fill="#EB996E"/>
    <path d="M74.9713 65.0338C74.9713 65.0635 74.6822 65.0812 74.3655 65.2313C74.0489 65.3814 73.8483 65.5927 73.8267 65.571C73.9504 65.3848 74.1223 65.236 74.324 65.1406C74.5257 65.0453 74.7495 65.007 74.9713 65.0299V65.0338Z" fill="#EB996E"/>
    <path d="M72.9261 71.4389C72.9261 71.4566 72.7157 71.354 72.3617 71.271C71.7728 71.125 71.1545 71.151 70.5799 71.3461C70.5157 71.3703 70.45 71.3901 70.3832 71.4053C70.3098 71.4188 70.2341 71.4024 70.1727 71.3599L69.6614 70.9728C69.4965 70.8634 69.3418 70.7391 69.1992 70.6016C69.3759 70.6916 69.5449 70.796 69.7047 70.9136L70.2337 71.275C70.3183 71.3401 70.4304 71.2908 70.5543 71.2453C70.6831 71.2005 70.8144 71.1636 70.9476 71.1348C71.4235 71.0404 71.9148 71.0607 72.3814 71.194C72.5213 71.2341 72.6575 71.2863 72.7885 71.35C72.8809 71.4033 72.9301 71.4329 72.9261 71.4389Z" fill="#EB996E"/>
    <path d="M50.6884 41.2646C49.4277 40.9032 48.8692 40.7472 48.8692 40.7472V40.1666H49.3707C49.8742 40.1666 50.5979 39.5366 50.5979 39.5366L51.6737 37.8838L51.8114 36.8233C51.6973 35.516 50.1279 36.0334 50.1279 36.0334C50.0531 35.5772 48.0431 35.1191 46.5327 34.8367C46.0268 34.7418 45.5062 34.7609 45.0086 34.8927C44.511 35.0246 44.0488 35.2658 43.6554 35.599L42.2059 36.8273L37.8634 40.6405L26.6532 50.1491L19.2839 47.965C19.2839 47.965 16.9395 55.163 16.56 57.7421C15.8264 62.6968 22.6096 65.9986 25.6069 63.4492C27.9315 61.4744 41.49 46.8058 43.736 44.3748H43.7537C45.1304 44.1991 47.4669 42.795 47.4669 42.795L48.6646 42.9372C48.6646 42.9372 51.8468 43.5474 52.2244 42.9214C52.5076 42.4376 51.949 41.626 50.6884 41.2646Z" fill="#FFBE9D"/>
    <path d="M44.161 39.8281C44.161 39.8281 44.1925 39.8735 44.2298 39.9664C44.2844 40.0974 44.3278 40.2328 44.3596 40.3712C44.4665 40.8289 44.4839 41.303 44.4108 41.7674C44.3384 42.2319 44.1753 42.6775 43.9309 43.0786C43.8583 43.2001 43.7754 43.3151 43.6831 43.4222C43.6182 43.4992 43.5788 43.5387 43.5729 43.5328C43.567 43.5269 43.6988 43.3511 43.868 43.0431C44.3145 42.2341 44.4642 41.2934 44.2908 40.385C44.222 40.0394 44.1433 39.834 44.161 39.8281Z" fill="#EB996E"/>
    <path d="M44.9731 35.7956C45.0132 35.7852 45.0539 35.778 45.0951 35.7739C45.1777 35.762 45.2918 35.7462 45.4511 35.7324C45.8906 35.6839 46.3343 35.6886 46.7727 35.7462C47.0769 35.7912 47.3731 35.8803 47.6518 36.0109C47.9755 36.1589 48.2614 36.379 48.4877 36.6546C48.7456 36.9614 48.8883 37.3492 48.8908 37.7506C48.8872 37.9634 48.8339 38.1724 48.7355 38.3608C48.6307 38.5508 48.4981 38.7238 48.3421 38.8743C48.048 39.1597 47.7258 39.4145 47.3804 39.6346C47.217 39.745 47.0439 39.8402 46.8632 39.9189C46.7695 39.9563 46.6689 39.9732 46.5681 39.9683C46.5158 39.9658 46.4645 39.9522 46.4177 39.9283C46.3709 39.9045 46.3297 39.871 46.2967 39.8301C46.2362 39.7489 46.2062 39.6489 46.2122 39.5477C46.2143 39.4554 46.2308 39.3641 46.2613 39.2771C46.318 39.1157 46.3954 38.9624 46.4914 38.821C46.6648 38.5659 46.8969 38.3565 47.168 38.2107L47.1798 38.2799L45.8385 38.0231L45.4747 37.9481C45.4315 37.9419 45.3893 37.9307 45.3488 37.9145C45.3923 37.9145 45.4358 37.9185 45.4786 37.9264L45.8444 37.9837L47.1916 38.2068L47.2958 38.2246L47.2034 38.2759C46.9462 38.42 46.7265 38.6229 46.5622 38.8683C46.4714 39.0041 46.3993 39.1516 46.3479 39.3067C46.3144 39.3803 46.2991 39.4609 46.3032 39.5417C46.3073 39.6225 46.3307 39.7011 46.3715 39.7708C46.4323 39.8273 46.5094 39.8631 46.5917 39.873C46.674 39.883 46.7573 39.8665 46.8297 39.8261C47.0034 39.7501 47.1694 39.6576 47.3253 39.5496C47.6646 39.3332 47.981 39.0824 48.2694 38.8012C48.4197 38.6683 48.5424 38.5069 48.6305 38.3263C48.7186 38.1457 48.7703 37.9494 48.7827 37.7487C48.7809 37.3704 48.6481 37.0046 48.407 36.7139C48.1902 36.4478 47.9166 36.2338 47.6066 36.0879C47.3364 35.9575 47.0489 35.867 46.753 35.8193C46.3208 35.7556 45.8828 35.7397 45.4471 35.7719L45.0892 35.7936C45.0507 35.7992 45.0118 35.7999 44.9731 35.7956Z" fill="#EB996E"/>
    <path d="M50.1433 36.0938C50.1632 36.1632 50.1744 36.2348 50.1768 36.307C50.1961 36.5039 50.204 36.7017 50.2004 36.8995C50.2017 37.5543 50.0329 38.1982 49.7107 38.7676C49.3173 39.4291 48.7017 39.8557 48.1924 39.9228C48.0909 39.9368 47.9877 39.9261 47.8912 39.8918C47.7947 39.8574 47.7078 39.8003 47.6377 39.7254C47.6013 39.6838 47.5733 39.6355 47.5551 39.5832C47.5471 39.5659 47.5437 39.5469 47.5453 39.5279C47.5792 39.5891 47.6202 39.6461 47.6673 39.6977C47.7367 39.76 47.8194 39.8055 47.909 39.8309C47.9987 39.8562 48.0929 39.8606 48.1845 39.8438C48.6526 39.7668 49.2465 39.3462 49.6222 38.7103C49.9346 38.154 50.1081 37.5299 50.1276 36.8916C50.1532 36.3998 50.1256 36.0938 50.1433 36.0938Z" fill="#EB996E"/>
    <path d="M47.3608 41.7347C47.349 41.7209 47.4513 41.6321 47.5732 41.4543C47.7297 41.2259 47.827 40.9619 47.8564 40.6861C47.8815 40.4094 47.8361 40.1308 47.7246 39.8765C47.6401 39.679 47.5575 39.5724 47.5712 39.5625C47.6668 39.6364 47.742 39.7336 47.7895 39.8449C47.9282 40.1055 47.987 40.4014 47.9587 40.6955C47.9303 40.9896 47.8161 41.2687 47.6302 41.4978C47.5613 41.5979 47.4687 41.6793 47.3608 41.7347Z" fill="#EB996E"/>
    <path d="M45.4493 37.9961C45.5202 38.1284 45.5424 38.2815 45.5122 38.4286C45.4996 38.5907 45.4527 38.7482 45.3745 38.8907C45.2854 39.0646 45.1729 39.2254 45.0402 39.3686C44.7901 39.6193 44.4888 39.8127 44.1571 39.9353C44.0266 39.999 43.8885 40.0454 43.7461 40.0736C43.8655 39.9936 43.9935 39.9274 44.1276 39.8761C44.4391 39.7376 44.723 39.5436 44.9655 39.3034C45.0926 39.1661 45.2022 39.0136 45.2919 38.8492C45.3686 38.7187 45.4194 38.5745 45.4414 38.4246C45.4587 38.2824 45.4614 38.1388 45.4493 37.9961Z" fill="#EB996E"/>
    <path d="M53.8117 38.5742L48.2793 41.6015C48.2793 41.6015 51.2392 42.3381 53.9277 45.1917C55.3892 46.746 56.5331 48.5728 57.2947 50.569L62.8015 46.888C62.8015 46.888 59.8377 40.1461 53.8117 38.5742Z" fill="#455A64"/>
    <path d="M49.2544 41.4891L53.7208 38.9219H53.7346H53.7483C54.5381 39.1354 55.2975 39.4493 56.0081 39.8559C56.8157 40.3251 57.569 40.8828 58.2541 41.5187C59.0138 42.2183 59.7101 42.9842 60.3349 43.8075C61.0123 44.6853 61.6131 45.6202 62.1305 46.6018L62.1521 46.6432L62.1128 46.6689L61.8237 46.8664L57.5716 49.7199L57.5205 49.7535L57.4989 49.6982C56.8977 48.2044 56.0712 46.8123 55.0483 45.5709C54.2356 44.5979 53.2955 43.7396 52.2536 43.0195C51.574 42.546 50.8493 42.1412 50.0902 41.811C49.8228 41.6964 49.6143 41.6135 49.4707 41.5681L49.3095 41.5128L49.2544 41.493L49.3114 41.5049L49.4766 41.5523C49.6222 41.5977 49.8326 41.6708 50.102 41.7794C50.8721 42.0979 51.6076 42.495 52.2969 42.9642C53.3493 43.6805 54.2989 44.5383 55.1191 45.5137C56.1534 46.7592 56.9894 48.1582 57.5972 49.6607L57.5244 49.639L61.7745 46.7815L62.0636 46.584L62.0459 46.6492C61.5318 45.6738 60.9357 44.7442 60.2641 43.8707C59.644 43.0513 58.953 42.2887 58.199 41.5918C57.5177 40.9584 56.7691 40.4021 55.9668 39.933C55.264 39.526 54.5126 39.2102 53.7306 38.993H53.7582L49.2544 41.4891Z" fill="white"/>
    <path d="M58.3116 43.315C58.166 44.17 57.0883 44.6874 55.9024 44.4702C54.7164 44.253 53.8688 43.3841 54.0143 42.529C54.1598 41.6739 55.2376 41.1565 56.4235 41.3738C57.6095 41.591 58.4512 42.4599 58.3116 43.315Z" fill="#FAFAFA"/>
    <path d="M55.7329 43.588L55.5362 43.8013L55.316 43.586L55.5008 43.3885C55.3425 43.2217 55.2277 43.0182 55.1665 42.7961L55.5382 42.6342C55.5878 42.8406 55.6933 43.0292 55.8431 43.1792C55.9945 43.3273 56.0928 43.3392 56.1499 43.276C56.3465 43.0627 55.4713 42.5038 55.9198 42.0062C56.1164 41.7969 56.4154 41.7594 56.7458 42.0062L56.9424 41.7969L57.1627 42.0121L56.9759 42.2096C57.0999 42.3471 57.1926 42.5102 57.2473 42.6875L56.8815 42.8593C56.8323 42.6894 56.7425 42.5341 56.6199 42.4071C56.4665 42.259 56.3623 42.259 56.3033 42.3241C56.1184 42.5216 56.9857 43.0884 56.5412 43.5821C56.3583 43.7855 56.0594 43.825 55.7329 43.588Z" fill="#455A64"/>
    <path d="M50.5171 40.7773C50.5171 40.7773 51.4552 41.2552 50.5544 41.9622L49.1777 41.4251L50.5171 40.7773Z" fill="#FAFAFA"/>
    <path d="M53.0366 39.354C53.0366 39.354 53.9413 40.3137 54.8067 39.3145L53.7407 38.957L53.0366 39.354Z" fill="#FAFAFA"/>
    <path d="M56.9839 48.4179C56.9839 48.4179 58.2013 47.4305 58.9113 48.7655L57.5523 49.6778L56.9839 48.4179Z" fill="#FAFAFA"/>
    <path d="M61.4757 45.5391C61.4757 45.5391 60.5966 46.092 61.1925 47.2314L62.0933 46.6272L61.4757 45.5391Z" fill="#FAFAFA"/>
    <path d="M58.2168 48.7425C58.2145 48.8154 58.1908 48.8861 58.1487 48.9456C58.1066 49.0051 58.048 49.0509 57.9801 49.0771C57.9123 49.1033 57.8383 49.1089 57.7673 49.0931C57.6963 49.0773 57.6315 49.0408 57.5811 48.9883C57.5306 48.9357 57.4967 48.8694 57.4836 48.7976C57.4705 48.7258 57.4787 48.6517 57.5073 48.5846C57.5359 48.5175 57.5836 48.4603 57.6444 48.4203C57.7052 48.3802 57.7764 48.359 57.8491 48.3594C57.8983 48.3601 57.9469 48.3707 57.9921 48.3904C58.0373 48.4101 58.0781 48.4385 58.1123 48.4741C58.1465 48.5098 58.1733 48.5518 58.1912 48.5978C58.2092 48.6439 58.2179 48.693 58.2168 48.7425Z" fill="#455A64"/>
    <path d="M61.9067 46.387C61.904 46.4594 61.8801 46.5294 61.8381 46.5883C61.7961 46.6472 61.7378 46.6923 61.6704 46.7182C61.603 46.744 61.5295 46.7494 61.4591 46.7336C61.3887 46.7178 61.3244 46.6816 61.2744 46.6295C61.2243 46.5773 61.1906 46.5115 61.1775 46.4403C61.1644 46.3691 61.1724 46.2955 61.2006 46.2289C61.2288 46.1622 61.2759 46.1053 61.3361 46.0653C61.3962 46.0253 61.4668 46.004 61.5389 46.0039C61.5881 46.0047 61.6368 46.0152 61.6819 46.0349C61.7271 46.0546 61.7679 46.0831 61.8021 46.1187C61.8363 46.1543 61.8631 46.1963 61.8811 46.2424C61.899 46.2884 61.9077 46.3376 61.9067 46.387Z" fill="#455A64"/>
    <path d="M54.3071 39.3172C54.3071 39.4534 54.1104 39.564 53.8843 39.564C53.6581 39.564 53.4634 39.4534 53.4634 39.3172C53.4634 39.1809 53.66 39.0703 53.8862 39.0703C54.1124 39.0703 54.3071 39.1789 54.3071 39.3172Z" fill="#455A64"/>
    <path d="M50.7118 41.3647C50.7309 41.4498 50.7233 41.5386 50.69 41.6191C50.6566 41.6996 50.5992 41.7677 50.5257 41.814C50.4521 41.8603 50.3661 41.8825 50.2794 41.8775C50.1927 41.8726 50.1097 41.8407 50.0419 41.7863C49.974 41.732 49.9247 41.6578 49.9007 41.574C49.8766 41.4903 49.8791 41.4011 49.9077 41.3188C49.9364 41.2365 49.9898 41.1652 50.0605 41.1147C50.1313 41.0642 50.2159 41.037 50.3027 41.0369C50.4 41.0274 50.4971 41.0563 50.5735 41.1175C50.6498 41.1787 50.6994 41.2674 50.7118 41.3647Z" fill="#455A64"/>
    <path d="M54.1027 41.1565C54.1027 41.3658 53.8431 41.5357 53.5226 41.5357C53.202 41.5357 52.9443 41.3717 52.9443 41.1565C52.9443 40.9412 53.2039 40.7773 53.5245 40.7773C53.8451 40.7773 54.1027 40.959 54.1027 41.1565Z" fill="#FAFAFA"/>
    <path d="M58.762 46.2357C58.5004 46.3562 58.1719 46.1903 58.0421 45.8664C57.97 45.7289 57.9533 45.5688 57.9954 45.4192C58.0375 45.2697 58.1352 45.142 58.2683 45.0627C58.5299 44.9423 58.8583 45.1081 58.9881 45.434C59.0601 45.5712 59.0768 45.731 59.0347 45.8803C58.9926 46.0295 58.8949 46.1568 58.762 46.2357Z" fill="#FAFAFA"/>
    <path d="M50.6001 39.5363L52.8717 41.9435C52.8717 41.9435 53.7803 42.9882 54.3919 42.4945C55.0036 42.0008 54.1441 41.0805 53.9632 40.812C53.7822 40.5434 51.5559 37.832 51.5559 37.832L50.6001 39.5363Z" fill="#FFBE9D"/>
    <path d="M51.7641 37.3713C51.7552 37.5138 51.7254 37.6542 51.6756 37.7879C51.582 38.1177 51.4499 38.4352 51.2823 38.7338C51.1111 39.0344 50.8926 39.3052 50.6352 39.5356C50.534 39.6365 50.4154 39.7181 50.2852 39.7765C50.3795 39.6725 50.48 39.5743 50.5861 39.4823C50.8209 39.2457 51.0251 38.9803 51.1938 38.6924C51.5852 37.9933 51.7366 37.3594 51.7641 37.3713Z" fill="#EB996E"/>
    <path d="M30.6379 46.7695C30.6061 46.8079 30.5705 46.843 30.5317 46.8742L30.2151 47.1586L29.0351 48.1874C28.034 49.0504 26.6435 50.2372 25.1016 51.5307C23.5597 52.8242 22.126 53.9913 21.0836 54.797C20.5644 55.2077 20.1376 55.5296 19.8387 55.7508L19.4926 55.9976C19.4541 56.0288 19.4126 56.0559 19.3687 56.0786C19.4037 56.0438 19.4412 56.0114 19.4808 55.9818L19.8151 55.7172C20.1062 55.4882 20.5251 55.1584 21.0384 54.7417C22.067 53.9103 23.4752 52.7452 25.0249 51.4517C26.5747 50.1582 27.9632 48.9872 28.9859 48.1321L30.1875 47.127L30.518 46.8584C30.5552 46.8252 30.5954 46.7955 30.6379 46.7695Z" fill="#EB996E"/>
  </g>
  <defs>
    <clipPath id="clip0_3253_2954">
      <rect width="87.3988" height="80" fill="white"/>
    </clipPath>
  </defs>
</svg>