<svg xmlns="http://www.w3.org/2000/svg" width="77" height="80" viewBox="0 0 77 80" fill="none">
  <g clip-path="url(#clip0_3253_4545)">
    <path d="M10.1327 21.1797H2.89014V22.1221H10.1327V21.1797Z" fill="#07113D"/>
    <path d="M17.6479 23.1641H2.94678V23.588H17.6479V23.1641Z" fill="#6A8593"/>
    <path d="M17.5976 23.2162V23.5372H2.99933V23.2162H17.5976ZM17.7004 23.1133H2.89648V23.6401H17.7004V23.1133Z" fill="#6A8593"/>
    <path d="M17.6479 24.5195H2.94678V24.9434H17.6479V24.5195Z" fill="#6A8593"/>
    <path d="M17.5976 24.5716V24.8926H2.99933V24.5716H17.5976ZM17.7004 24.4688H2.89648V24.9955H17.7004V24.4688Z" fill="#6A8593"/>
    <path d="M12.4232 25.875H2.94678V26.2989H12.4232V25.875Z" fill="#6A8593"/>
    <path d="M12.3729 25.9271V26.2481H2.99933V25.9271H12.3729ZM12.4758 25.8242H2.89648V26.351H12.4758V25.8242Z" fill="#6A8593"/>
    <path d="M28.8524 21.1797H22.916V22.1221H28.8524V21.1797Z" fill="#07113D"/>
    <path d="M31.8515 23.1641H22.9736V23.588H31.8515V23.1641Z" fill="#6A8593"/>
    <path d="M31.7997 23.2162V23.5372H23.0247V23.2162H31.7997ZM31.9026 23.1133H22.9219V23.6401H31.9026V23.1133Z" fill="#6A8593"/>
    <path d="M36.5866 24.5195H22.9736V24.9434H36.5866V24.5195Z" fill="#6A8593"/>
    <path d="M36.5348 24.5716V24.8926H23.0247V24.5716H36.5348ZM36.6377 24.4688H22.9219V24.9955H36.6377V24.4688Z" fill="#6A8593"/>
    <path d="M32.4501 25.875H22.9736V26.2989H32.4501V25.875Z" fill="#6A8593"/>
    <path d="M32.3952 25.9271V26.2481H23.0247V25.9271H32.3952ZM32.4981 25.8242H22.9219V26.351H32.4981V25.8242Z" fill="#6A8593"/>
    <path d="M54.6403 21.1797H44.2773V22.1221H54.6403V21.1797Z" fill="#07113D"/>
    <path d="M56.9 23.1641H44.334V23.588H56.9V23.1641Z" fill="#6A8593"/>
    <path d="M56.8487 23.2162V23.5372H44.3856V23.2162H56.8487ZM56.9515 23.1133H44.2827V23.6401H56.9515V23.1133Z" fill="#6A8593"/>
    <path d="M56.9246 24.5195H44.334V24.9434H56.9246V24.5195Z" fill="#6A8593"/>
    <path d="M56.8734 24.5716V24.8926H44.3856V24.5716H56.8734ZM56.9762 24.4688H44.2827V24.9955H56.9762V24.4688Z" fill="#6A8593"/>
    <path d="M50.5306 25.875H44.334V26.2989H50.5306V25.875Z" fill="#6A8593"/>
    <path d="M50.4793 25.9271V26.2471H44.3856V25.9271H50.4793ZM50.5822 25.8242H44.2827V26.35H50.5822V25.8242Z" fill="#6A8593"/>
    <path d="M30.1586 56.5312H22.916V57.4737H30.1586V56.5312Z" fill="#07113D"/>
    <path d="M37.6747 58.5195H22.9736V58.9434H37.6747V58.5195Z" fill="#6A8593"/>
    <path d="M37.623 58.5716V58.8926H23.0247V58.5716H37.623ZM37.7258 58.4688H22.9219V58.9955H37.7258V58.4688Z" fill="#6A8593"/>
    <path d="M37.6747 59.875H22.9736V60.2989H37.6747V59.875Z" fill="#6A8593"/>
    <path d="M37.623 59.9271V60.2481H23.0247V59.9271H37.623ZM37.7258 59.8242H22.9219V60.351H37.7258V59.8242Z" fill="#6A8593"/>
    <path d="M32.4501 61.2305H22.9736V61.6544H32.4501V61.2305Z" fill="#6A8593"/>
    <path d="M32.3952 61.2787V61.5997H23.0247V61.2787H32.3952ZM32.4981 61.1758H22.9219V61.7026H32.4981V61.1758Z" fill="#6A8593"/>
    <path d="M12.4941 56.5312H2.89014V57.4737H12.4941V56.5312Z" fill="#07113D"/>
    <path d="M11.9038 58.5195H2.94678V58.9434H11.9038V58.5195Z" fill="#6A8593"/>
    <path d="M11.8525 58.5716V58.8926H2.99933V58.5716H11.8525ZM11.9553 58.4688H2.89648V58.9955H11.9553V58.4688Z" fill="#6A8593"/>
    <path d="M11.9038 59.875H2.94678V60.2989H11.9038V59.875Z" fill="#6A8593"/>
    <path d="M11.8525 59.9271V60.2481H2.99933V59.9271H11.8525ZM11.9553 59.8242H2.89648V60.351H11.9553V59.8242Z" fill="#6A8593"/>
    <path d="M8.73506 61.2305H2.94678V61.6544H8.73506V61.2305Z" fill="#6A8593"/>
    <path d="M8.68374 61.2787V61.5997H2.99933V61.2787H8.68374ZM8.78659 61.1758H2.89648V61.7026H8.78659V61.1758Z" fill="#6A8593"/>
    <path d="M53.8104 56.5312H44.2373V57.4737H53.8104V56.5312Z" fill="#07113D"/>
    <path d="M54.5201 58.5195H44.2949V58.9434H54.5201V58.5195Z" fill="#6A8593"/>
    <path d="M54.4673 58.5716V58.8926H44.346V58.5716H54.4673ZM54.5701 58.4688H44.2432V58.9955H54.5701V58.4688Z" fill="#6A8593"/>
    <path d="M54.5201 59.875H44.2949V60.2989H54.5201V59.875Z" fill="#6A8593"/>
    <path d="M54.4673 59.9271V60.2481H44.346V59.9271H54.4673ZM54.5701 59.8242H44.2432V60.351H54.5701V59.8242Z" fill="#6A8593"/>
    <path d="M44.1396 61.6016H53.5132V61.2806H44.1396V61.6016Z" fill="#07113D"/>
    <mask id="mask0_3253_4545" style="mask-type:luminance" maskUnits="userSpaceOnUse" x="23" y="0" width="15" height="20">
      <path d="M37.8112 0.492188H23.3086V19.9286H37.8112V0.492188Z" fill="white"/>
    </mask>
    <g mask="url(#mask0_3253_4545)">
      <path d="M20.9676 23.2859C21.0787 23.0339 25.5567 15.7515 27.2095 14.9243C28.8622 14.0971 33.2899 14.5405 34.1167 15.1825C34.9436 15.8246 39.6078 22.3054 40.1611 23.6491C40.8039 25.2099 40.1611 27.2317 39.4278 27.2317L22.1617 27.2368C22.1617 27.2368 19.5905 26.4106 20.9676 23.2859Z" fill="#07113D"/>
      <path d="M35.7756 18.6693L35.467 31.9325L25.427 32.0282L25.1606 18.6724C25.1607 17.6046 25.5364 16.5709 26.2221 15.7525C26.9077 14.9342 27.8595 14.3834 28.9105 14.1968C29.171 14.1517 29.4349 14.129 29.6993 14.1289H31.2338C32.4378 14.1289 33.5926 14.6072 34.4442 15.4586C35.2959 16.31 35.7748 17.4648 35.7756 18.6693Z" fill="#07113D"/>
      <path d="M30.6097 2.23438H31.0448C32.1241 2.23438 33.1593 2.66331 33.9225 3.42682C34.6857 4.19032 35.1145 5.22586 35.1145 6.30562V8.77492C35.1145 9.63393 34.7734 10.4578 34.1662 11.0652C33.559 11.6726 32.7355 12.0138 31.8768 12.0138H29.7777C28.919 12.0138 28.0955 11.6726 27.4883 11.0652C26.8811 10.4578 26.54 9.63393 26.54 8.77492V6.30562C26.54 5.22586 26.9688 4.19032 27.732 3.42682C28.4952 2.66331 29.5304 2.23438 30.6097 2.23438Z" fill="#B95241"/>
      <path d="M27.6787 7.32763L27.6211 8.32872L27.581 9.00469L27.2796 8.99132C27.2579 8.99089 27.2363 8.98882 27.2148 8.98514C26.7119 8.93164 26.3324 8.52832 26.3571 8.08385C26.3657 7.97167 26.3987 7.86273 26.4538 7.76463C26.5088 7.66653 26.5847 7.58165 26.6759 7.51591C26.8536 7.3816 27.0703 7.30931 27.293 7.31014C27.319 7.30808 27.3452 7.30808 27.3712 7.31014L27.6787 7.32763Z" fill="#F4A891"/>
      <path d="M34.2534 7.34896L34.312 8.35005L34.3522 9.02602L34.6535 9.01265C34.6761 9.01265 34.6977 9.01265 34.7183 9.00647C35.2212 8.95297 35.5997 8.54862 35.575 8.10415C35.5664 7.99197 35.5334 7.88303 35.4783 7.78493C35.4233 7.68683 35.3475 7.60195 35.2562 7.53621C35.0788 7.40142 34.8618 7.32908 34.6391 7.33044C34.6131 7.32735 34.5869 7.32735 34.5609 7.33044L34.2534 7.34896Z" fill="#F4A891"/>
      <path d="M31.0825 9.85938H30.4778C29.8234 9.85938 29.293 10.39 29.293 11.0446V14.5912C29.293 15.2458 29.8234 15.7764 30.4778 15.7764H31.0825C31.7369 15.7764 32.2673 15.2458 32.2673 14.5912V11.0446C32.2673 10.39 31.7369 9.85938 31.0825 9.85938Z" fill="#F4A891"/>
      <path d="M34.8327 7.18659L34.7402 9.01798L34.7258 9.29166C34.7173 9.47027 34.696 9.64803 34.662 9.82359C34.5203 10.534 34.1808 11.1898 33.6828 11.7157C33.1848 12.2416 32.5485 12.616 31.8471 12.796C31.687 12.8369 31.5245 12.8679 31.3606 12.8886C31.3109 12.8965 31.2607 12.9013 31.2104 12.903C31.1076 12.9143 31.0047 12.9195 30.8947 12.9205C30.8186 12.9205 30.7435 12.9205 30.6664 12.9143C30.4958 12.9054 30.326 12.8847 30.1583 12.8526C30.0894 12.8402 30.0215 12.8248 29.9526 12.8083C29.6991 12.7483 29.4526 12.6618 29.2172 12.5501C28.6635 12.2892 28.1797 11.9002 27.8058 11.4154C27.4319 10.9307 27.1785 10.3639 27.0667 9.76186C27.0657 9.75814 27.0657 9.75425 27.0667 9.75054C27.0451 9.61884 27.0286 9.48509 27.0183 9.34928C27.0183 9.30709 27.0132 9.26594 27.0122 9.22273C27.0111 9.17951 27.0122 9.1363 27.0122 9.09206C27.0122 9.04782 27.0122 8.98917 27.0122 8.9367V8.90892L27.0173 8.7834L27.0358 8.45622L27.0626 7.89754V7.89136L27.0903 7.32651V7.3152L27.1017 7.10942L27.1099 6.94686L27.1181 6.79767V6.7596C27.134 6.50456 27.182 6.25255 27.2611 6.00956C27.3121 5.84261 27.3736 5.67904 27.4452 5.51981C27.4542 5.49562 27.4645 5.47193 27.476 5.44882C27.534 5.31836 27.6 5.19157 27.6735 5.06917C27.951 4.60576 28.3224 4.20554 28.7637 3.89419C28.8521 3.83246 28.9426 3.77279 29.0352 3.71826C29.8078 3.26082 30.7141 3.08275 31.6023 3.21386C32.4904 3.34497 33.3067 3.77729 33.9143 4.43847C34.1069 4.65009 34.2705 4.8864 34.4008 5.14119C34.5101 5.35012 34.6023 5.56758 34.6764 5.79143C34.7254 5.93465 34.7629 6.08156 34.7885 6.23076C34.7967 6.28221 34.8039 6.33365 34.8091 6.38201C34.8204 6.47152 34.8286 6.56309 34.8327 6.65569C34.8419 6.83253 34.8419 7.00974 34.8327 7.18659Z" fill="#FFC7B0"/>
      <path d="M32.3754 8.3649C32.3297 8.36463 32.286 8.3463 32.2539 8.31391C32.2217 8.28152 32.2036 8.23771 32.2036 8.19205V7.6416C32.2036 7.59593 32.2217 7.55212 32.2539 7.51974C32.286 7.48735 32.3297 7.46902 32.3754 7.46875C32.421 7.46902 32.4647 7.48735 32.4969 7.51974C32.5291 7.55212 32.5471 7.59593 32.5471 7.6416V8.19205C32.5469 8.23763 32.5287 8.28129 32.4966 8.31361C32.4645 8.34594 32.4209 8.36436 32.3754 8.3649Z" fill="#07113D"/>
      <path d="M29.3681 8.35606C29.3224 8.35606 29.2787 8.33799 29.2463 8.3058C29.2139 8.2736 29.1956 8.2299 29.1953 8.18423V7.63276C29.1956 7.58709 29.2139 7.54339 29.2463 7.5112C29.2787 7.47901 29.3224 7.46094 29.3681 7.46094C29.4136 7.46094 29.4573 7.47904 29.4895 7.51126C29.5218 7.54349 29.5399 7.58719 29.5399 7.63276V8.18423C29.5399 8.2298 29.5218 8.27351 29.4895 8.30573C29.4573 8.33795 29.4136 8.35606 29.3681 8.35606Z" fill="#07113D"/>
      <path d="M33.001 6.97278H31.7143C31.6902 6.97278 31.6663 6.96801 31.644 6.95874C31.6217 6.94947 31.6015 6.93589 31.5845 6.91877C31.5675 6.90166 31.554 6.88135 31.5449 6.85901C31.5358 6.83667 31.5311 6.81274 31.5313 6.78861C31.5313 6.74004 31.5505 6.69345 31.5849 6.65911C31.6192 6.62476 31.6658 6.60547 31.7143 6.60547H33.001C33.0495 6.60547 33.0961 6.62476 33.1304 6.65911C33.1647 6.69345 33.184 6.74004 33.184 6.78861C33.1842 6.81274 33.1795 6.83667 33.1704 6.85901C33.1612 6.88135 33.1478 6.90166 33.1308 6.91877C33.1138 6.93589 33.0935 6.94947 33.0712 6.95874C33.049 6.96801 33.0251 6.97278 33.001 6.97278Z" fill="#B95241"/>
      <path d="M30.039 6.97381H28.7524C28.7282 6.97381 28.7042 6.969 28.6819 6.95967C28.6595 6.95034 28.6393 6.93666 28.6222 6.91944C28.6052 6.90222 28.5918 6.88178 28.5827 6.85932C28.5736 6.83687 28.5691 6.81283 28.5693 6.78861C28.5693 6.74004 28.5886 6.69345 28.623 6.65911C28.6573 6.62476 28.7039 6.60547 28.7524 6.60547H30.039C30.0876 6.60547 30.1342 6.62476 30.1685 6.65911C30.2028 6.69345 30.2221 6.74004 30.2221 6.78861C30.2223 6.81279 30.2176 6.83677 30.2085 6.85917C30.1994 6.88156 30.1859 6.90194 30.1689 6.91914C30.1519 6.93633 30.1317 6.95001 30.1094 6.95939C30.0871 6.96877 30.0632 6.97367 30.039 6.97381Z" fill="#B95241"/>
      <path d="M31.8961 10.0562C31.5434 10.5706 31.2194 10.9173 30.7381 10.8432C30.3339 10.7805 30.0058 10.477 29.8042 10.0273L31.8961 10.0562Z" fill="white"/>
      <path d="M30.4409 8.92969H31.2637C31.2637 8.92969 30.8801 9.48116 30.4409 8.92969Z" fill="#E48867"/>
      <path d="M34.8325 7.18715L34.74 9.01854L34.7256 9.29222C34.7171 9.47083 34.6957 9.64859 34.6618 9.82415C34.52 10.5345 34.1806 11.1904 33.6826 11.7163C33.1846 12.2421 32.5483 12.6166 31.8469 12.7966C31.6868 12.8375 31.5243 12.8684 31.3604 12.8892C31.3107 12.897 31.2605 12.9018 31.2102 12.9036C31.1074 12.9149 31.0045 12.92 30.8945 12.9211C30.8184 12.9211 30.7433 12.9211 30.6662 12.9149C30.4716 12.9066 30.2779 12.8856 30.0861 12.8521C30.047 12.8449 30.01 12.8398 29.9719 12.8315C29.7164 12.7714 29.4678 12.6845 29.2304 12.5723C28.6729 12.3093 28.1861 11.9171 27.8105 11.4283C27.4349 10.9394 27.1812 10.368 27.0706 9.76139C27.0696 9.75768 27.0696 9.75378 27.0706 9.75007C27.0477 9.61723 27.0315 9.4833 27.0223 9.34881C27.0223 9.30663 27.0171 9.26547 27.0161 9.22226C27.0151 9.17905 27.0161 9.13583 27.0161 9.09159C27.0161 9.04735 27.0161 8.9887 27.0161 8.93623V8.90845L27.0212 8.78293L27.0397 8.45575L27.0665 7.89707C27.2393 9.94556 27.9643 12.5352 30.5191 12.6391C34.055 12.7832 34.7883 8.89405 34.8387 6.65625C34.8458 6.8332 34.8438 7.01041 34.8325 7.18715Z" fill="#F4A891"/>
      <path d="M32.7467 32.0865L28.75 32.0876L28.7541 13.8199L29.7589 13.7891L30.7 15.5793L31.7367 13.8498L32.8002 13.8673L32.7467 32.0865Z" fill="white"/>
    </g>
    <path d="M29.7766 13.7734L29.1894 14.7684L28.417 14.3496L28.6875 13.7745L29.7766 13.7734Z" fill="#EAECEE"/>
    <path d="M31.7466 13.8359L32.374 14.766L33.1412 14.5047L32.9088 13.8359H31.7466Z" fill="#EAECEE"/>
    <path d="M35.1407 5.3889C35.4899 4.72385 35.2341 3.90155 34.5693 3.55225C33.9045 3.20294 33.0825 3.4589 32.7333 4.12395C32.3841 4.789 32.64 5.61129 33.3048 5.9606C33.9696 6.30991 34.7916 6.05395 35.1407 5.3889Z" fill="#B95241"/>
    <path d="M32.8253 5.21043C32.8253 5.41733 32.764 5.6196 32.6491 5.79165C32.5342 5.9637 32.3709 6.09782 32.1799 6.17704C31.9888 6.25627 31.7786 6.27705 31.5757 6.23676C31.3728 6.19647 31.1864 6.09691 31.0401 5.95068C30.8938 5.80445 30.7941 5.6181 30.7536 5.41519C30.7131 5.21228 30.7337 5.00193 30.8127 4.81071C30.8917 4.6195 31.0256 4.45601 31.1975 4.34091C31.3694 4.22581 31.5715 4.16427 31.7783 4.16406C31.9158 4.16393 32.0519 4.19089 32.1789 4.24342C32.3059 4.29594 32.4214 4.37299 32.5186 4.47017C32.6158 4.56735 32.693 4.68275 32.7456 4.80976C32.7982 4.93678 32.8253 5.07293 32.8253 5.21043Z" fill="#B95241"/>
    <path d="M31.064 5.60042C31.2398 5.09064 30.9692 4.53484 30.4596 4.35901C29.95 4.18318 29.3944 4.4539 29.2186 4.96368C29.0429 5.47346 29.3135 6.02926 29.8231 6.20509C30.3327 6.38092 30.8882 6.1102 31.064 5.60042Z" fill="#B95241"/>
    <path d="M29.2687 5.01974C29.2687 5.20288 29.2145 5.38191 29.1127 5.53419C29.011 5.68646 28.8665 5.80515 28.6973 5.87523C28.5282 5.94532 28.3421 5.96366 28.1625 5.92793C27.983 5.8922 27.818 5.80401 27.6886 5.67451C27.5591 5.54501 27.471 5.38001 27.4353 5.20039C27.3996 5.02076 27.4179 4.83458 27.4879 4.66538C27.558 4.49617 27.6766 4.35155 27.8289 4.24981C27.9811 4.14806 28.16 4.09375 28.3431 4.09375C28.5886 4.09375 28.824 4.19131 28.9976 4.36497C29.1712 4.53862 29.2687 4.77415 29.2687 5.01974Z" fill="#B95241"/>
    <path d="M29.5647 3.0671C29.5647 3.0671 31.5188 2.50842 32.5627 3.24098C33.2111 3.70602 33.7572 4.29922 34.1672 4.98389L30.1561 5.33371L27.7505 4.95096L28.6761 3.18953L29.5647 3.0671Z" fill="#B95241"/>
    <path d="M27.8228 5.2818L27.3785 8.23158C27.3739 8.2632 27.3614 8.29316 27.3423 8.31872C27.3231 8.34429 27.2979 8.36465 27.2688 8.37795C27.2398 8.39125 27.2079 8.39706 27.176 8.39486C27.1441 8.39265 27.1133 8.38251 27.0864 8.36534C27.061 8.34891 27.0398 8.32678 27.0244 8.3007C27.0091 8.27462 27 8.24532 26.998 8.21512L26.8643 6.07095C26.8643 6.07095 27.578 4.28791 27.8228 5.2818Z" fill="#B95241"/>
    <path d="M33.9575 5.66086L34.4029 8.61372C34.4075 8.64534 34.4199 8.6753 34.4391 8.70087C34.4582 8.72643 34.4835 8.74679 34.5125 8.76009C34.5416 8.77339 34.5735 8.7792 34.6053 8.777C34.6372 8.7748 34.668 8.76465 34.6949 8.74748C34.7206 8.73123 34.7421 8.70916 34.7576 8.68306C34.7732 8.65696 34.7823 8.62757 34.7844 8.59726L34.9161 5.85223C34.9161 5.85223 34.2013 4.67108 33.9575 5.66086Z" fill="#B95241"/>
    <path d="M27.405 8.08737C27.3526 8.80244 27.7372 12.0804 30.6962 12.1494C33.6551 12.2183 34.2557 9.04628 34.303 8.38266C34.3504 7.71903 34.7906 7.789 34.7906 7.92893L34.7741 9.63891C34.7741 10.6004 34.3924 11.5226 33.713 12.2027C33.0335 12.8828 32.1119 13.2651 31.1508 13.2657H30.7301C28.7287 13.2657 26.9659 11.7471 26.9648 9.74489L26.9823 8.10486C26.9823 8.10486 27.4091 8.02461 27.405 8.08737Z" fill="#B95241"/>
    <path d="M37.8399 0.15625H23.2334V19.9281H37.8399V0.15625Z" stroke="#6A8593" stroke-width="3" stroke-miterlimit="10"/>
    <mask id="mask1_3253_4545" style="mask-type:luminance" maskUnits="userSpaceOnUse" x="43" y="0" width="16" height="20">
      <path d="M58.8837 0.15625H43.6797V19.9281H58.8837V0.15625Z" fill="white"/>
    </mask>
    <g mask="url(#mask1_3253_4545)">
      <path d="M51.5556 2.23438C52.6404 2.23438 53.6808 2.66548 54.4478 3.43284C55.2149 4.20021 55.6459 5.24098 55.6459 6.3262V15.9791H47.4653V6.3262C47.4653 5.24098 47.8963 4.20021 48.6633 3.43284C49.4304 2.66548 50.4708 2.23438 51.5556 2.23438Z" fill="#591239"/>
      <path d="M51.7242 13.1719C52.9754 13.1719 54.1754 13.6691 55.0601 14.5542C55.9448 15.4392 56.4419 16.6396 56.4419 17.8913V25.0245H47.0015V17.8872C47.002 17.2673 47.1246 16.6537 47.3622 16.0812C47.5999 15.5088 47.9479 14.9888 48.3865 14.5509C48.8251 14.113 49.3456 13.7659 49.9183 13.5293C50.491 13.2926 51.1046 13.1712 51.7242 13.1719Z" fill="#FFC050"/>
      <path d="M53.0952 11.1211H50.2134V15.073H53.0952V11.1211Z" fill="#F4A891"/>
      <path d="M55.9472 7.76001C55.9458 7.92788 55.8877 8.09035 55.7824 8.22108C55.6772 8.35181 55.5308 8.44312 55.3671 8.48022C55.3357 8.48768 55.3037 8.4925 55.2715 8.49462C55.2554 8.49622 55.2392 8.49622 55.2232 8.49462H54.9969V8.02443V7.92154L54.9907 7.06758H55.217C55.2365 7.06602 55.2561 7.06602 55.2756 7.06758C55.3039 7.06885 55.3321 7.07229 55.3599 7.07786C55.5214 7.10364 55.6687 7.18536 55.776 7.30873C55.8833 7.4321 55.9439 7.58928 55.9472 7.7528V7.76001Z" fill="#F4A891"/>
      <path d="M47.2277 7.76002C47.2293 7.92799 47.2876 8.09048 47.3931 8.22119C47.4985 8.3519 47.645 8.44317 47.8088 8.48023C47.8402 8.48769 47.8722 8.49251 47.9044 8.49464C47.9205 8.49624 47.9367 8.49624 47.9528 8.49464H48.178V8.02444V7.92155L48.1842 7.06759H47.9579C47.9381 7.06601 47.9181 7.06601 47.8983 7.06759C47.8696 7.06892 47.8411 7.07236 47.8129 7.07788C47.6513 7.10344 47.5038 7.18506 47.3962 7.30845C47.2887 7.43184 47.2279 7.58914 47.2246 7.75282L47.2277 7.76002Z" fill="#F4A891"/>
      <path d="M55.2335 8.34397V8.46229V8.48699C55.2335 8.5374 55.2335 8.58987 55.2335 8.63617C55.2335 8.68247 55.2335 8.71848 55.2273 8.76272C55.2265 8.77552 55.2248 8.78825 55.2221 8.80079C55.1792 9.31159 55.0266 9.80711 54.7748 10.2536L54.7377 10.3194C54.3319 11.0057 53.7164 11.5434 52.9821 11.8535C52.6919 11.9769 52.3865 12.0609 52.074 12.1035C51.9567 12.1199 51.8405 12.1313 51.7212 12.1385C51.6739 12.1385 51.6266 12.1385 51.5782 12.1385C51.4062 12.1406 51.2343 12.1296 51.064 12.1055C51.0163 12.1013 50.969 12.0944 50.9221 12.085C50.1604 11.9577 49.4583 11.5933 48.9156 11.0438C48.3729 10.4942 48.0173 9.78748 47.8994 9.02406C47.8741 8.85373 47.8611 8.68181 47.8603 8.50962V8.24726L47.8521 7.08052V6.49714C47.8521 6.40763 47.8521 6.31812 47.8521 6.23067C47.8586 6.06286 47.8748 5.89557 47.9004 5.72961C47.9318 5.53798 47.9828 5.35009 48.0526 5.16887C48.1339 4.95589 48.2316 4.7495 48.3447 4.55155C48.4792 4.31587 48.6441 4.09897 48.8353 3.90644C49.4422 3.30069 50.2385 2.92166 51.0912 2.8327C51.9439 2.74375 52.8012 2.95027 53.52 3.41773C53.6064 3.47535 53.6907 3.53502 53.773 3.59778C54.1157 3.86205 54.4089 4.18496 54.639 4.55155C54.6832 4.62048 54.7254 4.69147 54.7645 4.76452C54.8299 4.88417 54.8876 5.00788 54.9373 5.13492C54.9477 5.15725 54.9567 5.18029 54.964 5.20385C55.0255 5.35871 55.0777 5.51709 55.1203 5.67816C55.1843 5.91305 55.2188 6.15497 55.2232 6.39837V6.43541V6.5774V6.73379V6.99615V7.08978V7.94065V8.03531L55.2335 8.34397Z" fill="#FFC7B0"/>
      <path d="M50.9932 8.92702C50.9932 8.92702 51.0405 9.19041 51.4148 9.16983C51.7429 9.15234 51.7717 8.92188 51.7717 8.92188L50.9932 8.92702Z" fill="#F4A891"/>
      <path d="M49.4761 6.84289C49.6606 6.75351 49.8638 6.70976 50.0688 6.71531C50.2737 6.72086 50.4743 6.77555 50.6537 6.87478" stroke="#591239" stroke-width="2.56" stroke-miterlimit="10" stroke-linecap="round"/>
      <path d="M49.9336 13.6596C50.3142 15.7225 51.7478 23.1705 51.7478 23.1705L53.3543 13.7049C53.368 13.6244 53.3637 13.5419 53.3418 13.4633C53.3198 13.3846 53.2808 13.3118 53.2274 13.2501C53.174 13.1883 53.1077 13.1392 53.0331 13.1061C52.9585 13.073 52.8775 13.0568 52.7959 13.0587C52.6882 13.0618 52.5837 13.096 52.4951 13.1574C52.4065 13.2188 52.3377 13.3046 52.2971 13.4044C52.2395 13.5478 52.1418 13.6716 52.0156 13.7607C51.8895 13.8499 51.7403 13.9007 51.5859 13.9072C51.4316 13.9136 51.2787 13.8753 51.1456 13.7969C51.0125 13.7185 50.9048 13.6033 50.8356 13.4652L50.7873 13.3695C50.7487 13.2923 50.6889 13.2278 50.6149 13.1835C50.5409 13.1392 50.4559 13.117 50.3697 13.1194C50.3036 13.1208 50.2386 13.1366 50.1792 13.1657C50.1198 13.1948 50.0675 13.2365 50.026 13.288C49.9844 13.3395 49.9547 13.3994 49.9387 13.4636C49.9227 13.5278 49.921 13.5947 49.9336 13.6596Z" fill="white"/>
      <path d="M50.1782 7.81159V7.36197C50.1782 7.28071 50.1124 7.21484 50.0312 7.21484H50.0116C49.9304 7.21484 49.8645 7.28071 49.8645 7.36197V7.81159C49.8645 7.89285 49.9304 7.95872 50.0116 7.95872H50.0312C50.1124 7.95872 50.1782 7.89285 50.1782 7.81159Z" fill="#07113D"/>
      <path d="M52.3867 6.84276C52.5712 6.75347 52.7745 6.70976 52.9794 6.71531C53.1843 6.72086 53.3849 6.77551 53.5643 6.87465" stroke="#591239" stroke-width="2.56" stroke-miterlimit="10" stroke-linecap="round"/>
      <g opacity="0.1">
        <path d="M54.4427 8.97479C54.4365 9.34004 54.1074 9.63121 53.7063 9.62401C53.3052 9.61681 52.9863 9.31535 52.9863 8.95112C52.9863 8.5869 53.3226 8.2947 53.7237 8.30088C54.1249 8.30705 54.4488 8.60851 54.4427 8.97479Z" fill="#D93838"/>
      </g>
      <g opacity="0.1">
        <path d="M49.9451 8.97479C49.9451 9.34004 49.6098 9.63121 49.2087 9.62401C48.8076 9.61681 48.4888 9.31535 48.4888 8.95112C48.4888 8.5869 48.8241 8.2947 49.2252 8.30088C49.6263 8.30705 49.9513 8.60851 49.9451 8.97479Z" fill="#D93838"/>
      </g>
      <path d="M53.0889 7.81159V7.36197C53.0889 7.28071 53.023 7.21484 52.9418 7.21484H52.9223C52.841 7.21484 52.7752 7.28071 52.7752 7.36197V7.81159C52.7752 7.89285 52.841 7.95872 52.9223 7.95872H52.9418C53.023 7.95872 53.0889 7.89285 53.0889 7.81159Z" fill="#07113D"/>
      <path d="M55.3916 6.80928C55.3911 6.8127 55.3911 6.81616 55.3916 6.81957C55.3834 6.95333 55.371 7.04078 55.3669 7.07165C55.3234 7.07527 55.2798 7.07527 55.2363 7.07165C55.0306 5.73411 51.8423 4.55708 49.8543 4.661C49.6468 4.67048 49.4431 4.719 49.2536 4.80401C47.8415 5.43265 47.822 7.92252 47.7983 7.83507C46.6125 2.42937 51.2828 2.32031 51.2828 2.32031C52.5849 2.36764 53.4817 2.73906 54.0967 3.25556C55.4153 4.3616 55.4379 6.1364 55.3916 6.80928Z" fill="#591239"/>
      <path d="M50.4468 9.53516C50.5825 9.7183 50.8767 9.97346 51.4629 9.94671C51.9946 9.92613 52.2497 9.7255 52.3711 9.56397" stroke="#E48867" stroke-width="1.36" stroke-miterlimit="10" stroke-linecap="round"/>
      <path d="M48.6738 4.73327C48.6738 4.73327 49.476 5.91956 51.533 6.02348C53.59 6.12739 54.601 6.04097 55.1759 8.01126C55.3332 8.55142 55.2983 5.90207 55.2983 5.90207C55.2983 5.90207 50.9077 2.33085 48.6738 4.73327Z" fill="#591239"/>
      <path d="M49.1975 4.66926C49.1975 4.66926 48.2945 6.58811 47.9428 7.84333C47.591 9.09856 47.2105 4.16408 49.1975 4.66926Z" fill="#591239"/>
    </g>
    <path d="M58.6792 0.15625H44.0728V19.9281H58.6792V0.15625Z" stroke="#6A8593" stroke-width="3" stroke-miterlimit="10"/>
    <mask id="mask2_3253_4545" style="mask-type:luminance" maskUnits="userSpaceOnUse" x="23" y="34" width="16" height="20">
      <path d="M38.1392 34.7148H23.0093V53.6862H38.1392V34.7148Z" fill="white"/>
    </mask>
    <g mask="url(#mask2_3253_4545)">
      <path d="M33.0557 38.3164H28.5818C27.6707 38.3164 26.9321 39.0553 26.9321 39.9667V44.7788C26.9321 45.6902 27.6707 46.4291 28.5818 46.4291H33.0557C33.9668 46.4291 34.7054 45.6902 34.7054 44.7788V39.9667C34.7054 39.0553 33.9668 38.3164 33.0557 38.3164Z" fill="#B95241"/>
      <path d="M32.4253 44.8828H29.5435V49.3934H32.4253V44.8828Z" fill="#F4A891"/>
      <path d="M35.2812 41.5224C35.2796 41.6902 35.2215 41.8526 35.1162 41.9833C35.011 42.114 34.8647 42.2053 34.7011 42.2426C34.6696 42.2492 34.6376 42.2537 34.6055 42.256C34.5891 42.2581 34.5725 42.2581 34.5561 42.256H34.3309V41.7858V41.6829L34.3247 40.8289H34.552C34.5715 40.8279 34.5911 40.8279 34.6106 40.8289C34.639 40.8297 34.6672 40.8331 34.695 40.8392C34.834 40.8598 34.9632 40.9235 35.0642 41.0213C35.1326 41.0856 35.1872 41.1632 35.2245 41.2494C35.2618 41.3356 35.2811 41.4285 35.2812 41.5224Z" fill="#F4A891"/>
      <path d="M26.5576 41.5224C26.5595 41.6903 26.6178 41.8527 26.7232 41.9834C26.8287 42.114 26.975 42.2054 27.1387 42.2426C27.1702 42.2493 27.2022 42.2538 27.2344 42.256C27.2504 42.2581 27.2667 42.2581 27.2827 42.256H27.5079V41.7858V41.6829L27.5141 40.8289H27.2878C27.268 40.8279 27.2481 40.8279 27.2282 40.8289C27.1995 40.8297 27.1709 40.8332 27.1428 40.8392C27.0034 40.8598 26.874 40.9235 26.7726 41.0213C26.7045 41.0858 26.6503 41.1635 26.6134 41.2497C26.5764 41.3358 26.5574 41.4286 26.5576 41.5224Z" fill="#F4A891"/>
      <path d="M34.563 42.1044V42.2227V42.2484C34.563 42.2989 34.563 42.3513 34.563 42.3976C34.563 42.4439 34.563 42.4799 34.5558 42.5232C34.5567 42.5362 34.5567 42.5492 34.5558 42.5623C34.5128 43.0727 34.3602 43.5679 34.1084 44.014C34.0961 44.0366 34.0837 44.0593 34.0714 44.0798C33.6658 44.7663 33.0503 45.3042 32.3158 45.6139C32.0255 45.7369 31.7201 45.8207 31.4076 45.8629C31.2904 45.8804 31.1732 45.8917 31.0549 45.8979C31.0076 45.8979 30.9603 45.8979 30.9119 45.8979C30.74 45.8999 30.5681 45.8892 30.3977 45.866C30.3504 45.8598 30.302 45.8546 30.2557 45.8444C29.4943 45.7171 28.7923 45.3529 28.2496 44.8036C27.7069 44.2543 27.3512 43.5477 27.233 42.7845C27.2078 42.6142 27.1948 42.4422 27.194 42.2701V42.0077L27.1724 40.8471V40.2638C27.1724 40.1742 27.1724 40.0858 27.1724 39.9973C27.179 39.8295 27.1951 39.6622 27.2207 39.4962C27.2518 39.3045 27.3028 39.1166 27.3729 38.9355C27.4539 38.7225 27.5512 38.5161 27.664 38.3182C27.7988 38.0822 27.9641 37.8649 28.1556 37.672C28.7624 37.0661 29.5588 36.687 30.4116 36.5982C31.2644 36.5095 32.1218 36.7164 32.8403 37.1843C32.9267 37.2406 33.011 37.3003 33.0933 37.3634C33.4361 37.628 33.7292 37.9513 33.9593 38.3182C34.0035 38.3861 34.0457 38.4571 34.0848 38.5301C34.1502 38.6494 34.2079 38.7728 34.2576 38.8995C34.2681 38.9222 34.277 38.9455 34.2843 38.9694C34.3459 39.1242 34.3981 39.2826 34.4406 39.4437C34.5046 39.6786 34.5392 39.9205 34.5435 40.1639V40.2V40.4983V40.6969V40.7411V40.8348V41.6857V41.7803L34.563 42.1044Z" fill="#FFC7B0"/>
      <path d="M34.7214 40.5704C34.721 40.5735 34.721 40.5766 34.7214 40.5796C34.7101 40.6743 34.7018 40.7607 34.6957 40.8327C34.6954 40.8362 34.6954 40.8396 34.6957 40.843C34.6897 40.9132 34.6599 40.9792 34.6113 41.0301C34.5626 41.081 34.4981 41.1137 34.4283 41.1229H34.4211C34.3623 41.1299 34.3027 41.1199 34.2494 41.094C34.1962 41.0681 34.1515 41.0274 34.1208 40.9768L33.697 40.2761C33.119 39.1701 29.4556 39.0682 29.4556 39.0682C29.2091 39.0792 28.9683 38.9918 28.786 38.8254C28.701 38.7506 28.6312 38.6602 28.5803 38.5589C28.493 38.3903 28.4596 38.1988 28.4847 38.0105C28.5201 37.7903 28.6311 37.5893 28.7984 37.442C28.9658 37.2946 29.1792 37.2101 29.4021 37.2029L33.4234 37.0156C34.745 38.1217 34.7677 39.8965 34.7214 40.5704Z" fill="#DB734C"/>
      <path d="M30.3228 42.5471C30.3228 42.5471 30.3701 42.8115 30.7444 42.7909C31.0725 42.7734 31.1013 42.543 31.1013 42.543L30.3228 42.5471Z" fill="#F4A891"/>
      <path d="M28.8057 40.464C28.9902 40.3746 29.1934 40.3309 29.3984 40.3364C29.6033 40.342 29.8039 40.3966 29.9833 40.4959" stroke="#DB734C" stroke-width="2.56" stroke-miterlimit="10" stroke-linecap="round"/>
      <g opacity="0.18">
        <path d="M29.9794 42.204C29.9794 42.3542 29.6616 42.4705 29.2749 42.4643C28.8882 42.4582 28.5765 42.3316 28.5796 42.1814C28.5827 42.0312 28.8974 41.9159 29.2831 41.9221C29.6688 41.9283 29.9814 42.0548 29.9794 42.204Z" fill="#D93838"/>
      </g>
      <path d="M31.0541 46.9258C31.674 46.9258 32.2879 47.048 32.8606 47.2855C33.4333 47.523 33.9536 47.8711 34.3918 48.3099C34.8299 48.7487 35.1773 49.2696 35.4141 49.8427C35.6509 50.4159 35.7724 51.0302 35.7717 51.6504V58.7877H26.3364V51.6504C26.3358 51.0302 26.4573 50.4159 26.6941 49.8427C26.9308 49.2696 27.2782 48.7487 27.7164 48.3099C28.1545 47.8711 28.6748 47.523 29.2475 47.2855C29.8202 47.048 30.4341 46.9258 31.0541 46.9258Z" fill="#D93838"/>
      <path d="M29.1719 46.8952C29.1719 47.03 31.0776 56.9288 31.0776 56.9288L32.7973 46.8047L29.1719 46.8952Z" fill="#FFC050"/>
      <path opacity="0.56" d="M30.9268 46.9609L31.1489 57.0964" stroke="white" stroke-width="1.22" stroke-miterlimit="10"/>
      <path d="M31.4842 48.6484C31.4842 48.7338 31.4399 48.8048 31.3813 48.8069C31.3227 48.8089 31.2692 48.741 31.2672 48.6556C31.2651 48.5702 31.3104 48.4982 31.37 48.4961C31.4297 48.4941 31.4811 48.5661 31.4842 48.6484Z" fill="white"/>
      <path d="M31.514 49.5547C31.514 49.6401 31.4698 49.711 31.4112 49.7131C31.3526 49.7152 31.3001 49.6473 31.297 49.5619C31.2939 49.4765 31.3402 49.4044 31.3999 49.4024C31.4595 49.4003 31.5109 49.4682 31.514 49.5547Z" fill="white"/>
      <path d="M31.5438 50.4648C31.5438 50.5502 31.4996 50.6212 31.441 50.6233C31.3823 50.6253 31.3299 50.5574 31.3268 50.472C31.3237 50.3866 31.371 50.3146 31.4297 50.3125C31.4883 50.3105 31.5407 50.3784 31.5438 50.4648Z" fill="white"/>
      <path d="M33.2653 47.4951L31.7225 47.6082C31.269 47.6082 30.909 47.3171 30.9131 46.8767L33.038 46.8242C33.0791 46.8237 33.1198 46.832 33.1574 46.8487C33.195 46.8654 33.2286 46.8901 33.2557 46.921C33.2829 46.9519 33.3031 46.9883 33.3148 47.0277C33.3266 47.0671 33.3297 47.1086 33.3239 47.1494L33.2653 47.4951Z" fill="white"/>
      <path d="M28.635 47.5678L30.1777 47.6821C30.2839 47.6829 30.3892 47.6628 30.4875 47.6229C30.5859 47.583 30.6755 47.5241 30.7511 47.4496C30.8268 47.375 30.887 47.2863 30.9284 47.1885C30.9698 47.0907 30.9915 46.9857 30.9923 46.8795V46.8672L28.8633 46.8981C28.8223 46.8975 28.7816 46.9059 28.7441 46.9225C28.7066 46.9391 28.6731 46.9637 28.646 46.9944C28.6188 47.0252 28.5987 47.0615 28.5868 47.1008C28.575 47.1401 28.5718 47.1815 28.5774 47.2221L28.635 47.5678Z" fill="white"/>
      <path d="M34.563 41.5524V42.2253V42.251C34.563 42.3014 34.563 42.3539 34.563 42.4002C34.563 42.4465 34.563 42.4825 34.5558 42.5257C34.5567 42.5387 34.5567 42.5518 34.5558 42.5648C34.5128 43.0753 34.3602 43.5705 34.1084 44.0166C34.0961 44.0392 34.0837 44.0618 34.0714 44.0824C33.6658 44.7689 33.0503 45.3067 32.3158 45.6165C32.0255 45.7395 31.7201 45.8233 31.4076 45.8654C31.2904 45.8829 31.1732 45.8943 31.0549 45.9004C31.0076 45.9004 30.9603 45.9004 30.9119 45.9004C30.74 45.9025 30.5681 45.8918 30.3977 45.8685C30.3504 45.8624 30.302 45.8572 30.2557 45.8469C29.4943 45.7197 28.7923 45.3555 28.2496 44.8062C27.7069 44.2568 27.3512 43.5503 27.233 42.7871C27.2078 42.6167 27.1948 42.4448 27.194 42.2726V42.0103L27.1724 40.8497V40.1758L27.1806 41.3435V41.6059C27.1814 41.7781 27.1944 41.95 27.2197 42.1204C27.3379 42.8836 27.6937 43.5902 28.2363 44.1397C28.7789 44.6892 29.4809 45.0537 30.2424 45.1812C30.2887 45.1905 30.337 45.1967 30.3843 45.2018C30.5547 45.2256 30.7266 45.2363 30.8985 45.2337C30.9469 45.2337 30.9942 45.2337 31.0415 45.2337C31.1598 45.2275 31.277 45.2162 31.3943 45.1998C31.7068 45.1572 32.0122 45.0731 32.3024 44.9497C33.0368 44.6393 33.6522 44.1012 34.058 43.4147C34.0704 43.3941 34.0827 43.3715 34.0951 43.3488C34.3468 42.9027 34.4994 42.4076 34.5425 41.8971C34.5434 41.8841 34.5434 41.871 34.5425 41.858C34.5425 41.8148 34.5497 41.7746 34.5497 41.7325C34.5507 41.7236 34.5507 41.7146 34.5497 41.7057C34.5497 41.6656 34.5497 41.6255 34.5497 41.5833L34.563 41.5524Z" fill="#F4A891"/>
      <path d="M34.7215 40.571C34.721 40.5741 34.721 40.5772 34.7215 40.5803C34.7132 40.714 34.7009 40.8025 34.6957 40.8334C34.6955 40.8368 34.6955 40.8402 34.6957 40.8437C34.49 39.5061 31.1722 38.3137 29.1851 38.4186C28.9779 38.4282 28.7742 38.4764 28.5845 38.5606C27.1724 39.1944 27.0778 41.6822 27.0582 41.5916C25.8734 36.1859 30.6147 36.082 30.6147 36.082C31.9168 36.1294 32.8136 36.4998 33.4287 37.0162C34.7451 38.1223 34.7677 39.8971 34.7215 40.571Z" fill="#DB734C"/>
      <path d="M29.5083 41.4327V40.9831C29.5083 40.9018 29.4425 40.8359 29.3612 40.8359H29.3417C29.2605 40.8359 29.1946 40.9018 29.1946 40.9831V41.4327C29.1946 41.5139 29.2605 41.5798 29.3417 41.5798H29.3612C29.4425 41.5798 29.5083 41.5139 29.5083 41.4327Z" fill="#07113D"/>
      <path d="M31.7163 40.4639C31.9008 40.3746 32.1041 40.3309 32.309 40.3364C32.5139 40.342 32.7145 40.3966 32.8939 40.4957" stroke="#DB734C" stroke-width="2.56" stroke-miterlimit="10" stroke-linecap="round"/>
      <g opacity="0.18">
        <path d="M32.89 42.204C32.89 42.3542 32.5722 42.4705 32.1855 42.4643C31.7988 42.4582 31.4882 42.3316 31.4902 42.1814C31.4923 42.0312 31.808 41.9159 32.1948 41.9221C32.5815 41.9283 32.8921 42.0548 32.89 42.204Z" fill="#D93838"/>
      </g>
      <path d="M32.4189 41.4327V40.9831C32.4189 40.9018 32.3531 40.8359 32.2719 40.8359H32.2523C32.1711 40.8359 32.1053 40.9018 32.1053 40.9831V41.4327C32.1053 41.5139 32.1711 41.5798 32.2523 41.5798H32.2719C32.3531 41.5798 32.4189 41.5139 32.4189 41.4327Z" fill="#07113D"/>
      <path d="M29.6182 43.0348L31.8726 43.0234C31.8726 43.0234 31.5928 43.7704 30.7917 43.8136C29.9267 43.8599 29.6182 43.0348 29.6182 43.0348Z" fill="white"/>
    </g>
    <path d="M37.5396 33.918H22.9331V53.6898H37.5396V33.918Z" stroke="#6A8593" stroke-width="3" stroke-miterlimit="10"/>
    <mask id="mask3_3253_4545" style="mask-type:luminance" maskUnits="userSpaceOnUse" x="43" y="33" width="16" height="21">
      <path d="M58.8837 33.918H43.6797V53.6898H58.8837V33.918Z" fill="white"/>
    </mask>
    <g mask="url(#mask3_3253_4545)">
      <path d="M52.5278 37.2234C53.1471 36.6038 53.1472 35.5993 52.5278 34.9797C51.9085 34.3601 50.9043 34.3601 50.285 34.9797C49.6656 35.5993 49.6656 36.6038 50.285 37.2234C50.9043 37.843 51.9085 37.843 52.5278 37.2234Z" fill="#1F1331"/>
      <path d="M51.8274 47.125C52.4911 47.125 53.1483 47.2558 53.7615 47.5099C54.3746 47.7639 54.9318 48.1364 55.4011 48.6058C55.8704 49.0753 56.2427 49.6327 56.4966 50.2461C56.7506 50.8595 56.8813 51.5169 56.8813 52.1809V59.8264H46.7734V52.1788C46.774 50.8383 47.3067 49.5528 48.2544 48.6051C49.2022 47.6574 50.4874 47.125 51.8274 47.125Z" fill="#4D6199"/>
      <path d="M53.0957 44.8789H50.2139V48.8308H53.0957V44.8789Z" fill="#F4A891"/>
      <path d="M55.9477 41.5224C55.9461 41.6902 55.888 41.8526 55.7827 41.9833C55.6775 42.114 55.5312 42.2053 55.3676 42.2426C55.3361 42.2492 55.3041 42.2537 55.272 42.256C55.2559 42.2581 55.2397 42.2581 55.2236 42.256H54.9974V41.7858V41.6829L54.9912 40.8289H55.2175C55.237 40.8279 55.2566 40.8279 55.2761 40.8289C55.3045 40.8297 55.3327 40.8331 55.3604 40.8392C55.4995 40.8598 55.6286 40.9235 55.7297 41.0213C55.7985 41.0854 55.8533 41.1629 55.8909 41.2491C55.9284 41.3353 55.9477 41.4283 55.9477 41.5224Z" fill="#F4A891"/>
      <path d="M47.228 41.5224C47.2299 41.6903 47.2882 41.8527 47.3936 41.9834C47.4991 42.114 47.6454 42.2054 47.8091 42.2426C47.8407 42.2492 47.8726 42.2537 47.9048 42.256C47.9208 42.2581 47.9371 42.2581 47.9531 42.256H48.1783V41.7858V41.6829L48.1845 40.8289H47.9583C47.9384 40.8279 47.9185 40.8279 47.8986 40.8289C47.8699 40.8297 47.8413 40.8332 47.8132 40.8392C47.6739 40.8598 47.5444 40.9235 47.443 41.0213C47.3749 41.0858 47.3208 41.1635 47.2838 41.2497C47.2468 41.3358 47.2279 41.4286 47.228 41.5224Z" fill="#F4A891"/>
      <path d="M55.2339 42.1044V42.2227V42.2484C55.2339 42.2989 55.2339 42.3513 55.2339 42.3976C55.2339 42.4439 55.2339 42.4799 55.2277 42.5232C55.2269 42.5363 55.2252 42.5493 55.2226 42.5623C55.1796 43.0727 55.027 43.5679 54.7752 44.014C54.7629 44.0366 54.7505 44.0593 54.7382 44.0798C54.3326 44.7663 53.7171 45.3042 52.9826 45.6139C52.6923 45.7369 52.3869 45.8207 52.0744 45.8629C51.9572 45.8804 51.841 45.8917 51.7217 45.8979C51.6743 45.8979 51.627 45.8979 51.5787 45.8979C51.4067 45.8999 51.2349 45.8892 51.0645 45.866C51.0172 45.8598 50.9688 45.8546 50.9225 45.8444C50.161 45.7171 49.459 45.3529 48.9164 44.8036C48.3737 44.2543 48.018 43.5477 47.8998 42.7845C47.8746 42.6142 47.8616 42.4422 47.8607 42.2701V42.0077L47.8433 40.8471V40.2638C47.8433 40.1742 47.8433 40.0858 47.8433 39.9973C47.8499 39.8295 47.866 39.6622 47.8916 39.4962C47.9232 39.3046 47.9742 39.1167 48.0438 38.9355C48.1251 38.7225 48.2228 38.5161 48.3359 38.3182C48.4701 38.082 48.635 37.8647 48.8265 37.672C49.4333 37.0661 50.2297 36.687 51.0825 36.5982C51.9353 36.5095 52.7927 36.7164 53.5112 37.1843C53.5976 37.2406 53.6819 37.3003 53.7642 37.3634C54.107 37.628 54.4001 37.9513 54.6302 38.3182C54.6744 38.3861 54.7166 38.4571 54.7557 38.5301C54.8211 38.6494 54.8788 38.7728 54.9285 38.8995C54.939 38.9222 54.9479 38.9455 54.9552 38.9694C55.0168 39.1242 55.069 39.2826 55.1115 39.4437C55.1755 39.6786 55.2101 39.9205 55.2144 40.1639V40.2V40.3419V40.4983V40.6969V40.7411V40.8348V41.6857V41.7803L55.2339 42.1044Z" fill="#FFC7B0"/>
      <path d="M50.9932 42.6848C50.9932 42.6848 51.0405 42.9482 51.4148 42.9287C51.7429 42.9112 51.7717 42.6797 51.7717 42.6797L50.9932 42.6848Z" fill="#F4A891"/>
      <path d="M49.4761 40.6048C49.6605 40.5155 49.8637 40.4716 50.0686 40.477C50.2735 40.4824 50.4741 40.5368 50.6537 40.6357" stroke="#2B1B40" stroke-width="2.56" stroke-miterlimit="10" stroke-linecap="round"/>
      <path d="M49.8423 46.8952C49.8423 47.03 51.7481 56.9288 51.7481 56.9288L53.4677 46.8047L52.433 46.8304L51.6329 48.8141L50.6579 46.8747L49.8423 46.8952Z" fill="white"/>
      <path d="M50.1797 41.5733V41.1237C50.1797 41.0424 50.1138 40.9766 50.0326 40.9766H50.0131C49.9318 40.9766 49.866 41.0424 49.866 41.1237V41.5733C49.866 41.6546 49.9318 41.7204 50.0131 41.7204H50.0326C50.1138 41.7204 50.1797 41.6546 50.1797 41.5733Z" fill="#07113D"/>
      <path d="M52.3867 40.6047C52.5712 40.5154 52.7744 40.4716 52.9793 40.477C53.1842 40.4824 53.3848 40.5367 53.5643 40.6356" stroke="#2B1B40" stroke-width="2.56" stroke-miterlimit="10" stroke-linecap="round"/>
      <g opacity="0.1">
        <path d="M54.4373 42.7329C54.4431 42.3676 54.1228 42.0662 53.7219 42.0598C53.3209 42.0534 52.9911 42.3443 52.9852 42.7096C52.9794 43.0749 53.2997 43.3763 53.7006 43.3828C54.1016 43.3892 54.4314 43.0983 54.4373 42.7329Z" fill="#D93838"/>
      </g>
      <g opacity="0.1">
        <path d="M49.9451 42.7365C49.9451 43.1018 49.6098 43.3929 49.2087 43.3868C48.8076 43.3806 48.4888 43.0781 48.4888 42.7128C48.4888 42.3476 48.8241 42.0564 49.2252 42.0626C49.6263 42.0688 49.9513 42.3713 49.9451 42.7365Z" fill="#D93838"/>
      </g>
      <path d="M53.0903 41.5733V41.1237C53.0903 41.0424 53.0245 40.9766 52.9433 40.9766H52.9237C52.8425 40.9766 52.7766 41.0424 52.7766 41.1237V41.5733C52.7766 41.6546 52.8425 41.7204 52.9237 41.7204H52.9433C53.0245 41.7204 53.0903 41.6546 53.0903 41.5733Z" fill="#07113D"/>
      <path d="M55.2276 40.794L55.24 41.1027C55.0343 39.7652 51.846 38.5871 49.8579 38.692C49.6507 38.7017 49.447 38.7498 49.2573 38.834C47.8462 39.4678 47.8174 41.9618 47.803 41.8702C47.1057 36.5695 51.2875 36.3555 51.2875 36.3555C52.5896 36.4028 53.4864 36.7742 54.1015 37.2897C55.4158 38.4009 55.2698 40.1201 55.2276 40.794Z" fill="#F4A891"/>
      <path d="M50.2735 40.0157C50.8188 40.0157 51.2608 39.5942 51.2608 39.0742C51.2608 38.5543 50.8188 38.1328 50.2735 38.1328C49.7282 38.1328 49.2861 38.5543 49.2861 39.0742C49.2861 39.5942 49.7282 40.0157 50.2735 40.0157Z" fill="#F4A891"/>
      <path d="M52.1094 40.0157C52.6547 40.0157 53.0968 39.5942 53.0968 39.0742C53.0968 38.5543 52.6547 38.1328 52.1094 38.1328C51.5641 38.1328 51.1221 38.5543 51.1221 39.0742C51.1221 39.5942 51.5641 40.0157 52.1094 40.0157Z" fill="#F4A891"/>
      <path d="M53.5503 40.1524C54.0956 40.1524 54.5377 39.7309 54.5377 39.2109C54.5377 38.691 54.0956 38.2695 53.5503 38.2695C53.005 38.2695 52.563 38.691 52.563 39.2109C52.563 39.7309 53.005 40.1524 53.5503 40.1524Z" fill="#F4A891"/>
      <path d="M55.392 40.5708C55.3916 40.5739 55.3916 40.577 55.392 40.5801C55.3838 40.7138 55.3715 40.8023 55.3673 40.8332C55.3239 40.8363 55.2802 40.8363 55.2367 40.8332C55.031 39.4956 51.8427 38.3176 49.8547 38.4225C49.6474 38.4321 49.4437 38.4803 49.2541 38.5645C47.843 39.1983 47.8193 41.6912 47.7998 41.5997C46.614 36.195 51.2843 36.0859 51.2843 36.0859C52.5863 36.1333 53.4832 36.5037 54.0982 37.0202C55.4157 38.1221 55.4383 39.8969 55.392 40.5708Z" fill="#2B1B40"/>
      <path d="M50.2735 39.7344C50.8188 39.7344 51.2608 39.3129 51.2608 38.793C51.2608 38.273 50.8188 37.8516 50.2735 37.8516C49.7282 37.8516 49.2861 38.273 49.2861 38.793C49.2861 39.3129 49.7282 39.7344 50.2735 39.7344Z" fill="#2B1B40"/>
      <path d="M52.1094 39.7344C52.6547 39.7344 53.0968 39.3129 53.0968 38.793C53.0968 38.273 52.6547 37.8516 52.1094 37.8516C51.5641 37.8516 51.1221 38.273 51.1221 38.793C51.1221 39.3129 51.5641 39.7344 52.1094 39.7344Z" fill="#2B1B40"/>
      <path d="M53.5503 39.875C54.0956 39.875 54.5377 39.4535 54.5377 38.9336C54.5377 38.4137 54.0956 37.9922 53.5503 37.9922C53.005 37.9922 52.563 38.4137 52.563 38.9336C52.563 39.4535 53.005 39.875 53.5503 39.875Z" fill="#2B1B40"/>
      <path d="M54.8315 39.5508V41.8915C54.8318 41.9538 54.8567 42.0134 54.9009 42.0574C54.945 42.1014 55.0048 42.1261 55.0671 42.126C55.0979 42.126 55.1285 42.1199 55.157 42.1081C55.1856 42.0962 55.2114 42.0789 55.2332 42.057C55.255 42.0351 55.2723 42.0091 55.284 41.9805C55.2957 41.9519 55.3017 41.9213 55.3016 41.8904V39.7164C55.3016 39.7164 54.8315 39.5981 54.8315 39.5508Z" fill="#2B1B40"/>
      <path d="M47.729 39.5508V41.8493C47.729 41.9104 47.7533 41.969 47.7965 42.0122C47.8397 42.0555 47.8983 42.0797 47.9594 42.0797C48.0208 42.0797 48.0796 42.0554 48.123 42.0119C48.1664 41.9685 48.1908 41.9096 48.1908 41.8483V39.7164C48.1908 39.7164 47.729 39.5971 47.729 39.5508Z" fill="#2B1B40"/>
      <path d="M51.7957 43.6187H51.0295C50.9926 43.6187 50.9572 43.6041 50.931 43.5781C50.9048 43.552 50.8899 43.5167 50.8896 43.4798C50.8896 43.4614 50.8933 43.4432 50.9003 43.4262C50.9073 43.4093 50.9176 43.3938 50.9306 43.3808C50.9436 43.3678 50.959 43.3575 50.976 43.3505C50.993 43.3435 51.0112 43.3398 51.0295 43.3398H51.7957C51.8141 43.3398 51.8323 43.3435 51.8493 43.3505C51.8662 43.3575 51.8817 43.3678 51.8946 43.3808C51.9076 43.3938 51.9179 43.4093 51.925 43.4262C51.932 43.4432 51.9356 43.4614 51.9356 43.4798C51.9353 43.5167 51.9205 43.552 51.8943 43.5781C51.8681 43.6041 51.8327 43.6187 51.7957 43.6187Z" fill="#D93838"/>
      <path d="M51.7316 43.5898H51.1197C51.0498 43.5898 50.9932 43.6465 50.9932 43.7164V43.7421C50.9932 43.812 51.0498 43.8687 51.1197 43.8687H51.7316C51.8015 43.8687 51.8581 43.812 51.8581 43.7421V43.7164C51.8581 43.6465 51.8015 43.5898 51.7316 43.5898Z" fill="#D93838"/>
    </g>
    <path d="M58.6792 33.918H44.0728V53.6898H58.6792V33.918Z" stroke="#6A8593" stroke-width="3" stroke-miterlimit="10"/>
    <mask id="mask4_3253_4545" style="mask-type:luminance" maskUnits="userSpaceOnUse" x="2" y="0" width="16" height="20">
      <path d="M17.3917 0.492188H2.89014V19.9286H17.3917V0.492188Z" fill="white"/>
    </mask>
    <g mask="url(#mask4_3253_4545)">
      <path d="M0.409551 23.3191C0.520627 23.067 5.00069 15.7857 6.65448 14.9585C8.30828 14.1313 12.8068 14.4996 13.6337 15.1427C14.4606 15.7857 19.0497 22.3448 19.5989 23.6823C20.2417 25.2441 19.5989 27.2648 18.8646 27.2648H1.60053C1.60053 27.2648 -0.971698 26.4417 0.409551 23.3191Z" fill="#D93838"/>
      <path d="M10.1923 2.23438H10.6273C11.7067 2.23438 12.7418 2.66331 13.505 3.42682C14.2682 4.19032 14.697 5.22586 14.697 6.30562V8.77492C14.697 9.63393 14.3559 10.4578 13.7487 11.0652C13.1415 11.6726 12.318 12.0138 11.4593 12.0138H9.35919C8.50158 12.0135 7.67911 11.6729 7.0723 11.0666C6.46549 10.4603 6.12392 9.638 6.12256 8.78006V6.31077C6.12189 5.77569 6.22665 5.24573 6.43087 4.75119C6.63509 4.25665 6.93475 3.80723 7.31273 3.42863C7.6907 3.05004 8.13957 2.74969 8.63366 2.54477C9.12776 2.33985 9.65739 2.23437 10.1923 2.23438Z" fill="#07113D"/>
      <path d="M7.26019 7.32371L7.20259 8.3248L7.16248 9.00077L6.86114 8.98739C6.83942 8.98691 6.81776 8.98485 6.79634 8.98122C6.29342 8.92772 5.91493 8.5244 5.93962 8.07993C5.94824 7.96787 5.98113 7.85902 6.03601 7.76095C6.09089 7.66288 6.16644 7.57793 6.25742 7.51199C6.43523 7.37802 6.6519 7.30577 6.87451 7.30621C6.90086 7.30418 6.92734 7.30418 6.9537 7.30621L7.26019 7.32371Z" fill="#F4A891"/>
      <path d="M13.8364 7.34772L13.894 8.34881L13.9341 9.02478L14.2355 9.01141C14.2581 9.01141 14.2797 9.01141 14.3003 9.00523C14.8032 8.95173 15.1827 8.54739 15.158 8.10291C15.1492 7.99079 15.1161 7.88192 15.0611 7.78385C15.006 7.68578 14.9303 7.60086 14.8392 7.53498C14.661 7.40223 14.4442 7.33173 14.2221 7.33435C14.1961 7.33126 14.1699 7.33126 14.1439 7.33435L13.8364 7.34772Z" fill="#F4A891"/>
      <path d="M10.7037 9.85938H10.0187C9.38652 9.85938 8.87402 10.3721 8.87402 11.0045V14.229C8.87402 14.8614 9.38652 15.3741 10.0187 15.3741H10.7037C11.3359 15.3741 11.8484 14.8614 11.8484 14.229V11.0045C11.8484 10.3721 11.3359 9.85938 10.7037 9.85938Z" fill="#F4A891"/>
      <path d="M14.2251 7.22954L14.1356 8.97245L14.1233 9.23275C14.1144 9.40271 14.0938 9.57184 14.0616 9.73896C13.927 10.4149 13.604 11.039 13.1299 11.5391C12.6558 12.0392 12.05 12.3949 11.3824 12.5653C11.2304 12.6042 11.0762 12.6338 10.9206 12.6538C10.8733 12.661 10.825 12.6651 10.7777 12.6682C10.6779 12.6785 10.5776 12.6836 10.4773 12.6836C10.4053 12.6836 10.3334 12.6836 10.2593 12.6784C10.097 12.6696 9.9355 12.6497 9.77591 12.6188C9.71009 12.6075 9.64633 12.5931 9.58256 12.5776C9.34103 12.5203 9.10625 12.4375 8.88216 12.3307C8.35444 12.0819 7.89349 11.711 7.53742 11.2487C7.18136 10.7864 6.94039 10.246 6.83446 9.67208C6.83359 9.66871 6.83359 9.66517 6.83446 9.66179C6.81389 9.53524 6.79846 9.40869 6.78921 9.28008C6.78921 9.23893 6.78921 9.19983 6.78201 9.15971C6.77481 9.11958 6.78201 9.07637 6.78201 9.03521C6.77944 8.98586 6.77944 8.93641 6.78201 8.88705V8.8603V8.74095L6.79846 8.43229L6.8252 7.90036V7.89522L6.85092 7.35712V7.34683L6.8612 7.14826L6.8684 6.99393L6.87663 6.85194V6.81593C6.89212 6.57355 6.93772 6.33403 7.01239 6.10292C7.06115 5.94402 7.11989 5.78835 7.18826 5.63684C7.19751 5.61215 7.20677 5.59157 7.21706 5.56894C7.27239 5.44517 7.33525 5.32491 7.40527 5.20883C7.66901 4.76798 8.0226 4.38762 8.443 4.09251C8.52631 4.03283 8.6127 3.97624 8.70115 3.92377C9.43681 3.48952 10.2992 3.32114 11.1441 3.44681C11.989 3.57248 12.7651 3.98457 13.3427 4.61414C13.5258 4.81528 13.6814 5.03982 13.8055 5.28188C13.909 5.48046 13.9966 5.68687 14.0678 5.89921C14.1132 6.03546 14.1476 6.17515 14.1706 6.31693C14.1788 6.36529 14.185 6.41261 14.1901 6.46097C14.2004 6.54637 14.2087 6.63279 14.2128 6.72025C14.2306 6.8883 14.2347 7.05806 14.2251 7.22954Z" fill="#FFC7B0"/>
      <path d="M11.9584 8.36778C11.9128 8.36778 11.869 8.34971 11.8366 8.31751C11.8042 8.28532 11.7859 8.24162 11.7856 8.19595V7.64448C11.7859 7.59881 11.8042 7.55511 11.8366 7.52292C11.869 7.49073 11.9128 7.47266 11.9584 7.47266C12.004 7.47266 12.0477 7.49076 12.0799 7.52298C12.1121 7.5552 12.1302 7.59891 12.1302 7.64448V8.19595C12.1302 8.24152 12.1121 8.28523 12.0799 8.31745C12.0477 8.34967 12.004 8.36778 11.9584 8.36778Z" fill="#07113D"/>
      <path d="M8.94617 8.35709C8.90062 8.35709 8.85693 8.33898 8.82472 8.30676C8.79251 8.27454 8.77441 8.23083 8.77441 8.18526V7.63379C8.77441 7.58812 8.79248 7.54431 8.82466 7.51193C8.85684 7.47954 8.90052 7.46121 8.94617 7.46094C8.99191 7.46121 9.0357 7.47951 9.06805 7.51186C9.10039 7.54422 9.11868 7.58803 9.11895 7.63379V8.18526C9.11868 8.23093 9.10036 8.27463 9.06799 8.30682C9.03561 8.33902 8.99182 8.35709 8.94617 8.35709Z" fill="#07113D"/>
      <path d="M12.5454 6.9753H11.3318C11.274 6.9753 11.2185 6.95232 11.1776 6.91142C11.1367 6.87051 11.1138 6.81503 11.1138 6.75718C11.114 6.69942 11.1371 6.64409 11.1779 6.60325C11.2188 6.5624 11.2741 6.53933 11.3318 6.53906H12.5454C12.6032 6.53933 12.6585 6.5624 12.6993 6.60325C12.7401 6.64409 12.7632 6.69942 12.7635 6.75718C12.7635 6.81503 12.7405 6.87051 12.6996 6.91142C12.6587 6.95232 12.6032 6.9753 12.5454 6.9753Z" fill="#07113D"/>
      <path d="M9.58659 6.9753H8.36989C8.31207 6.9753 8.25661 6.95232 8.21572 6.91142C8.17483 6.87051 8.15186 6.81503 8.15186 6.75718C8.15213 6.69942 8.17518 6.64409 8.21602 6.60325C8.25685 6.5624 8.31215 6.53933 8.36989 6.53906H9.58659C9.64433 6.53933 9.69963 6.5624 9.74046 6.60325C9.78129 6.64409 9.80435 6.69942 9.80462 6.75718C9.80462 6.78583 9.79898 6.81419 9.78803 6.84065C9.77707 6.86712 9.76101 6.89116 9.74076 6.91142C9.72051 6.93167 9.69648 6.94774 9.67003 6.9587C9.64357 6.96966 9.61522 6.9753 9.58659 6.9753Z" fill="#07113D"/>
      <path d="M11.4782 10.0572C11.1254 10.5716 10.8014 10.9173 10.3201 10.8432C9.9159 10.7805 9.58781 10.477 9.38623 10.0273L11.4782 10.0572Z" fill="white"/>
      <path d="M10.0259 8.92969H10.8487C10.8487 8.92969 10.462 9.48116 10.0259 8.92969Z" fill="#E48867"/>
      <path d="M9.3944 5.02489L11.4812 5.67102C11.5555 5.69614 11.6355 5.69947 11.7116 5.68062C11.7878 5.66178 11.857 5.62154 11.911 5.56466C11.9651 5.50778 12.0017 5.43662 12.0167 5.35958C12.0316 5.28254 12.0243 5.20282 11.9954 5.12984L11.981 5.09383L12.233 5.22758C12.969 5.61993 13.5651 6.23105 13.9392 6.97666L14.4154 7.92837C14.4154 7.92837 15.5406 3.10501 10.2593 2.98978C6.04258 2.89718 6.5743 7.12379 6.5743 7.12379C6.5743 7.12379 7.49993 4.74915 9.3944 5.02489Z" fill="#07113D"/>
      <path d="M15.1467 18.6352L14.833 31.8994L4.79302 31.992L4.53076 18.6352C4.53126 17.5675 4.90736 16.534 5.59317 15.7159C6.27898 14.8977 7.23073 14.3472 8.28163 14.1606C8.54253 14.1158 8.80678 14.0934 9.0715 14.0938H10.606C11.8101 14.0938 12.9649 14.5722 13.8164 15.4238C14.6679 16.2755 15.1465 17.4306 15.1467 18.6352Z" fill="#D93838"/>
      <path d="M12.3234 32.0869H8.32568L8.33494 13.8203H12.3995L12.3234 32.0869Z" fill="white"/>
      <path d="M9.35742 13.9807C9.42633 14.0835 10.4589 15.5662 10.4589 15.5662L11.6993 14.0496L11.1141 13.5352L9.9776 13.673L9.35742 13.9807Z" fill="#07113D"/>
      <path d="M12.4449 14.8542L10.5392 13.7348L8.3125 14.8542V13.4766H12.4449V14.8542Z" fill="white"/>
      <path d="M11.1848 19.8737H9.73975L10.0483 14.6367H10.9791L11.1848 19.8737Z" fill="#07113D"/>
      <path d="M7.24196 4.71875L7.11546 7.89591C7.11393 7.93139 7.10486 7.96614 7.08886 7.99784C7.07285 8.02954 7.05028 8.05746 7.02265 8.07976C6.99501 8.10205 6.96294 8.11819 6.92858 8.12712C6.89422 8.13604 6.85836 8.13755 6.82337 8.13152C6.76657 8.12132 6.71505 8.09177 6.67756 8.04788C6.64006 8.004 6.6189 7.94848 6.61767 7.89076L6.56934 5.20129L7.24196 4.71875Z" fill="#07113D"/>
      <path d="M13.855 4.91016L13.9856 8.08732C13.9869 8.12283 13.9959 8.15763 14.0119 8.18938C14.0278 8.22112 14.0504 8.24906 14.0781 8.27131C14.1058 8.29355 14.138 8.30958 14.1724 8.31831C14.2068 8.32704 14.2427 8.32826 14.2777 8.3219C14.3344 8.31191 14.3859 8.28257 14.4234 8.23885C14.4609 8.19514 14.4821 8.13977 14.4834 8.08217L14.5317 5.3927L13.855 4.91016Z" fill="#07113D"/>
    </g>
    <path d="M17.2417 0.15625H2.56836V19.9281H17.2417V0.15625Z" stroke="#6A8593" stroke-width="3" stroke-miterlimit="10"/>
    <mask id="mask5_3253_4545" style="mask-type:luminance" maskUnits="userSpaceOnUse" x="2" y="34" width="16" height="20">
      <path d="M17.3917 34.25H2.89014V53.6864H17.3917V34.25Z" fill="white"/>
    </mask>
    <g mask="url(#mask5_3253_4545)">
      <path d="M0.545268 57.042C0.656344 56.792 5.14052 49.5086 6.78609 48.6813C8.43165 47.8541 12.8665 48.2996 13.6934 48.9427C14.5203 49.5857 19.1865 56.0717 19.7449 57.4093C20.3877 58.9711 19.7449 60.9928 19.0096 60.9928H1.73933C1.73933 60.9928 -0.831867 60.1656 0.545268 57.042Z" fill="#4D6199"/>
      <path d="M15.3555 52.4292L15.0469 65.6924L5.00689 65.785L4.74463 52.4292C4.74492 51.3614 5.12096 50.3278 5.8068 49.5097C6.49264 48.6915 7.44451 48.141 8.4955 47.9546C8.75602 47.9095 9.01994 47.8868 9.28434 47.8867H10.8188C12.0224 47.8878 13.1763 48.3669 14.027 49.2186C14.8776 50.0704 15.3555 51.2252 15.3555 52.4292Z" fill="#4D6199"/>
      <path d="M10.1923 35.9922H10.6274C11.7067 35.9922 12.7418 36.4211 13.5051 37.1846C14.2683 37.9481 14.6971 38.9837 14.6971 40.0634V42.5327C14.6971 43.3917 14.3559 44.2156 13.7488 44.823C13.1416 45.4304 12.3181 45.7716 11.4594 45.7716H9.35924C8.50056 45.7716 7.67705 45.4304 7.06987 44.823C6.46269 44.2156 6.12158 43.3917 6.12158 42.5327V40.0634C6.12158 39.5287 6.22688 38.9992 6.43147 38.5052C6.63605 38.0112 6.93592 37.5623 7.31393 37.1843C7.69195 36.8062 8.14071 36.5063 8.63459 36.3018C9.12846 36.0973 9.65778 35.9921 10.1923 35.9922Z" fill="#EAA64F"/>
      <path d="M7.26019 41.0823L7.20259 42.0834L7.16248 42.7594L6.86114 42.746C6.83954 42.746 6.81691 42.746 6.79634 42.7398C6.29342 42.6863 5.91493 42.282 5.93962 41.8375C5.94811 41.7255 5.98096 41.6168 6.03585 41.5189C6.09074 41.421 6.16636 41.3362 6.25742 41.2706C6.43477 41.1357 6.65174 41.0634 6.87451 41.0648C6.90081 41.0617 6.92739 41.0617 6.9537 41.0648L7.26019 41.0823Z" fill="#F4A891"/>
      <path d="M13.8364 41.105L13.894 42.1061L13.9341 42.782L14.2355 42.7687C14.2572 42.7682 14.2789 42.7662 14.3003 42.7625C14.8032 42.709 15.1827 42.3046 15.158 41.8612C15.1493 41.749 15.1163 41.6401 15.0613 41.542C15.0062 41.4439 14.9304 41.359 14.8392 41.2933C14.6617 41.1587 14.4448 41.0863 14.2221 41.0875C14.1961 41.0854 14.17 41.0854 14.1439 41.0875L13.8364 41.105Z" fill="#F4A891"/>
      <path d="M10.6636 43.6172H10.0588C9.40448 43.6172 8.87402 44.1478 8.87402 44.8024V48.349C8.87402 49.0036 9.40448 49.5342 10.0588 49.5342H10.6636C11.3179 49.5342 11.8484 49.0036 11.8484 48.349V44.8024C11.8484 44.1478 11.3179 43.6172 10.6636 43.6172Z" fill="#F4A891"/>
      <path d="M14.2197 40.9876L14.1313 42.7274L14.1179 42.9878C14.1095 43.1574 14.0889 43.3262 14.0562 43.4929C13.9217 44.1678 13.5993 44.7908 13.1262 45.2903C12.6531 45.7898 12.0485 46.1454 11.3822 46.3162C11.2303 46.3554 11.0761 46.3846 10.9204 46.4036C10.8731 46.4108 10.8247 46.4149 10.7774 46.418C10.678 46.4283 10.5781 46.4335 10.4781 46.4334C10.4061 46.4334 10.3341 46.4334 10.2611 46.4283C10.0989 46.4193 9.93741 46.3998 9.77774 46.3697C9.71295 46.3573 9.64815 46.3429 9.58439 46.3275C9.34321 46.2705 9.10877 46.1881 8.88502 46.0816C8.35884 45.8338 7.89916 45.4643 7.54398 45.0036C7.18881 44.5429 6.94834 44.0043 6.84246 43.4322C6.84149 43.4289 6.84149 43.4253 6.84246 43.4219C6.82189 43.2964 6.80646 43.1688 6.79721 43.0413C6.79721 43.0001 6.79206 42.961 6.79001 42.9198C6.78795 42.8787 6.79001 42.8375 6.79001 42.7964C6.78745 42.747 6.78745 42.6976 6.79001 42.6482V42.6215L6.79515 42.5032L6.8116 42.1945L6.83834 41.6626V41.6574L6.86406 41.1214V41.1101L6.87537 40.9125L6.88257 40.7582L6.8908 40.6162V40.5802C6.90672 40.3381 6.95267 40.0989 7.02759 39.8682C7.07583 39.7096 7.13423 39.5543 7.20243 39.4032C7.21168 39.3785 7.22094 39.3569 7.23122 39.3353C7.28691 39.2115 7.35011 39.0912 7.42046 38.9751C7.68383 38.5346 8.03708 38.1546 8.45717 37.8598C8.54048 37.8012 8.62687 37.7446 8.71429 37.6921C9.44906 37.2588 10.3102 37.0908 11.1539 37.2163C11.9976 37.3418 12.7727 37.7531 13.3497 38.3815C13.533 38.5822 13.6883 38.8068 13.8114 39.0492C13.9159 39.2474 14.0036 39.4538 14.0737 39.6665C14.1191 39.8028 14.1535 39.9425 14.1765 40.0843C14.1848 40.1326 14.1909 40.1789 14.1961 40.2283C14.2064 40.3127 14.2146 40.3991 14.2187 40.4866C14.2283 40.6491 14.2287 40.8161 14.2197 40.9876Z" fill="#FFC7B0"/>
      <path d="M11.9584 42.1266C11.9127 42.1263 11.8689 42.1081 11.8366 42.0757C11.8042 42.0433 11.7859 41.9995 11.7856 41.9538V41.4023C11.7859 41.3566 11.8042 41.3129 11.8366 41.2807C11.869 41.2485 11.9128 41.2305 11.9584 41.2305C12.004 41.2305 12.0477 41.2486 12.0799 41.2808C12.1121 41.313 12.1302 41.3567 12.1302 41.4023V41.9538C12.1302 41.9994 12.1121 42.0432 12.0799 42.0756C12.0478 42.108 12.0041 42.1263 11.9584 42.1266Z" fill="#07113D"/>
      <path d="M8.94568 42.1139C8.90013 42.1139 8.85644 42.0958 8.82423 42.0635C8.79202 42.0313 8.77393 41.9876 8.77393 41.942V41.3906C8.77393 41.345 8.79202 41.3013 8.82423 41.2691C8.85644 41.2369 8.90013 41.2188 8.94568 41.2188C8.99133 41.2187 9.03512 41.2368 9.0675 41.269C9.09987 41.3012 9.11819 41.3449 9.11847 41.3906V41.942C9.11819 41.9877 9.09987 42.0314 9.0675 42.0636C9.03512 42.0958 8.99133 42.1139 8.94568 42.1139Z" fill="#07113D"/>
      <path d="M12.5835 40.7345H11.2968C11.2483 40.7345 11.2017 40.7152 11.1674 40.6809C11.1331 40.6465 11.1138 40.5999 11.1138 40.5514C11.1138 40.5027 11.133 40.456 11.1673 40.4215C11.2016 40.387 11.2482 40.3675 11.2968 40.3672H12.5835C12.6321 40.3675 12.6787 40.387 12.713 40.4215C12.7473 40.456 12.7665 40.5027 12.7665 40.5514C12.7665 40.5999 12.7473 40.6465 12.7129 40.6809C12.6786 40.7152 12.632 40.7345 12.5835 40.7345Z" fill="#EAA64F"/>
      <path d="M9.62155 40.7345H8.33492C8.28637 40.7345 8.23981 40.7152 8.20547 40.6809C8.17114 40.6465 8.15186 40.5999 8.15186 40.5514C8.15185 40.5027 8.17111 40.456 8.20541 40.4215C8.23972 40.387 8.28628 40.3675 8.33492 40.3672H9.62155C9.6702 40.3675 9.71676 40.387 9.75107 40.4215C9.78537 40.456 9.80462 40.5027 9.80462 40.5514C9.80462 40.5999 9.78534 40.6465 9.751 40.6809C9.71667 40.7152 9.67011 40.7345 9.62155 40.7345Z" fill="#EAA64F"/>
      <path d="M10.0259 42.6875H10.8487C10.8487 42.6875 10.462 43.2379 10.0259 42.6875Z" fill="#E48867"/>
    </g>
    <path d="M7.40321 39.0399L6.95891 41.9927C6.95429 42.0243 6.94184 42.0543 6.92269 42.0799C6.90353 42.1054 6.87828 42.1258 6.84924 42.1391C6.8202 42.1524 6.78829 42.1582 6.75642 42.156C6.72456 42.1538 6.69376 42.1437 6.66682 42.1265C6.64189 42.1102 6.6211 42.0884 6.6061 42.0626C6.5911 42.0369 6.58231 42.008 6.58043 41.9783L6.44775 39.827C6.44775 39.827 7.16152 38.046 7.40321 39.0399Z" fill="#EAA64F"/>
    <path d="M13.541 39.425L13.9853 42.3779C13.99 42.4094 14.0025 42.4392 14.0216 42.4646C14.0407 42.49 14.0658 42.5103 14.0947 42.5236C14.1236 42.5368 14.1553 42.5427 14.187 42.5406C14.2188 42.5385 14.2495 42.5286 14.2764 42.5117C14.3022 42.4955 14.3237 42.4735 14.3393 42.4474C14.3548 42.4212 14.3639 42.3918 14.3659 42.3614L14.4996 39.6133C14.4996 39.6133 13.7848 38.4311 13.541 39.425Z" fill="#EAA64F"/>
    <path d="M6.87783 41.0744L7.70062 40.0712C7.89346 39.8355 8.06131 39.5803 8.20149 39.3099L8.70544 38.3437C8.70544 38.3437 13.1207 38.6236 13.8643 41.0877L14.469 39.4138C14.469 39.4138 13.1207 35.6934 9.68147 36.5772C6.24223 37.461 6.87783 41.0744 6.87783 41.0744Z" fill="#EAA64F"/>
    <path d="M12.1406 36.3906C12.1406 36.3906 15.3474 38.0646 15.3474 38.2045C15.3474 38.3445 14.3251 39.1809 13.2565 38.6696C12.1879 38.1582 12.1406 36.3906 12.1406 36.3906Z" fill="#EAA64F"/>
    <path d="M12.0479 37.2266C12.0479 37.2266 15.2547 38.9005 15.2547 39.0394C15.2547 39.1783 14.2323 40.0158 13.1627 39.5086C12.0931 39.0014 12.0479 37.2266 12.0479 37.2266Z" fill="#EAA64F"/>
    <path d="M8.85241 47.7576C8.85241 47.7576 8.95525 49.1703 10.246 49.1878C11.5367 49.2053 11.8679 47.7227 11.8679 47.7227L12.0942 48.0889C12.0942 48.0889 12.0592 49.6611 10.281 49.624C8.62511 49.589 8.57266 48.1414 8.55518 47.95L8.85241 47.7576Z" fill="#FBFCFC"/>
    <path d="M11.3308 43.8242C11.2158 43.9373 11.0779 44.0244 10.9264 44.0798C10.7749 44.1351 10.6133 44.1574 10.4525 44.1452C10.1772 44.1348 9.91426 44.0277 9.70996 43.8427" stroke="#E48867" stroke-width="1.36" stroke-miterlimit="10"/>
    <path opacity="0.45" d="M11.8311 41.0664L12.5088 42.3957L13.0241 42.3412L12.3186 41.0664H11.8311Z" fill="white"/>
    <path d="M12.6784 41.0039H11.147C10.976 41.0039 10.8374 41.1426 10.8374 41.3136V42.1593C10.8374 42.3304 10.976 42.469 11.147 42.469H12.6784C12.8494 42.469 12.988 42.3304 12.988 42.1593V41.3136C12.988 41.1426 12.8494 41.0039 12.6784 41.0039Z" stroke="#07113D" stroke-width="1.43" stroke-miterlimit="10"/>
    <path opacity="0.45" d="M8.94824 41.0664L9.62704 42.3957L10.1423 42.3412L9.43677 41.0664H8.94824Z" fill="white"/>
    <path d="M9.79655 41.0039H8.26514C8.09417 41.0039 7.95557 41.1426 7.95557 41.3136V42.1593C7.95557 42.3304 8.09417 42.469 8.26514 42.469H9.79655C9.96752 42.469 10.1061 42.3304 10.1061 42.1593V41.3136C10.1061 41.1426 9.96752 41.0039 9.79655 41.0039Z" stroke="#07113D" stroke-width="1.43" stroke-miterlimit="10"/>
    <path d="M10.0415 41.7461L10.9085 41.7728" stroke="#07113D" stroke-width="1.48" stroke-miterlimit="10"/>
    <path d="M17.2417 33.9766H2.56836V53.7484H17.2417V33.9766Z" stroke="#6A8593" stroke-width="3" stroke-miterlimit="10"/>
    <g style="mix-blend-mode:multiply" opacity="0.6">
      <path d="M62.1676 64.337V64.4697L62.1439 65.2094L59.5008 65.1241L59.4678 66.1468C57.2566 65.5634 52.2448 64.2536 50.8379 63.9779C50.6774 63.946 50.518 63.9203 50.3565 63.8966L41.1743 61.3378L39.6418 58.5156L39.794 58.4333C39.9816 58.3306 40.121 58.1579 40.1817 57.9528C40.2424 57.7477 40.2195 57.5268 40.118 57.3386L39.4516 56.1111C39.3491 55.9235 39.1766 55.7841 38.9718 55.7234C38.7669 55.6627 38.5463 55.6855 38.3583 55.787L38.2554 55.8436L38.204 55.8632L37.5376 54.6439C42.0886 50.905 43.4349 44.3316 40.4111 39.0504C37.0727 33.1559 29.571 31.0869 23.6603 34.4461C17.7691 37.7859 15.7009 45.2905 19.0589 51.2013C20.5367 53.8067 22.9142 55.7829 25.7451 56.7592C28.576 57.7356 31.6658 57.6449 34.4346 56.5042L35.0209 57.5855L34.7391 57.7388C34.5424 57.8461 34.3963 58.0269 34.3325 58.2416C34.2687 58.4564 34.2925 58.6877 34.3986 58.885L35.0291 60.0455C35.1365 60.242 35.3173 60.3881 35.532 60.4517C35.7466 60.5153 35.9777 60.4913 36.1748 60.3851L36.4566 60.2318L39.5657 65.9605L36.4453 66.6715C36.1109 66.7494 35.8112 66.9347 35.5921 67.1991C35.3729 67.4635 35.2463 67.7924 35.2317 68.1356V68.1489C35.2266 68.2824 35.2394 68.416 35.2698 68.5461C35.3627 68.9499 35.6117 69.3005 35.9622 69.5212C36.3128 69.742 36.7364 69.8149 37.1406 69.7241L40.8431 68.8774C40.9318 68.8574 41.0185 68.8295 41.1023 68.794L41.1177 68.8239L39.2263 69.256C38.8879 69.3348 38.5847 69.5227 38.3636 69.7908C38.1424 70.0589 38.0155 70.3923 38.0024 70.7396V70.7458C37.998 70.8796 38.0108 71.0134 38.0405 71.144C38.1349 71.5511 38.3864 71.9043 38.7402 72.1266C39.0939 72.3488 39.5212 72.4221 39.9288 72.3303L41.0344 72.0792C40.8073 72.1944 40.6152 72.3683 40.4781 72.5829C40.341 72.7975 40.2639 73.0449 40.2548 73.2995C40.2515 73.3921 40.2573 73.4848 40.2723 73.5762L40.2898 73.6565C40.3739 74.0213 40.5989 74.3381 40.9158 74.5374C41.2326 74.7367 41.6154 74.8025 41.9806 74.7203L42.8095 74.531C42.5896 74.6511 42.4113 74.8353 42.2985 75.0591C42.1857 75.283 42.1437 75.5359 42.1781 75.7842L42.2038 75.9601C42.2073 75.9865 42.2125 76.0126 42.2192 76.0383C42.2839 76.3439 42.4619 76.6136 42.7175 76.7931C42.973 76.9725 43.2871 77.0484 43.5963 77.0055L44.7883 76.8347L45.4363 76.7771L46.6705 79.056C46.9024 79.4715 47.2888 79.7788 47.7457 79.9113C48.2026 80.0437 48.6933 79.9907 49.1114 79.7637C49.5295 79.5367 49.8414 79.154 49.9793 78.6985C50.1173 78.2431 50.0703 77.7516 49.8485 77.3306L49.3342 76.3789H49.3445L49.3497 76.3912L49.6582 76.3429C52.2952 76.0342 55.3899 75.6124 57.5919 75.099L59.1881 74.8489L59.1531 75.9128L61.7963 75.9982L61.7614 77.0816L76.6198 77.6032V64.8452L62.1676 64.337ZM38.1742 40.3323C40.8246 44.9859 39.177 50.9194 34.5251 53.5708C32.2905 54.8377 29.645 55.1667 27.1683 54.4858C24.6916 53.8048 22.5857 52.1694 21.3123 49.9379C18.6804 45.2709 20.291 39.3333 24.9623 36.7004C26.0681 36.0705 27.2871 35.6647 28.5497 35.5063C29.8122 35.3479 31.0937 35.44 32.3206 35.7773C33.5476 36.1146 34.6961 36.6905 35.7005 37.4721C36.7049 38.2537 37.5455 39.2256 38.1742 40.3323Z" fill="#405162"/>
    </g>
    <path d="M35.8591 50.0626L35.6534 50.1829C33.3195 51.5091 30.5548 51.8542 27.9667 51.1426C25.3785 50.4309 23.1786 48.7206 21.8502 46.3874C19.1 41.5065 20.7816 35.3085 25.6627 32.5573C26.818 31.8989 28.0916 31.4748 29.4108 31.3092C30.73 31.1436 32.0689 31.2398 33.3509 31.5923C34.6329 31.9449 35.8329 32.5468 36.8822 33.3636C37.9314 34.1805 38.8095 35.1962 39.466 36.3528C42.1935 41.1443 40.5613 47.2363 35.8591 50.0626Z" fill="white"/>
    <path d="M35.8594 50.0625L35.6537 50.1829C34.2305 50.9905 32.633 51.4413 30.9978 51.4967C29.3625 51.552 27.7382 51.2104 26.2637 50.5008C26.86 49.8337 27.5835 49.2923 28.3916 48.9084C29.1997 48.5244 30.0763 48.3056 30.97 48.2648C31.8637 48.224 32.7566 48.362 33.5963 48.6707C34.436 48.9793 35.2058 49.4525 35.8604 50.0625H35.8594Z" fill="#D93838"/>
    <path d="M34.1326 35.9727H27.7477C26.4476 35.9727 25.3936 37.0271 25.3936 38.3277V45.1955C25.3936 46.4962 26.4476 47.5506 27.7477 47.5506H34.1326C35.4327 47.5506 36.4867 46.4962 36.4867 45.1955V38.3277C36.4867 37.0271 35.4327 35.9727 34.1326 35.9727Z" fill="#B95241"/>
    <path d="M33.2325 45.3398H29.1196V51.7765H33.2325V45.3398Z" fill="#F4A891"/>
    <path d="M37.3085 40.5475C37.3063 40.7873 37.2233 41.0194 37.0728 41.2061C36.9224 41.3928 36.7133 41.5233 36.4795 41.5763C36.4347 41.5859 36.3894 41.5928 36.3438 41.5969C36.3205 41.5985 36.2971 41.5985 36.2738 41.5969H35.9519L35.9457 40.9251V40.7862L35.9375 39.568H36.2604C36.2885 39.5659 36.3167 39.5659 36.3448 39.568C36.3855 39.5696 36.4261 39.5744 36.4661 39.5824C36.6648 39.6122 36.8492 39.7031 36.9938 39.8427C37.091 39.9329 37.169 40.0418 37.2231 40.1629C37.2772 40.284 37.3062 40.4148 37.3085 40.5475Z" fill="#F4A891"/>
    <path d="M24.8584 40.5475C24.8606 40.7873 24.9436 41.0194 25.094 41.2061C25.2445 41.3928 25.4535 41.5233 25.6874 41.5764C25.7321 41.586 25.7775 41.5929 25.8231 41.5969C25.8464 41.5986 25.8698 41.5986 25.893 41.5969H26.2139L26.2211 40.9251V40.7862L26.2294 39.568H25.9064C25.8783 39.5659 25.8502 39.5659 25.8221 39.568C25.7813 39.5696 25.7407 39.5744 25.7007 39.5824C25.5019 39.6124 25.3172 39.7034 25.1721 39.8427C25.075 39.9329 24.9971 40.0419 24.9432 40.163C24.8893 40.2841 24.8604 40.4149 24.8584 40.5475Z" fill="#F4A891"/>
    <path d="M36.2829 41.3794V41.5491V41.5841C36.2829 41.6561 36.2829 41.7281 36.2767 41.7981C36.2705 41.8681 36.2705 41.9154 36.2664 41.9771C36.2664 41.9946 36.2664 42.0131 36.2613 42.0327C36.1994 42.7614 35.9812 43.4682 35.6215 44.1048C35.6041 44.1367 35.5866 44.1686 35.5681 44.1985C34.9897 45.1786 34.1112 45.9463 33.0627 46.3879C32.649 46.5644 32.2135 46.6845 31.7678 46.7449C31.6002 46.7686 31.4336 46.784 31.2639 46.7943C31.196 46.7943 31.1291 46.7943 31.0582 46.7943C30.8146 46.7971 30.5712 46.7816 30.33 46.748C30.261 46.7418 30.1923 46.7319 30.1243 46.7182C29.0378 46.5357 28.0362 46.0156 27.2618 45.2317C26.4873 44.4477 25.9793 43.4397 25.8098 42.3506C25.7746 42.1094 25.756 41.866 25.7543 41.6222V41.2477L25.743 39.5819L25.7368 38.7496C25.7368 38.622 25.7368 38.4944 25.743 38.3689C25.7515 38.1296 25.7749 37.8912 25.8129 37.6548C25.8569 37.3812 25.9293 37.113 26.0289 36.8544C26.145 36.5522 26.2842 36.2595 26.4454 35.9788C26.6372 35.6407 26.8727 35.3293 27.1458 35.0528C28.0119 34.1885 29.1484 33.6477 30.3652 33.5209C31.582 33.3942 32.8054 33.689 33.831 34.3563C33.9544 34.4376 34.0737 34.5229 34.1909 34.6125C34.6799 34.9897 35.0978 35.451 35.4251 35.9747C35.4889 36.0714 35.5485 36.1733 35.6041 36.2772C35.6975 36.4473 35.7799 36.6233 35.8509 36.804C35.8656 36.8375 35.8783 36.8718 35.8889 36.9068C35.9768 37.1277 36.051 37.3538 36.1111 37.5838C36.2039 37.9192 36.2544 38.2648 36.2613 38.6127V38.6652V38.871V39.0942V39.3761V39.3926V39.4399V39.5737L36.2674 40.7878V40.9236L36.2829 41.3794Z" fill="#FFC7B0"/>
    <path d="M36.509 39.1885C36.5082 39.1929 36.5082 39.1975 36.509 39.2019C36.4936 39.3377 36.4813 39.4612 36.4741 39.563C36.4736 39.5681 36.4736 39.5733 36.4741 39.5784C36.4656 39.6786 36.423 39.7729 36.3533 39.8454C36.2837 39.9179 36.1912 39.9642 36.0915 39.9766C36.0881 39.9754 36.0845 39.9754 36.0812 39.9766C35.9977 39.9864 35.9132 39.9723 35.8374 39.9359C35.7617 39.8994 35.6978 39.8422 35.6533 39.7708L35.0486 38.7708C34.2258 37.1925 28.995 37.0474 28.995 37.0474C28.6435 37.0629 28.3002 36.9382 28.0405 36.7007C27.9211 36.5935 27.823 36.4647 27.7515 36.321C27.6271 36.0801 27.5797 35.8068 27.6158 35.5381C27.6663 35.2236 27.8247 34.9365 28.0638 34.7263C28.303 34.516 28.6078 34.3956 28.926 34.3857L34.665 34.1172C36.543 35.6944 36.5749 38.2265 36.509 39.1885Z" fill="#DB734C"/>
    <path d="M30.2354 42.0062C30.2354 42.0062 30.3043 42.3827 30.837 42.3539C31.306 42.3292 31.3461 42 31.3461 42L30.2354 42.0062Z" fill="#F4A891"/>
    <path d="M28.0664 39.0384C28.0664 39.0384 28.9036 38.5899 29.7469 39.0827" stroke="#DB734C" stroke-width="3.65" stroke-miterlimit="10" stroke-linecap="round"/>
    <g opacity="0.18">
      <path d="M29.741 41.5238C29.741 41.7378 29.2885 41.9034 28.7362 41.8941C28.1839 41.8849 27.7396 41.7048 27.7437 41.4919C27.7478 41.2789 28.1972 41.1122 28.7485 41.1215C29.2998 41.1307 29.7451 41.3108 29.741 41.5238Z" fill="#D93838"/>
    </g>
    <path d="M33.715 48.3782L33.6605 48.6982L32.8068 53.5473H29.6082C29.2061 51.4422 28.8513 49.687 28.6826 48.7795C28.6209 48.441 28.5859 48.2404 28.5859 48.2188L33.715 48.3782Z" fill="#FFC050"/>
    <path opacity="0.56" d="M31.0933 48.3047L31.1755 52.094" stroke="white" stroke-width="1.75" stroke-miterlimit="10"/>
    <path d="M31.888 50.7122C31.888 50.8346 31.8253 50.9365 31.7389 50.9396C31.6525 50.9427 31.5795 50.8449 31.5754 50.7225C31.5713 50.6 31.6381 50.4982 31.7245 50.4961C31.8109 50.4941 31.8808 50.5898 31.888 50.7122Z" fill="white"/>
    <path d="M31.9315 52.0091C31.9315 52.1315 31.8688 52.2334 31.7824 52.2364C31.696 52.2395 31.6229 52.1418 31.6188 52.0193C31.6147 51.8969 31.6816 51.7951 31.768 51.793C31.8544 51.7909 31.9274 51.8866 31.9315 52.0091Z" fill="white"/>
    <path d="M31.9735 53.306C31.9735 53.4294 31.9107 53.5303 31.8244 53.5334C31.738 53.5364 31.6649 53.4397 31.6608 53.3163C31.6567 53.1928 31.7236 53.093 31.81 53.0899C31.8963 53.0868 31.9694 53.1835 31.9735 53.306Z" fill="white"/>
    <path d="M34.4316 49.0662L32.2245 49.2288C31.5755 49.2237 31.0623 48.8121 31.0674 48.1855L34.1014 48.1094C34.1602 48.1089 34.2183 48.121 34.272 48.1449C34.3257 48.1688 34.3736 48.2039 34.4126 48.2478C34.4516 48.2918 34.4807 48.3436 34.498 48.3998C34.5153 48.4559 34.5203 48.5151 34.5128 48.5734L34.4316 49.0662Z" fill="white"/>
    <path d="M27.8228 49.1738L30.0299 49.3364C30.1815 49.3376 30.3318 49.3089 30.4723 49.2519C30.6128 49.1949 30.7407 49.1108 30.8486 49.0044C30.9566 48.8979 31.0425 48.7712 31.1014 48.6315C31.1603 48.4918 31.1912 48.3418 31.1921 48.1902L31.0049 48.1758L28.1519 48.2169C28.0933 48.2165 28.0352 48.2286 27.9816 48.2524C27.9281 48.2762 27.8802 48.3112 27.8412 48.3551C27.8023 48.3989 27.7731 48.4506 27.7558 48.5066C27.7384 48.5626 27.7332 48.6217 27.7405 48.6799L27.8228 49.1738Z" fill="white"/>
    <path d="M36.283 40.5883V41.5503V41.5853C36.283 41.6573 36.283 41.7293 36.2769 41.7993C36.2707 41.8692 36.2707 41.9166 36.2666 41.9783C36.2666 41.9958 36.2666 42.0143 36.2614 42.0339C36.1996 42.7626 35.9814 43.4693 35.6217 44.106C35.6042 44.1379 35.5867 44.1698 35.5682 44.1996C34.9899 45.1797 34.1114 45.9474 33.0629 46.3891C32.6492 46.5656 32.2137 46.6857 31.768 46.7461C31.6004 46.7698 31.4337 46.7852 31.264 46.7955C31.1962 46.7955 31.1293 46.7955 31.0583 46.7955C30.8148 46.7983 30.5714 46.7828 30.3302 46.7492C30.2611 46.743 30.1925 46.733 30.1245 46.7194C29.0379 46.5369 28.0364 46.0168 27.262 45.2328C26.4875 44.4489 25.9795 43.4408 25.81 42.3518C25.7748 42.1105 25.7562 41.8671 25.7545 41.6233V41.2488L25.7432 39.5831V38.6211L25.7545 40.2879V40.6624C25.7563 40.9062 25.7748 41.1496 25.81 41.3908C25.9795 42.4799 26.4875 43.4879 27.262 44.2719C28.0364 45.0558 29.0379 45.5759 30.1245 45.7584C30.1903 45.7718 30.2603 45.78 30.3302 45.7882C30.5714 45.8215 30.8148 45.8366 31.0583 45.8335C31.1283 45.8335 31.1951 45.8335 31.264 45.8335C31.4337 45.8242 31.6004 45.8078 31.768 45.7841C32.2135 45.7235 32.649 45.6038 33.0629 45.4281C34.1115 44.9861 34.9899 44.218 35.5682 43.2376C35.5867 43.2078 35.6042 43.1759 35.6217 43.145C35.9812 42.5079 36.1994 41.8009 36.2614 41.0719C36.2641 41.0535 36.2658 41.0349 36.2666 41.0163C36.2666 40.9546 36.2769 40.897 36.2769 40.8373C36.2779 40.8246 36.2779 40.8119 36.2769 40.7992C36.2769 40.7416 36.2769 40.684 36.2769 40.6243L36.283 40.5883Z" fill="#F4A891"/>
    <path d="M36.5093 39.1901C36.5085 39.1945 36.5085 39.199 36.5093 39.2035C36.498 39.3948 36.4795 39.5204 36.4744 39.5646C36.4739 39.5697 36.4739 39.5749 36.4744 39.58C36.1792 37.6674 31.4451 35.9687 28.6096 36.1179C28.3133 36.1324 28.0224 36.2022 27.7518 36.3237C25.738 37.227 25.6023 40.7787 25.5745 40.6449C23.8837 32.9284 30.649 32.7812 30.649 32.7812C32.5075 32.8492 33.788 33.379 34.6601 34.1188C36.5433 35.696 36.5751 38.2281 36.5093 39.1901Z" fill="#DB734C"/>
    <path d="M29.0703 40.4183V39.7763C29.0703 39.6604 28.9764 39.5664 28.8605 39.5664H28.8327C28.7169 39.5664 28.6229 39.6604 28.6229 39.7763V40.4183C28.6229 40.5342 28.7169 40.6282 28.8327 40.6282H28.8605C28.9764 40.6282 29.0703 40.5342 29.0703 40.4183Z" fill="#07113D"/>
    <path d="M32.2207 39.0384C32.2207 39.0384 33.0579 38.5899 33.9012 39.0827" stroke="#DB734C" stroke-width="3.65" stroke-miterlimit="10" stroke-linecap="round"/>
    <g opacity="0.18">
      <path d="M33.8958 41.5238C33.8958 41.7378 33.4423 41.9034 32.89 41.8941C32.3377 41.8849 31.8944 41.7048 31.8975 41.4919C31.9006 41.2789 32.351 41.1122 32.9023 41.1215C33.4536 41.1307 33.8989 41.3108 33.8958 41.5238Z" fill="#D93838"/>
    </g>
    <path d="M33.2241 40.4183V39.7763C33.2241 39.6604 33.1302 39.5664 33.0143 39.5664H32.9865C32.8707 39.5664 32.7767 39.6604 32.7767 39.7763V40.4183C32.7767 40.5342 32.8707 40.6282 32.9865 40.6282H33.0143C33.1302 40.6282 33.2241 40.5342 33.2241 40.4183Z" fill="#07113D"/>
    <path d="M29.2192 42.705L32.4363 42.6875C32.4363 42.6875 32.0362 43.7544 30.8936 43.8193C29.6666 43.882 29.2192 42.705 29.2192 42.705Z" fill="white"/>
    <path d="M43.0915 61.6527C45.7563 60.521 48.6977 59.7092 51.5363 60.2658C53.3588 60.6228 61.2298 62.2731 61.2298 62.2731C61.2298 62.2731 60.9829 69.5462 61.1454 69.9104C61.9867 71.7912 45.1176 73.1535 45.1176 73.1535C45.1176 73.1535 41.5488 62.305 43.0915 61.6527Z" fill="#FFC7B0"/>
    <path d="M50.9987 72.5103C50.9987 72.5103 48.2218 63.093 47.9595 63.0374C47.6973 62.9819 42.0776 61.1484 42.0776 61.1484C42.0776 61.1484 47.977 72.6914 48.1745 72.6975C48.3719 72.7037 50.9987 72.5103 50.9987 72.5103Z" fill="#F4A891"/>
    <path d="M47.3773 75.3442L34.187 51.033L35.3091 50.4229L37.366 49.3086L50.5553 73.6188C50.672 73.8278 50.746 74.0579 50.7732 74.2957C50.8003 74.5335 50.78 74.7744 50.7134 75.0043C50.6468 75.2342 50.5352 75.4486 50.3851 75.6351C50.2351 75.8216 50.0495 75.9764 49.8392 76.0906C49.6289 76.2048 49.398 76.276 49.16 76.3003C48.9219 76.3245 48.6814 76.3013 48.4524 76.2319C48.2234 76.1624 48.0104 76.0482 47.8259 75.8959C47.6413 75.7435 47.4888 75.556 47.3773 75.3442Z" fill="#8E3E33"/>
    <path d="M48.4744 74.6884L39.0288 57.2068L40.6744 55.4062L50.555 73.6173C50.7242 73.9287 50.798 74.2831 50.7673 74.6362C50.7366 74.9893 50.6026 75.3255 50.3822 75.603C50.0084 75.6708 49.6228 75.6188 49.2803 75.4546C48.9377 75.2904 48.6557 75.0222 48.4744 74.6884Z" fill="#B95241"/>
    <path d="M42.4057 64.1675L44.9173 63.2508L43.9659 61.4503L40.212 59.5469L39.6206 60.5757L42.4057 64.1675Z" fill="#8E3E33"/>
    <path d="M36.8845 56.6701L40.2824 54.8253C40.6927 54.6025 40.8448 54.0891 40.6221 53.6786L39.9932 52.5193C39.7705 52.1088 39.2573 51.9566 38.8469 52.1794L35.449 54.0242C35.0386 54.247 34.8865 54.7604 35.1092 55.1709L35.7382 56.3302C35.9609 56.7407 36.4741 56.8929 36.8845 56.6701Z" fill="#435568"/>
    <path d="M40.4968 54.7234L38.2063 55.922C38.0183 56.0235 37.7977 56.0464 37.5928 55.9856C37.388 55.9249 37.2155 55.7855 37.1131 55.5979L36.4466 54.3705C36.3451 54.1822 36.3222 53.9614 36.3829 53.7563C36.4436 53.5512 36.583 53.3784 36.7706 53.2758L36.8899 53.213L38.0459 52.608L39.061 52.0771L39.0898 52.0627C39.2767 51.9713 39.4916 51.9554 39.6899 52.0185C39.8881 52.0815 40.0545 52.2186 40.1543 52.4012L40.8197 53.6297C40.9212 53.8177 40.9443 54.0382 40.8837 54.2432C40.8232 54.4481 40.6841 54.6207 40.4968 54.7234Z" fill="#6A8593"/>
    <path d="M41.3234 35.235C40.5153 33.8029 39.4255 32.5496 38.1197 31.5506C36.2023 30.0842 33.8956 29.215 31.4875 29.0516C29.0794 28.8882 26.6766 29.4378 24.5787 30.6318C18.6866 33.9705 16.6183 41.4751 19.9763 47.387C20.7729 48.7932 21.8388 50.0284 23.1132 51.0219C24.3875 52.0155 25.8452 52.7479 27.4028 53.1771C28.9604 53.6064 30.5874 53.7242 32.1906 53.5237C33.7937 53.3232 35.3416 52.8084 36.7457 52.0087C42.6306 48.6319 44.6979 41.1284 41.3234 35.235ZM35.6524 50.1331C33.3185 51.4592 30.5538 51.8044 27.9657 51.0927C25.3775 50.381 23.1776 48.6708 21.8492 46.3376C19.099 41.4566 20.7806 35.2587 25.6617 32.5126C26.817 31.8542 28.0906 31.43 29.4098 31.2645C30.729 31.0989 32.0679 31.1951 33.3499 31.5476C34.6319 31.9001 35.8319 32.502 36.8812 33.3189C37.9304 34.1357 38.8085 35.1515 39.465 36.3081C42.2336 41.1644 40.513 47.3633 35.6524 50.1331Z" fill="#638896"/>
    <path d="M35.9384 64.4264V64.4408C35.9338 64.5739 35.9466 64.7071 35.9764 64.8369C36.0697 65.2403 36.3185 65.5906 36.6687 65.8112C37.019 66.0319 37.4422 66.1051 37.8462 66.015L41.5488 65.1692C41.8862 65.0912 42.1884 64.9038 42.4084 64.6363C42.6284 64.3687 42.7539 64.036 42.7654 63.6897C42.77 63.5562 42.7572 63.4227 42.7274 63.2926C42.7274 63.2926 42.7274 63.2926 42.7274 63.2843C42.6317 62.8825 42.3815 62.5346 42.0312 62.316C41.6808 62.0974 41.2584 62.0257 40.8556 62.1166L37.153 62.9613C36.8181 63.0387 36.5179 63.224 36.2985 63.4887C36.079 63.7534 35.9525 64.0828 35.9384 64.4264Z" fill="#F4A891"/>
    <path d="M35.9385 64.4251C36.0356 64.8257 36.286 65.1721 36.6359 65.3898C36.9859 65.6074 37.4072 65.6789 37.8093 65.5888L41.5118 64.742C41.7055 64.7208 41.8924 64.6583 42.0599 64.5587C42.2274 64.4592 42.3717 64.3249 42.483 64.165C42.5943 64.005 42.6701 63.8231 42.7053 63.6314C42.7405 63.4397 42.7342 63.2427 42.687 63.0536C42.6397 62.8645 42.5525 62.6877 42.4313 62.5352C42.31 62.3826 42.1575 62.2578 41.984 62.1691C41.8105 62.0804 41.6201 62.0299 41.4254 62.021C41.2308 62.012 41.0365 62.0449 40.8556 62.1174L37.1531 62.9621C36.8185 63.0394 36.5186 63.2244 36.2992 63.4887C36.0798 63.7529 35.9531 64.0819 35.9385 64.4251Z" fill="#FFC7B0"/>
    <path d="M38.7104 67.0299V67.0361C38.7058 67.1699 38.7186 67.3037 38.7484 67.4342C38.8431 67.841 39.0944 68.194 39.4479 68.4163C39.8013 68.6387 40.2282 68.7124 40.6357 68.6215L44.7712 67.676C45.1105 67.597 45.4142 67.4084 45.6355 67.1392C45.8567 66.8701 45.9831 66.5355 45.9951 66.1872C45.999 66.053 45.9855 65.9188 45.955 65.788C45.9492 65.7573 45.9413 65.7271 45.9313 65.6975C45.8176 65.3123 45.5619 64.9848 45.2159 64.7812C44.8699 64.5775 44.4595 64.513 44.0677 64.6007L39.9343 65.5462C39.5959 65.6252 39.2928 65.8131 39.0717 66.0812C38.8506 66.3492 38.7236 66.6826 38.7104 67.0299Z" fill="#F4A891"/>
    <path d="M38.71 67.0299C38.8241 67.4142 39.0799 67.7409 39.4258 67.9436C39.7716 68.1463 40.1816 68.2099 40.5725 68.1215L44.707 67.178C44.9023 67.1636 45.0921 67.1067 45.2631 67.0113C45.4341 66.9158 45.5821 66.7842 45.697 66.6255C45.8118 66.4669 45.8906 66.285 45.9278 66.0927C45.9651 65.9005 45.9599 65.7023 45.9126 65.5122C45.8653 65.3222 45.7771 65.1447 45.6541 64.9923C45.5312 64.8399 45.3764 64.7162 45.2006 64.6298C45.0249 64.5435 44.8324 64.4966 44.6366 64.4925C44.4409 64.4883 44.2466 64.527 44.0673 64.6058L39.9338 65.5514C39.5963 65.63 39.2939 65.8172 39.0728 66.0843C38.8518 66.3513 38.7243 66.6834 38.71 67.0299Z" fill="#FFC7B0"/>
    <path d="M40.9585 69.5864C40.955 69.679 40.9612 69.7718 40.977 69.8631C40.977 69.8909 40.9873 69.9166 40.9934 69.9434C41.0776 70.3073 41.302 70.6233 41.6179 70.8226C41.9338 71.0218 42.3156 71.0882 42.6801 71.0072L46.2078 70.2016C46.5124 70.1308 46.785 69.9612 46.9833 69.7193C47.1816 69.4774 47.2944 69.1767 47.3042 68.8641C47.3114 68.6573 47.2721 68.4516 47.189 68.2622C47.0579 67.9595 46.8251 67.7122 46.531 67.5631C46.2369 67.4139 45.9 67.3722 45.5784 67.4453L42.0517 68.2498C41.7481 68.3217 41.4766 68.4915 41.279 68.733C41.0815 68.9746 40.9688 69.2744 40.9585 69.5864Z" fill="#F4A891"/>
    <path d="M40.9585 69.5894C40.955 69.6821 40.9612 69.7749 40.977 69.8662C41.1074 70.17 41.3399 70.4185 41.6342 70.5688C41.9286 70.7191 42.2662 70.7618 42.5886 70.6893L46.1163 69.8827C46.421 69.812 46.6937 69.6425 46.892 69.4005C47.0903 69.1586 47.203 68.8579 47.2127 68.5451C47.2157 68.4504 47.2092 68.3556 47.1931 68.2622C47.062 67.9595 46.8292 67.7122 46.5351 67.5631C46.241 67.4139 45.9041 67.3722 45.5825 67.4453L42.0559 68.2498C41.751 68.3211 41.4782 68.491 41.2798 68.7332C41.0813 68.9754 40.9684 69.2764 40.9585 69.5894Z" fill="#FFC7B0"/>
    <path d="M42.886 72.075L42.9127 72.25C42.9154 72.2764 42.9202 72.3025 42.9271 72.3281C42.9918 72.6337 43.1698 72.9034 43.4254 73.0829C43.6809 73.2623 43.995 73.3382 44.3042 73.2953L47.8124 72.7932C48.1343 72.7448 48.4241 72.5712 48.6187 72.3101C48.8133 72.049 48.8968 71.7215 48.8512 71.3991L48.8244 71.2242C48.8026 71.0637 48.7476 70.9095 48.6629 70.7715C48.5391 70.5616 48.3556 70.3933 48.1358 70.2881C47.916 70.1829 47.6698 70.1456 47.4288 70.1809L43.9268 70.6861C43.6055 70.734 43.316 70.9066 43.1212 71.1667C42.9263 71.4267 42.8418 71.7531 42.886 72.075Z" fill="#F4A891"/>
    <path d="M42.886 72.075L42.9127 72.25C42.9154 72.2764 42.9202 72.3025 42.9271 72.3281C43.051 72.538 43.2345 72.7063 43.4543 72.8115C43.6741 72.9167 43.9202 72.954 44.1613 72.9187L47.6694 72.4177C47.9923 72.3708 48.2835 72.1979 48.4793 71.9368C48.6751 71.6758 48.7596 71.3478 48.7144 71.0246L48.6887 70.8497C48.6853 70.8233 48.6801 70.7971 48.6732 70.7715C48.5494 70.5616 48.3659 70.3933 48.1461 70.2881C47.9263 70.1829 47.6801 70.1456 47.4391 70.1809L43.9268 70.6861C43.6055 70.734 43.316 70.9066 43.1212 71.1667C42.9263 71.4267 42.8418 71.7531 42.886 72.075Z" fill="#FFC7B0"/>
    <path d="M54.3112 64.6247L45.7192 62.2655L41.9344 60.9876C40.6745 60.6419 40.006 59.8394 39.9155 58.5327C39.9155 58.4947 39.9155 58.4587 39.9155 58.4216C39.9199 58.2697 39.9582 58.1206 40.0276 57.9854C40.1634 57.7179 40.4575 57.6603 40.7836 57.6911C40.9801 57.7112 41.1743 57.7498 41.3636 57.8064L42.6667 58.2539L44.8605 59.007L52.0084 60.3621L54.3112 64.6247Z" fill="#FFC7B0"/>
    <g opacity="0.63">
      <path d="M40.3374 62.7767L40.9545 62.608C41.0273 62.5883 41.1023 62.5783 41.1777 62.5781C41.3857 62.5791 41.5862 62.6562 41.7413 62.7947C41.8965 62.9333 41.9957 63.1238 42.0202 63.3305C42.0448 63.5371 41.9929 63.7456 41.8745 63.9167C41.7561 64.0877 41.5792 64.2096 41.3772 64.2593L40.7128 64.4198L40.3374 62.7767Z" fill="#FFE0D2"/>
    </g>
    <g opacity="0.63">
      <path d="M43.6426 65.3175L44.2463 65.155C44.3512 65.128 44.4603 65.1219 44.5676 65.137C44.6748 65.1522 44.778 65.1884 44.8712 65.2435C44.9645 65.2986 45.046 65.3715 45.1111 65.4581C45.1762 65.5446 45.2236 65.6432 45.2506 65.7481C45.2776 65.853 45.2837 65.9623 45.2685 66.0695C45.2534 66.1768 45.2172 66.28 45.1621 66.3733C45.1071 66.4666 45.0342 66.5481 44.9477 66.6133C44.8611 66.6784 44.7626 66.7258 44.6577 66.7528L44.0169 66.9082L43.6426 65.3175Z" fill="#FFE0D2"/>
    </g>
    <g opacity="0.63">
      <path d="M45.2422 68.1222L45.814 67.9751C45.8813 67.9581 45.9504 67.9495 46.0197 67.9494C46.195 67.9459 46.3664 68.0013 46.5066 68.1066C46.6468 68.212 46.7477 68.3613 46.7931 68.5307C46.8165 68.623 46.821 68.719 46.8063 68.8131C46.7916 68.9071 46.7581 68.9973 46.7078 69.078C46.6527 69.1665 46.5805 69.2431 46.4953 69.3032C46.4102 69.3633 46.3139 69.4057 46.212 69.4279L45.595 69.5698L45.2422 68.1222Z" fill="#FFE0D2"/>
    </g>
    <g opacity="0.63">
      <path d="M46.8877 70.7753L47.4359 70.6724C47.5337 70.6544 47.6342 70.6563 47.7313 70.6777C47.8285 70.6992 47.9203 70.7399 48.0015 70.7974C48.0827 70.8549 48.1515 70.9281 48.204 71.0127C48.2565 71.0972 48.2915 71.1914 48.307 71.2897C48.3353 71.4822 48.2863 71.678 48.1706 71.8344C48.055 71.9907 47.8822 72.0949 47.6899 72.1241L47.1027 72.2137L46.8877 70.7753Z" fill="#FFE0D2"/>
    </g>
    <path d="M42.6637 58.2535C42.6637 58.2651 42.6616 58.2766 42.6575 58.2875L42.3798 59.0283C42.3714 59.0507 42.3564 59.07 42.3367 59.0836C42.3171 59.0972 42.2937 59.1044 42.2698 59.1044C42.2583 59.1042 42.2469 59.1025 42.2358 59.0993C41.8769 58.9964 41.0171 58.6877 40.7795 58.198C40.7423 58.1234 40.7218 58.0415 40.7195 57.9582C40.7171 57.8748 40.7331 57.792 40.7661 57.7154C40.7693 57.7063 40.7742 57.6979 40.7805 57.6907C40.8351 57.5878 41.1436 57.7144 41.3606 57.806L42.6637 58.2535Z" fill="#FFD7C5"/>
    <path d="M39.79 58.5121C39.79 58.5214 39.79 58.5317 39.79 58.542C39.8826 59.826 40.4801 60.5997 42.171 61.2891L47.951 63.6863C47.9767 63.6863 49.2623 62.9486 49.2623 62.9404C49.2623 62.8077 41.9972 60.7211 40.8545 59.931C39.3118 58.864 40.2189 57.6088 40.186 57.796C39.8847 57.8804 39.8178 58.2981 39.79 58.5121Z" fill="#F4A891"/>
    <path d="M50.1449 64.9676L48.0283 63.1732L50.1192 72.8786L61.6043 71.2324L61.2134 61.8789H59.6707L59.2028 66.3967C59.2028 66.3967 54.8163 68.7981 50.1449 64.9676Z" fill="#F4A891"/>
    <path d="M59.858 72.1977L63.1875 72.3047L63.5339 61.5184L60.2043 61.4114L59.858 72.1977Z" fill="white"/>
    <path d="M62.4648 74.02L76.6198 74.5324V61.9225L62.8701 61.4102L62.4648 74.02Z" fill="#07113D"/>
    <path opacity="0.66" d="M62.5029 72.993L76.6199 73.5054V61.9264L62.8742 61.4141L62.5029 72.993Z" fill="#2C3765"/>
    <path d="M38.12 31.5518L37.2294 32.7093C35.5432 31.4184 33.5139 30.6538 31.3955 30.511C29.277 30.3683 27.1636 30.8538 25.3196 31.9068C25.2445 31.949 25.1705 31.9922 25.0964 32.0375C24.3968 32.4518 23.747 32.9451 23.1598 33.5077C21.4251 35.1803 20.2957 37.3824 19.9494 39.7676C19.6031 42.1527 20.0595 44.5853 21.2468 46.6824C21.9543 47.9316 22.9048 49.0262 24.0422 49.9018L23.1526 51.0613C21.5658 49.846 20.2999 48.2612 19.465 46.4449C18.6301 44.6285 18.2515 42.6356 18.3621 40.6394C18.4727 38.6433 19.0692 36.7044 20.0996 34.9915C21.1301 33.2786 22.5633 31.8435 24.2746 30.811C24.3775 30.7514 24.4721 30.6927 24.5729 30.6361C26.6708 29.4393 29.075 28.8881 31.4845 29.0516C33.894 29.215 36.2018 30.0858 38.119 31.5549L38.12 31.5518Z" fill="#9DBFC1"/>
    <path d="M39.8005 54.1213L39.6205 54.2108C39.4812 54.2862 39.3177 54.3034 39.1658 54.2585C39.0139 54.2135 38.8859 54.1102 38.8101 53.9711L38.0459 52.6078L39.061 52.0769L39.0898 52.0625L39.8684 53.4525C39.9255 53.5579 39.9496 53.6781 39.9375 53.7974C39.9254 53.9167 39.8777 54.0295 39.8005 54.1213Z" fill="#9DBFC1"/>
    <g style="mix-blend-mode:multiply" opacity="0.3">
      <path d="M24.2075 33.7771C25.8922 32.8194 27.8012 32.3273 29.7388 32.3513C31.6763 32.3754 33.5726 32.9146 35.233 33.9138C36.8934 34.913 38.2582 36.3362 39.1874 38.0372C40.1165 39.7383 40.5765 41.656 40.5202 43.5936C41.0138 41.4275 40.7826 39.1591 39.8622 37.1372C38.9418 35.1153 37.3832 33.4517 35.4257 32.4021C33.4683 31.3526 31.2205 30.9751 29.0278 31.3278C26.8352 31.6805 24.8189 32.7438 23.2891 34.3543C23.5842 34.1496 23.8897 33.952 24.2075 33.7771Z" fill="#5D5D5D"/>
    </g>
    <path d="M24.1037 32.7032C23.7735 32.9519 23.4585 33.2202 23.1606 33.5068L22.7492 33.0952C22.5373 32.8895 22.3244 32.6754 22.1074 32.4779C22.4055 32.191 22.7178 31.9194 23.0433 31.6641C23.1966 31.8081 23.3519 31.9552 23.4969 32.1034L24.1037 32.7032Z" fill="#C1E5E5"/>
    <path d="M27.8443 30.8659C26.9624 31.106 26.1144 31.4565 25.3204 31.9092C25.2453 31.9513 25.1712 31.9945 25.0972 32.0398C24.8195 31.6324 24.5452 31.2229 24.2744 30.8113C24.3773 30.7517 24.4719 30.693 24.5727 30.6364C25.354 30.1908 26.1817 29.832 27.041 29.5664C27.3276 29.9869 27.5954 30.42 27.8443 30.8659Z" fill="#C1E5E5"/>
    <path d="M65.179 71.5922C65.1756 71.6988 65.2039 71.804 65.2602 71.8945C65.3166 71.9851 65.3986 72.0568 65.4957 72.1007C65.5929 72.1447 65.7008 72.1588 65.806 72.1413C65.9112 72.1238 66.0088 72.0755 66.0865 72.0025C66.1642 71.9295 66.2186 71.8351 66.2426 71.7312C66.2667 71.6273 66.2594 71.5186 66.2217 71.4188C66.184 71.319 66.1176 71.2327 66.0309 71.1707C65.9441 71.1087 65.8409 71.0739 65.7344 71.0706C65.5916 71.0661 65.4529 71.1186 65.3488 71.2164C65.2446 71.3142 65.1836 71.4494 65.179 71.5922Z" fill="#07113D"/>
  </g>
  <defs>
    <clipPath id="clip0_3253_4545">
      <rect width="76.6197" height="80" fill="white"/>
    </clipPath>
  </defs>
</svg>