<?xml version="1.0" encoding="utf-8"?>
<!-- Generator: Adobe Illustrator 24.0.0, SVG Export Plug-In . SVG Version: 6.00 Build 0)  -->
<svg version="1.1" xmlns="http://www.w3.org/2000/svg" xmlns:xlink="http://www.w3.org/1999/xlink" x="0px" y="0px"
	 viewBox="0 0 256 256" enable-background="new 0 0 256 256" xml:space="preserve">
<g id="Layer_2">
</g>
<g id="Layer_1">
	<g>
	</g>
	<g>
		<path fill="#FFB69F" d="M44.604,93.907L44.604,93.907c-9.164,0-16.593-7.429-16.593-16.593V63.467h33.185v13.847
			C61.197,86.478,53.768,93.907,44.604,93.907z"/>
		<path fill="#7C7B7A" d="M64.118,42.814L56.96,46.55c-1.839,0.96-3.883,1.461-5.958,1.461H35.668c-5.322,0-9.38,4.764-8.533,10.018
			l0.876,5.438h33.185l0,0c5.139-5.476,6.367-13.554,3.088-20.309L64.118,42.814z"/>
		<path fill="#FC5D3D" d="M83.83,114.058v4.25c-11.23,5.76-18.95,17.44-18.95,30.97v30.88H5.39v-66.1
			c0-11.13,9.02-20.16,20.15-20.16h38.13C74.81,93.898,83.83,102.928,83.83,114.058z"/>
		<path fill="#FFB69F" d="M211.387,93.907L211.387,93.907c-9.164,0-16.593-7.429-16.593-16.593V63.467h33.185v13.847
			C227.979,86.478,220.55,93.907,211.387,93.907z"/>
		<path fill="#7C7B7A" d="M230.9,42.814l-7.159,3.736c-1.839,0.96-3.883,1.461-5.958,1.461H202.45c-5.322,0-9.38,4.764-8.533,10.018
			l0.876,5.438h33.185v0c5.139-5.476,6.367-13.554,3.088-20.309L230.9,42.814z"/>
		<path fill="#FC5D3D" d="M250.61,114.068v66.1h-13.35l-24.71-22h-21.43v-8.89c0-13.85-8.16-25.57-18.95-30.94v-4.27
			c0-11.13,9.02-20.16,20.16-20.16h38.13C241.59,93.908,250.61,102.938,250.61,114.068z"/>
		<path fill="#B34F33" d="M244.26,179.268v0.897h-7l-24.71-22h-21.43v-7h22.187c1.226,0,2.409,0.45,3.325,1.265l25.953,23.103
			C243.65,176.482,244.26,177.841,244.26,179.268z"/>
		<path fill="#FFB69F" d="M127.432,114.533L127.432,114.533c-15.684,0-28.399-12.715-28.399-28.399V62.435h56.798v23.699
			C155.831,101.818,143.116,114.533,127.432,114.533z"/>
		<path fill="#7D7B79" d="M160.831,27.086l-12.252,6.394c-3.148,1.643-6.646,2.501-10.197,2.501h-26.244
			c-9.109,0-16.054,8.154-14.604,17.147l1.5,9.307h56.798l0,0c8.795-9.372,10.898-23.197,5.286-34.76L160.831,27.086z"/>
		<path fill="#75C2ED" d="M191.12,149.278v8.89h-48.45v84.26H64.88v-93.15c0-13.53,7.72-25.21,18.95-30.97
			c4.74-2.41,10.11-3.78,15.79-3.78h56.76c5.68,0,11.05,1.37,15.79,3.81C182.96,123.708,191.12,135.428,191.12,149.278z"/>
		<path fill="#F0C020" d="M46.969,210.741c-3.683-1.217-7.487-2.281-9.623-11.48c-1.967,8.473-5.118,9.992-9.623,11.48
			c7.347,2.428,8.455,6.447,9.623,11.48C39.359,213.545,42.689,212.155,46.969,210.741z"/>
		<path fill="#F0C020" d="M197.369,25.018c-3.683-1.217-7.487-2.281-9.623-11.481c-1.967,8.473-5.118,9.992-9.623,11.481
			c7.347,2.428,8.455,6.447,9.623,11.481C189.759,27.822,193.089,26.432,197.369,25.018z"/>
		<path fill="#4BA5C8" d="M191.12,151.165v7h-48.45v84.26h-7v-86.26c0-2.761,2.239-5,5-5H191.12z"/>
		<polygon fill="#EFEFEF" points="237.26,180.163 237.26,242.423 142.67,242.423 142.67,158.163 212.55,158.163 		"/>
		<path fill="#FFB69F" d="M169.016,205.891L169.016,205.891c-6.588,0-11.928-5.34-11.928-11.928v-9.954h23.856v9.954
			C180.944,200.55,175.603,205.891,169.016,205.891z"/>
		<path fill="#7C7B7A" d="M183.044,169.161l-5.146,2.686c-1.322,0.69-2.791,1.05-4.283,1.05h-11.023
			c-3.826,0-6.743,3.425-6.134,7.202l0.63,3.909h23.856v0c3.694-3.936,4.577-9.743,2.22-14.6L183.044,169.161z"/>
		<path d="M34.937,222.78c-1.067-4.599-1.771-7.637-7.989-9.691c-2.259-0.746-2.254-3.952,0-4.697
			c3.743-1.237,6.216-2.054,7.989-9.692c0.589-2.538,4.228-2.545,4.818,0c1.813,7.811,4.522,8.549,7.989,9.691
			c2.259,0.746,2.254,3.952,0,4.697c-3.609,1.192-6.218,2.054-7.989,9.691C39.163,225.33,35.529,225.331,34.937,222.78z
			 M33.523,210.797c1.78,1.222,2.996,2.618,3.872,4.094c1.061-1.875,2.29-3.166,3.659-4.128c-1.312-0.939-2.583-2.269-3.699-4.279
			C36.252,208.469,34.963,209.81,33.523,210.797z"/>
		<path d="M185.337,37.058c-1.067-4.599-1.771-7.637-7.989-9.691c-2.259-0.746-2.254-3.952,0-4.697
			c3.743-1.237,6.216-2.054,7.989-9.692c0.589-2.538,4.228-2.545,4.818,0c1.813,7.811,4.522,8.549,7.989,9.691
			c2.259,0.746,2.254,3.952,0,4.697c-3.609,1.192-6.218,2.054-7.989,9.691C189.563,39.608,185.929,39.608,185.337,37.058z
			 M183.923,25.075c1.78,1.222,2.996,2.618,3.872,4.094c1.061-1.875,2.29-3.166,3.659-4.128c-1.313-0.939-2.583-2.269-3.699-4.279
			C186.652,22.746,185.363,24.087,183.923,25.075z"/>
		<g>
			<path fill="#C5E5FE" d="M176.217,143.517c-2.568-8.777-10.727-14.907-19.84-14.907c-1.381,0-2.5-1.119-2.5-2.5s1.119-2.5,2.5-2.5
				c11.319,0,21.451,7.609,24.639,18.503c0.388,1.325-0.372,2.714-1.697,3.102C177.99,145.601,176.604,144.84,176.217,143.517z"/>
		</g>
		<g>
			<path fill="#C5E5FE" d="M130.785,233.337h-16c-1.381,0-2.5-1.119-2.5-2.5s1.119-2.5,2.5-2.5h16c1.381,0,2.5,1.119,2.5,2.5
				S132.166,233.337,130.785,233.337z M104.785,233.337h-3.035c-1.381,0-2.5-1.119-2.5-2.5s1.119-2.5,2.5-2.5h3.035
				c1.381,0,2.5,1.119,2.5,2.5S106.166,233.337,104.785,233.337z"/>
		</g>
		<circle cx="125.8" cy="35.978" r="2.5"/>
		<path d="M139.606,91.192c0-1.381-1.119-2.5-2.5-2.5s-2.5,1.119-2.5,2.5c0,3.956-3.218,7.174-7.174,7.174s-7.174-3.218-7.174-7.174
			c0-1.381-1.119-2.5-2.5-2.5s-2.5,1.119-2.5,2.5c0,6.713,5.461,12.174,12.174,12.174S139.606,97.905,139.606,91.192z"/>
		<path d="M117.142,77.07v-0.956c0-1.381-1.119-2.5-2.5-2.5s-2.5,1.119-2.5,2.5v0.956c0,1.381,1.119,2.5,2.5,2.5
			S117.142,78.451,117.142,77.07z"/>
		<path d="M140.223,79.57c1.381,0,2.5-1.119,2.5-2.5v-0.956c0-1.381-1.119-2.5-2.5-2.5s-2.5,1.119-2.5,2.5v0.956
			C137.723,78.451,138.842,79.57,140.223,79.57z"/>
		<path d="M185.293,168.07c-0.618-1.273-2.162-1.773-3.405-1.125l-5.146,2.686c-0.962,0.501-2.043,0.767-3.127,0.767h-11.022
			c-5.366,0-9.456,4.807-8.603,10.101l0.599,3.709v9.755c0,7.956,6.473,14.428,14.428,14.428s14.428-6.473,14.428-14.428v-9.023
			C187.063,180.518,188.211,174.085,185.293,168.07z M162.592,175.397h11.022c1.887,0,3.768-0.461,5.439-1.334l2.635-1.375
			c0.706,3.045,0.023,6.311-1.898,8.82h-20.573l-0.292-1.807C158.561,177.438,160.312,175.397,162.592,175.397z M178.443,193.962
			c0,5.199-4.229,9.428-9.428,9.428s-9.428-4.229-9.428-9.428v-7.454h18.855V193.962z"/>
		<path d="M196.625,195.694h26.64c1.381,0,2.5-1.119,2.5-2.5s-1.119-2.5-2.5-2.5h-26.64c-1.381,0-2.5,1.119-2.5,2.5
			S195.244,195.694,196.625,195.694z"/>
		<path d="M196.625,208.725h26.64c1.381,0,2.5-1.119,2.5-2.5s-1.119-2.5-2.5-2.5h-26.64c-1.381,0-2.5,1.119-2.5,2.5
			S195.244,208.725,196.625,208.725z"/>
		<path d="M154.588,219.255c0,1.381,1.119,2.5,2.5,2.5h66.177c1.381,0,2.5-1.119,2.5-2.5s-1.119-2.5-2.5-2.5h-66.177
			C155.707,216.755,154.588,217.874,154.588,219.255z"/>
		<path d="M223.265,229.785h-66.177c-1.381,0-2.5,1.119-2.5,2.5s1.119,2.5,2.5,2.5h66.177c1.381,0,2.5-1.119,2.5-2.5
			S224.646,229.785,223.265,229.785z"/>
		<path d="M91.875,242.419v-84.262c0-1.381-1.119-2.5-2.5-2.5s-2.5,1.119-2.5,2.5v84.262c0,1.381,1.119,2.5,2.5,2.5
			S91.875,243.8,91.875,242.419z"/>
		<path d="M26,180.165v-60.51c0-1.381-1.119-2.5-2.5-2.5s-2.5,1.119-2.5,2.5v60.51c0,1.381,1.119,2.5,2.5,2.5S26,181.545,26,180.165
			z"/>
		<circle cx="5.39" cy="152.158" r="2.5"/>
		<path d="M5.39,144.658c1.38,0,2.5-1.12,2.5-2.5v-0.01v-28.09c0.021-9.72,7.93-17.64,17.65-17.66c8.87,0,17.854,0,38.13,0
			c9.72,0.02,17.64,7.94,17.66,17.66v2.783c-5.914,3.345-10.678,8.126-13.95,13.788v-10.904c0-1.381-1.119-2.5-2.5-2.5
			s-2.5,1.119-2.5,2.5c0,1.982,0,120.539,0,122.704c0,1.381,1.119,2.5,2.5,2.5s2.5-1.119,2.5-2.5c0-9.479,0-83.772,0-93.15
			c0-17.853,14.419-32.25,32.24-32.25c6.68,0,49.702,0,56.76,0c17.939,0,32.24,14.557,32.24,32.25v6.379h-45.945
			c-1.381,0-2.5,1.119-2.5,2.5v84.262c0,1.381,1.119,2.5,2.5,2.5s2.5-1.119,2.5-2.5v-81.762c14.838,0,49.597,0,64.876,0v19.507
			c0,1.381,1.119,2.5,2.5,2.5h22.206v59.755c0,1.381,1.119,2.5,2.5,2.5s2.5-1.119,2.5-2.5v-62.255c0-0.665-0.299-1.388-0.837-1.867
			l-3.979-3.545v-55.028c0-1.381-1.119-2.5-2.5-2.5s-2.5,1.119-2.5,2.5v50.575l-15.727-14.008c-0.4-0.356-1.039-0.633-1.663-0.633
			H193.62c0-14.312,0-4.209,0-36.003c0-1.381-1.119-2.5-2.5-2.5s-2.5,1.119-2.5,2.5v11.027c-3.297-5.747-8.086-10.581-13.95-13.829
			v-2.785c0-9.738,7.922-17.66,17.66-17.66h38.13c9.732,0,17.65,7.922,17.65,17.66v66.1c0,1.381,1.119,2.5,2.5,2.5
			s2.5-1.119,2.5-2.5v-66.1c0-12.495-10.161-22.66-22.65-22.66h-6.239c3.834-3.494,6.259-8.51,6.259-14.094V64.398
			c4.998-5.902,6.599-14.577,2.67-22.675c-0.617-1.272-2.158-1.773-3.406-1.125l-7.157,3.736c-1.477,0.771-3.138,1.178-4.802,1.178
			H202.45c-6.865,0-12.092,6.149-11.001,12.917l0.845,5.238v13.649c0,5.584,2.425,10.599,6.259,14.094h-6.222
			c-12.495,0-22.66,10.165-22.66,22.66v0.429c-4.22-1.616-8.744-2.468-13.29-2.468h-12.12c8.462-5.518,14.071-15.06,14.071-25.894
			V63.387c8.602-9.732,11.291-24.085,4.749-37.389c-0.618-1.279-2.163-1.78-3.4-1.13l-12.26,6.4c-2.78,1.45-5.91,2.21-9.04,2.21
			h-2.58c-1.38,0-2.5,1.12-2.5,2.5s1.12,2.5,2.5,2.5h2.58c3.939,0,7.86-0.96,11.35-2.78l9.92-5.18
			c4.031,9.954,2.11,21.334-4.927,29.417H101.16c-1.296-8.054-1.32-7.909-1.32-9.197c0.01-6.75,5.53-12.25,12.3-12.26h3.66
			c1.38,0,2.5-1.12,2.5-2.5c0-1.37-1.11-2.49-2.48-2.5c-0.01,0-0.01,0-0.02,0h-3.66c-9.54,0.01-17.3,7.76-17.3,17.26
			c0,1.863,0.128,2.233,1.693,11.927v23.469c0,10.834,5.609,20.376,14.071,25.894H99.62c-4.531,0-9.055,0.847-13.29,2.456v-0.426
			c0-12.49-10.17-22.66-22.66-22.66h-6.22c3.828-3.494,6.247-8.505,6.247-14.083V64.398c4.998-5.902,6.599-14.577,2.67-22.675
			c-0.617-1.272-2.16-1.773-3.406-1.125l-7.157,3.736c-1.477,0.771-3.138,1.178-4.802,1.178H35.668c-6.864,0-12.093,6.149-11,12.916
			l0.844,5.237v13.65c0,5.578,2.42,10.59,6.247,14.083H25.54c-12.49,0-22.65,10.17-22.65,22.66v28.1
			C2.89,143.538,4.01,144.658,5.39,144.658z M215.051,177.665v-13.932c14.133,12.589,9.364,8.341,15.641,13.932H215.051z
			 M202.45,50.511h15.334c4.554,0,7.078-1.725,11.852-4.217c1.594,5,0.561,10.578-2.788,14.673h-29.925l-0.538-3.335
			C195.784,53.895,198.672,50.511,202.45,50.511z M197.294,77.315V65.967h28.186v11.347c0,7.771-6.322,14.092-14.093,14.092
			S197.294,85.085,197.294,77.315z M101.533,86.134V64.938h51.798v21.196c0,14.011-11.282,25.894-26.072,25.894
			C113.058,111.934,101.533,100.357,101.533,86.134z M35.668,50.511h15.334c2.466,0,4.926-0.603,7.115-1.745l4.736-2.472
			c1.594,5,0.561,10.578-2.788,14.673H30.142l-0.538-3.335C29.001,53.897,31.889,50.511,35.668,50.511z M30.512,77.315V65.967
			h28.186v11.347c0,7.511-5.998,14.083-14.266,14.083C36.741,91.304,30.512,85.026,30.512,77.315z"/>
		<path d="M5.39,182.658c1.38,0,2.5-1.12,2.5-2.5v-18c0-1.38-1.12-2.5-2.5-2.5s-2.5,1.12-2.5,2.5v18
			C2.89,181.538,4.01,182.658,5.39,182.658z"/>
	</g>
</g>
</svg>
