<svg xmlns="http://www.w3.org/2000/svg" width="80" height="80" viewBox="0 0 80 80" fill="none">
  <path d="M68.8845 62.4548C76.4829 56.6772 79.8669 40.6564 67.5293 32.8004C59.3613 27.6004 54.2813 30.5604 45.0925 27.1268C33.8749 22.9284 32.2029 10.2436 18.5597 16.4852C11.3309 19.7908 6.31973 29.1075 5.43973 39.6964C4.57253 50.0659 8.24773 57.1812 15.7581 62.0436C33.3949 62.8004 51.0669 62.6644 68.8845 62.4548Z" fill="#DFF3FC"/>
  <path d="M37.6687 16.887C36.5215 21.495 40.7839 26.0566 45.2735 27.9478C49.7631 29.839 54.9119 29.615 59.7215 28.7126C61.8015 28.3238 63.9311 27.7766 65.5439 26.4534C67.1567 25.1302 68.0911 22.8326 67.2079 20.9766C66.4271 19.3398 64.5295 18.5014 62.7183 18.071C60.9071 17.6406 58.9871 17.4646 57.3743 16.559C55.8447 15.6998 54.7599 14.2774 53.4303 13.151C50.9743 11.0726 47.5199 10.0454 44.3279 10.6998C41.1359 11.3542 38.6447 12.9702 37.6687 16.887Z" fill="#DFF3FC"/>
  <path d="M72.0462 38.082V34.5956H70.7198C70.5632 33.9944 70.3241 33.4177 70.0094 32.882L70.9438 31.946L68.4798 29.4804L67.5438 30.4148C67.0082 30.0999 66.4315 29.8609 65.8302 29.7044V28.3828H62.3486V29.7044C61.7491 29.8615 61.174 30.1005 60.6398 30.4148L59.7038 29.4804L57.2382 31.946L58.1726 32.882C57.8586 33.4181 57.6196 33.9946 57.4622 34.5956H56.1406V38.082H57.4622C57.6196 38.683 57.8586 39.2596 58.1726 39.7956L57.2382 40.7316L59.7038 43.1956L60.6398 42.2612C61.1761 42.5751 61.7526 42.8146 62.3534 42.9732V44.2948H65.8382V42.9732C66.4391 42.8149 67.0157 42.5754 67.5518 42.2612L68.4878 43.1956L70.9534 40.7316L70.019 39.7956C70.3304 39.2594 70.5662 38.6827 70.7198 38.082H72.0462ZM64.0926 39.362C63.4951 39.3623 62.9109 39.1854 62.4139 38.8537C61.9169 38.522 61.5295 38.0503 61.3006 37.4983C61.0717 36.9464 61.0117 36.3389 61.1281 35.7529C61.2444 35.1668 61.532 34.6284 61.9544 34.2057C62.3768 33.7831 62.9151 33.4953 63.5011 33.3786C64.0871 33.2619 64.6946 33.3216 65.2467 33.5502C65.7987 33.7788 66.2706 34.166 66.6026 34.6628C66.9346 35.1596 67.1118 35.7437 67.1118 36.3412C67.1106 37.1414 66.792 37.9085 66.226 38.4741C65.66 39.0398 64.8928 39.358 64.0926 39.3588V39.362Z" fill="#A2C7EB"/>
  <path d="M61.512 46.8163L60.8496 45.0851L60.1936 45.3363C60.0017 45.0681 59.7733 44.8279 59.5152 44.6227L59.8016 43.9827L58.1088 43.2307L57.8224 43.8707C57.4972 43.816 57.166 43.8068 56.8384 43.8435L56.5856 43.1875L54.8576 43.8515L55.1088 44.5059C54.8409 44.6988 54.6008 44.9276 54.3952 45.1859L53.7552 44.8995L53.0016 46.5907L53.6416 46.8771C53.5882 47.2029 53.5795 47.5345 53.616 47.8627L52.96 48.1139L53.624 49.8435L54.2784 49.5923C54.4711 49.8598 54.6993 50.0999 54.9568 50.3059L54.672 50.9459L56.3632 51.6979L56.6496 51.0579C56.9752 51.1126 57.307 51.1218 57.6352 51.0851L57.8864 51.7411L59.616 51.0771L59.36 50.4243C59.628 50.231 59.8686 50.0022 60.0752 49.7443L60.7152 50.0307L61.4688 48.3395L60.8288 48.0531C60.8827 47.7273 60.8919 47.3957 60.856 47.0675L61.512 46.8163ZM57.8112 48.9635C57.516 49.0756 57.1943 49.0978 56.8865 49.0274C56.5788 48.957 56.2987 48.7972 56.0816 48.568C55.8645 48.3388 55.7201 48.0505 55.6665 47.7393C55.6128 47.4282 55.6525 47.1082 55.7804 46.8195C55.9083 46.5309 56.1187 46.2865 56.3852 46.1172C56.6516 45.9479 56.9622 45.8612 57.2779 45.8681C57.5935 45.8749 57.9001 45.975 58.159 46.1557C58.4178 46.3363 58.6175 46.5896 58.7328 46.8835C58.81 47.0805 58.8474 47.2908 58.8428 47.5023C58.8383 47.7139 58.7918 47.9224 58.7061 48.1158C58.6204 48.3093 58.4971 48.4838 58.3435 48.6293C58.1899 48.7748 58.009 48.8884 57.8112 48.9635Z" stroke="#A2C7EB" stroke-miterlimit="10"/>
  <path d="M55.8476 40.7527L55.3996 39.5847L54.9564 39.7543C54.8264 39.5742 54.6725 39.4127 54.4988 39.2743L54.6908 38.8407L53.5484 38.3319L53.3548 38.7655C53.1348 38.7286 52.9109 38.7222 52.6892 38.7463L52.5196 38.3047L51.3516 38.7527L51.5212 39.1943C51.3414 39.3252 51.1799 39.4797 51.0412 39.6535L50.6076 39.4599L50.0956 40.6055L50.5292 40.7991C50.492 41.019 50.4861 41.2431 50.5116 41.4647L50.0684 41.6343L50.5164 42.8023L50.9596 42.6327C51.0895 42.8128 51.2434 42.9743 51.4172 43.1127L51.2252 43.5463L52.3676 44.0551L52.5612 43.6215C52.7812 43.6578 53.0051 43.6637 53.2268 43.6391L53.3964 44.0823L54.5644 43.6343L54.3996 43.1895C54.5797 43.0596 54.7412 42.9056 54.8796 42.7319L55.3132 42.9239L55.822 41.7815L55.3884 41.5879C55.4255 41.368 55.4314 41.1439 55.406 40.9223L55.8476 40.7527ZM53.3468 42.2055C53.1467 42.282 52.9285 42.2976 52.7196 42.2501C52.5108 42.2027 52.3207 42.0944 52.1733 41.9389C52.026 41.7835 51.9281 41.5878 51.8919 41.3767C51.8558 41.1656 51.883 40.9485 51.9702 40.7529C52.0574 40.5572 52.2006 40.3919 52.3818 40.2776C52.563 40.1634 52.7739 40.1054 52.9881 40.111C53.2022 40.1167 53.4098 40.1856 53.5847 40.3092C53.7596 40.4329 53.894 40.6055 53.9708 40.8055C54.0734 41.0739 54.0653 41.3721 53.9483 41.6346C53.8314 41.897 53.615 42.1024 53.3468 42.2055Z" stroke="#A2C7EB" stroke-miterlimit="10"/>
  <path d="M55.4414 20.2979C55.4414 21.3875 55.1183 22.4526 54.5129 23.3586C53.9075 24.2645 53.0471 24.9706 52.0404 25.3875C51.0337 25.8044 49.926 25.9134 48.8573 25.7007C47.7887 25.488 46.8071 24.9632 46.0368 24.1926C45.2664 23.422 44.7419 22.4403 44.5295 21.3716C44.3171 20.3029 44.4264 19.1952 44.8436 18.1886C45.2608 17.1821 45.9671 16.3218 46.8733 15.7167C47.7794 15.1116 48.8446 14.7887 49.9342 14.7891C50.6578 14.7884 51.3743 14.9305 52.0429 15.2071C52.7114 15.4838 53.3188 15.8896 53.8304 16.4012C54.3419 16.9129 54.7475 17.5205 55.024 18.1891C55.3004 18.8577 55.4423 19.5743 55.4414 20.2979Z" fill="#0097D8" stroke="#0097D8" stroke-miterlimit="10"/>
  <path d="M50.1559 20.2723C51.1443 20.1502 51.8466 19.25 51.7245 18.2617C51.6025 17.2733 50.7023 16.571 49.7139 16.6931C48.7255 16.8151 48.0233 17.7153 48.1453 18.7037C48.2674 19.692 49.1676 20.3943 50.1559 20.2723Z" fill="white"/>
  <path d="M53.3485 23.9261C52.3757 24.694 51.1726 25.1116 49.9333 25.1116C48.694 25.1116 47.4908 24.694 46.5181 23.9261C46.8701 22.3757 47.1949 21.0461 47.5309 20.6989C48.0109 20.2189 49.2733 19.9453 49.9309 19.9453C50.5885 19.9453 51.9149 20.2813 52.1597 20.5261C52.6589 21.0253 53.0893 22.3997 53.3485 23.9261Z" fill="white"/>
  <path d="M42.0176 33.8843V31.1643C42.0176 30.8079 42.1592 30.466 42.4112 30.214C42.6633 29.9619 43.0051 29.8203 43.3616 29.8203H51.9312C52.1081 29.8197 52.2834 29.854 52.447 29.9212C52.6106 29.9885 52.7593 30.0874 52.8846 30.2123C53.0099 30.3371 53.1094 30.4855 53.1772 30.6489C53.2451 30.8123 53.28 30.9874 53.28 31.1643V33.8843C53.28 34.2408 53.1384 34.5826 52.8863 34.8347C52.6343 35.0867 52.2924 35.2283 51.936 35.2283H43.36C43.0038 35.2279 42.6624 35.0861 42.4107 34.8341C42.159 34.5821 42.0176 34.2405 42.0176 33.8843Z" fill="#0097D8"/>
  <path d="M45.6365 33.7344L41.4893 37.7744L48.2109 34.3776" fill="#0097D8"/>
  <path d="M43.0571 31.0894V31.075C43.0571 31.022 43.0782 30.9711 43.1157 30.9336C43.1532 30.8961 43.2041 30.875 43.2571 30.875H47.4939C47.547 30.875 47.5978 30.8961 47.6354 30.9336C47.6729 30.9711 47.6939 31.022 47.6939 31.075V31.0894C47.6939 31.1424 47.6729 31.1933 47.6354 31.2308C47.5978 31.2683 47.547 31.2894 47.4939 31.2894H43.2571C43.2041 31.2894 43.1532 31.2683 43.1157 31.2308C43.0782 31.1933 43.0571 31.1424 43.0571 31.0894Z" fill="white"/>
  <path d="M47.8848 31.0894V31.075C47.8848 31.022 47.9058 30.9711 47.9433 30.9336C47.9809 30.8961 48.0317 30.875 48.0848 30.875H51.7824C51.8354 30.875 51.8863 30.8961 51.9238 30.9336C51.9613 30.9711 51.9824 31.022 51.9824 31.075V31.0894C51.9824 31.1424 51.9613 31.1933 51.9238 31.2308C51.8863 31.2683 51.8354 31.2894 51.7824 31.2894H48.0848C48.0317 31.2894 47.9809 31.2683 47.9433 31.2308C47.9058 31.1933 47.8848 31.1424 47.8848 31.0894Z" fill="white"/>
  <path d="M46.27 31.9996V31.9852C46.27 31.9321 46.2911 31.8812 46.3286 31.8437C46.3661 31.8062 46.417 31.7852 46.47 31.7852H51.782C51.8351 31.7852 51.8859 31.8062 51.9234 31.8437C51.9609 31.8812 51.982 31.9321 51.982 31.9852V31.9996C51.982 32.0526 51.9609 32.1035 51.9234 32.141C51.8859 32.1785 51.8351 32.1996 51.782 32.1996H46.47C46.417 32.1996 46.3661 32.1785 46.3286 32.141C46.2911 32.1035 46.27 32.0526 46.27 31.9996Z" fill="white"/>
  <path d="M43.0571 31.9996V31.9852C43.0571 31.9321 43.0782 31.8812 43.1157 31.8437C43.1532 31.8062 43.2041 31.7852 43.2571 31.7852H45.6299C45.683 31.7852 45.7338 31.8062 45.7714 31.8437C45.8089 31.8812 45.8299 31.9321 45.8299 31.9852V31.9996C45.8299 32.0526 45.8089 32.1035 45.7714 32.141C45.7338 32.1785 45.683 32.1996 45.6299 32.1996H43.2571C43.2041 32.1996 43.1532 32.1785 43.1157 32.141C43.0782 32.1035 43.0571 32.0526 43.0571 31.9996Z" fill="white"/>
  <path d="M47.0078 32.9097V32.8953C47.0078 32.8423 47.0289 32.7914 47.0664 32.7539C47.1039 32.7164 47.1548 32.6953 47.2078 32.6953H51.7822C51.8353 32.6953 51.8861 32.7164 51.9236 32.7539C51.9611 32.7914 51.9822 32.8423 51.9822 32.8953V32.9097C51.9822 32.9628 51.9611 33.0136 51.9236 33.0511C51.8861 33.0886 51.8353 33.1097 51.7822 33.1097H47.2078C47.1548 33.1097 47.1039 33.0886 47.0664 33.0511C47.0289 33.0136 47.0078 32.9628 47.0078 32.9097Z" fill="white"/>
  <path d="M43.0571 32.9097V32.8953C43.0571 32.8423 43.0782 32.7914 43.1157 32.7539C43.1532 32.7164 43.2041 32.6953 43.2571 32.6953H46.4171C46.4702 32.6953 46.521 32.7164 46.5586 32.7539C46.5961 32.7914 46.6171 32.8423 46.6171 32.8953V32.9097C46.6171 32.9628 46.5961 33.0136 46.5586 33.0511C46.521 33.0886 46.4702 33.1097 46.4171 33.1097H43.2571C43.2041 33.1097 43.1532 33.0886 43.1157 33.0511C43.0782 33.0136 43.0571 32.9628 43.0571 32.9097Z" fill="white"/>
  <path d="M43.0571 33.8199V33.8055C43.0571 33.7524 43.0782 33.7016 43.1157 33.664C43.1532 33.6265 43.2041 33.6055 43.2571 33.6055H44.4299C44.483 33.6055 44.5338 33.6265 44.5714 33.664C44.6089 33.7016 44.6299 33.7524 44.6299 33.8055V33.8199C44.6299 33.8729 44.6089 33.9238 44.5714 33.9613C44.5338 33.9988 44.483 34.0199 44.4299 34.0199H43.2571C43.2041 34.0199 43.1532 33.9988 43.1157 33.9613C43.0782 33.9238 43.0571 33.8729 43.0571 33.8199Z" fill="white"/>
  <path d="M45.0444 33.8199V33.8055C45.0444 33.7524 45.0655 33.7016 45.103 33.664C45.1405 33.6265 45.1914 33.6055 45.2444 33.6055H51.782C51.8351 33.6055 51.8859 33.6265 51.9235 33.664C51.961 33.7016 51.982 33.7524 51.982 33.8055V33.8199C51.982 33.8729 51.961 33.9238 51.9235 33.9613C51.8859 33.9988 51.8351 34.0199 51.782 34.0199H45.2444C45.1914 34.0199 45.1405 33.9988 45.103 33.9613C45.0655 33.9238 45.0444 33.8729 45.0444 33.8199Z" fill="white"/>
  <path d="M20.8627 30.0215C22.0973 27.368 20.947 24.216 18.2934 22.9815C15.6399 21.7469 12.488 22.8973 11.2534 25.5508C10.0189 28.2043 11.1692 31.3563 13.8227 32.5908C16.4763 33.8254 19.6282 32.675 20.8627 30.0215Z" fill="#0097D8"/>
  <path d="M15.2331 31.6042C15.9026 31.3691 16.2547 30.6358 16.0196 29.9663C15.7845 29.2968 15.0512 28.9447 14.3817 29.1798C13.7122 29.4149 13.36 30.1482 13.5951 30.8177C13.8302 31.4872 14.5636 31.8393 15.2331 31.6042Z" fill="white"/>
  <path d="M14.1356 30.8533L14.0732 30.0389L14.7484 29.5781L15.4844 29.9317L15.5468 30.7461L14.8716 31.2069L14.1356 30.8533Z" fill="#0097D8"/>
  <path d="M17.7398 26.3973C18.408 26.1585 18.756 25.4232 18.5172 24.7551C18.2783 24.0869 17.543 23.7388 16.8749 23.9777C16.2067 24.2165 15.8587 24.9518 16.0975 25.62C16.3364 26.2882 17.0716 26.6362 17.7398 26.3973Z" fill="white"/>
  <path d="M16.6699 25.5723L16.7147 24.5371L17.4939 23.8555L18.2315 24.2091L18.1867 25.2443L17.4059 25.9259L16.6699 25.5723Z" fill="#0097D8"/>
  <path d="M15.6992 29.7963L14.7168 29.3163L15.4432 27.6427C15.4896 27.5355 15.5392 27.4315 15.5936 27.3227L16.4464 25.7227L17.4288 26.1947L16.728 27.8443C16.6736 27.9723 16.6144 28.0971 16.5488 28.2187L15.6992 29.7963Z" fill="white"/>
  <path d="M19.7388 30.6397C19.9292 30.5533 22.9692 30.6909 22.9692 30.6909L20.7772 28.6797L19.7388 30.6397Z" fill="#0097D8"/>
  <path d="M33.1573 18.8277C34.2992 16.1877 33.0848 13.122 30.4448 11.9801C27.8049 10.8383 24.7392 12.0527 23.5973 14.6926C22.4554 17.3326 23.6699 20.3983 26.3098 21.5402C28.9497 22.682 32.0155 21.4676 33.1573 18.8277Z" fill="#0097D8"/>
  <path d="M28.5518 12.3242H28.2046V16.6986H28.5518V12.3242Z" fill="white"/>
  <path d="M24.5348 19.2223L24.7324 19.5078L28.3779 16.9845L28.1803 16.699L24.5348 19.2223Z" fill="white"/>
  <path d="M28.8575 16.7652C28.8575 16.8601 28.8293 16.9529 28.7766 17.0318C28.7238 17.1108 28.6489 17.1723 28.5611 17.2086C28.4734 17.2449 28.3769 17.2545 28.2838 17.2359C28.1907 17.2174 28.1052 17.1717 28.038 17.1046C27.9709 17.0374 27.9252 16.9519 27.9067 16.8588C27.8882 16.7657 27.8977 16.6692 27.934 16.5815C27.9703 16.4938 28.0319 16.4188 28.1108 16.3661C28.1897 16.3133 28.2825 16.2852 28.3775 16.2852C28.5048 16.2852 28.6269 16.3357 28.7169 16.4257C28.8069 16.5158 28.8575 16.6379 28.8575 16.7652Z" fill="white"/>
  <path d="M42.518 52.0283C42.2092 47.2667 44.2924 42.3387 47.798 39.5195C47.91 44.3051 45.8476 49.1483 42.518 52.0283Z" fill="#A2C7EB"/>
  <path d="M47.2287 40.8008C45.743 43.5726 44.4664 46.4516 43.4095 49.4136C42.1183 53.0248 41.1023 56.8616 38.8911 59.8888" stroke="#6F8BBF" stroke-miterlimit="10" stroke-linecap="round"/>
  <path d="M41.4111 55.0232C43.1871 51.0504 46.7119 48.0488 50.5983 47.1992C48.9439 51.4568 45.2223 54.7048 41.4111 55.0232Z" fill="#A2C7EB"/>
  <path d="M49.6445 48.0742C46.9906 50.4102 44.2914 52.6801 41.5469 54.8838" stroke="#6F8BBF" stroke-miterlimit="10" stroke-linecap="round"/>
  <path d="M40.3628 58.4854C42.7356 54.9414 47.1132 53.0918 50.7356 54.103C48.0716 57.6022 43.6796 59.4566 40.3628 58.4854Z" fill="#A2C7EB"/>
  <path d="M49.8668 54.3633C46.803 56.2898 43.4555 57.7227 39.9468 58.6097" stroke="#6F8BBF" stroke-miterlimit="10" stroke-linecap="round"/>
  <path d="M41.6446 53.8183C42.403 49.8279 41.2654 45.3799 38.7326 42.4375C37.6942 46.3623 38.6846 50.9543 41.6446 53.8183Z" fill="#A2C7EB"/>
  <path d="M38.9932 43.457C39.4628 47.0891 40.3924 50.6467 41.7596 54.0442" stroke="#6F8BBF" stroke-miterlimit="10" stroke-linecap="round"/>
  <path d="M40.3421 57.2167C40.0221 53.1143 37.9165 49.2615 34.8413 47.1367C35.0156 49.2789 35.5824 51.3707 36.5133 53.3079C37.5677 55.4935 39.1165 56.8807 40.3421 57.2167Z" fill="#A2C7EB"/>
  <path d="M35.2974 47.9648C36.4805 51.337 38.2103 54.4917 40.4174 57.3024" stroke="#6F8BBF" stroke-miterlimit="10" stroke-linecap="round"/>
  <path d="M64.0908 56.2333C65.7692 51.8669 69.63 48.3245 73.8876 47.2461C72.022 51.5533 68.214 55.0253 64.0908 56.2333Z" fill="#A2C7EB"/>
  <path d="M72.8557 48.1523C70.4053 50.016 68.0971 52.0596 65.9501 54.2659C63.3293 56.9571 60.8573 59.9587 57.6621 61.7539" stroke="#6F8BBF" stroke-miterlimit="10" stroke-linecap="round"/>
  <path d="M61.8848 58.451C65.0848 55.6366 69.4288 54.4014 73.2112 55.2302C70.0048 58.3486 65.384 59.723 61.8848 58.451Z" fill="#A2C7EB"/>
  <path d="M72.0093 55.6211C68.7027 56.6195 65.3864 57.54 62.0605 58.3827" stroke="#6F8BBF" stroke-miterlimit="10" stroke-linecap="round"/>
  <path d="M59.5391 61.1074C63.0895 58.9186 67.7167 59.0578 70.5039 61.437C66.7199 63.4658 62.0799 63.325 59.5391 61.1074Z" fill="#A2C7EB"/>
  <path d="M69.6316 61.3063C66.1355 61.772 62.5876 61.6818 59.1196 61.0391" stroke="#6F8BBF" stroke-miterlimit="10" stroke-linecap="round"/>
  <path d="M62.5852 57.4709C64.8908 54.2261 65.7084 49.7989 64.6764 46.1445C62.15 49.2133 61.142 53.7109 62.5852 57.4709Z" fill="#A2C7EB"/>
  <path d="M64.4893 47.1641C63.4142 50.5899 62.7771 54.1382 62.5933 57.7241" stroke="#6F8BBF" stroke-miterlimit="10" stroke-linecap="round"/>
  <path d="M60.0412 59.9639C61.4364 56.1783 61.1612 51.8871 59.3116 48.7383C58.5881 50.7169 58.2318 52.8109 58.2604 54.9175C58.294 57.2999 59.094 59.1639 60.0412 59.9639Z" fill="#A2C7EB"/>
  <path d="M59.3725 49.668C59.0363 53.1522 59.2724 56.668 60.0717 60.076" stroke="#6F8BBF" stroke-miterlimit="10" stroke-linecap="round"/>
  <path d="M16.5232 48.6031C14.8112 43.3663 10.0368 39.1375 4.47998 37.9375C6.81758 42.4655 11.0528 46.0687 16.5232 48.6031Z" fill="#A2C7EB"/>
  <path d="M16.8126 49.4116C14.9224 48.3597 12.8366 47.7064 10.6841 47.492C8.53154 47.2776 6.3579 47.5067 4.29736 48.1652C8.17506 50.1015 12.6291 50.545 16.8126 49.4116Z" fill="#A2C7EB"/>
  <path d="M17.8495 50.5478C13.7983 49.9862 9.55669 50.9846 6.26709 53.2678C9.99669 54.6294 14.4719 53.7494 17.8495 50.5478Z" fill="#A2C7EB"/>
  <path d="M19.1119 53.0274C15.1007 53.0114 11.1567 54.917 8.79834 58.013C10.5909 58.3693 12.4498 58.1602 14.1183 57.4146C15.7551 56.6738 17.1279 55.4066 19.1119 53.0274Z" fill="#A2C7EB"/>
  <path d="M21.9404 57.1763C17.9836 56.4979 13.7708 57.7235 10.918 60.3763C12.6286 61.0233 14.4976 61.125 16.2684 60.6675C18.0092 60.2131 19.5788 59.1923 21.9404 57.1763Z" fill="#A2C7EB"/>
  <path d="M17.6701 48.8477C15.0573 45.3277 14.3485 40.5821 15.8333 36.5469C16.9661 38.4669 17.9437 40.4941 18.3933 42.6509C18.8429 44.8077 18.7677 47.1069 17.6701 48.8477Z" fill="#A2C7EB"/>
  <path d="M19.2654 52.2464C18.9707 50.3687 19.1212 48.4479 19.7048 46.639C20.2884 44.83 21.2888 43.1835 22.6254 41.832C22.9374 45.7024 21.7598 49.6448 19.2654 52.2464Z" fill="#A2C7EB"/>
  <path d="M5.69727 38.875C13.6477 43.9614 19.8637 51.5422 23.1453 60.155" stroke="#6F8BBF" stroke-miterlimit="10" stroke-linecap="round"/>
  <path d="M16.0796 38.4023C17.0476 42.3219 17.637 46.3253 17.8396 50.3575" stroke="#6F8BBF" stroke-miterlimit="10" stroke-linecap="round"/>
  <path d="M22.0335 43.3477C21.7117 46.5295 20.7384 49.611 19.1743 52.4005" stroke="#6F8BBF" stroke-miterlimit="10" stroke-linecap="round"/>
  <path d="M5.97119 48.2578C9.61624 48.9494 13.3143 49.3241 17.024 49.3778" stroke="#6F8BBF" stroke-miterlimit="10" stroke-linecap="round"/>
  <path d="M8.15967 52.9625C11.5131 52.7182 14.8009 51.9067 17.8829 50.5625" stroke="#6F8BBF" stroke-miterlimit="10" stroke-linecap="round"/>
  <path d="M10.1807 57.4486L19.4831 52.8086" stroke="#6F8BBF" stroke-miterlimit="10" stroke-linecap="round"/>
  <path d="M12.1968 60.179C16.2464 59.3966 17.448 58.4654 21.9424 57.1758" stroke="#6F8BBF" stroke-miterlimit="10" stroke-linecap="round"/>
  <path d="M37.8269 52.7617C37.8269 52.7617 38.1773 55.9729 38.5693 56.2305C39.2701 56.6929 47.3821 57.7617 47.3821 57.7617L47.1165 59.8721C47.1165 59.8721 36.0061 60.8705 35.5341 60.3153C34.7149 59.3553 33.2749 54.7057 33.2749 54.7057L37.8269 52.7617Z" fill="#E06A58"/>
  <path d="M32.4702 44.495L33.3678 42.3398C33.3678 42.3398 35.803 43.4838 36.6062 44.8998C37.4654 46.4102 38.5166 54.4406 38.5166 54.4406C38.5166 54.4406 34.2174 55.431 33.427 55.0102C32.6366 54.5894 32.4702 44.495 32.4702 44.495Z" fill="#F2AE30"/>
  <path d="M25.6335 34.4904C25.0047 34.26 24.3391 34.0584 23.6655 34.1096C22.9919 34.1608 22.3039 34.5224 22.0799 35.1096C21.9199 35.5288 21.9919 36.0232 21.7343 36.4008C21.4767 36.7784 20.9983 36.9128 20.5407 36.9432C20.0831 36.9736 19.6191 36.9144 19.1631 36.9736C17.7551 37.1608 16.7503 38.6904 17.2127 39.9432C17.3967 40.4424 17.7743 40.9192 17.6927 41.4392C17.6015 41.996 17.0175 42.3624 16.7775 42.8792C16.4575 43.5672 16.8399 44.4008 17.4687 44.8696C18.0975 45.3384 18.9087 45.5096 19.7087 45.6328C20.8015 45.7928 21.9295 45.8728 23.0095 45.6424C24.0895 45.412 25.1215 44.8424 25.6799 43.9528C25.9279 43.5592 26.0783 43.1144 26.3663 42.7448C26.9615 41.9816 28.0159 41.6856 28.8463 41.1448C29.7535 40.5512 30.4191 39.396 29.8847 38.492C29.3695 37.6232 28.0287 37.4296 27.4847 36.572C27.2623 36.2184 27.2095 35.7976 27.0655 35.412C26.9215 35.0264 26.5599 34.8312 25.6335 34.4904Z" fill="#0A2240"/>
  <path d="M29.2972 45.15C29.4572 45.3324 29.6428 45.5324 29.902 45.55C30.1612 45.5676 30.4044 45.3756 30.5804 45.1884C31.4703 44.2554 32.0801 43.0912 32.3404 41.8284C32.1148 41.7004 31.8972 41.5772 31.7004 41.462C31.5252 41.3609 31.3859 41.2076 31.302 41.0236C31.2479 40.8931 31.2276 40.7512 31.2428 40.6108C31.3241 39.5542 31.5475 38.5134 31.9068 37.5164C29.9004 37.0636 28.0076 36.526 26.9196 35.6172C26.7868 36.1772 26.63 37.2732 26.2956 38.3596C25.9388 39.51 25.382 40.6476 24.438 41.1372C26.2605 42.2083 27.9008 43.5629 29.2972 45.15Z" fill="#F9A07B"/>
  <path d="M31.2348 40.6108C31.2195 40.7512 31.2399 40.8932 31.294 41.0236C30.1068 42.4636 27.454 40.582 26.2876 38.3596C26.622 37.2732 26.7788 36.1772 26.9116 35.6172C27.998 36.526 29.8924 37.0572 31.8988 37.5164C31.5393 38.5133 31.316 39.5542 31.2348 40.6108Z" fill="#E06A58"/>
  <path d="M34.5405 58.0216C34.2781 59.7592 36.1533 61.6296 36.1997 62.5576C32.2173 62.5576 23.8797 62.8008 19.6269 62.2232C19.4333 61.1512 21.5309 58.74 21.5309 56.3592C21.5309 56.0392 21.5181 55.6984 21.4925 55.3272C21.4253 54.2648 21.2685 53.0008 21.0941 51.7048C20.6141 48.228 19.9901 44.5048 20.4541 43.7384C21.3661 42.236 23.4941 41.2152 24.5565 40.7768C24.9197 40.6264 25.1565 40.5448 25.1741 40.5352C26.5005 42.7976 29.1997 44.7272 30.2189 44.6408C30.5021 44.6184 31.3389 44.3208 31.8973 41.5304C32.1133 41.6536 32.3293 41.7672 32.5373 41.8776C33.5917 42.4264 34.5805 42.8792 34.8653 43.5848C35.6173 45.4424 36.3549 50.1256 36.1917 51.7912C36.0285 53.4568 35.3597 54.7544 34.8797 56.4456C34.7693 56.8408 34.6685 57.26 34.5869 57.7112C34.5725 57.8072 34.5597 57.9128 34.5405 58.0216Z" fill="#FFC73C"/>
  <path d="M36.1997 62.5556C32.2173 62.5556 23.8797 62.7988 19.6269 62.2212C19.4333 61.1492 21.5309 58.738 21.5309 56.3572C21.5309 56.0372 21.5181 55.6964 21.4925 55.3252C21.4253 54.2628 21.2685 52.9988 21.0941 51.7028C21.8477 52.5028 22.9469 49.1428 23.4333 50.122C26.0653 55.434 28.1405 56.8308 31.7533 56.8308C32.8068 56.8211 33.8557 56.6912 34.8797 56.4436C34.7693 56.8388 34.6685 57.258 34.5869 57.7092C34.5677 57.8158 34.5501 57.9225 34.5341 58.0292C34.2781 59.7556 36.1597 61.626 36.1997 62.5556Z" fill="#FFBB33"/>
  <path d="M32.5453 41.8854C32.3741 43.1286 31.8669 44.8038 30.3917 45.2454C28.3981 45.8422 25.5133 42.1174 24.5581 40.7846C24.9213 40.6342 25.1581 40.5526 25.1757 40.543C26.5021 42.8054 29.2013 44.735 30.2205 44.6486C30.5037 44.6262 31.3405 44.3286 31.8989 41.5382C32.1149 41.6518 32.3309 41.7654 32.5453 41.8854Z" fill="#FCE172"/>
  <path d="M33.3645 60.6868L33.3501 62.074L58.1501 62.2212L58.2013 60.6484L33.3645 60.6868Z" fill="#325F73"/>
  <path d="M68.8991 48.3073L68.3471 47.7473L50.2831 47.6289L41.2207 60.7345L41.6943 61.1153L68.8991 48.3073Z" fill="#325F73"/>
  <path d="M50.6319 48.1172L41.6943 61.1188L58.7663 61.2036L68.8991 48.3108L50.6319 48.1172Z" fill="#0B2D50"/>
  <path d="M54.9452 56.413C56.0427 56.413 56.9324 55.9681 56.9324 55.4194C56.9324 54.8706 56.0427 54.4258 54.9452 54.4258C53.8477 54.4258 52.958 54.8706 52.958 55.4194C52.958 55.9681 53.8477 56.413 54.9452 56.413Z" fill="#3C738C"/>
  <path d="M37.3428 35.9569C37.6244 34.4463 37.0449 33.0711 36.0486 32.8853C35.0522 32.6996 34.0161 33.7736 33.7345 35.2843C33.4529 36.7949 34.0323 38.1701 35.0287 38.3559C36.0251 38.5416 37.0611 37.4676 37.3428 35.9569Z" fill="#56C4F9"/>
  <path d="M37.342 31.212C37.1564 32.5272 36.5692 33.9768 35.7132 35.5784C35.4124 34.2664 35.2204 32.668 34.9548 31.0696C34.6892 29.4712 34.3404 27.8696 33.7436 26.5576C33.6139 26.275 33.4675 26.0004 33.3052 25.7352C33.6589 25.7023 34.0157 25.7343 34.358 25.8296C34.8931 25.9744 35.3865 26.2435 35.798 26.6152C36.4643 27.2386 36.9492 28.0309 37.2012 28.908C37.422 29.6554 37.4701 30.4432 37.342 31.212Z" fill="#0B2D50"/>
  <path d="M36.3374 32.5699C36.3278 32.8291 36.3102 33.0931 36.2862 33.3555C35.9214 37.6115 34.1342 40.5315 31.3998 40.5315C27.539 40.5315 25.0366 36.2019 25.0366 31.9603C25.0366 27.7763 27.5966 24.7475 30.5998 25.0979C32.3294 25.2963 33.5934 25.8707 34.491 26.7123C35.0769 27.2719 35.5268 27.9582 35.8062 28.7187C36.1439 29.6453 36.323 30.6222 36.3358 31.6083C36.3358 31.6083 36.3358 31.6083 36.3358 31.6179C36.3518 31.9283 36.3486 32.2451 36.3374 32.5699Z" fill="#F9A07B"/>
  <path d="M36.3375 32.5729C36.2241 32.158 36.0488 31.7626 35.8175 31.4001C33.4933 32.6098 30.8403 33.0358 28.2543 32.6145L26.8047 33.8257C26.8143 31.8897 26.8415 30.5793 27.5967 29.6417C28.3055 28.7617 29.4879 28.4305 30.6079 28.2865C31.8697 28.1208 33.1483 28.1289 34.4079 28.3105C34.8968 28.3578 35.372 28.4985 35.8079 28.7249C36.1456 29.6514 36.3246 30.6283 36.3375 31.6145C36.3375 31.6145 36.3375 31.6145 36.3375 31.6241C36.3519 31.9313 36.3487 32.2481 36.3375 32.5729Z" fill="#E06A58"/>
  <path d="M36.8942 29.9494C36.3108 30.4225 35.6564 30.8005 34.955 31.0694C32.8334 31.9254 30.0766 32.2086 27.9278 32.1046C26.8718 34.4246 26.4446 35.2566 26.1678 37.2806C25.1358 36.3126 24.2958 34.5398 24.0462 33.1462C23.7821 31.7483 23.8368 30.3088 24.2062 28.935C24.4479 28.1049 24.8578 27.3334 25.4105 26.6687C25.9633 26.0039 26.647 25.46 27.419 25.071C27.6425 24.9499 27.8733 24.843 28.1102 24.751C29.4718 24.2246 31.0062 24.271 32.403 24.6998C33.1262 24.9279 33.7896 25.3137 34.3454 25.8294C35.435 26.8134 36.1054 28.1462 36.5438 29.1446C36.6926 29.4502 36.7998 29.7222 36.8942 29.9494Z" fill="#0B2D50"/>
  <path d="M37.3424 31.2109C37.2568 30.7469 37.1211 30.2936 36.9376 29.8589C36.8317 29.6099 36.7043 29.3706 36.5568 29.1437C36.0875 28.3712 35.3657 27.7845 34.5136 27.4829C34.2825 27.1563 34.0257 26.8486 33.7456 26.5629C32.8605 25.6396 31.7002 25.0277 30.4384 24.8189C29.4309 24.659 28.3996 24.7469 27.4336 25.0749C27.657 24.9538 27.8879 24.8469 28.1248 24.7549C29.4864 24.2285 31.0208 24.2749 32.4176 24.7037C33.1407 24.9318 33.8042 25.3176 34.36 25.8333C34.8952 25.9781 35.3886 26.2473 35.8 26.6189C36.4663 27.2423 36.9512 28.0347 37.2032 28.9117C37.422 29.6579 37.4696 30.4438 37.3424 31.2109Z" fill="#225570"/>
  <path d="M29.1582 33.8221C29.8718 33.4141 30.6126 33.2301 31.651 33.6093" stroke="#0B2D50" stroke-width="2" stroke-miterlimit="10" stroke-linecap="round"/>
  <path d="M34.0444 33.7932C34.6556 33.3372 35.5612 33.2908 36.0332 33.7932" stroke="#0B2D50" stroke-width="2" stroke-miterlimit="10" stroke-linecap="round"/>
  <path d="M33.3069 36.125C33.3693 36.445 33.3357 37.1634 33.1821 37.485" stroke="#CC454E" stroke-width="2" stroke-miterlimit="10" stroke-linecap="round"/>
  <path d="M30.896 36.3382C31.0586 36.3382 31.1904 36.1304 31.1904 35.8742C31.1904 35.6179 31.0586 35.4102 30.896 35.4102C30.7334 35.4102 30.6016 35.6179 30.6016 35.8742C30.6016 36.1304 30.7334 36.3382 30.896 36.3382Z" fill="#262D40"/>
  <path d="M34.7436 36.1194C34.9062 36.1194 35.038 35.9117 35.038 35.6554C35.038 35.3991 34.9062 35.1914 34.7436 35.1914C34.581 35.1914 34.4492 35.3991 34.4492 35.6554C34.4492 35.9117 34.581 36.1194 34.7436 36.1194Z" fill="#262D40"/>
  <path d="M32.9424 38.1109C32.8951 38.2024 32.8417 38.2906 32.7824 38.3749C32.5693 38.6845 32.2659 38.9208 31.9136 39.0517C31.7334 39.1104 31.5415 39.123 31.3552 39.0885C30.7536 38.9813 30.5952 38.4261 30.5664 37.9989C30.5625 37.9221 30.5625 37.8452 30.5664 37.7685C30.5675 37.6721 30.575 37.5759 30.5888 37.4805C31.5328 38.0085 32.9424 38.1109 32.9424 38.1109Z" fill="#CC454E"/>
  <path d="M32.942 38.1109C32.8947 38.2024 32.8413 38.2906 32.782 38.3749C32.2924 38.3749 31.2908 38.1173 30.5596 37.7685C30.5607 37.6721 30.5681 37.5759 30.582 37.4805C31.5324 38.0085 32.942 38.1109 32.942 38.1109Z" fill="white"/>
  <path d="M31.9038 39.0489C31.7237 39.1076 31.5317 39.1203 31.3454 39.0857C30.7438 38.9785 30.5854 38.4233 30.5566 37.9961C30.8564 38.0305 31.1407 38.1471 31.3785 38.3328C31.6162 38.5186 31.798 38.7664 31.9038 39.0489Z" fill="#E8729B"/>
  <path d="M26.1838 33.0847C26.203 31.7209 26.4742 30.3723 26.9838 29.1071C28.0254 26.6191 30.1486 25.5551 32.2078 25.4831C32.9514 25.4655 33.6911 25.5959 34.3838 25.8667C35.0766 26.1376 35.7086 26.5434 36.243 27.0607C36.243 27.0607 35.435 25.6351 33.843 25.2255C32.7966 24.9567 31.2174 24.9055 29.9502 25.4287C28.6446 25.9583 27.0174 27.4287 26.4302 28.9823C25.843 30.5359 25.5566 32.9551 25.5566 32.9551L26.1838 33.0847Z" fill="#3D86E0"/>
  <path d="M25.8822 38.1806C26.9398 38.0738 27.666 36.688 27.5041 35.0853C27.3422 33.4827 26.3536 32.27 25.2959 32.3769C24.2383 32.4837 23.5121 33.8695 23.674 35.4722C23.8359 37.0749 24.8245 38.2875 25.8822 38.1806Z" fill="#56C4F9"/>
  <path d="M25.6564 37.7615C26.3423 37.6584 26.7513 36.5965 26.5699 35.3897C26.3885 34.1829 25.6853 33.2883 24.9994 33.3914C24.3134 33.4945 23.9044 34.5564 24.0858 35.7632C24.2673 36.9699 24.9704 37.8646 25.6564 37.7615Z" fill="#3D86E0"/>
  <path d="M32.2203 40.5918C32.7894 40.5918 33.2507 40.3045 33.2507 39.9502C33.2507 39.5958 32.7894 39.3086 32.2203 39.3086C31.6513 39.3086 31.1899 39.5958 31.1899 39.9502C31.1899 40.3045 31.6513 40.5918 32.2203 40.5918Z" fill="#3A92C9"/>
  <path d="M27.0396 37.8047C27.0396 37.8047 28.5532 39.7503 31.1852 39.9503" stroke="#3A92C9" stroke-width="2" stroke-miterlimit="10" stroke-linecap="round"/>
  <path d="M33.3501 56.9798L33.2509 59.5398C33.2509 59.5398 23.9997 62.311 22.4701 61.4342C21.7245 61.0054 21.0301 58.647 20.5085 56.3446C19.9645 53.9254 19.6157 51.5702 19.6157 51.5702L25.0397 50.5078C25.0397 50.5078 25.0397 53.815 25.2269 55.727C25.2925 56.439 25.3869 56.9574 25.5133 57.0422C25.9917 57.3574 33.3501 56.9798 33.3501 56.9798Z" fill="#F9A07B"/>
  <path d="M25.2269 55.7254C24.2413 56.0454 22.3469 56.5398 20.5085 56.3446C19.9645 53.9254 19.6157 51.5702 19.6157 51.5702L25.0397 50.5078C25.0397 50.5078 25.0429 53.8134 25.2269 55.7254Z" fill="#E06A58"/>
  <path d="M33.0864 57.008C34.4624 56.7136 36.792 56.0064 37.7584 55.7632C38.4448 55.5904 40.232 56.5152 40.704 57.3872C40.9104 57.768 41.1056 59.9248 40.384 59.7024C40.0256 59.5904 40.0848 58.6656 39.9728 58.288C39.8816 57.9808 39.5904 57.6832 39.1472 57.4272C39.4432 58.1648 39.432 58.808 39.4 59.6048C39.4063 59.7811 39.3712 59.9565 39.2976 60.1168C39.2599 60.1947 39.1959 60.2569 39.1169 60.2923C39.0378 60.3277 38.9489 60.3341 38.8656 60.3104C38.7056 60.2432 38.6464 60.04 38.6096 59.8624C38.4651 59.2299 38.363 58.5885 38.304 57.9424C38.3168 58.6256 38.304 59.3104 38.2592 59.992C38.2272 60.5136 37.968 60.8 37.6496 60.7088C37.5072 60.6688 37.4496 60.5376 37.3888 60.3648C37.2928 60.6992 37.0528 61.0688 36.7488 60.928C36.56 60.8432 36.4432 60.1616 36.4768 59.4608C35.8571 59.8233 35.1531 60.0169 34.4352 60.0224C33.7408 60.0544 33.0304 59.9248 32.6128 59.4528C32.6874 58.6239 32.8461 57.8048 33.0864 57.008Z" fill="#F9A07B"/>
  <path d="M37.4095 60.2551C37.4561 59.7011 37.408 59.1432 37.2671 58.6055" stroke="#CC454E" stroke-miterlimit="10" stroke-linecap="round"/>
  <path d="M24.4304 45.1432C24.0368 44.0344 22.5952 41.7656 22.5952 41.7656C22.5952 41.7656 20.3952 42.6808 19.6144 44.2344C18.2928 46.8648 18.9648 54.4168 18.9648 54.4168C20.7456 55.1624 24.32 55.1736 25.8448 54.9592C25.8416 54.9592 25.2192 47.3592 24.4304 45.1432Z" fill="#FFC73C"/>
  <path d="M24.71 45.6055C25.2805 48.2966 25.6231 51.0311 25.734 53.7799" stroke="#F2AE30" stroke-miterlimit="10" stroke-linecap="round"/>
  <path d="M71.7982 61.7617H8.71338V63.3441H71.7982V61.7617Z" fill="#0B2D50"/>
</svg>