<svg width="986" height="160" viewBox="0 0 986 160" fill="none" xmlns="http://www.w3.org/2000/svg">
<g clip-path="url(#clip0_4_7206)">
<path d="M553.81 58.1V116.1H569.81V57.3L572.11 56.7C574.854 56.263 577.631 56.0622 580.41 56.1C588.21 56.1 592.31 58.7 595.81 65.6C598.21 70.4 598.31 71.4 598.61 93.3L599.01 116.1H613.81V92.8C613.81 68.1 613.01 62.4 608.81 55.6C602.91 46 592.31 41.5 577.91 42.3L569.81 42.8L569.61 21.7L569.31 0.599999L561.61 0.3L553.81 0V58.1Z" fill="#238CB9"/>
<path d="M178.18 21.1005C160.68 23.7005 150.78 32.1005 150.78 44.4005C150.78 54.8005 155.68 60.4005 174.58 71.6005C190.58 81.1005 194.78 85.1005 195.48 91.5005C195.98 95.8005 195.78 96.4005 192.38 99.5005C185.78 105.801 172.88 106.601 158.78 101.501C155.08 100.201 151.78 99.1005 151.38 99.1005C150.98 99.1005 150.78 102.301 150.98 106.301L151.28 113.501L156.28 114.801C164.18 116.901 178.48 117.501 186.28 116.201C200.18 113.801 210.38 106.001 212.78 96.1005C215.78 83.5005 208.98 74.3005 186.88 61.2005C180.48 57.4005 173.78 53.0005 172.08 51.3005C166.38 46.0005 166.68 40.4005 173.08 35.7005C177.18 32.7005 193.88 32.8005 201.58 35.8005L206.78 37.9005V24.2005L202.58 23.0005C198.38 21.9005 186.28 20.1005 184.28 20.3005C183.81 20.3005 181.01 20.7005 178.18 21.1005Z" fill="#238CB9"/>
<path d="M502.81 60.8996C502.81 104.6 503.21 107.6 509.21 112.9C515.51 118.4 526.91 119.4 539.61 115.6L544.81 114V99.1996L540.11 101.3C536.478 102.654 532.675 103.495 528.81 103.8C523.01 104.3 522.11 104.1 520.31 102.1C518.51 100.1 518.31 98.4996 518.31 78.6996V57.5996L530.11 57.2996L541.81 56.9996V44.0996H517.81V22.0996H502.81V60.8996Z" fill="#238CB9"/>
<path d="M238.01 43.5995C234.11 44.3995 229.91 45.2995 228.81 45.5995C226.91 46.1995 226.81 47.0995 226.81 81.1995V116.099H242.81V57.2995L245.91 56.6995C252.21 55.4995 257.41 55.9995 260.81 58.2995C268.71 63.6995 269.81 68.4995 269.81 96.1995V116.099H284.91L284.51 90.2995C284.31 76.1995 283.91 63.6995 283.71 62.5995C283.41 61.0995 284.41 60.1995 288.81 58.3995C298.11 54.4995 304.81 56.4995 309.01 64.3995C311.21 68.3995 311.31 69.8995 311.61 92.2995L311.91 116.099H327.81V95.2995C327.81 67.2995 325.71 58.1995 317.61 50.0995C309.71 42.1995 296.31 40.4995 281.31 45.5995L273.41 48.1995L267.81 45.3995C263.21 43.0995 260.91 42.5995 253.81 42.3995C248.518 42.3244 243.23 42.726 238.01 43.5995Z" fill="#238CB9"/>
<path d="M364.81 43.5993C351.01 47.4993 343.51 58.2993 342.21 76.0993C341.61 84.2993 343.41 95.2993 346.51 101.799C352.01 113.499 366.71 119.799 381.91 117.099C389.51 115.699 394.21 113.399 398.51 108.899C410.81 96.0993 411.51 66.0993 399.71 52.6993C391.91 43.7993 377.51 40.0993 364.81 43.5993ZM381.11 56.9893C387.91 59.5893 392.11 68.2893 392.11 79.5893C392.01 92.7893 387.61 100.989 379.51 103.189C366.11 106.789 356.91 95.6893 358.01 77.0893C358.51 68.0893 361.41 61.9893 366.71 58.3893C370.31 55.8993 376.71 55.2993 381.11 56.9893Z" fill="#238CB9"/>
<path d="M444.91 43.0999C428.71 46.4999 419.71 61.9999 421.11 84.0999C422.51 106.2 433.71 117.5 453.81 117.5C470.51 117.5 481.21 109.5 485.41 93.8999C487.21 86.9999 487.21 71.7999 485.31 65.4999C482.31 55.2999 474.41 46.4999 465.91 44.0999C460.61 42.4999 450.01 42.0999 444.91 43.0999ZM460.11 57.1999C468.01 61.2999 471.31 68.8999 470.61 81.9999C469.81 96.6999 464.51 103.6 453.61 103.6C446.81 103.6 443.51 101.5 439.91 95.0999C435.41 86.9999 436.01 68.8999 441.11 62.4999C445.61 56.6999 454.41 54.2999 460.11 57.1999Z" fill="#238CB9"/>
<path d="M727.18 3.4997C724.58 6.0997 723.78 7.6997 723.78 10.5997C723.78 13.4997 724.58 15.0997 727.18 17.6997C731.58 22.0997 735.48 22.1997 739.98 18.1997C742.78 15.6997 743.28 14.5997 743.28 10.5997C743.28 6.5997 742.78 5.4997 739.98 2.9997C735.51 -1.0103 731.61 -0.900304 727.18 3.4997Z" fill="black"/>
<path d="M816.71 4.99038C814.41 7.29038 813.81 8.79038 813.81 12.0904C813.81 23.7904 830.51 25.9904 833.41 14.6904C835.91 4.70038 824.01 -2.19962 816.71 4.99038Z" fill="black"/>
<path d="M628.81 70.0996V118.1H643.81V75.0996H688.81V118.2L696.11 117.9L703.31 117.6L703.61 69.7996L703.81 22.0996H688.81V60.0996H643.81V22.0996H628.81V70.0996Z" fill="black"/>
<path d="M725.81 81.5996V118.1H741.81V45.0996H725.81V81.5996Z" fill="black"/>
<path d="M857.31 46.9002L849.31 48.6002L849.01 84.3002L848.81 120.1H864.81V91.1002C864.81 57.8002 864.01 60.1002 875.01 60.1002C883.11 60.1002 887.11 62.4002 890.11 68.9002C892.11 73.2002 892.31 75.4002 892.61 96.9002L892.91 120.2L901.11 119.9L909.31 119.6V96.1002C909.31 69.8002 908.51 65.3002 902.61 56.5002C900.355 53.0469 897.164 50.3067 893.41 48.6002C888.01 45.9002 886.51 45.6002 876.41 45.4002C870.008 45.2163 863.604 45.7192 857.31 46.9002Z" fill="black"/>
<path d="M948.51 46.1992C940.31 48.0992 931.71 54.5993 928.11 61.4993C919.61 77.7992 922.61 104.399 934.11 114.699C939.41 119.599 943.51 121.099 951.31 121.099C958.21 121.099 963.41 119.499 965.71 116.799C968.51 113.399 969.01 114.999 968.61 124.899C968.21 136.199 966.41 140.499 960.81 143.399C956.31 145.799 943.01 145.199 934.31 142.299C931.11 141.099 928.01 140.499 927.61 140.699C927.21 140.899 926.81 144.299 926.81 148.099C926.81 156.299 926.71 156.199 938.81 158.699C948.71 160.699 963.21 160.199 969.01 157.699C978.01 153.799 982.91 146.199 984.81 133.399C985.31 129.699 985.81 108.999 985.81 87.3993V48.2992L983.11 47.6992C970.11 45.0992 955.91 44.3992 948.51 46.1992ZM967.61 60.9892C968.71 61.5892 968.91 65.1892 968.61 77.6892C968.31 92.3892 968.11 93.8893 965.81 97.8893C962.81 103.189 958.31 106.089 953.21 106.089C948.11 106.089 945.41 104.089 942.61 98.7893C940.81 95.2893 940.41 92.8892 940.41 84.5892C940.31 76.0892 940.71 73.8892 942.71 69.8892C946.01 63.0892 951.21 60.0892 959.81 60.0892C963.41 60.0992 966.91 60.4992 967.61 60.9892Z" fill="black"/>
<path d="M762.81 48.9898C761.21 52.0898 761.41 116.19 763.11 118.49C764.11 119.89 765.61 120.19 770.31 119.89L776.31 119.59L776.61 92.1898C776.71 73.9898 777.21 64.2898 777.91 63.3898C778.61 62.4898 782.21 62.0898 790.91 62.0898H802.81V55.1898C802.81 49.7898 802.41 48.1898 801.21 47.6898C800.31 47.3898 791.61 47.0898 781.81 47.0898C765.11 47.0998 763.81 47.1998 762.81 48.9898Z" fill="black"/>
<path d="M815.81 83.5996V120.1H831.81V47.0996H815.81V83.5996Z" fill="black"/>
<path d="M68.26 140.34C105.959 140.34 136.52 109.779 136.52 72.0803C136.52 34.3814 105.959 3.82031 68.26 3.82031C30.561 3.82031 0 34.3814 0 72.0803C0 109.779 30.561 140.34 68.26 140.34Z" fill="#75C059"/>
<path d="M16.0698 84.3693L35.4798 64.8693L52.4798 82.3393L99.4398 35.0893C100.411 34.1082 101.726 33.5447 103.106 33.5185C104.486 33.4924 105.822 34.0057 106.83 34.9493L118.78 46.1493C119.296 46.633 119.71 47.2152 119.998 47.8615C120.286 48.5079 120.442 49.2053 120.456 49.9127C120.47 50.6201 120.342 51.3231 120.08 51.9803C119.818 52.6375 119.427 53.2356 118.93 53.7393L57.6898 115.839C56.3845 117.153 54.6119 117.895 52.7602 117.905C50.9084 117.914 49.1284 117.189 47.8098 115.889L16.0698 84.3693Z" fill="white"/>
<path d="M106.48 87.4004H94.54V121.28H106.48V87.4004Z" fill="white"/>
<path d="M117.46 110.309V98.3691H83.58V110.309H117.46Z" fill="white"/>
</g>
<defs>
<clipPath id="clip0_4_7206">
<rect width="985.81" height="159.93" fill="white"/>
</clipPath>
</defs>
</svg>
